<?xml version="1.0" encoding="iso-8859-1"?>
<!-- Generator: Adobe Illustrator 19.0.0, SVG Export Plug-In . SVG Version: 6.00 Build 0)  -->
<svg xmlns="http://www.w3.org/2000/svg" xmlns:xlink="http://www.w3.org/1999/xlink" version="1.1" id="Layer_1" x="0px"
     y="0px" viewBox="0 0 451.529 451.529" style="enable-background:new 0 0 451.529 451.529;" xml:space="preserve"
     width="512" height="512">
<g>
	<g>
		<path style="fill:#333E48;"
              d="M367.98,374.108c-46.068,0-83.548-37.48-83.548-83.549c0-46.07,37.48-83.549,83.548-83.549    c46.069,0,83.549,37.479,83.549,83.549C451.529,336.628,414.05,374.108,367.98,374.108z M367.98,233.425    c-31.503,0-57.133,25.631-57.133,57.135s25.63,57.133,57.133,57.133c31.505,0,57.134-25.629,57.134-57.133    S399.485,233.425,367.98,233.425z"/>
        <path style="opacity:0.4;fill:#222222;"
              d="M367.98,233.425v-26.414c-46.068,0-83.548,37.479-83.548,83.549    c0,46.068,37.48,83.549,83.548,83.549v-26.416c-31.503,0-57.133-25.629-57.133-57.133S336.478,233.425,367.98,233.425z"/>
	</g>
    <g>
		<path style="fill:#333E48;"
              d="M83.549,374.108C37.479,374.108,0,336.628,0,290.559c0-46.07,37.479-83.549,83.549-83.549    c46.067,0,83.548,37.479,83.548,83.549C167.097,336.628,129.616,374.108,83.549,374.108z M83.549,233.425    c-31.505,0-57.134,25.631-57.134,57.135s25.629,57.133,57.134,57.133c31.503,0,57.133-25.629,57.133-57.133    S115.052,233.425,83.549,233.425z"/>
        <path style="opacity:0.4;fill:#222222;"
              d="M83.549,233.425v-26.414C37.479,207.011,0,244.489,0,290.559    c0,46.068,37.479,83.549,83.549,83.549v-26.416c-31.505,0-57.134-25.629-57.134-57.133S52.044,233.425,83.549,233.425z"/>
        <path style="opacity:0.4;fill:#222222;"
              d="M122.259,216.556l-13.721,22.637c6.028,2.945,11.458,6.928,16.072,11.701    l13.998-23.092C133.642,223.438,128.16,219.655,122.259,216.556z M140.632,292.542c-0.238,6.92-1.708,13.533-4.205,19.621    l27.42,1.408c1.807-6.289,2.896-12.875,3.164-19.672L140.632,292.542z"/>
	</g>
    <g>
		<path style="fill:#A4A9AD;"
              d="M152.268,187.1c-2.872,0-5.612-1.66-6.855-4.453l-18.248-41c-1.685-3.783,0.018-8.217,3.802-9.9    c3.783-1.686,8.217,0.018,9.901,3.801l18.248,41c1.685,3.785-0.018,8.219-3.802,9.902    C154.323,186.892,153.288,187.1,152.268,187.1z"/>
        <path style="opacity:0.3;fill:#222222;"
              d="M140.868,135.548c-1.685-3.783-6.118-5.486-9.901-3.801    c-3.784,1.684-5.486,6.117-3.802,9.9l5.859,13.164c4.396-1.115,9.603-2.428,14.753-3.738L140.868,135.548z"/>
        <path style="fill:#333E48;"
              d="M176.938,122.548c0.336-8.314-6.132-15.328-14.447-15.662l-48.265-1.949    c-12.27-0.496-22.616,9.049-23.112,21.318c-0.495,12.268,9.05,22.615,21.319,23.111c2.397,0.096,4.72-0.201,6.912-0.818    l0.001,0.008c6.932-1.885,38.026-9.523,46.412-12.051c0.052-0.018,0.101-0.033,0.15-0.049c0.421-0.127,0.799-0.244,1.087-0.344    l-0.001-0.004C172.587,134.087,176.684,128.854,176.938,122.548z"/>
        <path style="opacity:0.4;fill:#222222;"
              d="M176.938,122.548H91.6c-0.254,1.203-0.435,2.438-0.485,3.707    c-0.495,12.268,9.05,22.615,21.319,23.111c2.397,0.096,4.72-0.201,6.912-0.818l0.001,0.008    c6.932-1.885,38.026-9.523,46.412-12.051c0.052-0.018,0.101-0.033,0.15-0.049c0.421-0.127,0.799-0.244,1.087-0.344l-0.001-0.004    C172.587,134.087,176.684,128.854,176.938,122.548z"/>
	</g>
    <path style="fill:#FF5959;"
          d="M367.98,297.038c-3.113,0-6.021-1.953-7.091-5.061l-44.085-127.99l-7.31-50.646   c-0.592-4.1,2.252-7.902,6.352-8.494c4.091-0.592,7.902,2.25,8.494,6.352l7.109,49.244l43.622,126.65   c1.35,3.916-0.732,8.186-4.648,9.533C369.614,296.905,368.79,297.038,367.98,297.038z"/>
    <g>
		<path style="fill:#333E48;"
              d="M316.91,119.77c-1.449,0-2.913-0.42-4.202-1.295l-25.223-17.104    c-3.429-2.324-4.323-6.988-1.998-10.416c2.325-3.43,6.989-4.324,10.416-1.998l25.223,17.104c3.429,2.324,4.323,6.988,1.998,10.416    C321.674,118.616,319.313,119.77,316.91,119.77z"/>
        <path style="opacity:0.4;fill:#222222;"
              d="M295.903,88.958c-3.427-2.326-8.091-1.432-10.416,1.998    c-2.325,3.428-1.431,8.092,1.998,10.416l18.207,12.348c4.041-3.053,7.049-7.395,8.42-12.414L295.903,88.958z"/>
        <path style="fill:#333E48;"
              d="M309.438,95.167c0-9.803-7.943-17.746-17.744-17.746c-9.8,0-17.741,7.943-17.741,17.746    c0,9.799,7.941,17.74,17.741,17.74C301.494,112.907,309.438,104.966,309.438,95.167z"/>
        <circle style="fill:#D1D3D3;" cx="291.695" cy="95.167" r="6.444"/>
        <path style="opacity:0.4;fill:#222222;"
              d="M291.693,77.421c-9.8,0-17.741,7.943-17.741,17.746c0,9.799,7.941,17.74,17.741,17.74    V77.421z"/>
	</g>
    <path style="fill:#FF5959;"
          d="M328.496,165.249c-1.736-3.574-5.44-5.766-9.414-5.564l-167.878,8.539   c-0.066,0.004-0.129,0.016-0.196,0.025c-0.165,0.01-0.326,0.033-0.489,0.051c-0.27,0.035-0.539,0.072-0.806,0.129   c-0.145,0.029-0.288,0.066-0.431,0.102c-0.279,0.072-0.556,0.15-0.826,0.246c-0.128,0.045-0.251,0.092-0.376,0.143   c-0.277,0.107-0.55,0.229-0.815,0.365c-0.116,0.057-0.23,0.115-0.343,0.178c-0.262,0.145-0.514,0.301-0.762,0.471   c-0.109,0.072-0.218,0.145-0.325,0.221c-0.235,0.178-0.46,0.363-0.681,0.561c-0.104,0.092-0.21,0.178-0.31,0.275   c-0.211,0.201-0.406,0.42-0.599,0.641c-0.093,0.107-0.19,0.205-0.278,0.314c-0.202,0.254-0.385,0.525-0.563,0.797   c-0.053,0.086-0.116,0.158-0.168,0.242L75.078,285.425c-1.808,2.982-1.915,6.691-0.282,9.771c1.633,3.082,4.762,5.078,8.245,5.256   l124.808,6.416c0.17,0.008,0.341,0.012,0.51,0.012c0.386,0,0.768-0.025,1.147-0.07c0.128-0.016,0.251-0.041,0.376-0.06   c0.251-0.037,0.501-0.082,0.748-0.141c0.144-0.033,0.285-0.076,0.428-0.117c0.224-0.063,0.444-0.131,0.664-0.211   c0.145-0.051,0.285-0.107,0.428-0.168c0.211-0.086,0.419-0.182,0.625-0.285c0.136-0.066,0.271-0.135,0.402-0.209   c0.207-0.115,0.407-0.244,0.607-0.373c0.117-0.078,0.239-0.15,0.355-0.236c0.216-0.154,0.42-0.322,0.623-0.496   c0.09-0.074,0.182-0.142,0.268-0.221c0.276-0.252,0.539-0.517,0.788-0.801l0.023-0.027c0.003-0.004,0.007-0.008,0.011-0.012   l111.194-127.363C329.661,173.095,330.231,168.825,328.496,165.249z M100.611,281.52l50.05-82.572l41.601,87.281L100.611,281.52z    M210.811,279.102l-32.609-68.42l96.623-4.9L210.811,279.102z"/>
    <path style="fill:#FEDD3D;"
          d="M228.759,193.808c-3.975,0-7.291-3.123-7.485-7.137c-0.2-4.137,2.991-7.654,7.129-7.854   l53.316-2.582c4.126-0.189,7.653,2.992,7.854,7.129s-2.991,7.654-7.129,7.854l-53.316,2.582   C229.004,193.806,228.881,193.808,228.759,193.808z"/>
    <path style="opacity:0.3;fill:#222222;"
          d="M210.811,165.19l-59.607,3.033c-0.066,0.004-0.129,0.016-0.196,0.025   c-0.165,0.01-0.326,0.033-0.489,0.051c-0.27,0.035-0.539,0.072-0.806,0.129c-0.145,0.029-0.288,0.066-0.431,0.102   c-0.279,0.072-0.556,0.15-0.826,0.246c-0.128,0.045-0.251,0.092-0.376,0.143c-0.277,0.107-0.55,0.229-0.815,0.365   c-0.116,0.057-0.23,0.115-0.343,0.178c-0.262,0.145-0.514,0.301-0.762,0.471c-0.109,0.072-0.218,0.145-0.325,0.221   c-0.235,0.178-0.46,0.363-0.681,0.561c-0.104,0.092-0.21,0.178-0.31,0.275c-0.211,0.201-0.406,0.42-0.599,0.641   c-0.093,0.107-0.19,0.205-0.278,0.314c-0.202,0.254-0.385,0.525-0.563,0.797c-0.053,0.086-0.116,0.158-0.168,0.242L75.078,285.425   c-1.808,2.982-1.915,6.691-0.282,9.771c1.633,3.082,4.762,5.078,8.245,5.256l124.808,6.416c0.17,0.008,0.341,0.012,0.51,0.012   c0.386,0,0.768-0.025,1.147-0.07c0.128-0.016,0.251-0.041,0.376-0.06c0.251-0.037,0.501-0.082,0.748-0.141   c0.06-0.014,0.121-0.033,0.182-0.047v-27.459l-32.609-68.42l32.609-1.652V165.19z M192.262,286.229l-91.65-4.709l50.05-82.572   L192.262,286.229z"/>
    <g>
		<path style="fill:#A4A9AD;"
              d="M233.689,296.975c0-13.988-11.341-25.334-25.333-25.334c-13.99,0-25.333,11.346-25.333,25.334    c0,13.99,11.343,25.332,25.333,25.332C222.349,322.308,233.689,310.966,233.689,296.975z"/>
        <circle style="fill:#333E48;" cx="208.356" cy="296.975" r="13.519"/>
        <path style="opacity:0.2;fill:#222222;"
              d="M208.356,271.642c-13.99,0-25.333,11.346-25.333,25.334    c0,13.99,11.343,25.332,25.333,25.332V271.642z"/>
        <path style="fill:#A4A9AD;"
              d="M230.643,338.849c-2.483,0-4.906-0.438-6.334-2.689l-22.288-35.17    c-2.217-3.498-1.179-8.133,2.32-10.35c3.497-2.215,8.133-1.178,10.35,2.32l22.288,35.17c2.217,3.498,1.179,8.131-2.32,10.35    C233.414,339.268,232.017,338.849,230.643,338.849z"/>
        <path style="opacity:0.2;fill:#222222;"
              d="M236.979,328.13l-4.932-7.781H214.29l10.02,15.811    c1.428,2.252,3.851,2.689,6.334,2.689c1.373,0,2.771,0.42,4.016-0.369C238.158,336.261,239.196,331.628,236.979,328.13z"/>
        <rect x="211.658" y="324.645" style="fill:#FF5959;" width="37.972" height="15"/>
	</g>
</g>















</svg>
