<?xml version="1.0" encoding="utf-8"?>
<!-- Generator: Adobe Illustrator 16.0.0, SVG Export Plug-In . SVG Version: 6.00 Build 0)  -->
<!DOCTYPE svg PUBLIC "-//W3C//DTD SVG 1.1//EN" "http://www.w3.org/Graphics/SVG/1.1/DTD/svg11.dtd">
<svg version="1.1" id="Ebene_1" xmlns="http://www.w3.org/2000/svg" xmlns:xlink="http://www.w3.org/1999/xlink" x="0px"
     y="0px"
     width="459.296px" height="219.558px" viewBox="0 0 459.296 219.558" enable-background="new 0 0 459.296 219.558"
     xml:space="preserve">
<g>
	<g>
		<path fill-rule="evenodd" clip-rule="evenodd" fill="#ad1c02" d="M195.652,2.354c22.912,0,45.823,0,68.735,0
			c38.559,3.771,71.4,19.251,98.074,47.596c5.969,6.345,11.793,12.874,15.332,20.767c4.543,10.133,11.625,14.46,22.609,13.446
			c4.449-0.411,9.172-0.262,12.938,3.053c3.146,25.137,6.398,28.146,32.041,29.774c4.432,0.281,9.137-0.145,12.369,3.968
			c0.934,8.691,0.383,17.4,0.393,26.094c0.023,24.721-11.324,38.025-35.816,42.314c-4.076,0.714-8.184,0.99-12.314,1.003
			c-15.848,0.05-18.09-1.823-20.555-17.142c-4.65-28.916-23.365-44.367-52.303-43.183c-22.701,0.929-39.131,15.219-45.064,39.194
			c-5.232,21.139-5.232,21.181-27.346,21.201c-27.951,0.025-55.904,0.19-83.854-0.074c-16.025-0.152-17.57-1.826-19.494-17.981
			c-3.05-25.619-21.462-42.159-47.185-42.388c-26.715-0.239-45.674,15.886-49.194,41.836c-2.316,17.081-5.949,19.916-23.209,18.117
			c-22.926-2.391-33.212-11.348-38.615-33.628c0-11.915,0-23.828,0-35.742c3.146-3.139,7.2-3.284,11.281-3.583
			c26.18-1.925,29.37-4.894,32.105-29.615c1.338-1.29,2.978-2.698,4.722-2.458c19.637,2.712,27.559-10.278,37.807-24.126
			C114.331,26.718,148.967,7.048,191.97,3.768C193.382,3.659,194.594,3.27,195.652,2.354z"/>
        <path fill-rule="evenodd" clip-rule="evenodd" fill="#56565B" d="M104.921,219.558c-5.621-5.844-14.23-6.962-19.82-13.23
			c-10.18-11.415-13.636-24.108-9.801-38.853c12.365-0.745,18.682,9.894,27.815,15.125c13.273,7.601,13.862,8.024,21.948-5.347
			c3.521-5.824,6.92-11.741,11.2-17.024c2.351-2.901,4.507-7.578,9.697-3.835c13.79,22.794,5.01,49.851-19.18,59.565
			c-2.723,1.093-6.708-0.462-8.111,3.599C114.087,219.558,109.503,219.558,104.921,219.558z"/>
        <path fill-rule="evenodd" clip-rule="evenodd" fill="#545459" d="M360.639,210.942c-4.59,2.873-9.18,5.745-13.77,8.616
			c-4.582,0-9.166,0-13.748,0c-1.242-3.884-5.232-3.211-7.91-4.511c-29.813-14.455-33.111-49.798-6.408-70.046
			c3.166-1.365,5.137,0.535,6.846,2.69c1.74,2.194,2.588,4.94,2.455,7.627c-1.068,21.701,8.977,35.717,28.844,43.86
			C361.073,200.871,368.094,204.352,360.639,210.942z"/>
        <path fill-rule="evenodd" clip-rule="evenodd" fill="#000002" d="M3.193,117.83C15.911,92.168,25.205,86.061,47.84,88.504
			c3.448,20.597-6.169,32.181-26.913,32.323c-5.911,0.04-11.824-0.159-17.734-0.249C3.193,119.662,3.193,118.747,3.193,117.83z"/>
        <path fill-rule="evenodd" clip-rule="evenodd" fill="#3295c7" d="M295.485,90.133c-13.262-0.011-26.529-0.296-39.777,0.104
			c-7.17,0.216-9.795-2.563-9.652-9.566c0.275-13.712,0.018-27.435,0.107-41.153c0.029-4.601-0.514-9.084,7.188-7.984
			c34.375,4.911,63.607,18.879,85.08,46.901c2.053,2.68,5.627,5.979,4.016,9.577c-1.828,4.084-6.535,1.968-9.922,2.035
			C320.182,90.292,307.833,90.144,295.485,90.133z"/>
        <path fill-rule="evenodd" clip-rule="evenodd" fill="#3295c7" d="M164.862,90.131c-12.356,0.011-24.715,0.175-37.065-0.097
			c-3.336-0.074-8.035,2.191-9.805-2.146c-1.511-3.7,2.011-6.867,4.074-9.651c14.333-19.345,33.594-31.979,56.07-39.869
			c36.334-12.755,36.365-12.667,36.361,24.653c-0.004,27.114-0.004,27.113-27.671,27.101
			C179.505,90.118,172.184,90.121,164.862,90.131z"/>
        <path fill-rule="evenodd" clip-rule="evenodd" fill="#020302" d="M412.188,88.39c25.797-2.422,39.27,7.55,43.98,32.553
			c-5.883,0.043-11.766,0.181-17.646,0.104C418.196,120.775,408.233,108.385,412.188,88.39z"/>
        <path fill-rule="evenodd" clip-rule="evenodd" fill="#5D5E63" d="M360.639,210.942c1.332-2.619,2.141-5.22-1.158-6.997
			c-3.625-1.952-7.172-4.208-11.027-5.538c-18.328-6.32-23.648-20.486-23.59-38.106c0.02-5.876,1.111-12.244-6.061-15.299
			c21.303-12.896,44.965-7.297,56.457,13.356C385.983,177.629,379.479,201.02,360.639,210.942z"/>
        <path fill-rule="evenodd" clip-rule="evenodd" fill="#5D5E63" d="M145.96,156.394c-9.749,4.712-13.072,14.63-18.087,22.98
			c-9.671,16.101-10.275,16.487-25.338,6.384c-9.081-6.091-18.157-12.188-27.235-18.283c4.277-17.003,15.676-26.849,32.453-29.183
			C123.831,136.055,137.454,141.44,145.96,156.394z"/>
	</g>
</g>
</svg>
