<?xml version="1.0" encoding="iso-8859-1"?>
<!-- Generator: Adobe Illustrator 19.0.0, SVG Export Plug-In . SVG Version: 6.00 Build 0)  -->
<svg version="1.1" id="Capa_1" xmlns="http://www.w3.org/2000/svg" xmlns:xlink="http://www.w3.org/1999/xlink" x="0px"
     y="0px"
     viewBox="0 0 512.309 512.309" style="enable-background:new 0 0 512.309 512.309;" xml:space="preserve">
<path style="fill:#425A6B;" d="M159.704,489.909c0,0-20.267-4.267-22.4-1.067c-2.133,2.133-1.067,6.4,0,7.467
	c1.067,1.067,10.667,2.133,14.933,2.133c4.267,0,24.533,1.067,24.533,1.067l36.267-1.067c0,0,5.333,0,3.2-6.4l-4.267-1.067
	L159.704,489.909z"/>
    <path style="fill:#344A5E;" d="M188.504,496.309l-13.867-1.067c0,0-11.733,1.067-24.533,0c-7.467,0-11.733-3.2-12.8-4.267
	c0,0,0-1.067,1.067-1.067c2.133-2.133,22.4,1.067,22.4,1.067h25.6L188.504,496.309z"/>
    <path style="fill:#FFD15C;" d="M175.704,466.443c0,3.2,1.067,6.4,3.2,8.533c0,0,0,0,1.067,1.067c2.133,2.133,16,11.733,16,11.733
	s2.133,1.067,3.2,0c1.067,0,2.133,1.067,2.133,1.067s3.2-1.067,4.267,0c1.067,0,1.067,1.067,1.067,1.067s2.133-1.067,3.2-1.067
	c1.067,0,3.2,1.067,2.133,3.2c0,2.133-4.267,3.2-4.267,3.2s-4.267,1.067-8.533,0c0,0-1.067,0-2.133,0c0,0-9.6,2.133-16-2.133
	c-6.4-3.2-25.6-8.533-25.6-8.533s-13.867-4.267-16-8.533c-2.133-4.267,0-8.533,0-8.533s6.4-8.533,8.533-16
	c3.2-7.467,8.533-21.333,10.667-30.933c2.133-9.6,5.333-18.133,5.333-18.133s1.067-6.4,1.067-8.533
	c0-2.133,2.133-14.933,10.667-26.667c8.533-11.733,16-21.333,17.067-27.733l36.267,12.8c0,0-4.267,9.6-9.6,12.8
	c-5.333,3.2-10.667,13.867-10.667,13.867s-9.6,23.467-14.933,33.067c-5.333,9.6-17.067,24.533-18.133,35.2
	C175.704,455.776,175.704,461.109,175.704,466.443z"/>
    <path style="fill:#425A6B;" d="M193.837,483.509c-2.133-1.067-5.333-3.2-5.333-3.2s-1.067-1.067-3.2,0c-1.067,0-3.2,2.133-6.4,3.2
	c-5.333,3.2-9.6,5.333-13.867,8.533c4.267,1.067,8.533,1.067,12.8,0l7.467-4.267c0,0,9.6-6.4,12.8-2.133
	C195.971,486.709,195.971,484.576,193.837,483.509z"/>
    <path style="fill:#344A5E;" d="M298.371,503.776c0,0-2.133,8.533,4.267,8.533c6.4,0,28.8,0,28.8,0s14.933,0,22.4-4.267
	c7.467-4.267,13.867-9.6,13.867-9.6s7.467-6.4,8.533-12.8c0,0-2.133-5.333-5.333-4.267L298.371,503.776"/>
    <path style="fill:#FFD15C;" d="M291.971,353.376l8.533,3.2c0,0,2.133,12.8-2.133,19.2c0,0,0,11.733,4.267,25.6
	c4.267,13.867,7.467,42.667,7.467,42.667s3.2,27.733,20.267,36.267c0,0,12.8,3.2,20.267,1.067c0,0,5.333,0,7.467,0
	c2.133,0,5.333-1.067,7.467-2.133c2.133-1.067,5.333,1.067,4.267,3.2l0,0h-1.067c0,0,1.067,4.267-2.133,4.267
	c0,0-1.067,3.2-5.333,2.133c0,0,0,3.2-3.2,2.133c1.067,0,2.133,4.267-2.133,4.267c-2.133,0,0,0,0,0s-5.333,10.667-23.467,10.667
	c-17.067-1.067-23.467-1.067-23.467-1.067s-13.867,0-12.8-8.533c1.067-8.533-8.533-33.067-8.533-33.067l-13.867-30.933
	c0,0-9.6-12.8-10.667-37.333c0-24.533-1.067-30.933-2.133-35.2"/>
    <path style="fill:#425A6B;" d="M339.971,482.443c0,0,4.267,0,6.4,2.133c0,0-4.267,5.333-5.333,7.467c-1.067,2.133-10.667,12.8-16,16
	h11.733c0,0,7.467-6.4,10.667-10.667c0,0,6.4-9.6,9.6-10.667c0,0-3.2-2.133-4.267-3.2c0-1.067-4.267-1.067-4.267-1.067
	C346.371,481.376,343.171,481.376,339.971,482.443z"/>
    <path style="fill:#344A5E;" d="M275.971,244.576l3.2,21.333l-4.267,6.4c0,0,0,3.2,0,5.333s-3.2,4.267-3.2,4.267
	s-1.067,1.067-1.067,3.2c1.067,1.067,0,5.333-2.133,7.467c-2.133,2.133-2.133,4.267-2.133,5.333s-2.133,4.267-2.133,4.267
	l-26.667,59.733c-17.067-1.067-33.067-6.4-46.933-13.867l9.6-62.933c0,0-3.2-39.467,26.667-55.467
	C227.971,226.443,274.904,233.909,275.971,244.576z"/>
    <path style="fill:#425A6B;" d="M265.304,236.043l14.933,16v7.467c0,0,2.133,2.133,3.2,4.267c1.067,1.067-1.067,5.333-1.067,5.333
	s0,2.133,1.067,2.133c1.067,0,3.2,4.267,3.2,6.4c0,2.133,1.067,4.267,2.133,5.333c1.067,1.067,1.067,4.267,1.067,4.267
	l10.667,69.333c-10.667,10.667-24.533,12.8-41.6,10.667l-29.867-55.467c0,0-26.667-28.8-11.733-60.8
	C216.237,250.976,257.837,228.576,265.304,236.043z"/>
    <path style="fill:#FFD15C;" d="M331.437,232.843c4.267,0,4.267,4.267,4.267,4.267c2.133,9.6,16,16,16,16
	c0,1.067,1.067,3.2,1.067,3.2c0,1.067,1.067,2.133,1.067,2.133v2.133c0,0,0,2.133,2.133,2.133c1.067,0,2.133-2.133,2.133-2.133
	s0-3.2,0-5.333c0-2.133-1.067-4.267-1.067-4.267c0,2.133,3.2,4.267,3.2,4.267c0,1.067,1.067,4.267,1.067,4.267
	c0,1.067,1.067,3.2,1.067,3.2s0,2.133,2.133,2.133c2.133,0,2.133-3.2,2.133-3.2s0,1.067,2.133,2.133
	c2.133,0,1.067-4.267,1.067-4.267s0,1.067,2.133,1.067c2.133,0,2.133-4.267,2.133-4.267v-7.467l-5.333-6.4
	c-2.133-7.467-10.667-10.667-10.667-10.667c-8.533-1.067-13.867-7.467-13.867-7.467s-14.933-13.867-22.4-25.6
	c-6.4-11.733-16-22.4-16-22.4s-6.4-5.333-6.4-9.6s-6.4-19.2-6.4-19.2l-10.667,48C298.371,210.443,314.371,224.309,331.437,232.843z"
    />
    <path style="fill:#F5B54C;" d="M247.171,55.776c0,0,0,7.467-1.067,9.6c0,0,2.133,7.467-5.333,16l19.2,22.4l14.933-1.067v-6.4
	c0,0-1.067-4.267,2.133-7.467c1.067-2.133,2.133-3.2,3.2-4.267c1.067-1.067,1.067-2.133,1.067-3.2c0-1.067,0-2.133,0-3.2
	c0,0,0-2.133,2.133-2.133s12.8-2.133,12.8-2.133l-41.6-35.2C254.637,37.643,247.171,44.043,247.171,55.776z"/>
    <path style="fill:#FFD15C;" d="M287.704,10.976l2.133,3.2c0,0,8.533,16,8.533,17.067c1.067,1.067-1.067,3.2-1.067,3.2
	s-1.067,1.067,0,2.133c1.067,1.067,5.333,6.4,7.467,9.6c1.067,1.067,1.067,2.133,0,3.2c0,1.067-1.067,2.133-3.2,2.133
	c0,0-1.067,2.133,0,3.2c1.067,1.067,0,2.133-1.067,2.133c0,0,2.133,0,1.067,2.133c0,0-2.133,2.133-2.133,3.2
	c0,1.067,3.2,7.467-3.2,10.667c-2.133,1.067-4.267,1.067-6.4,0c-9.6-3.2-40.533-14.933-41.6-51.2L287.704,10.976z"/>
    <path style="fill:#425A6B;" d="M246.104,65.376c0,0,7.467-5.333,8.533-13.867c0,0-2.133-11.733,4.267-14.933
	c2.133-1.067,4.267-1.067,5.333-1.067c3.2,0,6.4,3.2,8.533,5.333l1.067,1.067h3.2c0,0-1.067-8.533,4.267-17.067
	c0,0-8.533-8.533,1.067-9.6c9.6,0,11.733-1.067,11.733-7.467c0,0-9.6-9.6-27.733-7.467c-8.533,1.067-16,4.267-21.333,10.667
	c-3.2,3.2-5.333,8.533-6.4,13.867c-1.067,9.6,1.067,18.133,3.2,23.467c1.067,3.2,2.133,5.333,3.2,8.533
	C245.037,60.043,247.171,63.243,246.104,65.376z"/>
    <path style="fill:#67C5B8;" d="M290.904,124.043c0-2.133-2.133-14.933-6.4-21.333c-3.2-6.4-10.667-8.533-10.667-8.533
	c0,3.2-2.133,3.2-2.133,3.2c-6.4,2.133-14.933-8.533-21.333-13.867c-3.2-3.2-7.467-4.267-10.667-4.267c-3.2,0-5.333,1.067-6.4,4.267
	l1.067,1.067c0,0-9.6,6.4-11.733,9.6c-2.133,4.267-6.4,7.467-6.4,7.467c-13.867,11.733-12.8,28.8-12.8,28.8l-4.267,13.867
	c0,0-1.067,5.333-1.067,11.733c0,0,18.133,98.133,19.2,94.933c1.067,0,9.6,1.067,16,2.133c7.467,1.067,21.333-1.067,33.067-2.133
	c11.733-1.067,14.933,8.533,14.933,8.533v-11.733c0,0,5.333-8.533,4.267-10.667c0-2.133,0-5.333,0-7.467
	c1.067-2.133,1.067-10.667,1.067-10.667s0-14.933,1.067-21.333c2.133-6.4,1.067-25.6,1.067-27.733s0-7.467,5.333-19.2
	C299.437,138.976,290.904,124.043,290.904,124.043z"/>
    <path style="fill:#48B9A5;" d="M262.104,152.843c-6.4-1.067-17.067,0-17.067,0l2.133-5.333c3.2-2.133,9.6-5.333,9.6-5.333
	c-6.4,0-9.6,3.2-9.6,3.2l6.4-11.733l-5.333,8.533v-5.333c0,0-1.067,3.2-1.067,6.4c0,4.267-7.467,18.133-7.467,18.133l-1.067,2.133
	c5.333-2.133,6.4-7.467,6.4-7.467S267.437,154.976,262.104,152.843z"/>
    <path style="fill:#FFD15C;" d="M237.571,162.443c0,14.933-13.867,25.6-13.867,25.6c-5.333,5.333-4.267,13.867-4.267,13.867
	s2.133,23.467-2.133,35.2c-4.267,12.8-3.2,37.333-3.2,37.333s2.133,2.133,3.2,5.333c1.067,3.2,2.133,9.6,1.067,14.933
	c0,4.267-2.133,6.4-2.133,6.4v5.333c-2.133,0-3.2-2.133-3.2-3.2l1.067,6.4l-3.2,5.333c0,0-2.133,2.133-4.267,1.067
	c-2.133-1.067-1.067-3.2-1.067-3.2l3.2-5.333c0,0,1.067-5.333,0-5.333c0-1.067-1.067,0-1.067,0v7.467l-1.067,1.067
	c-1.067,1.067-2.133,4.267-5.333,3.2c-3.2-2.133,0-5.333,0-5.333s1.067-6.4,1.067-7.467c0-1.067-1.067,0-1.067,0l-1.067,4.267
	c0,0-1.067,1.067-1.067,2.133c-1.067,1.067-2.133,2.133-3.2,1.067c-2.133-1.067,0-5.333,0-5.333l2.133-5.333h-1.067l-2.133,4.267
	v2.133c0,0,0,2.133-3.2,2.133c-3.2-1.067-2.133-4.267-2.133-4.267l1.067-5.333c-1.067-12.8,4.267-22.4,4.267-22.4s3.2,0-1.067-16
	s-2.133-43.733-2.133-43.733s3.2-22.4,2.133-24.533c-1.067-3.2,1.067-7.467,1.067-7.467s2.133-4.267,1.067-12.8
	c-1.067-8.533,1.067-23.467,1.067-23.467C208.771,153.909,222.637,159.243,237.571,162.443z"/>
    <path style="fill:#FFFFFF;" d="M280.237,97.376c-3.2-2.133-5.333-3.2-5.333-3.2c0,3.2-2.133,3.2-2.133,3.2
	c-6.4,2.133-14.933-8.533-21.333-13.867c-3.2-3.2-7.467-4.267-10.667-4.267c-3.2,0-5.333,1.067-6.4,4.267v1.067
	c4.267,0,11.733,1.067,13.867,3.2l1.067,1.067c6.4,6.4,14.933,14.933,22.4,14.933c1.067,0,2.133,0,3.2,0h1.067
	C275.971,102.709,279.171,100.576,280.237,97.376z"/>
    <g>
</g>
    <g>
</g>
    <g>
</g>
    <g>
</g>
    <g>
</g>
    <g>
</g>
    <g>
</g>
    <g>
</g>
    <g>
</g>
    <g>
</g>
    <g>
</g>
    <g>
</g>
    <g>
</g>
    <g>
</g>
    <g>
</g>
</svg>
