<?xml version="1.0" encoding="iso-8859-1"?>
<!-- Generator: Adobe Illustrator 19.0.0, SVG Export Plug-In . SVG Version: 6.00 Build 0)  -->
<svg version="1.1" id="Capa_1" xmlns="http://www.w3.org/2000/svg" xmlns:xlink="http://www.w3.org/1999/xlink" x="0px"
     y="0px"
     viewBox="0 0 512 512" style="enable-background:new 0 0 512 512;" xml:space="preserve">
<g>
	<path style="fill:#58565C;" d="M213.336,409.599l-57.946,99.334c-1.107,1.899-3.141,3.067-5.339,3.067h-19.824
		c-4.771,0-7.743-5.175-5.339-9.295L179.2,409.6v-5.254h34.135v5.253H213.336z"/>
    <path style="fill:#58565C;" d="M332.801,409.597l54.309,93.106c2.403,4.121-0.569,9.296-5.34,9.295l-19.821-0.003
		c-2.198,0-4.231-1.168-5.338-3.067l-57.944-99.337v-5.245h34.134V409.597z"/>
</g>
    <g>
	<path style="fill:#49484D;" d="M182.273,459.993l147.461-0.001c4.268,0,7.726-3.459,7.726-7.726c0-4.268-3.459-7.726-7.726-7.726
		l-147.461,0.001c-4.267,0-7.726,3.459-7.726,7.726C174.547,456.534,178.006,459.993,182.273,459.993z"/>
        <path style="fill:#49484D;" d="M351.465,478.674l-190.924,0.001c-4.267,0-7.726,3.458-7.726,7.726c0,4.268,3.459,7.726,7.726,7.726
		l190.924-0.001c4.268,0,7.726-3.459,7.726-7.726C359.191,482.132,355.731,478.674,351.465,478.674z"/>
</g>
    <path style="fill:#00BCE7;" d="M119.466,17.065c-18.851,0-34.133,15.282-34.133,34.133V392.53c0,18.851,15.282,34.134,34.134,34.134
	h27.954c3.414,0,6.181-2.767,6.181-6.181V409.6h204.8v10.883c0,3.414,2.767,6.181,6.181,6.181h27.951
	c18.851,0,34.134-15.282,34.134-34.134V51.198c0-18.851-15.282-34.134-34.134-34.134H119.466V17.065z"/>
    <g>
	<path style="fill:#0094D4;" d="M132.998,426.664h14.423c3.414,0,6.181-2.767,6.181-6.181V409.6h-20.604V426.664z"/>
        <path style="fill:#0094D4;" d="M392.533,17.065h-20.604c18.851,0,34.134,15.282,34.134,34.133V392.53
		c0,18.851-15.282,34.134-34.134,34.134h20.604c18.851,0,34.134-15.283,34.134-34.134V51.198
		C426.667,32.347,411.385,17.065,392.533,17.065z"/>
</g>
    <rect x="85.33" y="85.33" style="fill:#58565C;" width="341.33" height="204.8"/>
    <path style="fill:#B6E3EE;" d="M394.886,264.533H117.115c-3.414,0-6.181-2.767-6.181-6.181V117.114c0-3.414,2.767-6.181,6.181-6.181
	h277.771c3.414,0,6.181,2.767,6.181,6.181v141.238C401.067,261.766,398.3,264.533,394.886,264.533z"/>
    <g>
	<path style="fill:#FFD151;" d="M170.668,349.867c9.426,0,17.068-7.642,17.068-17.068s-7.642-17.068-17.068-17.068h-34.134
		c-9.426,0-17.068,7.642-17.068,17.068s7.642,17.068,17.068,17.068H170.668z"/>
        <path style="fill:#FFD151;" d="M375.468,349.867c9.426,0,17.068-7.642,17.068-17.068s-7.642-17.068-17.068-17.068h-34.133
		c-9.426,0-17.068,7.642-17.068,17.068s7.642,17.068,17.068,17.068H375.468z"/>
</g>
    <rect x="406.066" y="85.33" style="fill:#49484D;" width="20.604" height="204.8"/>
    <path style="fill:#FFD151;" d="M200.089,0h111.825c2.342,0,4.481,1.323,5.529,3.416l6.172,12.343
	c0.43,0.858,0.653,1.805,0.653,2.765v26.493c0,3.414-2.767,6.181-6.181,6.181H193.916c-3.414,0-6.181-2.767-6.181-6.181V18.526
	c0-0.96,0.224-1.906,0.652-2.764l6.173-12.345C195.608,1.323,197.748,0,200.089,0z"/>
    <path style="fill:#F79B4A;" d="M323.615,15.76l-6.172-12.343C316.395,1.323,314.256,0,311.914,0H291.31
	c2.342,0,4.481,1.323,5.529,3.416l6.172,12.343c0.43,0.858,0.653,1.805,0.653,2.764v26.493c0,3.414-2.767,6.181-6.181,6.181h20.604
	c3.414,0,6.181-2.767,6.181-6.181V18.524C324.267,17.565,324.043,16.618,323.615,15.76z"/>
    <path style="fill:#00BCE7;" d="M256,24.791c4.268,0,7.726-3.458,7.726-7.726V0l0,0h-15.453l0,0v17.064
	C248.274,21.332,251.733,24.791,256,24.791z"/>
    <path style="fill:#96D2E0;" d="M394.886,110.933h-20.604c3.414,0,6.181,2.767,6.181,6.181v141.238c0,3.414-2.767,6.181-6.181,6.181
	h20.604c3.414,0,6.181-2.767,6.181-6.181V117.114C401.067,113.7,398.3,110.933,394.886,110.933z"/>
    <g>
	<path style="fill:#F79B4A;" d="M375.468,315.731h-20.607c9.426,0,17.068,7.642,17.068,17.068s-7.642,17.068-17.068,17.068h20.607
		c9.426,0,17.068-7.642,17.068-17.068C392.536,323.373,384.894,315.731,375.468,315.731z"/>
        <path style="fill:#F79B4A;" d="M170.304,315.731h-20.607c9.426,0,17.068,7.642,17.068,17.068s-7.642,17.068-17.068,17.068h20.607
		c9.426,0,17.068-7.642,17.068-17.068C187.372,323.373,179.731,315.731,170.304,315.731z"/>
</g>
    <path style="fill:#0076B5;" d="M426.667,383.192V367.74l0,0H311.335l-14.774-22.159c-1.433-2.15-3.845-3.441-6.428-3.441h-68.266
	c-2.584,0-4.996,1.291-6.428,3.441l-14.773,22.159l-115.332-0.002v15.453l119.467,0.002c2.584,0,4.995-1.291,6.428-3.441
	l14.773-22.159h59.997l14.774,22.159c1.433,2.15,3.845,3.441,6.428,3.441H426.667L426.667,383.192z"/>
    <g>
</g>
    <g>
</g>
    <g>
</g>
    <g>
</g>
    <g>
</g>
    <g>
</g>
    <g>
</g>
    <g>
</g>
    <g>
</g>
    <g>
</g>
    <g>
</g>
    <g>
</g>
    <g>
</g>
    <g>
</g>
    <g>
</g>
</svg>
