<svg height="512pt" viewBox="0 0 512.00024 512" width="512pt" xmlns="http://www.w3.org/2000/svg">
    <path d="m510.414062 490.289062-30-60c-3.734374-7.414062-12.714843-10.386718-20.125-6.710937h-121c-7.414062 3.707031-10.414062 12.714844-6.710937 20.128906l30 60c2.550781 5.082031 7.734375 8.289063 13.417969 8.289063h121c5.199218 0 10.019531-2.695313 12.757812-7.117188 2.738282-4.425781 2.988282-9.949218.660156-14.589844zm0 0"
          fill="#4a696f"/>
    <path d="m419.496094 68.402344-30-60c-2.699219-5.101563-7.800782-8.402344-13.5-8.402344h-60c-5.699219 0-10.796875 3.300781-13.5 8.402344l-30 60c-.074219.328125-1.195313 4.734375-1.195313 4.796875l47.039063 28.988281h55.78125l46.574218-28.988281zm0 0"
          fill="#4a696f"/>
    <path d="m211 75v75l-30 30h-147.300781l-33.699219-30v-60l35.5-30h160.5c8.398438 0 15 6.597656 15 15zm0 0"
          fill="#e63950"/>
    <path d="m181 180h-75v-120h90c8.398438 0 15 6.597656 15 15v75zm0 0" fill="#cc2e43"/>
    <path d="m136 60h-60c-8.402344 0-15 6.597656-15 15v90c0 8.398438 6.597656 15 15 15h60c8.398438 0 15-6.601562 15-15v-90c0-8.402344-6.601562-15-15-15zm0 0"
          fill="#a8ebfa"/>
    <path d="m136 180h-30v-120h30c8.398438 0 15 6.597656 15 15v90c0 8.398438-6.601562 15-15 15zm0 0" fill="#76e2f8"/>
    <path d="m196 0h-181c-8.402344 0-15 6.597656-15 15v75h196c24.898438 0 45-20.097656 45-45s-20.101562-45-45-45zm0 0"
          fill="#3e5959"/>
    <path d="m241 45c0 24.902344-20.101562 45-45 45h-90v-90h90c24.898438 0 45 20.101562 45 45zm0 0" fill="#384949"/>
    <path d="m271.296875 73.199219c-.671875 5.390625 8.628906 30.925781 10.5 36.597656l20.101563 60c1.800781 6 7.5 10.203125 14.097656 10.203125h60c6.597656 0 12.300781-4.203125 14.097656-10.203125l18.601562-56.097656 11.398438-33.902344c.902344-2.097656.902344-4.195313.601562-6.597656zm0 0"
          fill="#384949"/>
    <path d="m211 150v209.996094h-163.800781l-47.199219-30v-179.996094zm0 0" fill="#e63950"/>
    <path d="m480.996094 240c0-49.707031-40.292969-90-90-90h-209.996094v179.996094l58.125 45.0625 131.246094-1.9375 20.625-43.125c49.707031 0 90-40.292969 90-89.996094zm0 0"
          fill="#ae2538"/>
    <path d="m466.996094 329.996094h-466.996094v107c0 8.402344 6.597656 15 15 15h481.996094c8.402344 0 15-6.597656 15-15v-61c0-24.898438-20.097656-46-45-46zm0 0"
          fill="#384949"/>
    <path d="m106 150h105v209.996094h-105zm0 0" fill="#cc2e43"/>
    <path d="m511.996094 375.996094v61c0 8.402344-6.597656 15-15 15h-390.996094v-122h360.996094c24.902344 0 45 21.101562 45 46zm0 0"
          fill="#293939"/>
    <g fill="#384949">
        <path d="m390.996094 269.996094c0 8.292968-6.707032 15-15 15h-120c-8.289063 0-14.996094-6.707032-14.996094-15 0-8.289063 6.707031-14.996094 14.996094-14.996094h120c8.292968 0 15 6.707031 15 14.996094zm0 0"/>
        <path d="m390.996094 210c0 8.289062-6.707032 15-15 15h-120c-8.289063 0-14.996094-6.710938-14.996094-15 0-8.292969 6.707031-15 14.996094-15h120c8.292968 0 15 6.707031 15 15zm0 0"/>
        <path d="m255.996094 511.996094c-33.089844 0-59.996094-26.910156-59.996094-60s26.90625-60 59.996094-60c33.09375 0 60 26.910156 60 60s-26.90625 60-60 60zm0 0"/>
    </g>
    <path d="m255.996094 481.996094c-16.535156 0-29.996094-13.460938-29.996094-30 0-16.539063 13.460938-30 29.996094-30 16.539062 0 30 13.460937 30 30 0 16.539062-13.460938 30-30 30zm0 0"
          fill="#c6e2e7"/>
    <path d="m106 391.996094c-33 0-60 27-60 60s27 60 60 60c32.996094 0 60-27 60-60s-27.003906-60-60-60zm0 0"
          fill="#4a696f"/>
    <path d="m166 451.996094c0 33-27.003906 60-60 60v-120c32.996094 0 60 27 60 60zm0 0" fill="#384949"/>
    <path d="m136 451.996094c0 16.5-13.5 30-30 30s-30-13.5-30-30 13.5-30 30-30 30 13.5 30 30zm0 0" fill="#deecf1"/>
    <path d="m136 451.996094c0 16.5-13.5 30-30 30v-60c16.5 0 30 13.5 30 30zm0 0" fill="#c6e2e7"/>
</svg>