<?xml version="1.0" encoding="iso-8859-1"?>
<!-- Generator: Adobe Illustrator 19.0.0, SVG Export Plug-In . SVG Version: 6.00 Build 0)  -->
<svg version="1.1" id="Capa_1" xmlns="http://www.w3.org/2000/svg" xmlns:xlink="http://www.w3.org/1999/xlink" x="0px"
     y="0px"
     viewBox="0 0 512.479 512.479" style="enable-background:new 0 0 512.479 512.479;" xml:space="preserve">
<path style="fill:#344A5E;" d="M197.692,229.813l-3.2,2.133c0,0-17.067,13.867,0,51.2c0,0,4.267,35.2-6.4,64
	c0,0-7.467,20.267-10.667,25.6s-16,30.933-22.4,55.467c-6.4,24.533-5.333,19.2-5.333,19.2s-4.267,7.467-2.133,13.867l-6.4,17.067
	c0,0,4.267,5.333,14.933,5.333c0,0,14.933-2.133,16-1.067c0,0,0-5.333,0-8.533c-1.067-2.133,1.067-3.2,1.067-3.2
	s1.067-1.067-1.067-6.4c0,0,5.333-21.333,9.6-28.8c3.2-7.467,21.333-46.933,21.333-46.933s17.067-23.467,22.4-39.467
	c5.333-16,14.933-39.467,14.933-39.467L197.692,229.813z"/>
    <path style="fill:#425A6B;" d="M269.158,224.479c0,0,1.067,11.733-2.133,14.933c0,0,0,2.133,2.133,3.2
	c2.133,1.067,2.133,7.467,2.133,7.467l12.8,41.6l9.6,44.8c0,0,10.667,25.6,8.533,37.333l11.733,57.6c0,0,3.2,25.6,12.8,37.333
	l5.333,7.467c0,0-9.6,17.067-27.733,14.933c0,0-4.267-7.467-3.2-10.667c0,0,1.067-1.067-1.067-2.133c0,0-6.4-17.067-8.533-24.533
	l-12.8-30.933c0,0-5.333-18.133-6.4-32c0,0-2.133-4.267-1.067-5.333c1.067-2.133-2.133-4.267-2.133-4.267s-1.067-3.2,0-4.267
	c1.067-1.067-2.133-2.133-2.133-2.133s-17.067-45.867-32-65.067c-14.933-19.2-27.733-33.067-27.733-33.067s-28.8-20.267-9.6-51.2
	L269.158,224.479z"/>
    <path style="fill:#F5B54C;" d="M206.225,83.679c0,0,4.267-17.067,3.2-23.467c-1.067-6.4-3.2-21.333-3.2-21.333l14.933-3.2
	l28.8,24.533v11.733c0,0-8.533-2.133-10.667,2.133c-2.133,4.267-5.333,11.733-5.333,14.933L206.225,83.679z"/>
    <path style="fill:#FFD15C;" d="M251.025,13.279c0,0,5.333,4.267,6.4,18.133c0,0-1.067,4.267,0,5.333
	c1.067,2.133,5.333,9.6,5.333,9.6s0,3.2-3.2,3.2c0,0-2.133,0-2.133,2.133s0,2.133,0,2.133s0,2.133-2.133,2.133
	c0,0,2.133,1.067,2.133,2.133c0,0-3.2,3.2-2.133,5.333c1.067,2.133,0,10.667-7.467,9.6c-8.533-1.067-37.333-23.467-37.333-46.933
	C210.492,25.013,231.825-6.987,251.025,13.279z"/>
    <g>
	<path style="fill:#425A6B;" d="M254.225,11.146c0,0-10.667-13.867-32-10.667s-25.6,17.067-25.6,17.067s-4.267,12.8-3.2,20.267
		s2.133,4.267,2.133,4.267c1.067-1.067,3.2,0,3.2,2.133c1.067,1.067,1.067,3.2,0,4.267c0,1.067-1.067,3.2-1.067,4.267
		c0,3.2,1.067,6.4,4.267,7.467c1.067,1.067,2.133,1.067,3.2,2.133c0,0,1.067,1.067,1.067,2.133c2.133,0,3.2,0,5.333-1.067
		c3.2-2.133,4.267-6.4,3.2-9.6c0-1.067-1.067-2.133-1.067-4.267c-1.067-3.2-1.067-7.467,2.133-10.667
		c2.133-2.133,4.267-2.133,7.467-2.133v-5.333h11.733c1.067-1.067,2.133-1.067,2.133-1.067c2.133,0,5.333-2.133,6.4-4.267
		c2.133-1.067,3.2-3.2,2.133-5.333c0-1.067,0-3.2,1.067-5.333c1.067-1.067,2.133-1.067,3.2-1.067c1.067,0,2.133,2.133,3.2,1.067
		c1.067,0,1.067-1.067,1.067-2.133C255.292,13.279,254.225,12.213,254.225,11.146z"/>
        <path style="fill:#425A6B;" d="M240.358,29.279c-2.133,1.067-5.333,3.2-6.4,5.333c-1.067,2.133-2.133,5.333-1.067,8.533
		c-1.067-2.133-1.067-5.333,0-7.467c-2.133,4.267-2.133,8.533,0,11.733c-2.133-2.133-1.067-5.333-3.2-7.467
		c-2.133-2.133-4.267-3.2-7.467-4.267c-1.067,0-3.2,0-4.267,1.067c-1.067,0-1.067,1.067-2.133,1.067
		c-1.067,0-2.133-1.067-2.133-2.133s0-2.133,0-3.2c1.067-4.267,4.267-7.467,7.467-9.6c3.2-1.067,7.467-2.133,11.733-1.067
		c2.133,1.067,4.267,2.133,5.333,3.2"/>
</g>
    <g>
	<path style="fill:#FFD15C;" d="M214.758,43.146c0-1.067-1.067-2.133-1.067-4.267s1.067-3.2,3.2-4.267c1.067,0,2.133-1.067,3.2,0
		c2.133,0,4.267,1.067,5.333,3.2c1.067,2.133,3.2,5.333,3.2,7.467c0,3.2,2.133,7.467,0,8.533c-2.133,1.067-3.2,1.067-5.333,0
		s-6.4-6.4-6.4-6.4C216.892,47.413,215.825,44.213,214.758,43.146z"/>
        <path style="fill:#FFD15C;" d="M325.692,107.146c0,0,0-1.067-1.067-3.2c-1.067-1.067-7.467,1.067-7.467,1.067v-1.067
		c2.133-2.133,1.067-5.333,1.067-5.333c0-1.067-1.067-1.067-1.067-1.067l-3.2,4.267c-3.2,1.067-3.2,2.133-3.2,2.133l-2.133,6.4
		c0,1.067-1.067,2.133-1.067,2.133v14.933c-2.133,5.333-18.133,19.2-18.133,19.2c-18.133,17.067-29.867,14.933-29.867,14.933
		l5.333,32c0,0,11.733-8.533,17.067-13.867s6.4-4.267,19.2-17.067c11.733-13.867,14.933-18.133,14.933-18.133s4.267-6.4,8.533-8.533
		c3.2-1.067,8.533-8.533,10.667-10.667c1.067-1.067,1.067-1.067,1.067-2.133s0-2.133-1.067-2.133c0,0,1.067-6.4-3.2-5.333
		c0,0,2.133-3.2-2.133-5.333C328.892,111.413,328.892,107.146,325.692,107.146"/>
</g>
    <path style="fill:#E8EAE8;" d="M196.625,78.346c0-1.067,1.067-2.133,2.133-2.133c2.133-1.067,6.4-2.133,13.867,0
	c10.667,3.2,20.267,11.733,20.267,11.733s6.4,6.4,10.667,7.467s13.867,23.467,13.867,23.467s12.8,9.6,9.6,26.667
	c0,0,0,14.933,2.133,19.2c2.133,4.267,2.133,23.467,2.133,23.467s3.2,17.067,2.133,25.6c-1.067,9.6,1.067,16,1.067,16
	s-25.6,3.2-34.133,8.533l-2.133-11.733v8.533c0,0-27.733,1.067-39.467-9.6c0,0,4.267-12.8,7.467-13.867c0,0-3.2-5.333,2.133-9.6
	c0,0,0-20.267-5.333-29.867c-5.333-9.6-10.667-38.4-10.667-38.4s-3.2-10.667-2.133-16c1.067-5.333,4.267-18.133,4.267-20.267
	c1.067-2.133,3.2-6.4,3.2-6.4l2.133-5.333C199.825,85.813,195.558,81.546,196.625,78.346z"/>
    <g>
	<path style="fill:#425A6B;" d="M197.692,39.946c-4.267,5.333-5.333,11.733-2.133,18.133c2.133,4.267,5.333,8.533,8.533,11.733
		c3.2,4.267,5.333,8.533,5.333,13.867c-1.067,4.267-3.2,7.467-5.333,10.667c-2.133,3.2-3.2,7.467-1.067,11.733
		c-2.133-4.267-3.2-9.6-1.067-14.933c-8.533,14.933-10.667,34.133-6.4,51.2c1.067,3.2,2.133,6.4,2.133,9.6c0,3.2,0,6.4-2.133,9.6
		c-8.533-4.267-13.867-13.867-13.867-22.4c0,2.133-1.067,4.267-1.067,6.4c-1.067-1.067-1.067-4.267-1.067-5.333
		c0-2.133,1.067-4.267,1.067-6.4c0-3.2-2.133-5.333-3.2-7.467c-1.067-3.2,0-7.467,0-11.733c1.067-4.267,1.067-7.467-1.067-10.667
		c0,4.267-1.067,7.467-2.133,11.733c-1.067,4.267-1.067,8.533,0,11.733c-2.133-3.2-2.133-7.467-2.133-10.667
		c0-2.133,1.067-5.333,1.067-7.467c1.067-6.4,3.2-11.733,4.267-18.133c2.133-10.667-2.133-22.4,0-32
		c1.067-4.267,3.2-8.533,5.333-11.733c2.133-3.2,7.467-6.4,11.733-6.4"/>
        <path style="fill:#425A6B;" d="M223.292,139.146c0,0-2.133,2.133-3.2,2.133l-27.733-8.533c0,0,0-12.8,11.733-13.867
		c12.8-1.067,22.4,3.2,22.4,3.2S228.625,133.813,223.292,139.146z"/>
</g>
    <path style="fill:#F5B54C;" d="M226.492,129.546l-9.6,18.133c0,0-9.6,26.667-11.733,29.867c-2.133,3.2-5.333,14.933-5.333,14.933
	s-2.133,25.6-4.267,33.067c-3.2,9.6-5.333,20.267-5.333,20.267l-1.067,10.667c0,0-2.133,10.667,0,14.933s1.067,12.8,1.067,12.8
	s-1.067,6.4-1.067,8.533l-2.133,4.267c0,0-1.067,4.267-1.067,5.333c0,0-3.2,0-3.2-3.2c0,0-1.067,4.267-4.267,3.2
	c0,0-2.133-1.067-2.133-3.2c0,0-1.067,2.133-4.267,2.133c0,0-2.133-1.067-2.133-4.267c0,0-1.067,2.133-3.2,1.067
	c-2.133-1.067-1.067-5.333-1.067-5.333v-1.067c0,0-1.067,2.133-3.2,1.067s-1.067-5.333-1.067-5.333l2.133-8.533
	c0,0,3.2-8.533,5.333-11.733c2.133-3.2,4.267-9.6,4.267-9.6s1.067-6.4,2.133-18.133c1.067-11.733,6.4-45.867,6.4-45.867
	s2.133-7.467,3.2-10.667l3.2-18.133l6.4-30.933c0,0,2.133-12.8,9.6-11.733C203.025,122.079,216.892,118.879,226.492,129.546z"/>
    <path style="fill:#F3F3F3;" d="M192.358,131.679c0,0,1.067-9.6,10.667-10.667c9.6-1.067,17.067,2.133,19.2,4.267
	c2.133,1.067,7.467,8.533-2.133,14.933c0,0,8.533-1.067,10.667-14.933c2.133-13.867,2.133-24.533-7.467-30.933
	c-5.333-3.2-10.667-2.133-13.867-1.067c-4.267,2.133-7.467,5.333-9.6,8.533C195.558,108.213,190.225,119.946,192.358,131.679z"/>
    <path style="fill:#56BFEB;" d="M304.358,505.013c0,0-2.133,7.467,4.267,7.467c6.4,0,12.8,0,13.867-1.067
	c1.067,0,17.067-5.333,25.6-7.467c6.4-2.133,11.733-4.267,17.067-7.467c3.2-2.133,6.4-4.267,8.533-6.4
	c6.4-7.467,4.267-9.6,2.133-11.733l-22.4,8.533L304.358,505.013z"/>
    <path style="fill:#E8EAE8;" d="M304.358,490.079c0,0,8.533,3.2,14.933,0c6.4-3.2,9.6-11.733,9.6-14.933c0,0,19.2,5.333,29.867,3.2
	c11.733-2.133,14.933-1.067,16,0c0,0,1.067,7.467-12.8,13.867c-13.867,6.4-35.2,14.933-45.867,16c-9.6,1.067-12.8-2.133-12.8-2.133
	C304.358,500.746,303.292,495.413,304.358,490.079z"/>
    <path style="fill:#56BFEB;" d="M136.892,490.079c0,0-5.333,5.333,0,8.533c5.333,3.2,11.733,5.333,12.8,5.333s17.067,3.2,25.6,5.333
	c6.4,1.067,11.733,2.133,18.133,1.067c3.2,0,7.467-1.067,10.667-2.133c8.533-3.2,8.533-6.4,7.467-8.533l-23.467-3.2L136.892,490.079
	z"/>
    <path style="fill:#E8EAE8;" d="M143.292,477.279c0,0,6.4,7.467,12.8,6.4c7.467,0,13.867-6.4,16-8.533c0,0,13.867,13.867,25.6,17.067
	c10.667,3.2,13.867,5.333,14.933,7.467c0,0-2.133,6.4-18.133,5.333c-14.933-1.067-38.4-4.267-48-7.467
	c-9.6-4.267-9.6-7.467-9.6-7.467C139.025,485.813,141.158,481.546,143.292,477.279z"/>
    <path style="fill:#F26F5A;" d="M191.292,38.879l3.2,5.333c2.133,0,3.2,0,3.2-2.133l-4.267-5.333
	C192.358,36.746,191.292,37.813,191.292,38.879z"/>
    <g>
</g>
    <g>
</g>
    <g>
</g>
    <g>
</g>
    <g>
</g>
    <g>
</g>
    <g>
</g>
    <g>
</g>
    <g>
</g>
    <g>
</g>
    <g>
</g>
    <g>
</g>
    <g>
</g>
    <g>
</g>
    <g>
</g>
</svg>
