<svg height="480pt" viewBox="-32 0 480 480.00001" width="480pt" xmlns="http://www.w3.org/2000/svg">
    <path d="m301.601562 48.878906c22.132813 23.605469 34.4375 54.761719 34.398438 87.121094v14.160156c-4.378906-3.976562-10.085938-6.171875-16-6.160156h-8v-16c.035156-20.863281-6.238281-41.25-18-58.480469-5.984375 20.429688-24.714844 34.46875-46 34.480469h-80c-21.296875.027344-40.050781-14.03125-46-34.480469-11.761719 17.230469-18.035156 37.617188-18 58.480469v16h-8c-5.914062-.011719-11.621094 2.183594-16 6.160156v-14.160156c-.011719-36.304688 15.4375-70.898438 42.480469-95.121094 2.289062-7.109375 6.269531-13.5625 11.597656-18.800781 8.964844-9.042969 21.1875-14.117187 33.921875-14.078125h80c20.679688-.007812 39.03125 13.246094 45.519531 32.878906 2.800781 2.5625 5.519531 5.199219 8.082031 8zm0 0"
          fill="#787680"/>
    <path d="m112 176v16h-16c-13.253906 0-24-10.746094-24-24 .046875-13.234375 10.765625-23.953125 24-24h16zm0 0"
          fill="#f1cfa2"/>
    <path d="m320 472h-80l-16-80 11.039062-33.199219 36.960938 9.199219-16-64 80.398438 21.199219c42.203124 11.042969 71.628906 49.179687 71.601562 92.800781v54zm0 0"
          fill="#d8d7da"/>
    <path d="m336 150.160156c5.128906 4.503906 8.046875 11.015625 8 17.839844 0 13.253906-10.746094 24-24 24h-16v-48h16c5.914062-.011719 11.621094 2.183594 16 6.160156zm0 0"
          fill="#f1cfa2"/>
    <path d="m312 144v32c0 57.4375-46.5625 104-104 104s-104-46.5625-104-104v-48c-.035156-20.863281 6.238281-41.25 18-58.480469 5.949219 20.449219 24.703125 34.507813 46 34.480469h80c21.285156-.011719 40.015625-14.050781 46-34.480469 11.761719 17.230469 18.035156 37.617188 18 58.480469zm0 0"
          fill="#ffdaaa"/>
    <path d="m256 304 16 64-36.960938-9.199219-27.039062-6.800781zm0 0" fill="#e6e7e8"/>
    <path d="m256 268.238281v35.761719l-48 48-48-48v-35.761719c30.078125 15.679688 65.921875 15.679688 96 0zm0 0"
          fill="#ffdaaa"/>
    <path d="m224 392 16 80h-64l16-80zm0 0" fill="#787680"/>
    <path d="m208 352 27.039062 6.800781-11.039062 33.199219h-32l-11.039062-33.199219zm0 0" fill="#57565c"/>
    <path d="m208 352-27.039062 6.800781-36.960938 9.199219 16-64zm0 0" fill="#e6e7e8"/>
    <path d="m96 472h-88v-54c-.027344-43.621094 29.398438-81.757812 71.601562-92.800781l80.398438-21.199219-16 64 36.960938-9.199219 11.039062 33.199219-16 80zm0 0"
          fill="#d8d7da"/>
    <path d="m256 268.238281v16c-30.078125 15.679688-65.921875 15.679688-96 0v-16c30.078125 15.679688 65.921875 15.679688 96 0zm0 0"
          fill="#f1cfa2"/>
    <path d="m338.441406 317.464844-74.441406-19.632813v-24.984375c27.195312-15.742187 46.546875-42.167968 53.34375-72.847656h2.65625c12.554688.0625 23.976562-7.257812 29.160156-18.695312 5.183594-11.433594 3.160156-24.847657-5.160156-34.25v-11.054688c-.089844-30.394531-10.363281-59.882812-29.183594-83.753906 8.933594-3.734375 17.503906-8.289063 25.597656-13.597656l-8.878906-13.3125c-8.789062 5.746093-18.179687 10.523437-28 14.25-1.078125-1.066407-2.046875-2.226563-3.199218-3.257813-.945313-2.515625-2.074219-4.960937-3.375-7.3125 9.582031-3.898437 18.761718-8.71875 27.40625-14.398437l-8.878907-13.3125c-8.972656 5.851562-18.558593 10.703124-28.585937 14.472656-10.417969-10.125-24.375-15.7851565-38.902344-15.777344h-80c-23.332031.03125-44.207031 14.5-52.425781 36.335938-27.738281 25.722656-43.527344 61.832031-43.574219 99.664062v11.054688c-8.320312 9.402343-10.34375 22.816406-5.160156 34.25 5.183594 11.4375 16.605468 18.757812 29.160156 18.695312h2.65625c6.796875 30.679688 26.148438 57.105469 53.34375 72.847656v24.984375l-74.398438 19.632813c-45.722656 11.964844-77.6093745 53.273437-77.601562 100.535156v54c0 4.417969 3.582031 8 8 8h400c4.417969 0 8-3.582031 8-8v-54c.011719-47.25-31.855469-88.554688-77.558594-100.535156zm-120.21875 66.535156h-20.445312l-6.511719-19.566406 16.734375-4.1875 16.734375 4.1875zm-53.886718-64.351562 28 28-37.359376 9.335937zm59.3125 28 28-28 9.34375 37.351562zm96.351562-163.648438v-32c8.835938 0 16 7.164062 16 16s-7.164062 16-16 16zm-192.167969-137.167969c1.042969-.949219 1.824219-2.15625 2.265625-3.496093 1.914063-5.910157 5.230469-11.269532 9.664063-15.625 7.453125-7.539063 17.632812-11.761719 28.238281-11.710938h80c7.308594.027344 14.472656 2.058594 20.703125 5.878906-22.410156 6.121094-45.476563 9.519532-68.703125 10.121094v16c27.726562-.582031 55.230469-5.070312 81.703125-13.328125 1.761719 2.710937 3.179687 5.632813 4.21875 8.695313.214844.660156.515625 1.289062.894531 1.871093-23.070312 6.5-46.855468 10.117188-70.816406 10.761719v16c28.222656-.578125 56.214844-5.21875 83.113281-13.777344 18.574219 21.664063 28.816407 49.242188 28.886719 77.777344v1.136719c-2.605469-.722657-5.296875-1.101563-8-1.136719v-8c.046875-22.472656-6.714844-44.433594-19.390625-62.992188-1.75-2.566406-4.824219-3.886718-7.886719-3.390624-3.066406.496093-5.566406 2.71875-6.417968 5.703124-4.992188 16.996094-20.589844 28.675782-38.304688 28.679688h-80c-17.71875-.027344-33.308594-11.707031-38.3125-28.703125-.859375-2.980469-3.359375-5.191406-6.421875-5.683594-3.058594-.488281-6.128906.835938-7.875 3.394531-12.675781 18.558594-19.4375 40.519532-19.390625 62.992188v8c-2.703125.035156-5.394531.414062-8 1.136719v-1.136719c.042969-34.023438 14.519531-66.433594 39.832031-89.167969zm-31.832031 137.167969c-8.835938 0-16-7.164062-16-16s7.164062-16 16-16zm16-8v-48c-.027344-14.253906 3.136719-28.335938 9.265625-41.207031 10.378906 15.691406 27.917969 25.152343 46.734375 25.207031h80c14.863281.070312 29.128906-5.851562 39.574219-16.425781 2.691406-2.683594 5.105469-5.628907 7.203125-8.796875 6.109375 12.878906 9.261718 26.964844 9.222656 41.222656v48c0 53.019531-42.980469 96-96 96s-96-42.980469-96-96zm96 112c13.683594-.019531 27.242188-2.566406 40-7.511719v20.199219l-40 40-40-40v-20.199219c12.757812 4.945313 26.316406 7.492188 40 7.511719zm-192 130c-.011719-39.96875 26.941406-74.917969 65.601562-85.0625l67.359376-17.738281-12.722657 50.871093c-.679687 2.726563.117188 5.609376 2.101563 7.597657 1.988281 1.988281 4.871094 2.789062 7.597656 2.109375l29.757812-7.441406 8 24.199218-14.253906 71.464844h-65.441406v-56h-16v56h-72zm169.761719 46 12.796875-64h18.898437l12.800781 64zm214.238281 0h-72v-56h-16v56h-65.441406l-14.292969-71.480469 8-24.199219 29.757813 7.441407c2.726562.679687 5.609374-.121094 7.59375-2.109375 1.988281-1.988282 2.785156-4.871094 2.101562-7.597656l-12.679688-50.855469 67.359376 17.738281c38.660156 10.144531 65.613281 45.09375 65.601562 85.0625zm0 0"/>
    <path d="m208 200c13.253906 0 24-10.746094 24-24v-32h-16v32c0 4.417969-3.582031 8-8 8s-8-3.582031-8-8v-32h-16v32c0 13.253906 10.746094 24 24 24zm0 0"/>
    <path d="m248.640625 147.039062c.175781.511719.417969.996094.71875 1.441407.296875.417969.617187.820312.960937 1.199219.765626.722656 1.660157 1.292968 2.640626 1.679687.949218.449219 1.988281.667969 3.039062.640625.507812-.011719 1.011719-.066406 1.511719-.160156.53125-.074219 1.050781-.238282 1.527343-.480469.492188-.160156.953126-.402344 1.359376-.71875.472656-.320313.882812-.640625 1.28125-.960937 3.09375-3.15625 3.09375-8.203126 0-11.359376-.398438-.320312-.800782-.640624-1.28125-.960937-.40625-.316406-.867188-.558594-1.359376-.71875-.476562-.242187-.996093-.40625-1.527343-.480469-1.53125-.324218-3.121094-.15625-4.550781.480469-.980469.386719-1.875.957031-2.640626 1.679687-1.492187 1.511719-2.328124 3.554688-2.320312 5.679688-.027344.539062.027344 1.078125.160156 1.601562.085938.5.25.984376.480469 1.4375zm0 0"/>
    <path d="m168 144c-.03125-2.117188-.859375-4.144531-2.320312-5.679688-2.316407-2.238281-5.738282-2.894531-8.71875-1.679687-.980469.386719-1.875.957031-2.640626 1.679687-3.09375 3.15625-3.09375 8.203126 0 11.359376.765626.722656 1.660157 1.292968 2.640626 1.679687.960937.410156 1.992187.628906 3.039062.640625 2.121094-.015625 4.15625-.847656 5.679688-2.320312 1.460937-1.535157 2.289062-3.5625 2.320312-5.679688zm0 0"/>
    <path d="m255.625 221.238281-12.097656-10.476562c-9.515625 9.113281-22.367188 13.90625-35.527344 13.238281-13.160156.667969-26.011719-4.125-35.527344-13.238281l-12.097656 10.476562c12.515625 12.699219 29.8125 19.515625 47.625 18.761719 17.8125.753906 35.109375-6.0625 47.625-18.761719zm0 0"/>
</svg>