<svg height="480pt" viewBox="-31 0 479 480" width="480pt" xmlns="http://www.w3.org/2000/svg">
    <path d="m112.5 176v16h-16c-13.253906 0-24-10.746094-24-24s10.746094-24 24-24h16zm0 0" fill="#f1cfa2"/>
    <path d="m320.5 472h-112v-120l64 16-16-64 80.398438 21.199219c42.203124 11.042969 71.628906 49.179687 71.601562 92.800781v54zm0 0"
          fill="#ff7956"/>
    <path d="m320.5 144c13.253906 0 24 10.746094 24 24s-10.746094 24-24 24h-16v-48zm0 0" fill="#f1cfa2"/>
    <path d="m256.5 304 16 64-64-16zm0 0" fill="#ff6243"/>
    <path d="m256.5 268.238281v35.761719l-48 48-48-48v-35.761719c30.078125 15.679688 65.921875 15.679688 96 0zm0 0"
          fill="#ffdaaa"/>
    <path d="m96.5 472h-88v-54c-.027344-43.621094 29.398438-81.757812 71.601562-92.800781l80.398438-21.199219-16 64 64-16v120zm0 0"
          fill="#ff6243"/>
    <path d="m208.5 352-64 16 16-64zm0 0" fill="#ff5023"/>
    <path d="m310.5 8h-204c-4.570312-.007812-8.921875 1.9375-11.964844 5.347656-3.039062 3.40625-4.480468 7.953125-3.957031 12.492188l12.960937 110.238281.960938 7.921875v-8l12.71875-44.398438c1.945312-6.871093 8.21875-11.613281 15.359375-11.601562h151.84375c7.140625-.011719 13.414063 4.730469 15.359375 11.601562l12.71875 44.398438v8l.960938-7.921875 12.960937-110.238281c.523437-4.539063-.917969-9.085938-3.957031-12.492188-3.042969-3.410156-7.394532-5.355468-11.964844-5.347656zm0 0"
          fill="#ffb655"/>
    <path d="m299.78125 91.601562c-1.945312-6.871093-8.21875-11.613281-15.359375-11.601562h-151.84375c-7.140625-.011719-13.414063 4.730469-15.359375 11.601562l-12.71875 44.398438v40c0 57.4375 46.5625 104 104 104s104-46.5625 104-104v-40zm0 0"
          fill="#ffdaaa"/>
    <path d="m256.5 268.238281v16c-30.078125 15.679688-65.921875 15.679688-96 0v-16c30.078125 15.679688 65.921875 15.679688 96 0zm0 0"
          fill="#f1cfa2"/>
    <path d="m338.941406 317.464844-74.441406-19.632813v-24.984375c27.195312-15.742187 46.546875-42.167968 53.34375-72.847656h2.65625c17.449219-.015625 31.660156-14.019531 31.929688-31.46875.269531-17.445312-13.503907-31.882812-30.945313-32.433594l12.855469-109.289062c.800781-6.808594-1.34375-13.632813-5.898438-18.753906-4.554687-5.121094-11.078125-8.054688-17.933594-8.054688h-204c-6.855468-.00390625-13.386718 2.925781-17.945312 8.046875-4.554688 5.125-6.703125 11.953125-5.902344 18.761719l12.855469 109.289062c-17.441406.550782-31.214844 14.988282-30.945313 32.433594.269532 17.449219 14.480469 31.453125 31.929688 31.46875h2.65625c6.796875 30.679688 26.148438 57.105469 53.34375 72.847656v24.984375l-74.398438 19.632813c-45.722656 11.964844-77.609374 53.273437-77.601562 100.535156v54c0 4.417969 3.582031 8 8 8h400c4.417969 0 8-3.582031 8-8v-54c.011719-47.25-31.855469-88.554688-77.558594-100.535156zm-86.777344 2.183594 9.34375 37.351562-37.359374-9.335938zm84.335938-151.648438c0 8.835938-7.164062 16-16 16v-32c8.835938 0 16 7.164062 16 16zm-236-149.320312c1.515625-1.71875 3.699219-2.695313 5.992188-2.679688h204c2.285156 0 4.460937.976562 5.976562 2.683594 1.519531 1.707031 2.234375 3.984375 1.96875 6.253906l-8.570312 72.796875-2.398438-8.328125c-2.96875-10.269531-12.351562-17.355469-23.039062-17.40625h-151.859376c-10.703124.035156-20.105468 7.125-23.078124 17.40625l-2.398438 8.328125-8.5625-72.796875c-.277344-2.273438.441406-4.554688 1.96875-6.257812zm-4 165.320312c-8.835938 0-16-7.164062-16-16s7.164062-16 16-16zm16-8v-32c-.042969-.308594-.101562-.617188-.183594-.921875h.128906l-.585937-4.957031.335937.09375 12.6875-44.398438c.976563-3.4375 4.113282-5.8125 7.6875-5.816406h151.859376c3.570312.003906 6.707031 2.371094 7.6875 5.808594l12.6875 44.390625.335937-.09375-.585937 4.957031h.128906c-.082032.308594-.144532.621094-.183594.9375v32c0 53.019531-42.980469 96-96 96s-96-42.980469-96-96zm96 112c13.683594-.019531 27.242188-2.566406 40-7.511719v20.199219l-40 40-40-40v-20.199219c12.757812 4.945313 26.316406 7.492188 40 7.511719zm-43.664062 31.648438 28 28-37.359376 9.335937zm-148.335938 98.351562c-.011719-39.96875 26.941406-74.917969 65.601562-85.0625l67.359376-17.738281-12.722657 50.871093c-.679687 2.726563.117188 5.609376 2.101563 7.597657 1.988281 1.988281 4.871094 2.789062 7.597656 2.109375l54.0625-13.53125v101.753906h-96v-56h-16v56h-72zm384 46h-72v-56h-16v56h-96v-101.753906l54.0625 13.515625c2.726562.679687 5.609375-.121094 7.597656-2.109375 1.984375-1.988282 2.78125-4.871094 2.101563-7.597656l-12.722657-50.855469 67.359376 17.738281c38.660156 10.144531 65.613281 45.09375 65.601562 85.0625zm0 0"/>
    <path d="m208.5 200c13.253906 0 24-10.746094 24-24v-32h-16v32c0 4.417969-3.582031 8-8 8s-8-3.582031-8-8v-32h-16v32c0 13.253906 10.746094 24 24 24zm0 0"/>
    <path d="m252.011719 150.640625c.449219.300781.9375.542969 1.449219.71875.453124.230469.9375.394531 1.4375.480469.53125.089844 1.066406.144531 1.601562.160156 2.128906.023438 4.175781-.8125 5.679688-2.320312 1.507812-1.503907 2.34375-3.550782 2.320312-5.679688-.011719-1.046875-.230469-2.078125-.640625-3.039062-.367187-.988282-.9375-1.890626-1.679687-2.640626-1.914063-1.886718-4.644532-2.695312-7.28125-2.160156-.5.085938-.984376.25-1.4375.480469-.511719.175781-1 .417969-1.449219.71875-.414063.296875-.8125.617187-1.191407.960937-.742187.75-1.3125 1.652344-1.679687 2.640626-.410156.960937-.628906 1.992187-.640625 3.039062.011719 2.121094.84375 4.15625 2.320312 5.679688zm0 0"/>
    <path d="m167.140625 148.480469c.300781-.449219.539063-.933594.71875-1.441407.234375-.449218.390625-.9375.472656-1.4375.09375-.53125.152344-1.066406.167969-1.601562-.011719-1.046875-.230469-2.078125-.640625-3.039062-.40625-.96875-.972656-1.863282-1.679687-2.640626-3.207032-2.960937-8.152344-2.960937-11.359376 0-.707031.777344-1.273437 1.671876-1.679687 2.640626-.410156.960937-.628906 1.992187-.640625 3.039062.015625.535156.070312 1.070312.160156 1.601562.085938.5.25.984376.480469 1.4375.175781.511719.417969.996094.71875 1.441407.296875.417969.617187.820312.960937 1.199219 3.15625 3.09375 8.203126 3.09375 11.359376 0zm0 0"/>
    <path d="m256.125 221.238281-12.097656-10.476562c-9.515625 9.113281-22.367188 13.90625-35.527344 13.238281-13.160156.667969-26.011719-4.125-35.527344-13.238281l-12.097656 10.476562c12.515625 12.699219 29.8125 19.515625 47.625 18.761719 17.8125.753906 35.109375-6.0625 47.625-18.761719zm0 0"/>
</svg>