<svg height="479pt" viewBox="-31 0 479 479.99519" width="479pt" xmlns="http://www.w3.org/2000/svg">
    <path d="m397.699219 389.753906c-12.472657-24.070312-34.570313-41.71875-60.800781-48.558594l-80.402344-21.199218h-96l-80.398438 21.199218c-26.800781 6.976563-49.25 25.253907-61.519531 50.078126-7.964844-14.234376-10.167969-30.984376-6.160156-46.796876l42.480469-169.921874 15.199218-60.800782c15.441406-61.667968 70.589844-105.121094 134.160156-105.703125 63.570313-.582031 119.507813 41.851563 136.078126 103.222657l16.640624 61.921874 45.839844 170.160157c4.199219 15.558593 2.367188 32.128906-5.117187 46.398437zm0 0"
          fill="#787680"/>
    <path d="m112.496094 191.996094v16h-16c-2.730469.015625-5.441406-.472656-8-1.441406-3.382813-1.136719-6.453125-3.054688-8.957032-5.597657-4.507812-4.496093-7.042968-10.597656-7.042968-16.960937 0-1.640625.160156-3.273438.480468-4.882813 2.316407-11.140625 12.140626-19.128906 23.519532-19.117187h16zm0 0"
          fill="#f1cfa2"/>
    <path d="m343.378906 176.875c.738282 2.300781 1.117188 4.703125 1.117188 7.121094.003906 6.363281-2.53125 12.464844-7.039063 16.960937-2.503906 2.542969-5.574219 4.460938-8.960937 5.597657-2.554688.96875-5.265625 1.457031-8 1.441406h-16v-48h16c10.519531-.050782 19.824218 6.8125 22.882812 16.878906zm0 0"
          fill="#f1cfa2"/>
    <path d="m94.578125 415.996094h312.238281c1.128906 5.933594 1.691406 11.960937 1.679688 18v38h-400v-38c-.011719-6.039063.554687-12.066406 1.679687-18zm0 0"
          fill="#ff6243"/>
    <path d="m406.816406 415.996094h-396.640625c7.042969-36.277344 34.203125-65.332032 69.921875-74.800782l80.398438-21.199218v-35.761719c30.082031 15.679687 65.921875 15.679687 96 0v35.761719l80.402344 21.199218c35.765624 9.386719 62.964843 38.480469 69.917968 74.800782zm0 0"
          fill="#ffdaaa"/>
    <path d="m328.496094 247.996094 16 48h-32zm0 0" fill="#ff6243"/>
    <path d="m322.417969 415.996094h-99.839844c12.128906-15.167969 30.496094-24 49.917969-24s37.792968 8.832031 49.921875 24zm0 0"
          fill="#ffc477"/>
    <path d="m312.496094 159.996094v32c-.003906 36.335937-18.980469 70.035156-50.042969 88.886718-31.066406 18.855469-69.71875 20.125-101.957031 3.351563-9.425782-4.871094-18.039063-11.1875-25.519532-18.71875-19.535156-19.476563-30.503906-45.933594-30.480468-73.519531v-56s0-56 56-56c54.082031 0 78.320312 59.679687 152 63.757812zm0 0"
          fill="#ffdaaa"/>
    <path d="m194.417969 415.996094h-99.839844c12.128906-15.167969 30.496094-24 49.917969-24s37.792968 8.832031 49.921875 24zm0 0"
          fill="#ffc477"/>
    <path d="m88.496094 247.996094 16 48h-32zm0 0" fill="#ff6243"/>
    <path d="m256.496094 284.234375v16c-30.078125 15.679687-65.917969 15.679687-96 0v-16c30.082031 15.679687 65.921875 15.679687 96 0zm0 0"
          fill="#f1cfa2"/>
    <path d="m208.496094 215.996094c13.257812 0 24-10.746094 24-24v-32h-16v32c0 4.417968-3.582032 8-8 8-4.417969 0-8-3.582032-8-8v-32h-16v32c0 13.253906 10.746094 24 24 24zm0 0"/>
    <path d="m256.496094 167.996094c2.679687.027344 5.1875-1.300782 6.671875-3.527344s1.746093-5.054688.691406-7.511719c-.40625-.972656-.976563-1.863281-1.683594-2.640625-3.207031-2.960937-8.148437-2.960937-11.359375 0-.703125.777344-1.273437 1.667969-1.679687 2.640625-1.054688 2.457031-.792969 5.285157.691406 7.511719s3.992187 3.554688 6.667969 3.527344zm0 0"/>
    <path d="m160.496094 167.996094c2.679687.027344 5.1875-1.300782 6.671875-3.527344s1.746093-5.054688.691406-7.511719c-.386719-.980469-.957031-1.878906-1.683594-2.640625-3.207031-2.960937-8.148437-2.960937-11.359375 0-.703125.777344-1.273437 1.667969-1.679687 2.640625-1.054688 2.457031-.792969 5.285157.691406 7.511719s3.992187 3.554688 6.667969 3.527344zm0 0"/>
    <path d="m406.523438 389.722656c6.894531-15.199218 8.308593-32.320312 4-48.449218l-62.480469-232.070313c-17.496094-64.917969-76.644531-109.8125-143.878907-109.1953125-67.230468.6132815-125.550781 46.5859375-141.851562 111.8124995l-57.65625 230.71875c-4.09375 16.351563-2.316406 33.625 5.023438 48.800782-6.050782 13.40625-9.179688 27.945312-9.183594 42.65625v38c0 4.417968 3.582031 8 8 8h400c4.417968 0 8-3.582032 8-8v-38c-.011719-15.3125-3.417969-30.433594-9.972656-44.273438zm-134.027344-5.726562c-20.441406-.003906-39.910156 8.730468-53.503906 24h-20.992188c-13.59375-15.269532-33.058594-24-53.503906-24-20.441406 0-39.910156 8.730468-53.503906 24h-70.496094c8.953125-29.007813 32.242187-51.339844 61.601562-59.066406l80.398438-21.199219c3.53125-.910157 5.996094-4.089844 6-7.734375v-23.449219c25.742187 9.953125 54.277344 9.929687 80-.0625v23.511719c0 3.632812 2.449218 6.808594 5.960937 7.734375l80.441407 21.207031c29.359374 7.71875 52.652343 30.050781 61.597656 59.058594h-70.496094c-13.589844-15.269532-33.058594-24.003906-53.503906-24zm28.65625 24h-57.3125c17.617187-10.667969 39.699218-10.667969 57.3125 0zm-128 0h-57.3125c17.617187-10.667969 39.699218-10.667969 57.3125 0zm-60.65625-248v-24c0-4.914063 1.601562-48 48-48 22.976562 0 40.28125 12.167968 60.320312 26.269531 21.976563 15.464844 46.714844 32.867187 83.679688 36.867187v40.863282c0 53.019531-42.980469 96-96 96-53.019532 0-96-42.980469-96-96zm220.90625 128h-9.808594l4.902344-14.703125zm-12.90625-88v-32c8.839844 0 16 7.164062 16 16 0 8.835937-7.160156 16-16 16zm75.242187 171.75c-14.039062-18.835938-34.070312-32.335938-56.800781-38.277344l-74.441406-19.640625v-24.984375c27.195312-15.746094 46.546875-42.167969 53.34375-72.847656h2.65625v30.695312l-15.589844 46.777344c-.8125 2.4375-.402344 5.121094 1.101562 7.207031 1.503907 2.085938 3.917969 3.320313 6.488282 3.320313h32c2.574218 0 4.988281-1.234375 6.492187-3.320313 1.503907-2.085937 1.914063-4.769531 1.101563-7.207031l-15.59375-46.777344v-35.144531c9.097656-5.28125 15-14.714844 15.761718-25.207031l42.832032 159.085937c2.304687 8.597657 2.527344 17.621094.648437 26.320313zm-375.5625-25.351563 57.683594-230.71875c14.578125-58.628906 67.261719-99.761719 127.679687-99.679687 59.480469.039062 111.554688 39.9375 127.070313 97.359375l14.105469 52.382812c-5.960938-8.597656-15.753906-13.730469-26.21875-13.742187v-32h-16v15.023437c-31.910156-3.886719-53.519532-19.097656-74.476563-33.839843-21.339843-15.007813-41.523437-29.183594-69.523437-29.183594-50.621094 0-64 41.863281-64 64v16c-14.46875-.050782-27.15625 9.644531-30.914063 23.617187-3.753906 13.976563 2.371094 28.726563 14.914063 35.933594v35.144531l-15.589844 46.777344c-.8125 2.4375-.402344 5.121094 1.101562 7.207031 1.503907 2.085938 3.917969 3.320313 6.488282 3.320313h32c2.574218 0 4.988281-1.234375 6.492187-3.320313 1.503907-2.085937 1.914063-4.769531 1.101563-7.207031l-15.59375-46.777344v-30.695312h2.648437c4.535157 20.914062 15.003907 40.082031 30.152344 55.199218 6.933594 6.875 14.734375 12.820313 23.199219 17.6875v24.945313l-74.398438 19.632813c-23.402344 6.125-43.925781 20.25-58 39.925781-2.15625-8.871094-2.128906-18.132813.078125-26.992188zm73.226563-58.398437h-9.808594l4.902344-14.703125zm-12.90625-104c0-8.835938 7.164062-16 16-16v32c-8.835938 0-16-7.164063-16-16zm320 280h-384v-30c.023437-3.34375.238281-6.683594.640625-10h63.066406c-.800781 1.664062-1.769531 3.246094-2.472656 4.992187-1.191407 2.667969-.832031 5.773438.9375 8.101563 1.769531 2.324218 4.667969 3.503906 7.558593 3.066406 2.886719-.433594 5.3125-2.410156 6.320313-5.152344 1.628906-3.886718 3.691406-7.578125 6.144531-11.007812h91.613282c2.453124 3.429687 4.515624 7.121094 6.144531 11.007812 1.660156 4.082032 6.3125 6.054688 10.398437 4.40625.578125-.289062 1.117188-.652344 1.601563-1.078125.484375.425781 1.023437.789063 1.601562 1.078125 4.085938 1.648438 8.738281-.324218 10.398438-4.40625 1.660156-3.890625 3.753906-7.585937 6.242187-11.007812h91.613282c2.453124 3.429687 4.515624 7.121094 6.144531 11.007812 1.007812 2.742188 3.429687 4.71875 6.320312 5.152344 2.890625.4375 5.789063-.742188 7.558594-3.066406 1.769531-2.328125 2.128906-5.433594.9375-8.101563-.703125-1.746093-1.601563-3.328125-2.472656-4.992187h63.066406c.402344 3.316406.613281 6.65625.636719 10zm0 0"/>
    <path d="m208.496094 255.996094c17.8125.742187 35.105468-6.070313 47.625-18.761719l-12.085938-10.480469c-9.523437 9.113282-22.375 13.898438-35.539062 13.242188-13.160156.65625-26.011719-4.128906-35.535156-13.242188l-12.085938 10.480469c12.515625 12.691406 29.8125 19.503906 47.621094 18.761719zm0 0"/>
</svg>