<svg height="479pt" viewBox="-32 0 479 479.98936" width="479pt" xmlns="http://www.w3.org/2000/svg">
    <path d="m111.976562 247.988281v16h-16c-13.257812 0-24-10.746093-24-24 0-13.253906 10.742188-24 24-24h16zm0 0"
          fill="#f1cfa2"/>
    <path d="m407.496094 471.988281h-119.519532v-56l-80-24c26.476563 0 48-10.71875 48-24l80.398438 21.199219c38.625 10.113281 66.953125 43.09375 71.121094 82.800781zm0 0"
          fill="#e6e7e8"/>
    <path d="m319.976562 215.988281c13.253907 0 24 10.746094 24 24 0 13.253907-10.746093 24-24 24h-16v-48zm0 0"
          fill="#f1cfa2"/>
    <path d="m343.976562 95.988281c-.003906 20.328125-12.828124 38.445313-32 45.199219v18.800781h-208v-18.800781c-18.335937-6.445312-30.96875-23.320312-31.984374-42.730469-1.015626-19.410156 9.785156-37.511719 27.347656-45.835937 17.5625-8.324219 38.414062-5.226563 52.796875 7.847656 1.800781-29.515625 26.265625-52.535156 55.839843-52.535156 29.570313 0 54.035157 23.019531 55.839844 52.535156 8.773438-8.046875 20.253906-12.5 32.160156-12.480469 26.507813 0 48 21.492188 48 48zm0 0"
          fill="#e6e7e8"/>
    <path d="m103.976562 159.988281h208c4.417969 0 8 3.582031 8 8v16c0 4.417969-3.582031 8-8 8h-208c-4.421874 0-8-3.582031-8-8v-16c0-4.417969 3.578126-8 8-8zm0 0"
          fill="#d1d3d4"/>
    <path d="m311.976562 191.988281v56c0 57.4375-46.5625 104-104 104s-104-46.5625-104-104v-56zm0 0" fill="#ffdaaa"/>
    <path d="m287.976562 415.988281v56h-279.523437c4.167969-39.707031 32.496094-72.6875 71.121094-82.800781l80.402343-21.199219c0 13.28125 21.519532 24 48 24zm-32 24c0-4.417969-3.582031-8-8-8-4.421874 0-8 3.582031-8 8s3.578126 8 8 8c4.417969 0 8-3.582031 8-8zm0 0"
          fill="#f1f2f2"/>
    <path d="m255.976562 340.230469v27.757812c0 13.28125-21.523437 24-48 24-26.480468 0-48-10.71875-48-24v-27.757812c30.078126 15.679687 65.917969 15.679687 96 0zm0 0"
          fill="#ffdaaa"/>
    <path d="m207.976562 263.988281h48c0 13.253907-10.746093 24-24 24-13.257812 0-24-10.746093-24-24zm0 0"
          fill="#acabb1"/>
    <path d="m159.976562 263.988281h48c0 13.253907-10.746093 24-24 24-13.257812 0-24-10.746093-24-24zm0 0"
          fill="#acabb1"/>
    <path d="m255.976562 340.230469v16c-30.082031 15.679687-65.921874 15.679687-96 0v-16c30.078126 15.679687 65.917969 15.679687 96 0zm0 0"
          fill="#f1cfa2"/>
    <path d="m338.414062 381.453125-74.4375-19.632813v-16.984374c27.195313-15.742188 46.542969-42.167969 53.34375-72.847657h2.65625c17.671876 0 32-14.324219 32-32 0-17.671875-14.328124-32-32-32v-10.222656c4.933594-2.835937 7.980469-8.085937 8-13.777344v-16c-.019531-5.691406-3.066406-10.941406-8-13.773437v-7.671875c18.746094-8.484375 31.332032-26.566407 32.777344-47.097657 1.441406-20.527343-8.492187-40.191406-25.871094-51.214843-17.378906-11.023438-39.402343-11.625-57.355468-1.570313-7.742188-27.589844-32.894532-46.660156-61.550782-46.660156-28.660156 0-53.8125 19.070312-61.554687 46.660156-17.953125-10.054687-39.976563-9.453125-57.355469 1.570313-17.378906 11.023437-27.3125 30.6875-25.871094 51.214843 1.445313 20.53125 14.03125 38.613282 32.78125 47.097657v7.671875c-4.9375 2.832031-7.984374 8.082031-8 13.773437v16c.015626 5.691407 3.0625 10.941407 8 13.777344v10.222656c-17.675781 0-32 14.328125-32 32 0 17.675781 14.324219 32 32 32h2.652344c6.800782 30.679688 26.148438 57.105469 53.347656 72.847657v16.984374l-74.402343 19.632813c-41.792969 11.058594-72.433594 46.75-77.039063 89.734375-.226562 2.257812.515625 4.503906 2.039063 6.183594 1.527343 1.679687 3.691406 2.628906 5.960937 2.617187h398.960938c2.257812 0 4.414062-.957031 5.933594-2.632812 1.515624-1.675781 2.25-3.917969 2.023437-6.167969-4.605469-42.984375-35.246094-78.671875-77.039063-89.734375zm-234.4375-197.464844v-16h208v16zm232 56c0 8.835938-7.164062 16-16 16v-32c8.835938 0 16 7.164063 16 16zm-256-144c-.015624-15.816406 9.300782-30.152343 23.761719-36.558593 14.460938-6.40625 31.339844-3.675782 43.042969 6.960937 2.277344 2.066406 5.539062 2.644531 8.386719 1.488281 2.847656-1.160156 4.78125-3.84375 4.976562-6.914062 1.53125-25.292969 22.492188-45.015625 47.832031-45.015625 25.335938 0 46.296876 19.722656 47.832032 45.015625.191406 3.070312 2.125 5.753906 4.972656 6.914062 2.847656 1.15625 6.109375.578125 8.386719-1.488281 11.988281-10.878906 29.355469-13.449219 43.980469-6.511719s23.621093 22.015625 22.777343 38.183594c-.84375 16.164062-11.355469 30.226562-26.621093 35.605469-3.195313 1.132812-5.332032 4.15625-5.328126 7.546875v10.773437h-192v-10.792969c0-3.386718-2.136718-6.410156-5.328124-7.542968-15.960938-5.652344-26.636719-20.734375-26.671876-37.664063zm16 160c-8.839843 0-16-7.164062-16-16 0-8.835937 7.160157-16 16-16zm16-8v-48h192v48c0 53.019531-42.984374 96-96 96-53.019531 0-96-42.980469-96-96zm96 112c13.679688-.019531 27.242188-2.566406 40-7.511719v15.511719c0 6.519531-15.585937 16-40 16-24.417968 0-40-9.480469-40-16v-15.511719c12.753907 4.945313 26.316407 7.492188 40 7.511719zm-126.402343 36.9375 72.800781-19.199219c6.761719 12.964844 26.945312 21.925782 52.265625 22.230469l73.335937 21.984375v42.046875h-262.144531c6.902344-32.585937 31.546875-58.515625 63.742188-67.0625zm214.402343 67.0625v-48c0-3.53125-2.320312-6.648437-5.707031-7.664062l-48.445312-14.535157c8.230469-2.933593 15.203125-8.601562 19.75-16.0625l72.800781 19.199219c32.191406 8.546875 56.839844 34.480469 63.742188 67.0625zm0 0"/>
    <path d="m255.976562 223.988281c1.042969-.011719 2.078126-.230469 3.039063-.640625.96875-.402344 1.859375-.972656 2.640625-1.679687 3.09375-3.152344 3.09375-8.203125 0-11.359375-.78125-.707032-1.671875-1.273438-2.640625-1.679688-2.980469-1.253906-6.421875-.589844-8.722656 1.679688-2.304688 2.289062-3 5.746094-1.753907 8.75 1.246094 3 4.1875 4.949218 7.4375 4.929687zm0 0"/>
    <path d="m159.976562 223.988281c3.769532-.035156 6.992188-2.726562 7.699219-6.429687.707031-3.707032-1.292969-7.394532-4.785156-8.820313s-7.503906-.191406-9.589844 2.945313c-2.089843 3.140625-1.671875 7.320312.992188 9.984375 1.535156 1.460937 3.5625 2.289062 5.683593 2.320312zm0 0"/>
    <path d="m231.976562 295.988281c17.671876 0 32-14.324219 32-32 0-4.417969-3.582031-8-8-8h-25.472656c.945313-2.5625 1.445313-5.265625 1.472656-8v-32h-16v32c0 4.417969-3.582031 8-8 8-4.421874 0-8-3.582031-8-8v-32h-16v32c.023438 2.734375.523438 5.4375 1.46875 8h-25.46875c-4.421874 0-8 3.582031-8 8-.0625 13.34375 8.199219 25.3125 20.699219 29.988281 12.5 4.671876 26.585938 1.066407 35.300781-9.042968 6.015626 6.992187 14.773438 11.027344 24 11.054687zm0-16c-5.714843-.003906-10.992187-3.050781-13.851562-8h27.699219c-2.859375 4.949219-8.136719 7.996094-13.847657 8zm-48 0c-5.714843-.003906-10.992187-3.050781-13.851562-8h27.699219c-2.859375 4.949219-8.136719 7.996094-13.847657 8zm0 0"/>
    <path d="m263.976562 439.988281c0 8.835938-7.164062 16-16 16-8.839843 0-16-7.164062-16-16 0-8.835937 7.160157-16 16-16 8.835938 0 16 7.164063 16 16zm0 0"/>
</svg>