<svg height="479pt" viewBox="-31 1 479 479.99997" width="479pt" xmlns="http://www.w3.org/2000/svg">
    <path d="m336.5 8c16.050781-.019531 30.5625 9.558594 36.851562 24.324219 6.289063 14.769531 3.144532 31.867187-7.992187 43.425781-11.136719 11.5625-28.105469 15.34375-43.097656 9.609375-6.539063-12.753906-15.195313-24.304687-25.601563-34.160156-.082031-1.039063-.160156-2.078125-.160156-3.199219 0-22.089844 17.910156-40 40-40zm0 0"
          fill="#787680"/>
    <path d="m336.5 144v14.160156c-4.378906-3.976562-10.085938-6.171875-16-6.160156h-8v-24c-40 0-104-48-104-48-72 56-104 48-104 48v24h-8c-5.914062-.011719-11.621094 2.183594-16 6.160156v-14.160156c0-70.691406 57.308594-128 128-128s128 57.308594 128 128zm0 0"
          fill="#898890"/>
    <path d="m120.5 48c0 1.121094-.078125 2.160156-.160156 3.199219-10.40625 9.855469-19.0625 21.40625-25.601563 34.160156-16.367187 6.234375-34.886719 1.097656-45.699219-12.679687-10.816406-13.777344-11.410156-32.984376-1.46875-47.40625 9.941407-14.417969 28.109376-20.691407 44.828126-15.480469 16.722656 5.210937 28.109374 20.691406 28.101562 38.207031zm0 0"
          fill="#787680"/>
    <path d="m112.5 184v16h-16c-13.253906 0-24-10.746094-24-24 .046875-13.234375 10.765625-23.953125 24-24h16zm0 0"
          fill="#f1cfa2"/>
    <path d="m208.5 360h72l-24-48 80.398438 21.199219c42.203124 11.042969 71.628906 49.179687 71.601562 92.800781v46h-400v-46c-.027344-43.621094 29.398438-81.757812 71.601562-92.800781l80.398438-21.199219-24 48zm0 0"
          fill="#a25bcd"/>
    <path d="m336.5 158.160156c5.128906 4.503906 8.046875 11.015625 8 17.839844 0 13.253906-10.746094 24-24 24h-16v-48h16c5.914062-.011719 11.621094 2.183594 16 6.160156zm0 0"
          fill="#f1cfa2"/>
    <path d="m312.5 152v32c0 57.4375-46.5625 104-104 104s-104-46.5625-104-104v-56s32 8 104-48c0 0 64 48 104 48zm0 0"
          fill="#ffdaaa"/>
    <path d="m256.5 312 24 48h-72c26.507812 0 48-21.492188 48-48zm0 0" fill="#933ec5"/>
    <path d="m256.5 276.238281v35.761719c0 26.507812-21.492188 48-48 48s-48-21.492188-48-48v-35.761719c30.078125 15.679688 65.921875 15.679688 96 0zm0 0"
          fill="#ffdaaa"/>
    <path d="m208.5 360h-72l24-48c0 26.507812 21.492188 48 48 48zm0 0" fill="#933ec5"/>
    <path d="m256.5 276.238281v16c-30.078125 15.679688-65.921875 15.679688-96 0v-16c30.078125 15.679688 65.921875 15.679688 96 0zm0 0"
          fill="#f1cfa2"/>
    <path d="m338.941406 325.464844-74.441406-19.632813v-24.984375c27.195312-15.742187 46.546875-42.167968 53.34375-72.847656h2.65625c12.554688.0625 23.976562-7.257812 29.160156-18.695312 5.183594-11.433594 3.160156-24.847657-5.160156-34.25v-11.054688c-.03125-16.441406-3.0625-32.738281-8.945312-48.089844.320312 0 .625.089844.945312.089844 24.890625.03125 45.675781-18.972656 47.871094-43.765625 2.195312-24.792969-14.925782-47.152344-39.433594-51.496094-24.507812-4.347656-48.269531 10.761719-54.734375 34.796875-48.28125-36.714844-115.125-36.714844-163.40625 0-6.464844-24.035156-30.226563-39.144531-54.734375-34.796875-24.507812 4.34375-41.628906 26.703125-39.433594 51.496094 2.195313 24.792969 22.980469 43.796875 47.871094 43.765625.320312 0 .625-.078125.945312-.089844-5.882812 15.351563-8.914062 31.648438-8.945312 48.089844v11.054688c-8.320312 9.402343-10.34375 22.816406-5.160156 34.25 5.183594 11.4375 16.605468 18.757812 29.160156 18.695312h2.65625c6.796875 30.679688 26.148438 57.105469 53.34375 72.847656v24.984375l-74.398438 19.632813c-45.71875 11.964844-77.605468 53.277344-77.601562 100.535156v46c0 4.417969 3.582031 8 8 8h400c4.417969 0 8-3.582031 8-8v-46c.007812-47.246094-31.855469-88.554688-77.558594-100.535156zm-71.386718 26.535156h-19.855469c4.847656-4.746094 8.796875-10.328125 11.65625-16.480469zm52.945312-160v-32c8.835938 0 16 7.164062 16 16s-7.164062 16-16 16zm16-176c17.671875 0 32 14.328125 32 32s-14.328125 32-32 32c-2.984375-.046875-5.949219-.515625-8.800781-1.390625-6.238281-11.320313-14.046875-21.699219-23.199219-30.824219.117188-17.589844 14.410156-31.785156 32-31.785156zm-8 128v1.136719c-2.605469-.722657-5.296875-1.101563-8-1.136719v-16c0-4.417969-3.582031-8-8-8-36.855469 0-98.585938-45.9375-99.199219-46.398438-2.886719-2.167968-6.863281-2.136718-9.710937.078126-66.664063 51.855468-97.050782 46.585937-97.144532 46.558593-2.390624-.597656-4.925781-.0625-6.867187 1.453125-1.941406 1.519532-3.078125 3.84375-3.078125 6.308594v16c-2.703125.035156-5.394531.414062-8 1.136719v-1.136719c0-66.273438 53.726562-120 120-120s120 53.726562 120 120zm-248-64c-17.644531 0-31.960938-14.285156-32-31.929688-.039062-17.644531 14.210938-31.992187 31.855469-32.070312s32.027343 14.140625 32.144531 31.785156c-9.152344 9.125-16.960938 19.503906-23.199219 30.824219-2.851562.875-5.816406 1.34375-8.800781 1.390625zm16 112c-8.835938 0-16-7.164062-16-16s7.164062-16 16-16zm16-8v-47.65625c14.753906-.839844 45.839844-8.253906 96.136719-46.359375 15.015625 10.640625 60.640625 41.160156 95.863281 45.503906v48.511719c0 53.019531-42.980469 96-96 96s-96-42.980469-96-96zm96 112c13.683594-.019531 27.242188-2.566406 40-7.511719v23.511719c0 22.089844-17.910156 40-40 40s-40-17.910156-40-40v-23.511719c12.757812 4.945313 26.316406 7.492188 40 7.511719zm-50.816406 39.519531c2.859375 6.152344 6.808594 11.734375 11.65625 16.480469h-19.894532zm242.816406 128.480469h-48.6875c.421875-2.648438.652344-5.320312.6875-8-.027344-18.304688-8.984375-35.445312-24-45.910156v-18.089844h-16v22.480469c-.003906 2.859375 1.523438 5.503906 4 6.933593 12.359375 7.136719 19.980469 20.316407 20 34.585938-.023438 2.691406-.328125 5.371094-.910156 8h-254.179688c-.582031-2.628906-.886718-5.308594-.910156-8 .019531-14.269531 7.640625-27.449219 20-34.585938 2.476562-1.429687 4.003906-4.074218 4-6.933593v-22.480469h-16v18.089844c-15.015625 10.464844-23.972656 27.605468-24 45.910156.035156 2.679688.265625 5.351562.6875 8h-48.6875v-38c-.011719-39.96875 26.941406-74.917969 65.601562-85.0625l63.292969-16.691406-16.09375 32.179687c-1.242187 2.484375-1.105469 5.4375.363281 7.800781 1.46875 2.359376 4.054688 3.789063 6.835938 3.773438h64v72h16v-72h64c2.78125.015625 5.367188-1.414062 6.835938-3.773438 1.46875-2.363281 1.605468-5.316406.363281-7.800781l-16.09375-32.179687 63.292969 16.691406c38.660156 10.144531 65.613281 45.09375 65.601562 85.0625zm0 0"/>
    <path d="m208.5 208c13.253906 0 24-10.746094 24-24v-32h-16v32c0 4.417969-3.582031 8-8 8s-8-3.582031-8-8v-32h-16v32c0 13.253906 10.746094 24 24 24zm0 0"/>
    <path d="m256.5 160c3.769531-.039062 6.992188-2.730469 7.699219-6.433594s-1.292969-7.390625-4.785157-8.816406c-3.488281-1.425781-7.5-.195312-9.589843 2.945312-2.085938 3.140626-1.671875 7.316407.996093 9.984376 1.535157 1.460937 3.5625 2.289062 5.679688 2.320312zm0 0"/>
    <path d="m168.5 152c-.03125-2.117188-.859375-4.144531-2.320312-5.679688-2.300782-2.269531-5.742188-2.933593-8.71875-1.679687-.96875.40625-1.863282.972656-2.640626 1.679687-2.542968 2.5625-3.054687 6.511719-1.246093 9.640626 1.808593 3.125 5.488281 4.652343 8.976562 3.726562 3.492188-.925781 5.929688-4.078125 5.949219-7.6875zm0 0"/>
    <path d="m246.179688 402.320312c-.765626-.722656-1.660157-1.292968-2.640626-1.679687-2.976562-1.253906-6.417968-.589844-8.71875 1.679687-.707031.777344-1.273437 1.671876-1.679687 2.640626-.410156.960937-.628906 1.992187-.640625 3.039062.011719.535156.066406 1.070312.160156 1.601562.085938.5.25.984376.480469 1.4375.175781.511719.417969.996094.71875 1.441407l.960937 1.199219c1.535157 1.460937 3.5625 2.289062 5.679688 2.320312 1.046875-.011719 2.078125-.230469 3.039062-.640625.980469-.386719 1.875-.957031 2.640626-1.679687.34375-.378907.664062-.78125.960937-1.199219.300781-.445313.542969-.929688.71875-1.441407.230469-.453124.394531-.9375.480469-1.4375.09375-.53125.148437-1.066406.160156-1.601562-.011719-1.046875-.230469-2.078125-.640625-3.039062-.40625-.96875-.972656-1.863282-1.679687-2.640626zm0 0"/>
    <path d="m256.125 229.238281-12.089844-10.476562c-9.519531 9.113281-22.371094 13.902343-35.535156 13.238281-13.164062.664062-26.015625-4.125-35.535156-13.238281l-12.089844 10.476562c12.515625 12.699219 29.8125 19.511719 47.625 18.761719 17.8125.75 35.109375-6.0625 47.625-18.761719zm0 0"/>
</svg>