<svg height="480pt" viewBox="-32 0 480 480.01539" width="480pt" xmlns="http://www.w3.org/2000/svg">
    <path d="m320.007812 168.015625c13.253907 0 24 10.746094 24 24s-10.746093 24-24 24h-16v-48zm0 0" fill="#f1cfa2"/>
    <path d="m112.007812 200.015625v16h-16c-13.253906 0-24-10.746094-24-24s10.746094-24 24-24h16zm0 0" fill="#f1cfa2"/>
    <path d="m408.007812 442.015625v30h-80v-125.039063l8.398438 2.238282c42.203125 11.042968 71.628906 49.179687 71.601562 92.800781zm0 0"
          fill="#acabb1"/>
    <path d="m331.289062 124.734375c3.039063 2.964844 4.742188 7.035156 4.71875 11.28125-.027343 8.824219-7.175781 15.972656-16 16h-224c-8.808593-.066406-15.933593-7.191406-16-16 .027344-8.824219 7.175782-15.972656 16-16h224c4.246094-.023437 8.316407 1.679687 11.28125 4.71875zm0 0"
          fill="#ffa733"/>
    <path d="m328.007812 392.015625v80h-240v-125.039063l32-8.402343v69.441406h176v-69.441406l32 8.402343zm0 0"
          fill="#5aaae7"/>
    <path d="m320.007812 120.015625h-96v-96c25.472657-.035156 49.910157 10.070313 67.917969 28.078125 18.011719 18.011719 28.117188 42.449219 28.082031 67.921875zm0 0"
          fill="#ffb655"/>
    <path d="m312.007812 152.015625v48c0 57.4375-46.5625 104-104 104s-104-46.5625-104-104v-48zm0 0" fill="#ffdaaa"/>
    <path d="m296.007812 338.574219v69.441406h-176v-69.441406l33.761719-8.878907c6 17.441407 27.917969 30.320313 54.238281 30.320313 26.320313 0 48.238282-12.878906 54.238282-30.320313zm0 0"
          fill="#acabb1"/>
    <path d="m262.246094 329.695312c-6 17.441407-27.917969 30.320313-54.238282 30.320313-26.320312 0-48.238281-12.878906-54.238281-30.320313l6.238281-1.679687v-35.761719c30.078126 15.679688 65.921876 15.679688 96 0v35.761719zm0 0"
          fill="#ffdaaa"/>
    <path d="m256.007812 232.015625v16h-96v-16c0-17.671875 14.328126-32 32-32 .066407 8.808594 7.191407 15.933594 16 16 8.824219-.027344 15.972657-7.175781 16-16 17.671876 0 32 14.328125 32 32zm0 0"
          fill="#e6e7e8"/>
    <path d="m224.007812 24.015625v96h-32v-96c.027344-8.824219 7.175782-15.972656 16-16 8.808594.066406 15.933594 7.191406 16 16zm0 0"
          fill="#ff9811"/>
    <path d="m192.007812 24.015625v96h-96c0-53.019531 42.980469-96 96-96zm0 0" fill="#ffb655"/>
    <path d="m88.007812 392.015625v80h-80v-30c-.027343-43.621094 29.398438-81.757813 71.601563-92.800781l8.398437-2.238282zm0 0"
          fill="#acabb1"/>
    <path d="m256.007812 292.253906v16c-30.078124 15.679688-65.921874 15.679688-96 0v-16c30.078126 15.679688 65.921876 15.679688 96 0zm0 0"
          fill="#f1cfa2"/>
    <path d="m338.449219 341.480469-74.441407-19.632813v-24.984375c27.195313-15.742187 46.546876-42.167969 53.34375-72.847656h2.65625c17.671876 0 32-14.328125 32-32s-14.328124-32-32-32c11.738282.023437 21.761719-8.464844 23.667969-20.046875 1.910157-11.582031-4.863281-22.835938-15.988281-26.578125-3.121094-52.253906-44.800781-93.933594-97.054688-97.054687-3.234374-9.753907-12.355468-16.335938-22.628906-16.335938-10.273437 0-19.394531 6.582031-22.628906 16.335938-52.125 3.390624-93.648438 44.921874-97.03125 97.046874-11.136719 3.730469-17.917969 14.988282-16.015625 26.578126 1.90625 11.589843 11.9375 20.082031 23.679687 20.054687-17.671874 0-32 14.328125-32 32s14.328126 32 32 32h2.65625c6.796876 30.679687 26.148438 57.105469 53.34375 72.847656v24.984375l-74.398437 19.632813c-45.722656 11.964843-77.609375 53.273437-77.6015625 100.535156v30c0 4.417969 3.5820315 8 7.9999995 8h400c4.417969 0 8-3.582031 8-8v-30c.011719-47.25-31.855468-88.558594-77.558593-100.535156zm-210.441407 3.246093 21.367188-5.597656c9.878906 17.277344 32.746094 28.886719 58.632812 28.886719 25.886719 0 48.75-11.609375 58.632813-28.929687l21.367187 5.601562v55.328125h-160zm208-152.710937c0 8.835937-7.164062 16-16 16v-32c8.835938 0 16 7.164063 16 16zm-24.351562-80h-79.648438v-79.609375c42.3125 3.769531 75.859376 37.296875 79.648438 79.609375zm-111.648438-88c0-4.417969 3.582032-8 8-8 4.417969 0 8 3.582031 8 8v88h-16zm-16 8.382813v79.617187h-79.640624c3.921874-42.25 37.390624-75.707031 79.640624-79.617187zm-96 103.617187c0-4.417969 3.582032-8 8-8h224c4.417969 0 8 3.582031 8 8s-3.582031 8-8 8h-224c-4.417968 0-8-3.582031-8-8zm8 72c-8.835937 0-16-7.164063-16-16s7.164063-16 16-16zm16-8v-40h192v40c0 53.019531-42.980468 96-96 96-53.019531 0-96-42.980469-96-96zm96 112c13.683594-.019531 27.242188-2.566406 40-7.511719v23.511719c.027344 2.308594 1.0625 4.492187 2.832032 5.976563-10.824219 12.164062-26.566406 18.785156-42.832032 18.023437-16.265624.761719-32.007812-5.859375-42.832031-18.023437 1.769531-1.484376 2.804688-3.667969 2.832031-5.976563v-23.511719c12.757813 4.945313 26.316407 7.492188 40 7.511719zm-192 130c.007813-39.332031 26.148438-73.871094 64-84.558594v106.558594h-64zm80 22v-110.855469l16-4.214844v59.070313c0 4.417969 3.582032 8 8 8h176c4.417969 0 8-3.582031 8-8v-59.070313l16 4.214844v110.855469zm304 0h-64v-106.558594c37.855469 10.683594 63.996094 45.222657 64 84.558594zm0 0"/>
    <path d="m250.328125 173.695312c3.152344 3.09375 8.203125 3.09375 11.359375 0 .707031-.777343 1.273438-1.671874 1.679688-2.640624.410156-.960938.628906-1.992188.640624-3.039063 0-4.417969-3.582031-8-8-8-4.417968 0-8 3.582031-8 8-.027343 1.050781.191407 2.089844.640626 3.039063.40625.96875.972656 1.863281 1.679687 2.640624zm0 0"/>
    <path d="m160.007812 176.015625c.507813-.011719 1.011719-.066406 1.511719-.160156.53125-.074219 1.046875-.238281 1.527344-.480469.511719-.175781.992187-.417969 1.441406-.71875.417969-.296875.816407-.617188 1.199219-.960938 1.460938-1.535156 2.289062-3.5625 2.320312-5.679687-.011718-1.046875-.230468-2.078125-.640624-3.039063-.40625-.96875-.972657-1.863281-1.679688-2.640624-.382812-.34375-.78125-.664063-1.199219-.960938-.449219-.300781-.929687-.542969-1.441406-.71875-.480469-.242188-.996094-.40625-1.527344-.480469-2.609375-.523437-5.308593.285157-7.199219 2.160157-.722656.765624-1.292968 1.660156-1.679687 2.640624-.40625.960938-.621094 1.992188-.632813 3.039063.011719 2.121094.84375 4.15625 2.320313 5.679687 1.53125 1.460938 3.5625 2.289063 5.679687 2.320313zm0 0"/>
    <path d="m264.007812 248.015625v-16c-.023437-19-13.390624-35.371094-32-39.199219v-24.800781h-16v32c0 4.417969-3.582031 8-8 8-4.417968 0-8-3.582031-8-8v-32h-16v24.800781c-18.613281 3.828125-31.976562 20.199219-32 39.199219v16c0 4.417969 3.582032 8 8 8h96c4.417969 0 8-3.582031 8-8zm-16-8h-80v-8c.046876-10.8125 7.316407-20.261719 17.761719-23.070313 3.628907 9.101563 12.4375 15.070313 22.238281 15.070313 9.800782 0 18.609376-5.96875 22.238282-15.070313 10.441406 2.808594 17.714844 12.257813 17.761718 23.070313zm0 0"/>
</svg>