<svg height="480pt" viewBox="-31 0 479 480" width="480pt" xmlns="http://www.w3.org/2000/svg">
    <path d="m320.5 472h-312v-54c-.027344-43.621094 29.398438-81.757812 71.601562-92.800781l7.519532-2c16.957031 31.441406 63.359375 52.800781 120.878906 52.800781s103.921875-21.359375 120.878906-52.800781l7.519532 2c42.203124 11.042969 71.628906 49.179687 71.601562 92.800781v54zm0 0"
          fill="#0b7"/>
    <path d="m320.5 144c13.253906 0 24 10.746094 24 24s-10.746094 24-24 24h-8v-48zm0 0" fill="#f1cfa2"/>
    <path d="m305.058594 316.800781 24.320312 6.398438c-16.957031 31.441406-63.359375 52.800781-120.878906 52.800781s-103.921875-21.359375-120.878906-52.800781l24.320312-6.398438c15.277344 20.640625 52.71875 35.199219 96.558594 35.199219s81.28125-14.558594 96.558594-35.199219zm0 0"
          fill="#00ccb3"/>
    <path d="m312.5 192v8c-.027344 34.929688-22.6875 65.8125-56 76.320312-7.761719 2.453126-15.859375 3.691407-24 3.679688h-48c-8.140625.011719-16.238281-1.226562-24-3.679688-33.3125-10.507812-55.972656-41.390624-56-76.320312v-8zm0 0"
          fill="#0b7"/>
    <path d="m208.5 192h-104v-72h208v72zm0 0" fill="#ffdaaa"/>
    <path d="m312.5 88v32h-208v-32c0-44.183594 35.816406-80 80-80h48c44.183594 0 80 35.816406 80 80zm0 0" fill="#0b7"/>
    <path d="m305.058594 316.800781c-15.277344 20.640625-52.71875 35.199219-96.558594 35.199219s-81.28125-14.558594-96.558594-35.199219l48.558594-12.800781v-27.679688c7.761719 2.453126 15.859375 3.691407 24 3.679688h48c8.140625.011719 16.238281-1.226562 24-3.679688v27.679688zm0 0"
          fill="#ffdaaa"/>
    <path d="m104.5 176v16h-8c-13.253906 0-24-10.746094-24-24s10.746094-24 24-24h8zm0 0" fill="#f1cfa2"/>
    <path d="m256.5 276.320312v16c-7.761719 2.453126-15.859375 3.691407-24 3.679688h-48c-8.140625.011719-16.238281-1.226562-24-3.679688v-16c7.761719 2.453126 15.859375 3.691407 24 3.679688h48c8.140625.011719 16.238281-1.226562 24-3.679688zm0 0"
          fill="#f1cfa2"/>
    <path d="m338.941406 317.472656-74.441406-19.640625v-15.945312c33.726562-13.1875 55.941406-45.675781 56-81.886719 17.671875 0 32-14.328125 32-32s-14.328125-32-32-32v-48c-.058594-48.578125-39.421875-87.9414062-88-88h-48c-48.578125.0585938-87.941406 39.421875-88 88v48c-17.671875 0-32 14.328125-32 32s14.328125 32 32 32c.058594 36.210938 22.273438 68.699219 56 81.886719v15.945312l-74.398438 19.632813c-45.71875 11.964844-77.605468 53.277344-77.601562 100.535156v54c0 4.417969 3.582031 8 8 8h400c4.417969 0 8-3.582031 8-8v-54c.007812-47.246094-31.859375-88.550781-77.558594-100.527344zm-130.441406 42.527344c42.398438 0 80.617188-13.257812 99.472656-34.152344l8.527344 2.25c-19.390625 24.503906-60.214844 39.902344-108 39.902344s-88.609375-15.40625-108-39.902344l8.527344-2.25c18.855468 20.894532 57.074218 34.152344 99.472656 34.152344zm8-216v32c0 4.417969-3.582031 8-8 8s-8-3.582031-8-8v-32h-16v32c.027344 2.730469.523438 5.4375 1.472656 8h-73.472656v-56h192v56h-73.472656c.949218-2.5625 1.445312-5.269531 1.472656-8v-32zm120 24c0 8.835938-7.164062 16-16 16v-32c8.835938 0 16 7.164062 16 16zm-224-80c.042969-39.746094 32.253906-71.957031 72-72h48c39.746094.042969 71.957031 32.253906 72 72v24h-192zm-32 80c0-8.835938 7.164062-16 16-16v32c-8.835938 0-16-7.164062-16-16zm32 32h192c-.042969 39.746094-32.253906 71.957031-72 72h-48c-39.746094-.042969-71.957031-32.253906-72-72zm50.039062 111.734375c3.511719-.925781 5.960938-4.101563 5.960938-7.734375v-17.527344c5.277344.996094 10.632812 1.507813 16 1.527344h48c5.367188-.019531 10.722656-.53125 16-1.527344v17.527344c0 3.632812 2.449219 6.808594 5.960938 7.734375l35.269531 9.304687c-17.496094 14.023438-48.109375 22.960938-81.230469 22.960938s-63.734375-8.9375-81.238281-22.960938zm237.960938 152.265625h-72v-56h-16v56h-208v-56h-16v56h-72v-46c-.011719-39.96875 26.941406-74.917969 65.601562-85.0625l1.765626-.464844c20.871093 31.480469 68.785156 51.527344 124.632812 51.527344s103.761719-20.046875 124.585938-51.527344l1.789062.472656c38.667969 10.132813 65.632812 45.082032 65.625 85.054688zm0 0"/>
    <path d="m256.5 152c1.046875-.011719 2.078125-.230469 3.039062-.640625.96875-.40625 1.863282-.976563 2.640626-1.679687 1.503906-1.507813 2.339843-3.550782 2.320312-5.679688-.03125-2.117188-.859375-4.148438-2.320312-5.679688-1.910157-1.839843-4.589844-2.644531-7.199219-2.160156-.53125.074219-1.042969.234375-1.519531.480469-.980469.386719-1.875.957031-2.640626 1.679687-.707031.777344-1.273437 1.671876-1.679687 2.640626-1.054687 2.460937-.796875 5.285156.6875 7.511718 1.484375 2.226563 3.996094 3.554688 6.671875 3.527344zm0 0"/>
    <path d="m154.820312 138.320312c-1.464843 1.53125-2.292968 3.5625-2.320312 5.679688 0 4.417969 3.582031 8 8 8s8-3.582031 8-8c.019531-3.25-1.929688-6.1875-4.933594-7.433594-3-1.246094-6.457031-.554687-8.746094 1.753906zm0 0"/>
    <path d="m160.5 80h96v16h-96zm0 0"/>
    <path d="m184.5 56h48v16h-48zm0 0"/>
</svg>