<svg height="480pt" viewBox="-32 0 480 480.00001" width="480pt" xmlns="http://www.w3.org/2000/svg">
    <path d="m112 176v16h-16c-13.253906 0-24-10.746094-24-24 .046875-13.234375 10.765625-23.953125 24-24h16zm0 0"
          fill="#f1cfa2"/>
    <path d="m104 120v24h-8c-5.914062-.011719-11.621094 2.183594-16 6.160156v-30.160156zm0 0" fill="#898890"/>
    <path d="m408 434v38h-80v-133.039062l8.398438 2.238281c42.203124 11.042969 71.628906 49.179687 71.601562 92.800781zm0 0"
          fill="#ffde55"/>
    <path d="m312 8c22.652344 0 43.074219 13.640625 51.742188 34.570312 8.667968 20.925782 3.875 45.015626-12.140626 61.03125-10.53125 10.460938-24.757812 16.351563-39.601562 16.398438h-232v-64c0-26.507812 21.492188-48 48-48zm0 0"
          fill="#acabb1"/>
    <path d="m336 150.160156c5.128906 4.503906 8.046875 11.015625 8 17.839844 0 13.253906-10.746094 24-24 24h-16v-48h16c5.914062-.011719 11.621094 2.183594 16 6.160156zm0 0"
          fill="#f1cfa2"/>
    <path d="m336 114.558594v35.601562c-4.378906-3.976562-10.085938-6.171875-16-6.160156h-8v-24c8.308594.03125 16.515625-1.828125 24-5.441406zm0 0"
          fill="#898890"/>
    <path d="m328 392v80h-240v-133.039062l32-8.402344v77.441406h176v-77.441406l32 8.402344zm0 0" fill="#00ccb3"/>
    <path d="m320 240v16c0 35.347656-28.652344 64-64 64h-96c-35.347656 0-64-28.652344-64-64v-16c-.019531-13.15625 4.066406-25.992188 11.679688-36.71875v-.082031c11.933593-17.085938 31.476562-27.25 52.320312-27.199219h32c.066406 8.808594 7.191406 15.933594 16 16 8.824219-.027344 15.972656-7.175781 16-16h32c20.84375-.050781 40.386719 10.113281 52.320312 27.199219v.082031c7.613282 10.726562 11.699219 23.5625 11.679688 36.71875zm0 0"
          fill="#e6e7e8"/>
    <path d="m192 176h-32c-20.84375-.050781-40.386719 10.113281-52.320312 27.199219-2.445313-8.859375-3.683594-18.007813-3.679688-27.199219v-56h208v56c.003906 9.191406-1.234375 18.339844-3.679688 27.199219-11.933593-17.085938-31.476562-27.25-52.320312-27.199219h-32c-.027344 8.824219-7.175781 15.972656-16 16-8.808594-.066406-15.933594-7.191406-16-16zm0 0"
          fill="#ffdaaa"/>
    <path d="m296 330.558594v77.441406h-176v-77.441406l32.160156-8.480469c1.441406 21.121094 25.839844 37.921875 55.839844 37.921875s54.398438-16.800781 55.839844-37.921875zm0 0"
          fill="#ffde55"/>
    <path d="m256 320 7.839844 2.078125c-1.441406 21.121094-25.839844 37.921875-55.839844 37.921875s-54.398438-16.800781-55.839844-37.921875l7.839844-2.078125zm0 0"
          fill="#ffdaaa"/>
    <path d="m88 392v80h-80v-38c-.027344-43.621094 29.398438-81.757812 71.601562-92.800781l8.398438-2.238281zm0 0"
          fill="#ffde55"/>
    <path d="m338.464844 333.425781-50.121094-13.1875c24.285156-12.210937 39.625-37.054687 39.65625-64.238281v-16c-.023438-13.488281-3.886719-26.691406-11.136719-38.0625.152344-.648438.320313-1.289062.464844-1.9375h2.671875c12.554688.0625 23.976562-7.257812 29.160156-18.695312 5.183594-11.433594 3.160156-24.847657-5.160156-34.25v-27.710938c25.078125-14.472656 37.308594-43.988281 29.808594-71.953125-7.5-27.96875-32.855469-47.40625-61.808594-47.390625h-184c-30.914062.0351562-55.964844 25.085938-56 56v91.054688c-8.320312 9.402343-10.34375 22.816406-5.160156 34.25 5.183594 11.4375 16.605468 18.757812 29.160156 18.695312h2.671875c.144531.648438.3125 1.289062.464844 1.9375-7.25 11.371094-11.113281 24.574219-11.136719 38.0625v16c.03125 27.183594 15.371094 52.027344 39.65625 64.238281l-50.121094 13.1875c-45.671875 12.046875-77.5078122 53.339844-77.535156 100.574219v38c0 4.417969 3.582031 8 8 8h400c4.417969 0 8-3.582031 8-8v-38c-.027344-47.234375-31.863281-88.527344-77.535156-100.574219zm-210.464844 3.269531 18.046875-4.75c7.03125 20.855469 32.191406 36.054688 61.953125 36.054688s54.921875-15.199219 61.953125-36.054688l18.046875 4.75v63.304688h-160zm126.398438-8.695312c-5.40625 13.695312-24.453126 24-46.398438 24s-40.953125-10.304688-46.398438-24zm-38.398438-184v32c0 4.417969-3.582031 8-8 8s-8-3.582031-8-8v-32h-16v24h-24c-17.417969.007812-34.238281 6.335938-47.34375 17.808594-.335938-3.265625-.65625-57.808594-.65625-57.808594h192s-.320312 54.542969-.65625 57.808594c-13.105469-11.472656-29.925781-17.800782-47.34375-17.808594h-24v-24zm-128-16h8v8c-2.703125.035156-5.394531.414062-8 1.136719zm232 56v-32c8.835938 0 16 7.164062 16 16s-7.164062 16-16 16zm8-46.863281c-2.605469-.722657-5.296875-1.101563-8-1.136719v-8.550781c2.695312-.347657 5.367188-.867188 8-1.554688zm-240-81.136719c.027344-22.082031 17.917969-39.972656 40-40h184c26.507812 0 48 21.492188 48 48s-21.492188 48-48 48h-224zm8 128c-8.835938 0-16-7.164062-16-16s7.164062-16 16-16zm8 72v-16c-.019531-11.5 3.546875-22.71875 10.207031-32.097656.167969-.238282.320313-.488282.464844-.734375 10.507813-14.558594 27.371094-23.179688 45.328125-23.167969h25.472656c3.339844 9.585938 12.378906 16.007812 22.527344 16.007812s19.1875-6.421874 22.527344-16.007812h25.472656c17.960938-.003906 34.828125 8.628906 45.328125 23.199219.144531.25.296875.496093.464844.738281 6.652343 9.363281 10.222656 20.574219 10.207031 32.0625v16c-.035156 30.914062-25.085938 55.964844-56 56h-96c-30.914062-.035156-55.964844-25.085938-56-56zm-88 178c.027344-39.335938 26.15625-73.871094 64-84.601562v114.601562h-64zm80 30v-118.886719l16-4.210937v67.097656c0 4.417969 3.582031 8 8 8h176c4.417969 0 8-3.582031 8-8v-67.097656l16 4.210937v118.886719zm304 0h-64v-114.601562c37.84375 10.730468 63.972656 45.265624 64 84.601562zm0 0"/>
    <path d="m250.320312 149.679688c.765626.722656 1.660157 1.292968 2.640626 1.679687.960937.410156 1.992187.628906 3.039062.640625 2.121094-.015625 4.15625-.847656 5.679688-2.320312 3.09375-3.15625 3.09375-8.203126 0-11.359376-2.320313-2.230468-5.734376-2.886718-8.71875-1.679687-.980469.386719-1.875.957031-2.640626 1.679687-.742187.75-1.3125 1.652344-1.679687 2.640626-.851563 1.9375-.851563 4.140624 0 6.078124.367187.988282.9375 1.890626 1.679687 2.640626zm0 0"/>
    <path d="m163.039062 136.640625c-2.976562-1.253906-6.417968-.589844-8.71875 1.679687-1.460937 1.535157-2.289062 3.5625-2.320312 5.679688.011719 1.046875.230469 2.078125.640625 3.039062.40625.96875.972656 1.863282 1.679687 2.640626 1.535157 1.460937 3.5625 2.289062 5.679688 2.320312 1.046875-.011719 2.078125-.230469 3.039062-.640625 2.011719-.726563 3.59375-2.308594 4.320313-4.320313.410156-.960937.628906-1.992187.640625-3.039062-.03125-2.117188-.859375-4.144531-2.320312-5.679688-.777344-.707031-1.671876-1.273437-2.640626-1.679687zm0 0"/>
    <path d="m208 240c17.8125.75 35.109375-6.0625 47.625-18.761719l-12.089844-10.476562c-9.519531 9.113281-22.371094 13.902343-35.535156 13.238281-13.164062.664062-26.015625-4.125-35.535156-13.238281l-12.089844 10.476562c12.515625 12.699219 29.8125 19.511719 47.625 18.761719zm0 0"/>
</svg>