<svg height="479pt" viewBox="-31 0 479 479.99792" width="479pt" xmlns="http://www.w3.org/2000/svg">
    <path d="m96.5 71.996094h16c-5.28125 12.675781-8 26.269531-8 40v16h-8c-5.484375-.011719-10.800781 1.886718-15.042969 5.363281-.644531-1.714844-.972656-3.53125-.957031-5.363281v-40c.023438-8.824219 7.171875-15.972656 16-16zm0 0"
          fill="#e6e7e8"/>
    <path d="m112.5 159.996094v16h-16c-10.175781.015625-19.246094-6.394532-22.632812-15.988282-3.382813-9.59375-.339844-20.277343 7.589843-26.648437 4.242188-3.476563 9.558594-5.375 15.042969-5.363281h16zm0 0"
          fill="#f1cfa2"/>
    <path d="m320.5 471.996094h-312v-70c-.027344-43.617188 29.398438-81.757813 71.597656-92.796875l53.203125-14c-3.144531 5.039062-4.808593 10.859375-4.800781 16.796875v32c0-8.835938 7.164062-16 16-16s16 7.164062 16 16v-24l48 48 48-48v24c0-8.835938 7.164062-16 16-16s16 7.164062 16 16v-32c.003906-5.9375-1.65625-11.757813-4.800781-16.796875l53.199219 14c42.199218 11.039062 71.625 49.179687 71.601562 92.796875v70zm0 0"
          fill="#a97c50"/>
    <path d="m335.539062 133.359375c7.882813 6.390625 10.890626 17.050781 7.515626 26.621094-3.375 9.570312-12.40625 15.984375-22.554688 16.015625h-16v-48h16c5.480469-.011719 10.800781 1.886718 15.039062 5.363281zm0 0"
          fill="#f1cfa2"/>
    <path d="m336.5 87.996094v40c.011719 1.832031-.3125 3.648437-.960938 5.363281-4.238281-3.476563-9.558593-5.375-15.039062-5.363281h-8v-16c-.003906-13.730469-2.722656-27.324219-8-40h16c8.824219.027344 15.972656 7.175781 16 16zm0 0"
          fill="#e6e7e8"/>
    <path d="m312.5 111.996094v48c0 57.4375-46.5625 104-104 104s-104-46.5625-104-104v-48c0-57.4375 46.5625-104 104-104s104 46.5625 104 104zm0 0"
          fill="#ffdaaa"/>
    <path d="m288.5 311.996094v32c0-8.835938-7.164062-16-16-16s-16 7.164062-16 16v-64c11.109375-.066406 21.4375 5.703125 27.199219 15.203125 3.144531 5.039062 4.804687 10.859375 4.800781 16.796875zm0 0"
          fill="#c49a6c"/>
    <path d="m256.5 252.238281v67.757813l-48 48-48-48v-67.757813c30.078125 15.679688 65.917969 15.679688 96 0zm0 0"
          fill="#ffdaaa"/>
    <path d="m256.5 191.996094v16h-96v-16c0-17.671875 14.324219-32 32-32 .0625 8.8125 7.191406 15.9375 16 16 8.824219-.023438 15.972656-7.171875 16-16 17.671875 0 32 14.328125 32 32zm0 0"
          fill="#e6e7e8"/>
    <path d="m160.5 319.996094v24c0-8.835938-7.164062-16-16-16s-16 7.164062-16 16v-32c.0625-8.472656 3.417969-16.59375 9.359375-22.636719 6.019531-5.984375 14.15625-9.347656 22.640625-9.363281zm0 0"
          fill="#c49a6c"/>
    <path d="m256.5 252.238281v16c-30.082031 15.679688-65.921875 15.679688-96 0v-16c30.078125 15.679688 65.917969 15.679688 96 0zm0 0"
          fill="#f1cfa2"/>
    <path d="m338.898438 301.460938-50.496094-13.285157c-5.8125-7.886719-14.320313-13.359375-23.902344-15.378906v-15.949219c27.195312-15.746094 46.542969-42.167968 53.34375-72.851562h2.65625c12.621094.058594 24.089844-7.347656 29.230469-18.875 5.144531-11.527344 2.996093-25.007813-5.480469-34.363282.140625-.914062.222656-1.835937.25-2.761718v-40c0-13.253906-10.746094-24-24-24h-10.960938c-18.472656-39.074219-57.820312-63.996094-101.039062-63.996094-43.222656 0-82.570312 24.921875-101.042969 63.996094h-10.957031c-13.257812 0-24 10.746094-24 24v40c.023438.925781.109375 1.847656.246094 2.761718-8.472656 9.355469-10.621094 22.835938-5.480469 34.363282 5.144531 11.527344 16.609375 18.933594 29.234375 18.875h2.65625c6.796875 30.683594 26.148438 57.105468 53.34375 72.851562v15.949219c-9.597656 2.011719-18.117188 7.480469-23.9375 15.367187l-50.464844 13.296876c-45.71875 11.96875-77.601562 53.277343-77.597656 100.535156v70c0 4.421875 3.582031 8 8 8h400c4.417969 0 8-3.578125 8-8v-70c.003906-47.257813-31.882812-88.566406-77.601562-100.535156zm-58.398438 10.535156v9.371094c-5.179688-1.824219-10.824219-1.824219-16 0v-32c9.582031 3.402343 15.988281 12.460937 16 22.628906zm40-144v-32c8.835938 0 16 7.164062 16 16 0 8.839844-7.164062 16-16 16zm0-88c4.417969 0 8 3.582031 8 8v33.136718c-2.609375-.71875-5.296875-1.101562-8-1.136718v-8c-.007812-10.835938-1.597656-21.617188-4.722656-32zm-224 0h4.71875c-3.121094 10.382812-4.710938 21.164062-4.71875 32v8c-2.707031.035156-5.394531.417968-8 1.136718v-33.136718c0-4.417969 3.582031-8 8-8zm0 88c-8.835938 0-16-7.160156-16-16 0-8.835938 7.164062-16 16-16zm16-8v-48c0-53.015625 42.980469-96 96-96s96 42.984375 96 96v48c0 53.019531-42.980469 96-96 96s-96-42.980469-96-96zm96 112c13.679688-.019532 27.242188-2.566406 40-7.511719v52.203125l-40 40-40-40v-52.203125c12.757812 4.945313 26.316406 7.492187 40 7.511719zm-72 40c.011719-10.167969 6.417969-19.226563 16-22.628906v32c-5.179688-1.824219-10.824219-1.824219-16 0zm264 152h-72v-56h-16v56h-208v-56h-16v56h-72v-62c-.011719-39.96875 26.9375-74.914063 65.597656-85.0625l38.898438-10.230469c-.285156 1.75-.449219 3.519531-.496094 5.292969v32c0 4.421875 3.582031 8 8 8s8-3.578125 8-8c0-4.417969 3.582031-8 8-8s8 3.582031 8 8c0 4.421875 3.582031 8 8 8s8-3.578125 8-8v-4.6875l34.34375 34.34375c3.125 3.125 8.1875 3.125 11.3125 0l34.34375-34.34375v4.6875c0 4.421875 3.582031 8 8 8s8-3.578125 8-8c0-4.417969 3.582031-8 8-8s8 3.582031 8 8c0 4.421875 3.582031 8 8 8s8-3.578125 8-8v-32c-.0625-1.777344-.242188-3.546875-.535156-5.300782l38.910156 10.238282c38.667969 10.136718 65.632812 45.085937 65.625 85.0625zm0 0"/>
    <path d="m250.820312 122.316406c-.34375.382813-.667968.78125-.960937 1.203125-.304687.445313-.546875.929688-.71875 1.4375-.234375.453125-.394531.941407-.480469 1.441407-.09375.527343-.148437 1.0625-.160156 1.597656.011719 1.046875.230469 2.078125.640625 3.042968.402344.96875.972656 1.859376 1.679687 2.640626 1.53125 1.457031 3.5625 2.289062 5.679688 2.316406 1.042969-.011719 2.078125-.226563 3.039062-.636719 2.007813-.730469 3.59375-2.3125 4.320313-4.320313.410156-.964843.625-1.996093.640625-3.042968-.03125-2.117188-.859375-4.144532-2.320312-5.679688-.777344-.703125-1.671876-1.273437-2.640626-1.679687-2.988281-1.164063-6.378906-.511719-8.71875 1.679687zm0 0"/>
    <path d="m154.820312 122.316406c-3.105468 3.132813-3.09375 8.1875.03125 11.300782 3.121094 3.113281 8.175782 3.113281 11.296876 0 3.121093-3.113282 3.136718-8.167969.03125-11.300782-3.214844-2.941406-8.144532-2.941406-11.359376 0zm0 0"/>
    <path d="m264.5 207.996094v-16c-.023438-19-13.390625-35.371094-32-39.199219v-24.800781h-16v32c0 4.421875-3.582031 8-8 8s-8-3.578125-8-8v-32h-16v24.800781c-18.613281 3.828125-31.976562 20.199219-32 39.199219v16c0 4.421875 3.582031 8 8 8h96c4.417969 0 8-3.578125 8-8zm-16-8h-80v-8c.046875-10.8125 7.316406-20.257813 17.757812-23.070313 3.632813 9.101563 12.441407 15.074219 22.242188 15.074219 9.796875 0 18.609375-5.972656 22.238281-15.074219 10.441407 2.8125 17.714844 12.257813 17.761719 23.070313zm0 0"/>
    <path d="m144.5 87.996094h128v16h-128zm0 0"/>
    <path d="m176.5 63.996094h64v16h-64zm0 0"/>
</svg>