<svg height="480pt" viewBox="-31 0 479 480" width="480pt" xmlns="http://www.w3.org/2000/svg">
    <path d="m112.5 184v16h-16c-13.253906 0-24-10.746094-24-24s10.746094-24 24-24h16zm0 0" fill="#f1cfa2"/>
    <path d="m320.5 152c13.253906 0 24 10.746094 24 24s-10.746094 24-24 24h-16v-48zm0 0" fill="#f1cfa2"/>
    <path d="m208.5 32c57.4375 0 104 46.5625 104 104v48c0 57.4375-46.5625 104-104 104s-104-46.5625-104-104v-48c0-57.4375 46.5625-104 104-104zm0 0"
          fill="#ffdaaa"/>
    <path d="m320.5 472h-32c0-35.359375-35.839844-64-80-64s-80 28.640625-80 64h-120v-46c-.027344-43.621094 29.398438-81.757812 71.601562-92.800781l80.398438-21.199219c0 26.507812 21.492188 48 48 48s48-21.492188 48-48l80.398438 21.199219c42.203124 11.042969 71.628906 49.179687 71.601562 92.800781v46zm0 0"
          fill="#ff6243"/>
    <path d="m288.5 472h-160c0-35.359375 35.839844-64 80-64s80 28.640625 80 64zm0 0" fill="#ffa733"/>
    <path d="m256.5 276.238281v35.761719c0 26.507812-21.492188 48-48 48s-48-21.492188-48-48v-35.761719c30.078125 15.679688 65.921875 15.679688 96 0zm0 0"
          fill="#ffdaaa"/>
    <path d="m238.261719 37.441406-1.839844 23.519532-1.84375 23.597656-2.078125 27.441406h-48l-2.078125-27.441406-1.84375-23.597656-1.839844-23.519532-.078125-1.042968-1.519531-19.757813c-.15625-2.226563.617187-4.414063 2.132813-6.050781 1.511718-1.636719 3.636718-2.574219 5.867187-2.589844h46.71875c2.230469.015625 4.355469.953125 5.867187 2.589844 1.515626 1.636718 2.289063 3.824218 2.132813 6.050781l-1.519531 19.757813zm0 0"
          fill="#787680"/>
    <path d="m256.5 276.238281v16c-30.078125 15.679688-65.921875 15.679688-96 0v-16c30.078125 15.679688 65.921875 15.679688 96 0zm0 0"
          fill="#f1cfa2"/>
    <path d="m338.941406 325.472656-74.441406-19.640625v-24.921875c27.304688-15.660156 46.707031-42.152344 53.398438-72.910156h2.601562c17.671875 0 32-14.328125 32-32s-14.328125-32-32-32v-8c.105469-47.082031-29.425781-89.136719-73.742188-105.023438l1.054688-13.746093c.34375-4.441407-1.183594-8.828125-4.210938-12.101563-3.027343-3.269531-7.285156-5.128906-11.742187-5.128906h-46.71875c-4.457031 0-8.714844 1.859375-11.742187 5.128906-3.027344 3.273438-4.554688 7.660156-4.210938 12.101563l1.046875 13.601562c-44.140625 16.203125-73.546875 58.148438-73.734375 105.167969v8c-17.671875 0-32 14.328125-32 32s14.328125 32 32 32h2.601562c6.691407 30.761719 26.089844 57.25 53.398438 72.910156v24.921875l-74.398438 19.632813c-45.71875 11.964844-77.605468 53.277344-77.601562 100.535156v46c0 4.417969 3.582031 8 8 8h400c4.417969 0 8-3.582031 8-8v-46c.007812-47.246094-31.859375-88.550781-77.558594-100.527344zm-170.441406-36.914062c25.742188 9.921875 54.257812 9.921875 80 0v23.441406c0 22.089844-17.910156 40-40 40s-40-17.910156-40-40zm168-112.558594c0 8.835938-7.164062 16-16 16v-32c8.835938 0 16 7.164062 16 16zm-104.640625-160-.871094 11.375-12.550781-3.136719-3.875 15.523438 15.203125 3.789062-.570313 7.359375-10.742187-2.679687-3.855469 15.539062 13.359375 3.328125-.570312 7.390625-8.902344-2.25-3.921875 15.523438 11.578125 2.917969-1.046875 13.320312h-33.1875l-1.007812-13.320312 11.578124-2.917969-3.921874-15.523438-8.902344 2.25-.566406-7.390625 13.359374-3.328125-3.855468-15.539062-10.746094 2.679687-.566406-7.359375 15.199218-3.789062-3.871093-15.523438-12.554688 3.136719-.910156-11.375zm-135.359375 176c-8.835938 0-16-7.164062-16-16s7.164062-16 16-16zm16-8v-48c.152344-38.667969 23.378906-73.503906 59.015625-88.511719l4.984375 65.128907c.324219 4.175781 3.8125 7.394531 8 7.382812h48c4.1875.011719 7.675781-3.207031 8-7.382812l5.007812-65.097657c35.746094 14.851563 59.03125 49.773438 58.992188 88.480469v48c0 53.019531-42.980469 96-96 96s-96-42.980469-96-96zm24.800781 280c5.015625-27.089844 34.976563-48 71.199219-48s66.160156 20.910156 71.199219 48zm263.199219 0h-72v-56h-16v56h-16.574219c-4.882812-35.945312-42.210937-64-87.425781-64s-82.542969 28.054688-87.425781 64h-16.574219v-56h-16v56h-72v-38c-.011719-39.96875 26.941406-74.917969 65.601562-85.0625l71.328126-18.808594c4.855468 26.574219 28.011718 45.882813 55.03125 45.882813 27.015624 0 50.171874-19.308594 55.03125-45.882813l71.40625 18.816406c38.660156 10.140626 65.613281 45.085938 65.601562 85.054688zm0 0"/>
    <path d="m208.5 208c13.253906 0 24-10.746094 24-24v-32h-16v32c0 4.417969-3.582031 8-8 8s-8-3.582031-8-8v-32h-16v32c0 13.253906 10.746094 24 24 24zm0 0"/>
    <path d="m250.820312 157.679688c2.289063 2.289062 5.742188 2.957031 8.71875 1.679687 2.011719-.726563 3.59375-2.308594 4.320313-4.320313.855469-1.9375.855469-4.140624 0-6.078124-.40625-.96875-.972656-1.863282-1.679687-2.640626-2.300782-2.269531-5.742188-2.933593-8.71875-1.679687-.980469.386719-1.875.957031-2.640626 1.679687-.707031.777344-1.273437 1.671876-1.679687 2.640626-.449219.949218-.667969 1.988281-.640625 3.039062-.015625 1.039062.171875 2.070312.550781 3.039062.472657.953126 1.066407 1.84375 1.769531 2.640626zm0 0"/>
    <path d="m166.179688 157.679688c1.503906-1.507813 2.339843-3.550782 2.320312-5.679688-.03125-2.117188-.859375-4.148438-2.320312-5.679688-2.300782-2.269531-5.742188-2.933593-8.71875-1.679687-.988282.367187-1.890626.9375-2.640626 1.679687-1.464843 1.53125-2.292968 3.5625-2.320312 5.679688-.023438 2.128906.8125 4.175781 2.320312 5.679688 1.503907 1.507812 3.550782 2.34375 5.679688 2.320312 1.039062.011719 2.074219-.175781 3.039062-.558594.972657-.4375 1.863282-1.03125 2.640626-1.761718zm0 0"/>
    <path d="m208.5 248c17.808594.746094 35.101562-6.066406 47.617188-18.761719l-12.082032-10.476562c-9.519531 9.109375-22.375 13.898437-35.535156 13.238281-13.160156.660156-26.015625-4.128906-35.535156-13.238281l-12.082032 10.476562c12.515626 12.695313 29.808594 19.507813 47.617188 18.761719zm0 0"/>
</svg>