<svg height="480pt" viewBox="-31 0 479 480" width="480pt" xmlns="http://www.w3.org/2000/svg">
    <path d="m336.5 136v56c.03125 10.222656-4.851562 19.835938-13.121094 25.839844-5.632812-2.46875-11.632812-4.007813-17.757812-4.558594 2.578125-6.882812 4.425781-14.015625 5.519531-21.28125h-205.28125c1.09375 7.265625 2.941406 14.398438 5.519531 21.28125-6.125.550781-12.125 2.089844-17.757812 4.558594-8.269532-6.003906-13.152344-15.617188-13.121094-25.839844v-56c0-70.691406 57.308594-128 128-128s128 57.308594 128 128zm0 0"
          fill="#57565c"/>
    <path d="m408.5 418v54h-66.800781c1.867187-5.128906 2.816406-10.542969 2.800781-16 .007812-17.136719-9.144531-32.972656-24-41.519531v-22.480469l13.519531-67.601562 2.878907.800781c42.203124 11.042969 71.628906 49.179687 71.601562 92.800781zm0 0"
          fill="#ffdaaa"/>
    <path d="m375.699219 249.921875c12.503906 12.5 12.503906 32.773437 0 45.277344-12.503907 12.503906-32.777344 12.503906-45.277344 0-15.597656-18.113281-27.574219-39.050781-35.28125-61.679688v-.078125c4.234375-6.296875 7.722656-13.0625 10.398437-20.160156h.082032c6.125.550781 12.125 2.089844 17.757812 4.558594 19.015625 7.882812 36.671875 18.710937 52.320313 32.082031zm0 0"
          fill="#57565c"/>
    <path d="m344.5 456c.015625 5.457031-.933594 10.871094-2.800781 16h-266.398438c-1.867187-5.128906-2.816406-10.542969-2.800781-16-.007812-17.136719 9.144531-32.972656 24-41.519531v-22.480469l-6.960938-69.28125 40.5625-10.71875 6.398438 64h144l12.480469-62.398438 41.039062 10.796876-13.519531 67.601562v22.480469c14.855469 8.546875 24.007812 24.382812 24 41.519531zm0 0"
          fill="#00ccb3"/>
    <path d="m336.5 150.160156c5.128906 4.503906 8.046875 11.015625 8 17.839844 0 6.363281-2.53125 12.46875-7.039062 16.960938-.300782.3125-.621094.609374-.960938.878906-4.378906 3.976562-10.085938 6.171875-16 6.160156h-16v-48h16c5.914062-.011719 11.621094 2.183594 16 6.160156zm0 0"
          fill="#f1cfa2"/>
    <path d="m292.980469 313.601562-12.480469 62.398438h-144l-6.398438-64 30.398438-8v-35.761719c30.078125 15.679688 65.921875 15.679688 96 0v35.761719zm0 0"
          fill="#ffdaaa"/>
    <path d="m121.859375 233.441406v.078125c-7.707031 22.628907-19.683594 43.566407-35.28125 61.679688-12.5 12.503906-32.773437 12.503906-45.277344 0-12.503906-12.503907-12.503906-32.777344 0-45.277344 15.648438-13.371094 33.304688-24.199219 52.320313-32.082031 5.632812-2.46875 11.632812-4.007813 17.757812-4.558594h.082032c2.675781 7.097656 6.164062 13.863281 10.398437 20.160156zm0 0"
          fill="#57565c"/>
    <path d="m112.5 176v16h-16c-5.914062.011719-11.621094-2.183594-16-6.160156-.339844-.269532-.660156-.566406-.960938-.878906-4.507812-4.492188-7.039062-10.597657-7.039062-16.960938.046875-13.234375 10.765625-23.953125 24-24h16zm0 0"
          fill="#f1cfa2"/>
    <path d="m96.5 392v22.480469c-14.855469 8.546875-24.007812 24.382812-24 41.519531-.015625 5.457031.933594 10.871094 2.800781 16h-66.800781v-54c-.027344-43.621094 29.398438-81.757812 71.601562-92.800781l9.4375-2.480469zm0 0"
          fill="#ffdaaa"/>
    <path d="m104.5 120h208v56c0 57.4375-46.5625 104-104 104s-104-46.5625-104-104zm0 0" fill="#ffdaaa"/>
    <path d="m256.5 268.238281v16c-30.078125 15.679688-65.921875 15.679688-96 0v-16c30.078125 15.679688 65.921875 15.679688 96 0zm0 0"
          fill="#f1cfa2"/>
    <path d="m338.941406 317.472656-74.441406-19.640625v-24.984375c10.515625-6.113281 19.972656-13.890625 28-23.03125 8.1875 18.503906 19.050781 35.699219 32.246094 51.039063 15.628906 15.628906 40.964844 15.628906 56.59375 0 15.628906-15.625 15.628906-40.964844 0-56.589844-13.382813-11.636719-28.277344-21.414063-44.28125-29.066406 4.855468-6.757813 7.460937-14.875 7.441406-23.199219v-3.054688c10.667969-11.925781 10.667969-29.964843 0-41.890624v-11.054688c0-75.109375-60.890625-136-136-136s-136 60.890625-136 136v11.054688c-10.667969 11.925781-10.667969 29.964843 0 41.890624v3.054688c-.019531 8.324219 2.582031 16.441406 7.441406 23.199219-16.007812 7.652343-30.90625 17.425781-44.296875 29.058593-15.628906 15.625-15.628906 40.960938 0 56.589844 15.625 15.628906 40.964844 15.628906 56.589844 0 13.195313-15.339844 24.0625-32.535156 32.25-51.039062 8.03125 9.144531 17.492187 16.925781 28.015625 23.039062v24.984375l-74.398438 19.632813c-45.71875 11.964844-77.605468 53.277344-77.601562 100.535156v54c0 4.417969 3.582031 8 8 8h400c4.417969 0 8-3.582031 8-8v-54c.007812-47.246094-31.859375-88.550781-77.558594-100.527344zm-22.441406 103.941406c12.359375 7.136719 19.980469 20.316407 20 34.585938-.023438 2.691406-.328125 5.371094-.910156 8h-254.179688c-.582031-2.628906-.886718-5.308594-.910156-8 .019531-14.269531 7.640625-27.449219 20-34.585938 2.476562-1.429687 4.003906-4.074218 4-6.933593v-22.480469c0-.265625 0-.527344 0-.800781l-6.28125-62.496094 24.898438-6.558594 5.460937 54.65625c.414063 4.101563 3.878906 7.21875 8 7.199219h143.921875c3.800781 0 7.078125-2.675781 7.839844-6.398438l10.808594-54.050781 25.542968 6.738281-12.03125 60.109376c-.105468.527343-.160156 1.0625-.160156 1.601562v22.480469c-.003906 2.859375 1.523438 5.503906 4 6.933593zm53.535156-131.871093c-9.386718 9.363281-24.582031 9.363281-33.96875 0-13.851562-16.332031-24.773437-34.941407-32.277344-55 2.484376-4.011719 4.714844-8.175781 6.671876-12.472657 3.398437.828126 6.730468 1.894532 9.976562 3.203126 18 7.46875 34.730469 17.6875 49.597656 30.285156 9.375 9.390625 9.375 24.59375.007813 33.984375zm-33.535156-121.542969c0 8.835938-7.164062 16-16 16v-32c8.835938 0 16 7.164062 16 16zm-14.921875 40.679688c-1.941406-.664063-3.78125-1.230469-5.535156-1.695313.664062-2.304687 1.28125-4.625 1.800781-6.984375h2.65625c2.273438-.007812 4.539062-.261719 6.761719-.753906-1.117188 3.554687-3.066407 6.785156-5.683594 9.433594zm-220.621094-1.703126c-1.746093.464844-3.589843 1.03125-5.535156 1.703126-2.617187-2.648438-4.5625-5.882813-5.683594-9.433594 2.222657.492187 4.488281.746094 6.761719.753906h2.65625c.542969 2.398438 1.136719 4.671875 1.800781 6.976562zm-4.457031-30.976562v8c-8.835938 0-16-7.164062-16-16s7.164062-16 16-16zm-15.574219 113.542969c-9.382812 9.382812-24.589843 9.382812-33.96875 0-9.382812-9.378907-9.382812-24.585938 0-33.96875 14.867188-12.597657 31.601563-22.8125 49.597657-30.285157 3.25-1.304687 6.585937-2.375 9.984374-3.199218 1.960938 4.296875 4.191407 8.464844 6.679688 12.476562-7.511719 20.050782-18.4375 38.652344-32.292969 54.976563zm31.574219-113.542969v-48h-16v8c-2.703125.035156-5.394531.414062-8 1.136719v-1.136719c0-66.273438 53.726562-120 120-120s120 53.726562 120 120v1.136719c-2.605469-.722657-5.296875-1.101563-8-1.136719v-8h-16v48c0 53.019531-42.980469 96-96 96s-96-42.980469-96-96zm50.039062 135.734375c3.511719-.925781 5.960938-4.101563 5.960938-7.734375v-23.511719c25.726562 10.015625 54.273438 10.015625 80 0v23.511719c0 3.632812 2.449219 6.808594 5.960938 7.734375l29.191406 7.699219-9.710938 48.566406h-130.203125l-5-49.992188zm-146.039062 106.265625c-.011719-39.96875 26.941406-74.917969 65.601562-85.0625l.375-.097656 6.023438 59.558594v17.691406c-15.015625 10.46875-23.972656 27.605468-24 45.910156.035156 2.679688.265625 5.351562.6875 8h-48.6875zm384 46h-48.6875c.421875-2.648438.652344-5.320312.6875-8-.027344-18.304688-8.984375-35.441406-24-45.910156v-17.289063l11.648438-58.234375c36.007812 11.882813 60.339843 45.515625 60.351562 83.433594zm0 0"/>
    <path d="m184.5 152v32c0 13.253906 10.746094 24 24 24s24-10.746094 24-24v-32h-16v32c0 4.417969-3.582031 8-8 8s-8-3.582031-8-8v-32zm0 0"/>
    <path d="m254.898438 144.160156c-.5.085938-.984376.25-1.4375.480469-.511719.175781-1 .417969-1.449219.71875l-1.191407.960937c-1.480468 1.519532-2.3125 3.558594-2.320312 5.679688.011719 1.046875.230469 2.078125.640625 3.039062.40625.96875.976563 1.863282 1.679687 2.640626 2.289063 2.308593 5.746094 3 8.746094 1.753906 3.003906-1.246094 4.953125-4.183594 4.933594-7.433594-.03125-2.117188-.859375-4.148438-2.320312-5.679688-1.914063-1.886718-4.644532-2.695312-7.28125-2.160156zm0 0"/>
    <path d="m168.5 152c-.011719-.511719-.066406-1.019531-.167969-1.519531-.066406-.53125-.226562-1.046875-.472656-1.519531-.179687-.511719-.421875-.996094-.71875-1.449219l-.960937-1.191407c-3.207032-2.960937-8.152344-2.960937-11.359376 0-.34375.378907-.664062.777344-.960937 1.191407-.300781.449219-.542969.9375-.71875 1.449219-.246094.476562-.40625.988281-.480469 1.519531-.09375.5-.148437 1.007812-.160156 1.519531-.019531 2.128906.816406 4.175781 2.320312 5.679688.777344.707031 1.671876 1.273437 2.640626 1.679687 2.460937 1.054687 5.285156.796875 7.511718-.6875 2.226563-1.484375 3.554688-3.996094 3.527344-6.671875zm0 0"/>
    <path d="m176.5 112.320312c4.574219 0 6.511719 1.671876 10.449219 5.449219 5.386719 6.285157 13.25 9.90625 21.53125 9.90625 8.277343 0 16.144531-3.621093 21.53125-9.90625 3.9375-3.785156 5.863281-5.457031 10.449219-5.457031 4.582031 0 6.542968 1.671875 10.488281 5.457031 5.394531 6.285157 13.269531 9.902344 21.554687 9.902344s16.160156-3.617187 21.554688-9.902344c3.953125-3.785156 5.890625-5.457031 10.480468-5.457031v-16c-8.269531.0625-16.117187 3.671875-21.550781 9.902344-3.953125 3.785156-5.886719 5.457031-10.488281 5.457031s-6.527344-1.671875-10.472656-5.457031c-5.394532-6.285156-13.265625-9.902344-21.546875-9.902344-8.285157 0-16.15625 3.617188-21.546875 9.902344-3.9375 3.785156-5.875 5.457031-10.457032 5.457031-4.585937 0-6.511718-1.671875-10.449218-5.457031-5.382813-6.285156-13.25-9.90625-21.527344-9.90625s-16.144531 3.621094-21.527344 9.90625c-3.9375 3.777344-5.871094 5.449218-10.449218 5.449218-4.574219 0-6.511719-1.671874-10.457032-5.457031-5.433594-6.242187-13.289062-9.84375-21.566406-9.886719v16c4.585938 0 6.511719 1.671876 10.457031 5.457032 5.382813 6.285156 13.246094 9.902344 21.523438 9.902344 8.277343 0 16.136719-3.617188 21.523437-9.902344 3.945313-3.785156 5.871094-5.457032 10.496094-5.457032zm0 0"/>
    <path d="m256.117188 229.238281-12.082032-10.476562c-9.519531 9.109375-22.375 13.898437-35.535156 13.238281-13.160156.660156-26.015625-4.128906-35.535156-13.238281l-12.082032 10.476562c12.515626 12.695313 29.808594 19.507813 47.617188 18.761719 17.808594.746094 35.101562-6.066406 47.617188-18.761719zm0 0"/>
</svg>