<svg height="479pt" viewBox="-31 0 479 479.99519" width="479pt" xmlns="http://www.w3.org/2000/svg">
    <path d="m397.699219 389.753906c-12.472657-24.070312-34.570313-41.71875-60.800781-48.558594l-37.441407-9.839843-42.960937-11.359375h-96l-42.957032 11.359375h-.082031l-37.359375 9.839843c-26.800781 6.976563-49.25 25.253907-61.519531 50.078126-7.964844-14.234376-10.167969-30.984376-6.160156-46.796876l42.480469-169.921874 15.199218-60.800782c15.441406-61.667968 70.589844-105.121094 134.160156-105.703125 63.570313-.582031 119.507813 41.851563 136.078126 103.222657l16.640624 61.921874 45.839844 170.160157c4.199219 15.558593 2.367188 32.128906-5.117187 46.398437zm0 0"
          fill="#787680"/>
    <path d="m75.296875 471.996094h-66.800781v-38c.058594-43.59375 29.449218-81.6875 71.601562-92.800782l37.359375-9.839843h.082031c3.453126 1.503906 6.558594 3.710937 9.117188 6.480469 4.480469 5.917968.402344 22.480468 7.921875 27.121093 6.480469 4 20.320313-6.402343 28.558594-3.683593 7.28125 2.480468 11.601562 19.28125 20 20.480468 7.761719 1.203125 16.960937-13.4375 25.359375-13.4375 8.402344 0 17.601562 14.640625 25.363281 13.4375 8.398437-1.199218 12.71875-18 20-20.480468 8.160156-2.71875 22.078125 7.683593 28.558594 3.683593 7.441406-4.640625 3.441406-21.203125 7.917969-27.121093 2.558593-2.769532 5.664062-4.976563 9.121093-6.480469l37.441407 9.839843c42.191406 11.054688 71.609374 49.183594 71.597656 92.800782v38zm0 0"
          fill="#0b7"/>
    <path d="m343.378906 176.875c.738282 2.300781 1.117188 4.703125 1.117188 7.121094 0 13.253906-10.742188 24-24 24h-16v-48h16c10.519531-.050782 19.824218 6.8125 22.882812 16.878906zm0 0"
          fill="#f1cfa2"/>
    <path d="m302.417969 95.996094-5.679688 7.917968c-18.402343-20.238281-51.039062-31.917968-88.242187-31.917968-37.199219 0-69.917969 11.679687-88.320313 32l-5.597656-8c14.640625-29.921875 45.597656-48 93.917969-48 48.320312 0 79.28125 18.078125 93.921875 48zm0 0"
          fill="#ff6243"/>
    <path d="m299.457031 331.355469c-3.457031 1.503906-6.5625 3.710937-9.121093 6.480469-4.476563 5.917968-.476563 22.480468-7.917969 27.121093-6.480469 4-20.398438-6.402343-28.558594-3.683593-7.28125 2.480468-11.601563 19.28125-20 20.480468-7.761719 1.203125-16.960937-13.4375-25.363281-13.4375-8.398438 0-17.597656 14.640625-25.359375 13.4375-8.398438-1.199218-12.71875-18-20-20.480468-8.238281-2.71875-22.078125 7.683593-28.558594 3.683593-7.519531-4.640625-3.441406-21.203125-7.921875-27.121093-2.558594-2.769532-5.664062-4.976563-9.117188-6.480469l42.957032-11.359375v-35.761719c30.082031 15.679687 65.921875 15.679687 96 0v35.761719zm0 0"
          fill="#ffdaaa"/>
    <path d="m112.496094 191.996094v16h-16c-13.253906 0-24-10.746094-24-24 0-1.640625.160156-3.273438.480468-4.882813 2.316407-11.140625 12.140626-19.128906 23.519532-19.117187h16zm0 0"
          fill="#f1cfa2"/>
    <path d="m104.496094 135.996094h208v56c0 57.4375-46.5625 104-104 104s-104-46.5625-104-104zm0 0" fill="#ffdaaa"/>
    <path d="m256.496094 284.234375v16c-30.078125 15.679687-65.917969 15.679687-96 0v-16c30.082031 15.679687 65.921875 15.679687 96 0zm0 0"
          fill="#f1cfa2"/>
    <path d="m259.539062 160.636719c-2.980468-1.253907-6.421874-.589844-8.722656 1.679687-1.460937 1.53125-2.289062 3.5625-2.320312 5.679688-.019532 2.128906.816406 4.175781 2.320312 5.679687 1.503906 1.503907 3.554688 2.339844 5.679688 2.320313 1.042968.011718 2.074218-.179688 3.042968-.5625.953126-.460938 1.84375-1.054688 2.636719-1.757813 1.507813-1.503906 2.34375-3.550781 2.320313-5.679687-.027344-2.117188-.855469-4.148438-2.320313-5.679688-.761719-.722656-1.660156-1.292968-2.636719-1.679687zm0 0"/>
    <path d="m168.496094 167.996094c0-4.417969-3.582032-8-8-8-4.417969 0-8 3.582031-8 8 0 4.417968 3.582031 8 8 8 4.417968 0 8-3.582032 8-8zm0 0"/>
    <path d="m406.523438 389.722656c6.894531-15.199218 8.308593-32.320312 4-48.449218l-62.480469-232.070313c-17.496094-64.917969-76.644531-109.8125-143.878907-109.1953125-67.230468.6132815-125.550781 46.5859375-141.851562 111.8124995l-57.65625 230.71875c-4.09375 16.351563-2.316406 33.625 5.023438 48.800782-6.050782 13.40625-9.179688 27.945312-9.183594 42.65625v38c0 4.417968 3.582031 8 8 8h400c4.417968 0 8-3.582032 8-8v-38c-.011719-15.3125-3.417969-30.433594-9.972656-44.273438zm-10.785157-17.976562c-14.039062-18.835938-34.070312-32.335938-56.800781-38.277344l-74.441406-19.640625v-24.984375c27.195312-15.746094 46.546875-42.167969 53.34375-72.847656h2.65625c16.71875-.050782 30.566406-12.984375 31.761718-29.65625l42.832032 159.085937c2.304687 8.597657 2.527344 17.621094.648437 26.320313zm-227.242187-51.75v-23.511719c25.726562 10.015625 54.273437 10.015625 80 0v23.511719c0 3.632812 2.449218 6.808594 5.960937 7.734375l28.273438 7.457031c-1.910157 4.335938-2.9375 9.007812-3.023438 13.742188-.09375 3.035156-.566406 6.042968-1.417969 8.953124-2.554687-.460937-5.0625-1.144531-7.496093-2.046874-6.105469-2.78125-12.949219-3.527344-19.511719-2.128907-5.679688 2.707031-10.277344 7.257813-13.046875 12.902344-1.519531 2.527344-3.234375 4.9375-5.121094 7.203125-2.53125-1.273438-4.871093-2.890625-6.960937-4.800781-4.714844-4.835938-10.945313-7.90625-17.65625-8.695313-6.707032.792969-12.941406 3.867188-17.65625 8.710938-2.035156 1.742187-4.171875 3.367187-6.398438 4.855468-2.277344-2.105468-4.207031-4.558593-5.710937-7.273437-2.785157-5.664063-7.40625-10.222656-13.113281-12.925781-6.5625-1.394532-13.398438-.636719-19.496094 2.160156-2.425782.90625-4.929688 1.589844-7.480469 2.039062-.851563-2.917968-1.328125-5.933593-1.40625-8.976562-.074219-4.726562-1.09375-9.390625-3-13.71875l28.269531-7.457031c3.527344-.914063 5.988282-4.09375 5.992188-7.734375zm152-120v-32c8.839844 0 16 7.164062 16 16 0 8.835937-7.160156 16-16 16zm-300.320313 146.398437 57.683594-230.71875c14.578125-58.628906 67.261719-99.761719 127.679687-99.679687 59.480469.039062 111.554688 39.9375 127.070313 97.359375l14.105469 52.382812c-5.960938-8.597656-15.753906-13.730469-26.21875-13.742187h-16v40c0 53.019531-42.980469 96-96 96-53.019532 0-96-42.980469-96-96v-40h-16c-17.671875 0-32 14.324218-32 32 0 17.671875 14.328125 32 32 32h2.65625c6.800781 30.679687 26.148437 57.101562 53.34375 72.847656v24.984375l-74.398438 19.632813c-23.402344 6.125-43.925781 20.25-58 39.925781-2.15625-8.871094-2.128906-18.132813.078125-26.992188zm76.320313-154.398437v8c-8.835938 0-16-7.164063-16-16 0-8.835938 7.164062-16 16-16zm304 272h-48.6875c.421875-2.648438.652344-5.320313.6875-8-.023438-18.304688-8.984375-35.445313-24-45.914063v-18.085937h-16v22.480468c0 2.859376 1.523437 5.503907 4 6.933594 12.359375 7.136719 19.980468 20.316406 20 34.585938-.023438 2.691406-.328125 5.371094-.910156 8h-254.175782c-.582031-2.628906-.886718-5.308594-.914062-8 .023437-14.269532 7.644531-27.449219 20-34.585938 2.480468-1.429687 4.003906-4.074218 4-6.933594v-22.480468h-16v18.085937c-15.011719 10.46875-23.972656 27.609375-24 45.914063.039062 2.679687.265625 5.351562.691406 8h-48.691406v-30c-.007813-39.96875 26.941406-74.917969 65.601562-85.066406l34.320313-9.046876c1.378906.6875 2.644531 1.585938 3.742187 2.664063.683594 2.476563 1.054688 5.03125 1.113282 7.601563-.691407 8.246093 2.6875 16.3125 9.054687 21.597656 6.695313 2.875 14.324219 2.601562 20.800781-.734375 2.925782-1.214844 6.015625-1.976563 9.167969-2.257813 1.9375 1.953125 3.609375 4.152344 4.96875 6.546875 3.824219 5.878907 8.566406 13.199219 16.582031 14.34375 7.226563.121094 14.15625-2.871093 19.019532-8.21875 2.265624-2.085937 4.839843-3.808593 7.628906-5.109375 2.796875 1.289063 5.363281 3.019532 7.609375 5.125 4.488281 4.621094 10.410156 7.582032 16.800781 8.394532.71875 0 1.4375-.050782 2.152344-.160157 8.109375-1.160156 12.855468-8.480469 16.679687-14.402343 1.339844-2.308594 2.921875-4.46875 4.71875-6.445313 3.222657.171875 6.386719.90625 9.359375 2.160156 6.511719 3.355469 14.1875 3.621094 20.914063.71875 6.277343-5.304687 9.617187-13.308593 8.96875-21.503906.074219-2.554687.4375-5.09375 1.078125-7.566406 1.109375-1.117188 2.394531-2.046875 3.800781-2.753907l34.320313 9.054688c38.65625 10.144531 65.609374 45.089844 65.597656 85.058594zm0 0"/>
    <path d="m184.496094 167.996094v40c0 13.253906 10.746094 24 24 24 13.257812 0 24-10.746094 24-24v-40h-16v40c0 4.417968-3.582032 8-8 8-4.417969 0-8-3.582032-8-8v-40zm0 0"/>
    <path d="m113.65625 108.578125c1.390625 2 3.613281 3.257813 6.042969 3.417969h.488281c2.261719 0 4.417969-.957032 5.933594-2.632813 16.648437-18.390625 47.441406-29.367187 82.375-29.367187 34.9375 0 65.601562 10.933594 82.296875 29.261718 1.621093 1.78125 3.957031 2.738282 6.359375 2.605469 2.40625-.136719 4.621094-1.34375 6.035156-3.292969l5.710938-7.886718c1.730468-2.398438 1.996093-5.554688.695312-8.207032-11.753906-23.945312-38.832031-52.480468-101.097656-52.480468-62.261719 0-89.34375 28.535156-101.09375 52.480468-1.285156 2.617188-1.042969 5.730469.632812 8.117188zm94.839844-52.582031c33.761718 0 59.570312 9.382812 75.816406 27.34375-22.988281-13.359375-49.238281-20.054688-75.816406-19.34375-26.574219-.714844-52.824219 5.984375-75.804688 19.34375 16.246094-17.960938 42.046875-27.34375 75.804688-27.34375zm0 0"/>
    <path d="m130.488281 150.234375c7.101563-.066406 13.839844-3.144531 18.539063-8.472656 3.101562-2.972657 4.328125-4 7.453125-4 3.128906 0 4.335937 1.035156 7.425781 4 4.65625 5.382812 11.417969 8.472656 18.535156 8.472656 7.117188 0 13.878906-3.089844 18.535156-8.472656 3.097657-2.972657 4.328126-4 7.449219-4 3.121094 0 4.351563 1.035156 7.449219 4 4.699219 5.328125 11.4375 8.410156 18.542969 8.472656 7.109375-.03125 13.859375-3.113281 18.542969-8.464844 3.097656-2.980469 4.335937-4 7.457031-4 3.121093 0 4.367187 1.035157 7.480469 4 4.667968 5.375 11.4375 8.464844 18.554687 8.464844 7.121094 0 13.890625-3.089844 18.554687-8.464844 3.121094-2.980469 4.355469-4 7.488282-4v-16c-7.113282.023438-13.871094 3.105469-18.550782 8.464844-3.113281 2.984375-4.351562 4-7.488281 4s-4.375-1.03125-7.488281-4c-4.664062-5.375-11.429688-8.464844-18.546875-8.464844s-13.886719 3.089844-18.546875 8.464844c-3.105469 2.984375-4.335938 4-7.457031 4-3.121094 0-4.351563-1.03125-7.457031-4-4.65625-5.378906-11.421876-8.46875-18.535157-8.46875s-13.878906 3.089844-18.535156 8.46875c-3.105469 2.984375-4.335937 4-7.457031 4s-4.335938-1.03125-7.433594-4c-4.652344-5.378906-11.417969-8.472656-18.53125-8.472656s-13.875 3.09375-18.53125 8.472656c-3.105469 2.976563-4.328125 4-7.449219 4-3.117187 0-4.351562-1.03125-7.453125-4-4.695312-5.328125-11.433594-8.410156-18.539062-8.480469v16c3.121094 0 4.351562 1.035156 7.457031 4 4.695313 5.328125 11.433594 8.410156 18.535156 8.480469zm0 0"/>
    <path d="m208.496094 247.996094c-13.160156.65625-26.011719-4.128906-35.535156-13.242188l-12.085938 10.480469c12.515625 12.691406 29.8125 19.503906 47.621094 18.761719 17.8125.742187 35.105468-6.070313 47.625-18.761719l-12.085938-10.480469c-9.523437 9.113282-22.375 13.898438-35.539062 13.242188zm0 0"/>
</svg>