<svg height="479pt" viewBox="-31 0 479 479.94145" width="479pt" xmlns="http://www.w3.org/2000/svg">
    <path d="m356.3125 316.261719-14.160156-122.082031c-1.171875 2.5-2.769532 4.773437-4.722656 6.722656-2.53125 2.507812-5.59375 4.421875-8.957032 5.597656v-45.039062c4.210938 1.441406 7.929688 4.050781 10.71875 7.519531l-5.761718-49.757813c-7.367188-63.4375-61.097657-111.289062-124.957032-111.289062-63.863281 0-117.59375 47.851562-124.960937 111.289062l-5.761719 49.757813c4.515625-5.734375 11.421875-9.066407 18.722656-9.039063v48c-6.367187 0-12.46875-2.53125-16.960937-7.039062-1.953125-1.949219-3.550781-4.222656-4.722657-6.722656l-14.160156 122.082031c-1.046875 9.0625 1.820313 18.140625 7.886719 24.957031 6.066406 6.8125 14.753906 10.714844 23.875 10.722656h52.082031c2.386719.011719 4.742188-.535156 6.878906-1.601562 5.554688-2.644532 9.101563-8.242188 9.121094-14.398438v-32h96v32c.015625 6.15625 3.5625 11.753906 9.117188 14.398438 2.136718 1.066406 4.492187 1.613281 6.882812 1.601562h52.078125c9.121094-.007812 17.808594-3.910156 23.875-10.722656 6.066407-6.816406 8.933594-15.894531 7.886719-24.957031zm0 0"
          fill="#787680"/>
    <path d="m344.472656 183.941406c.015625 3.546875-.777344 7.050782-2.320312 10.238282-1.171875 2.5-2.769532 4.773437-4.722656 6.722656-4.492188 4.507812-10.59375 7.039062-16.957032 7.039062h-16v-48h16c13.234375.046875 23.949219 10.765625 24 24zm0 0"
          fill="#f1cfa2"/>
    <path d="m112.472656 191.941406v16h-16c-6.367187 0-12.46875-2.53125-16.960937-7.039062-1.953125-1.949219-3.550781-4.222656-4.722657-6.722656-1.542968-3.1875-2.335937-6.691407-2.316406-10.238282.046875-13.234375 10.761719-23.953125 24-24h16zm0 0"
          fill="#f1cfa2"/>
    <path d="m341.671875 471.941406h-333.199219v-38c-.019531-40.203125 25.058594-76.140625 62.796875-90 5.820313 5.171875 13.335938 8.019532 21.121094 8h22.800781c8 23.519532 33.917969 40.800782 69.121094 46.160156l24.160156-30.160156 24.15625 30.160156c35.203125-5.359374 61.121094-22.640624 69.121094-46.160156h22.800781c7.785157.019532 15.300781-2.828125 21.121094-8 37.738281 13.859375 62.816406 49.796875 62.800781 90v38zm0 0"
          fill="#3d9ae2"/>
    <path d="m312.472656 159.941406v32c0 57.4375-46.5625 104-104 104-57.441406 0-104-46.5625-104-104v-56h208zm0 0"
          fill="#ffdaaa"/>
    <path d="m272.472656 351.941406h29.277344c-8 23.519532-33.917969 40.800782-69.121094 46.160156l-24.15625-30.160156c24.957032 0 46.636719-7.121094 57.117188-17.601562 2.136718 1.066406 4.492187 1.613281 6.882812 1.601562zm0 0"
          fill="#e6e7e8"/>
    <path d="m265.589844 350.339844c-10.480469 10.480468-32.160156 17.601562-57.117188 17.601562-24.960937 0-46.640625-7.121094-57.121094-17.601562 5.554688-2.644532 9.101563-8.242188 9.121094-14.398438v-51.761718c30.078125 15.679687 65.917969 15.679687 96 0v51.761718c.015625 6.15625 3.5625 11.753906 9.117188 14.398438zm0 0"
          fill="#ffdaaa"/>
    <path d="m208.472656 367.941406-24.160156 30.160156c-35.203125-5.359374-61.121094-22.640624-69.121094-46.160156h29.28125c2.386719.011719 4.742188-.535156 6.878906-1.601562 10.480469 10.480468 32.160157 17.601562 57.121094 17.601562zm0 0"
          fill="#e6e7e8"/>
    <path d="m256.472656 284.179688v16c-30.082031 15.679687-65.921875 15.679687-96 0v-16c30.078125 15.679687 65.917969 15.679687 96 0zm0 0"
          fill="#f1cfa2"/>
    <path d="m358.574219 340.851562c4.707031-7.621093 6.710937-16.609374 5.679687-25.511718l-13.933594-120.132813c3.800782-9.722656 2.511719-20.703125-3.433593-29.28125l-5.511719-47.585937c-7.847656-67.457032-64.988281-118.339844-132.902344-118.339844-67.917968 0-125.058594 50.882812-132.90625 118.339844l-5.496094 47.585937c-5.945312 8.578125-7.230468 19.558594-3.429687 29.28125l-13.953125 120.117188c-1.03125 8.90625.96875 17.902343 5.679688 25.527343-35.390626 17.539063-57.8125 53.589844-57.894532 93.089844v38c0 4.417969 3.578125 8 8 8h400c4.417969 0 8-3.582031 8-8v-38c-.085937-39.5-22.507812-75.550781-57.898437-93.089844zm-262.101563-172.910156v32c-8.839844 0-16-7.164062-16-16 0-8.835937 7.160156-16 16-16zm0 48h2.652344c6.800781 30.679688 26.148438 57.105469 53.347656 72.847656v47.152344c0 4.417969-3.582031 8-8 8-13.257812 0-24-10.746094-24-24h-16c.027344 8.683594 2.910156 17.117188 8.207032 24h-20.289063c-6.839844-.007812-13.355469-2.933594-17.902344-8.042968-4.550781-5.113282-6.699219-11.921876-5.914062-18.71875l12.242187-105.503907c4.757813 2.757813 10.152344 4.230469 15.65625 4.265625zm208-72v48c0 53.019532-42.984375 96-96 96-53.019531 0-96-42.980468-96-96v-48zm32 40c0 8.835938-7.164062 16-16 16v-32c8.835938 0 16 7.164063 16 16zm-83.507812 165.886719c-13.742188 7.066406-29.046875 10.546875-44.492188 10.113281-15.449218.433594-30.753906-3.046875-44.496094-10.113281 2.914063-4.042969 4.488282-8.902344 4.496094-13.886719v-39.511718c25.722656 10.015624 54.273438 10.015624 80 0v39.511718c.003906 4.984375 1.578125 9.84375 4.492188 13.886719zm-108.492188 10.113281c1.730469-.007812 3.460938-.207031 5.148438-.59375 12.710937 8.902344 27.550781 14.277344 43.007812 15.578125l-11.621094 14.503907c-24.257812-4.542969-42.890624-15.199219-52.707031-29.488282zm122.847656-.59375c1.6875.386719 3.417969.585938 5.152344.59375h16.167969c-9.816406 14.3125-28.449219 24.945313-52.707031 29.488282l-11.621094-14.503907c15.457031-1.300781 30.296875-6.675781 43.007812-15.578125zm36.941407-15.40625c5.296875-6.882812 8.179687-15.316406 8.210937-24h-16c0 13.253906-10.746094 24-24 24-4.421875 0-8-3.582031-8-8v-47.152344c27.195313-15.742187 46.542969-42.167968 53.34375-72.847656h2.65625c5.5-.03125 10.894532-1.503906 15.652344-4.265625l12.242188 105.523438c.78125 6.792969-1.371094 13.597656-5.917969 18.703125-4.550781 5.105468-11.058594 8.03125-17.898438 8.039062zm-95.789063-328c59.800782-.015625 110.125 44.792969 117.015625 104.199219l3.839844 33.199219c-2.871094-.882813-5.855469-1.351563-8.855469-1.398438v-32h-16v8h-16v-40h-16v40h-32v-16h-16v16h-64v-32h-16v32h-32v-8h-16v32c-3.003906.046875-5.988281.515625-8.859375 1.398438l3.839844-33.199219c6.898437-59.402344 57.214844-104.207031 117.019531-104.199219zm192 448h-48.691406c.425781-2.648437.652344-5.320312.691406-8-.027344-18.304687-8.988281-35.441406-24-45.910156v-18.089844h-16v22.480469c-.003906 2.859375 1.519532 5.503906 4 6.9375 12.355469 7.132813 19.976563 20.3125 20 34.582031-.027344 2.691406-.332031 5.371094-.914062 8h-254.175782c-.582031-2.628906-.886718-5.308594-.910156-8 .019532-14.269531 7.640625-27.449218 20-34.582031 2.476563-1.433594 4-4.078125 4-6.9375v-22.480469h-16v18.089844c-15.015625 10.46875-23.976562 27.605469-24 45.910156.035156 2.679688.265625 5.351563.6875 8h-48.6875v-30c.046875-35.261718 21.140625-67.089844 53.597656-80.871094 6.589844 4.464844 14.363282 6.859376 22.320313 6.871094h17.679687c10.832032 23.558594 37.503907 40.648438 73.082032 46.0625 2.820312.441406 5.660156-.667968 7.4375-2.902344l17.882812-22.359374 17.917969 22.398437c1.515625 1.894531 3.8125 3 6.238281 3 .402344 0 .804688-.03125 1.203125-.09375 35.574219-5.417969 62.246094-22.503906 73.078125-46.066406h17.601563c7.949219-.015625 15.714843-2.410157 22.296875-6.871094 32.464844 13.757813 53.585937 45.570313 53.664062 80.832031zm0 0"/>
    <path d="m208.472656 215.941406c13.253906 0 24-10.746094 24-24v-32h-16v32c0 4.417969-3.582031 8-8 8-4.421875 0-8-3.582031-8-8v-32h-16v32c0 13.253906 10.742188 24 24 24zm0 0"/>
    <path d="m256.472656 167.941406c2.675782.027344 5.183594-1.300781 6.667969-3.527344 1.484375-2.226562 1.746094-5.050781.691406-7.511718-.40625-.96875-.976562-1.863282-1.679687-2.640625-2.339844-2.199219-5.734375-2.855469-8.722656-1.679688-.96875.40625-1.859376.972657-2.640626 1.679688-.722656.765625-1.292968 1.660156-1.679687 2.640625-1.054687 2.460937-.792969 5.285156.691406 7.511718 1.484375 2.226563 3.992188 3.554688 6.671875 3.527344zm0 0"/>
    <path d="m160.472656 167.941406c2.675782.027344 5.183594-1.300781 6.667969-3.527344 1.484375-2.226562 1.746094-5.050781.691406-7.511718-.40625-.96875-.976562-1.863282-1.679687-2.640625-3.210938-2.960938-8.152344-2.960938-11.363282 0-.722656.765625-1.292968 1.660156-1.679687 2.640625-1.054687 2.460937-.792969 5.285156.691406 7.511718 1.484375 2.226563 3.992188 3.554688 6.671875 3.527344zm0 0"/>
    <path d="m208.472656 255.941406c17.808594.742188 35.101563-6.070312 47.621094-18.761718l-12.085938-10.476563c-9.523437 9.109375-22.375 13.898437-35.535156 13.238281-13.164062.660156-26.015625-4.128906-35.539062-13.238281l-12.085938 10.476563c12.519532 12.691406 29.8125 19.503906 47.625 18.761718zm0 0"/>
</svg>