<svg height="479pt" viewBox="-31 0 479 479.98876" width="479pt" xmlns="http://www.w3.org/2000/svg">
    <path d="m384.496094 287.988281c0 16.976563-6.734375 33.261719-18.722656 45.28125-1.007813 1.023438-2.074219 1.984375-3.199219 2.878907-18.902344 16.492187-45.695313 20.425781-68.535157 10.054687-22.84375-10.371094-37.519531-33.128906-37.542968-58.214844v-19.757812c6.542968-3.421875 12.710937-7.527344 18.398437-12.242188h-132.71875c5.625 4.757813 11.769531 8.867188 18.320313 12.242188v19.757812c.007812 12.550781-3.695313 24.828125-10.640625 35.28125-2.332031 3.609375-5.039063 6.960938-8.082031 10-4.925782 4.902344-10.628907 8.957031-16.878907 12h-.082031c-8.777344 4.433594-18.480469 6.734375-28.316406 6.71875-15.484375-.003906-30.441406-5.632812-42.082032-15.839843-1.125-.894532-2.191406-1.855469-3.199218-2.878907-11.988282-12.019531-18.722656-28.304687-18.71875-45.28125 26.507812 0 48-21.488281 48-48v-104c0-35.015625 14.347656-68.5 39.699218-92.652343 25.347657-24.15625 59.484376-36.871094 94.460938-35.1875 68.878906 3.199218 121.839844 62.558593 121.839844 131.441406v100.398437c.039062 26.492188 21.503906 47.960938 48 48zm0 0"
          fill="#ffa733"/>
    <path d="m336.496094 150.148438c5.128906 4.503906 8.046875 11.015624 8 17.839843 0 6.363281-2.535156 12.46875-7.042969 16.960938-.296875.3125-.621094.609375-.957031.878906-4.378906 3.976563-10.085938 6.175781-16 6.160156h-16v-48h16c5.914062-.011719 11.621094 2.183594 16 6.160157zm0 0"
          fill="#f1cfa2"/>
    <path d="m112.496094 175.988281v16h-16c-5.917969.015625-11.621094-2.183593-16-6.160156-.339844-.269531-.660156-.566406-.960938-.878906-4.507812-4.492188-7.042968-10.597657-7.039062-16.960938.046875-13.234375 10.761718-23.953125 24-24h16zm0 0"
          fill="#f1cfa2"/>
    <path d="m341.695312 471.988281h-333.199218v-54c-.027344-33.425781 17.375-64.445312 45.917968-81.839843 11.640626 10.207031 26.597657 15.835937 42.082032 15.839843 9.835937.015625 19.539062-2.285156 28.316406-6.71875h.082031c17.71875 11.769531 38.039063 19.046875 59.199219 21.199219l24.402344-30.480469 24.398437 30.480469c21.164063-2.089844 41.492188-9.34375 59.199219-21.121094 23.191406 11.488282 51.015625 7.855469 70.480469-9.199218 28.542969 17.394531 45.945312 48.414062 45.921875 81.839843v54zm-125.199218-72c0-4.417969-3.582032-8-8-8-4.421875 0-8 3.582031-8 8s3.578125 8 8 8c4.417968 0 8-3.582031 8-8zm0 48c0-4.417969-3.582032-8-8-8-4.421875 0-8 3.582031-8 8s3.578125 8 8 8c4.417968 0 8-3.582031 8-8zm0 0"
          fill="#00ccb3"/>
    <path d="m312.496094 143.988281v32c0 57.4375-46.5625 104-104 104s-104-46.5625-104-104v-48c0-2.71875.078125-5.359375.316406-8h143.683594s0-39.839843-15.921875-55.917969c1.921875 1.4375 32.160156 24.878907 39.921875 55.917969h39.679687c.238281 2.640625.320313 5.28125.320313 8zm0 0"
          fill="#ffdaaa"/>
    <path d="m267.132812 323.269531c6.203126 9.453125 14.820313 17.078125 24.960938 22.078125-17.707031 11.777344-38.035156 19.03125-59.199219 21.121094l-24.398437-30.480469c20.277344.453125 40.371094-3.90625 58.636718-12.71875zm0 0"
          fill="#e6e7e8"/>
    <path d="m267.132812 323.269531c-18.265624 8.8125-38.359374 13.171875-58.636718 12.71875-20.277344.453125-40.375-3.90625-58.640625-12.71875 6.945312-10.453125 10.648437-22.730469 10.640625-35.28125v-19.757812c30.078125 15.679687 65.917968 15.679687 96 0v19.757812c-.023438 12.554688 3.679687 24.832031 10.636718 35.28125zm0 0"
          fill="#ffdaaa"/>
    <path d="m208.496094 335.988281-24.402344 30.480469c-21.160156-2.152344-41.480469-9.429688-59.199219-21.199219 6.25-3.042969 11.953125-7.097656 16.878907-12 3.042968-3.039062 5.75-6.390625 8.082031-10 18.265625 8.8125 38.363281 13.171875 58.640625 12.71875zm0 0"
          fill="#e6e7e8"/>
    <path d="m256.496094 268.230469v16c-30.082032 15.679687-65.921875 15.679687-96 0v-16c30.078125 15.679687 65.917968 15.679687 96 0zm0 0"
          fill="#f1cfa2"/>
    <path d="m374.894531 335.0625c11.355469-13.054688 17.609375-29.773438 17.601563-47.074219 0-4.417969-3.582032-8-8-8-22.078125-.039062-39.960938-17.925781-40-40v-51.054687c10.664062-11.925782 10.664062-29.964844 0-41.890625v-7.453125c1.105468-73.636719-55.957032-135.089844-129.472656-139.433594-37.160157-1.785156-73.425782 11.726562-100.355469 37.390625-26.929688 25.667969-42.171875 61.242187-42.171875 98.441406v11.054688c-10.667969 11.925781-10.667969 29.964843 0 41.890625v51.054687c-.027344 22.082031-17.921875 39.972657-40 40-4.421875 0-8 3.582031-8 8-.003906 17.300781 6.246094 34.019531 17.597656 47.074219-26.0625 19.625-41.449219 50.300781-41.597656 82.925781v54c0 4.417969 3.578125 8 8 8h400c4.417968 0 8-3.582031 8-8v-54c-.152344-32.625-15.542969-63.300781-41.601563-82.925781zm-30.023437-55.523438c8.386718 8.503907 19.308594 14.054688 31.121094 15.816407-3.941407 29.183593-29.808594 50.324219-59.191407 48.382812-29.378906-1.941406-52.238281-26.304687-52.304687-55.75v-15.152343c27.195312-15.742188 46.542968-42.167969 53.34375-72.847657h2.65625c2.703125-.035156 5.390625-.414062 8-1.136719v41.136719c-.070313 14.851563 5.839844 29.109375 16.398437 39.550781zm-232.375-135.550781v-16h136c4.417968 0 8-3.582031 8-8-.066406-6.605469-.566406-13.203125-1.496094-19.742187 4.386719 6.65625 7.671875 13.976562 9.734375 21.679687.886719 3.5625 4.089844 6.0625 7.761719 6.0625h32v48c0 53.019531-42.980469 96-96 96-53.019532 0-96-42.980469-96-96zm224 24c0 8.835938-7.164063 16-16 16v-32c8.835937 0 16 7.164063 16 16zm-168 112.488281c25.722656 10.015626 54.273437 10.015626 80 0v7.511719c.007812 10.972657 2.546875 21.792969 7.414062 31.625-15.144531 5.71875-31.226562 8.558594-47.414062 8.375-16.175782.183594-32.242188-2.648437-47.378906-8.359375 4.851562-9.84375 7.375-20.667968 7.378906-31.640625zm-21.042969 58.398438c1.746094-1.757812 3.398437-3.601562 4.953125-5.527344 12.761719 5.363282 26.292969 8.6875 40.089844 9.839844l-11.800782 14.722656c-14.128906-2.003906-27.832031-6.296875-40.578124-12.714844 2.582031-1.933593 5.03125-4.039062 7.335937-6.292968zm117.191406-5.550781c3.628907 4.429687 7.765625 8.410156 12.328125 11.863281-12.761718 6.449219-26.503906 10.742188-40.671875 12.707031l-11.804687-14.707031c13.816406-1.148438 27.367187-4.46875 40.148437-9.839844zm-138.980469-284.136719c23.707032-22.777344 55.78125-34.738281 88.613282-33.046875 63.988281 3.894531 113.933594 56.839844 114.097656 120.945313-2.570312-.695313-5.21875-1.066407-7.878906-1.097657v-8c.007812-11.699219-1.816406-23.328125-5.410156-34.464843l-15.199219 4.929687c1.414062 4.425781 2.5 8.949219 3.246093 13.535156h-24.671874c-8.660157-21.460937-22.867188-40.234375-41.167969-54.398437-3.355469-2.515625-8.085938-2.007813-10.835938 1.164062-2.75 3.167969-2.582031 7.921875.382813 10.890625 8.941406 8.953125 12.320312 29.34375 13.300781 42.34375h-126.285156c.753906-4.585937 1.84375-9.109375 3.261719-13.535156l-15.199219-4.929687c-3.597657 11.136718-5.429688 22.765624-5.421875 34.464843v8c-2.707032.035157-5.394532.417969-8 1.136719v-1.136719c-.117188-32.820312 13.332031-64.234375 37.167968-86.800781zm-45.167968 118.800781c0-8.835937 7.160156-16 16-16v32c-8.839844 0-16-7.164062-16-16zm8 72v-41.136719c2.605468.722657 5.292968 1.101563 8 1.136719h2.652344c6.800781 30.679688 26.148437 57.105469 53.347656 72.847657v15.152343c.019531 29.515625-22.863282 53.980469-52.3125 55.921875-29.449219 1.945313-55.351563-19.300781-59.210938-48.5625 27.320313-4.222656 47.488282-27.71875 47.523438-55.359375zm312 224h-48.691406c.425781-2.644531.652343-5.320312.691406-8-.027344-18.304687-8.988282-35.441406-24-45.910156v-18.089844h-16v22.480469c-.003906 2.859375 1.519531 5.503906 4 6.9375 12.355468 7.132812 19.976562 20.3125 20 34.582031-.027344 2.691407-.332032 5.371094-.914063 8h-254.175781c-.582031-2.628906-.886719-5.308593-.910156-8 .019531-14.269531 7.640625-27.449219 20-34.582031 2.476562-1.433594 4-4.078125 4-6.9375v-22.480469h-16v18.089844c-15.015625 10.46875-23.976563 27.605469-24 45.910156.035156 2.679688.265625 5.355469.6875 8h-48.6875v-46c.125-28.640625 14.144531-55.4375 37.597656-71.871093 20.320312 14.867187 46.9375 18.023437 70.167969 8.3125 17.890625 10.90625 37.96875 17.734374 58.800781 20 2.761719.332031 5.5-.777344 7.257812-2.9375l18.175782-22.703126 18.160156 22.671876c1.515625 1.894531 3.8125 3 6.238281 3 .328125 0 .65625-.023438.984375-.0625 20.886719-2.199219 41.023438-9.03125 58.933594-20 23.199219 9.699218 49.78125 6.542968 70.058594-8.320313 23.476562 16.433594 37.507812 43.25 37.625 71.910156zm0 0"/>
    <path d="m208.496094 199.988281c13.253906 0 24-10.746093 24-24v-32h-16v32c0 4.417969-3.582032 8-8 8-4.421875 0-8-3.582031-8-8v-32h-16v32c0 13.253907 10.742187 24 24 24zm0 0"/>
    <path d="m250.8125 149.667969c3.15625 3.09375 8.207031 3.09375 11.363281 0 .703125-.777344 1.269531-1.671875 1.679688-2.640625.410156-.960938.625-1.992188.640625-3.039063 0-4.417969-3.582032-8-8-8-4.421875 0-8 3.582031-8 8-.03125 1.050781.191406 2.089844.636718 3.039063.410157.96875.976563 1.863281 1.679688 2.640625zm0 0"/>
    <path d="m157.453125 151.347656c1.9375.855469 4.144531.855469 6.082031 0 2.007813-.726562 3.59375-2.308594 4.320313-4.320312.410156-.960938.625-1.992188.640625-3.039063-.03125-2.117187-.859375-4.144531-2.320313-5.679687-.382812-.34375-.785156-.664063-1.203125-.960938-.445312-.300781-.929687-.542968-1.4375-.71875-.480468-.242187-.996094-.40625-1.527344-.480468-2.609374-.523438-5.308593.289062-7.203124 2.160156-.722657.765625-1.292969 1.660156-1.679688 2.640625-1.273438 2.976562-.609375 6.429687 1.679688 8.71875.78125.707031 1.679687 1.277343 2.648437 1.679687zm0 0"/>
    <path d="m224.496094 399.988281c0 8.835938-7.164063 16-16 16-8.839844 0-16-7.164062-16-16 0-8.835937 7.160156-16 16-16 8.835937 0 16 7.164063 16 16zm0 0"/>
    <path d="m224.496094 447.988281c0 8.835938-7.164063 16-16 16-8.839844 0-16-7.164062-16-16 0-8.835937 7.160156-16 16-16 8.835937 0 16 7.164063 16 16zm0 0"/>
    <path d="m208.496094 239.988281c17.808594.746094 35.101562-6.066406 47.613281-18.757812l-12.078125-10.480469c-9.523438 9.109375-22.375 13.898438-35.535156 13.238281-13.164063.660157-26.015625-4.128906-35.539063-13.238281l-12.078125 10.480469c12.511719 12.691406 29.808594 19.503906 47.617188 18.757812zm0 0"/>
</svg>