<svg height="479pt" viewBox="-31 0 479 479.96508" width="479pt" xmlns="http://www.w3.org/2000/svg">
    <path d="m208.484375 7.964844c-79.003906-.015625-146.191406 57.632812-158.179687 135.71875-11.988282 78.085937 34.808593 153.234375 110.179687 176.921875v-.496094c31.140625 10.472656 64.855469 10.472656 96 0v.496094c75.367187-23.6875 122.164063-98.835938 110.175781-176.921875-11.988281-78.085938-79.175781-135.734375-158.175781-135.71875zm0 0"
          fill="#787680"/>
    <path d="m320.484375 167.964844c13.253906 0 24 10.746094 24 24s-10.746094 24-24 24h-16v-48zm0 0" fill="#f1cfa2"/>
    <path d="m112.484375 199.964844v16h-16c-13.257813 0-24-10.746094-24-24s10.742187-24 24-24h16zm0 0" fill="#f1cfa2"/>
    <path d="m320.484375 471.964844h-112v-96l64 16-16-64 80.398437 21.199218c42.199219 11.042969 71.625 49.179688 71.601563 92.800782v30zm0 0"
          fill="#e6e7e8"/>
    <path d="m312.484375 167.964844v32c0 57.4375-46.5625 104-104 104s-104-46.5625-104-104v-32c8.824219-.027344 15.972656-7.175782 16-16v-32c0-17.671875 14.324219-32 32-32h112c17.671875 0 32 14.328125 32 32v32c.023437 8.824218 7.171875 15.972656 16 16zm0 0"
          fill="#ffdaaa"/>
    <path d="m256.484375 327.964844 16 64-64-16zm0 0" fill="#d1d3d4"/>
    <path d="m256.484375 292.207031v35.757813l-48 48-48-48v-35.757813c30.078125 15.679688 65.917969 15.679688 96 0zm0 0"
          fill="#ffdaaa"/>
    <path d="m96.484375 471.964844h-88v-30c-.027344-43.621094 29.398437-81.757813 71.597656-92.800782l80.402344-21.199218-16 64 64-16v96zm0 0"
          fill="#d1d3d4"/>
    <path d="m208.484375 375.964844-64 16 16-64zm0 0" fill="#e6e7e8"/>
    <path d="m256.484375 292.207031v16c-30.082031 15.679688-65.921875 15.679688-96 0v-16c30.078125 15.679688 65.917969 15.679688 96 0zm0 0"
          fill="#f1cfa2"/>
    <path d="m338.921875 341.4375-67.304687-17.753906c74.492187-30.207032 117.148437-108.949219 101.757812-187.847656-15.390625-78.894532-84.507812-135.835938-164.890625-135.835938-80.386719 0-149.503906 56.941406-164.894531 135.835938-15.390625 78.898437 27.265625 157.640624 101.757812 187.847656l-67.265625 17.746094c-45.714843 11.972656-77.597656 53.277343-77.597656 100.535156v30c0 4.417968 3.578125 8 8 8h400c4.417969 0 8-3.582032 8-8v-30c.003906-47.246094-31.863281-88.546875-77.5625-100.527344zm-130.4375 23.214844-40-40v-20.199219c25.722656 10.015625 54.273437 10.015625 80 0v20.199219zm-112-164.6875v8c-8.839844 0-16-7.164063-16-16 0-8.835938 7.160156-16 16-16zm16-25.472656c9.554687-3.378907 15.957031-12.394532 16-22.527344v-32c0-13.253906 10.742187-24 24-24h112c13.253906 0 24 10.746094 24 24v32c.039063 10.132812 6.441406 19.148437 16 22.527344v25.472656c0 53.019531-42.984375 96-96 96-53.019531 0-96-42.980469-96-96zm208 33.472656v-32c8.835937 0 16 7.164062 16 16 0 8.835937-7.164063 16-16 16zm-155.664063 135.648437 28 28-37.355468 9.34375zm87.328126 0 9.335937 37.359375-37.355469-9.34375zm-195.664063-175.648437c-.007813-76.578125 56.953125-141.199219 132.921875-150.808594 75.972656-9.613281 147.230469 38.792969 166.292969 112.960938 19.058593 74.164062-20.027344 150.929687-91.214844 179.144531v-12.449219c27.195313-15.742188 46.542969-42.167969 53.34375-72.847656h2.65625c17.671875 0 32-14.328125 32-32s-14.328125-32-32-32h-8c-4.421875 0-8-3.582032-8-8v-32c-.027344-22.082032-17.921875-39.972656-40-40h-112c-22.082031.027344-39.976563 17.917968-40 40v32c0 4.417968-3.582031 8-8 8h-8c-17.675781 0-32 14.328125-32 32s14.324219 32 32 32h2.652344c6.800781 30.679687 26.148437 57.105468 53.347656 72.847656v12.449219c-58.101563-22.765625-96.238281-78.894531-96-141.296875zm-40 274c-.011719-39.96875 26.9375-74.917969 65.597656-85.0625l67.359375-17.738282-12.71875 50.882813c-.679687 2.722656.121094 5.605469 2.109375 7.59375 1.984375 1.984375 4.867188 2.78125 7.59375 2.101563l54.058594-13.527344v77.75h-96v-56h-16v56h-72zm384 22h-72v-56h-16v56h-96v-77.75l54.054687 13.511718c2.726563.679688 5.613282-.117187 7.597657-2.105468 1.988281-1.984375 2.785156-4.867188 2.105469-7.59375l-12.71875-50.863282 67.335937 17.761719c38.660156 10.132813 65.625 45.070313 65.625 85.039063zm0 0"/>
    <path d="m208.484375 223.964844c13.253906 0 24-10.746094 24-24v-32h-16v32c0 4.417968-3.582031 8-8 8-4.421875 0-8-3.582032-8-8v-32h-16v32c0 13.253906 10.742187 24 24 24zm0 0"/>
    <path d="m256.484375 175.964844c2.675781.027344 5.183594-1.300782 6.667969-3.527344s1.746094-5.050781.691406-7.511719c-.386719-.980469-.957031-1.875-1.679688-2.640625-.78125-.707031-1.671874-1.273437-2.640624-1.679687-1.457032-.644531-3.082032-.8125-4.640626-.480469-.5.085938-.988281.25-1.441406.480469-.507812.175781-.992187.417969-1.4375.71875-.421875.296875-.820312.617187-1.203125.960937-.703125.777344-1.273437 1.671875-1.679687 2.640625-1.054688 2.460938-.792969 5.285157.691406 7.511719s3.992188 3.554688 6.671875 3.527344zm0 0"/>
    <path d="m154.800781 173.644531c.78125.707031 1.671875 1.273438 2.640625 1.679688 1.9375.855469 4.144532.855469 6.082032 0 .96875-.40625 1.859374-.972657 2.640624-1.679688 2.289063-2.289062 2.953126-5.742187 1.679688-8.71875-.386719-.980469-.957031-1.875-1.679688-2.640625-2.300781-2.269531-5.742187-2.933594-8.722656-1.679687-.96875.40625-1.859375.972656-2.640625 1.679687-.722656.765625-1.292969 1.660156-1.679687 2.640625-.851563 1.9375-.851563 4.140625 0 6.078125.410156.96875.976562 1.863282 1.679687 2.640625zm0 0"/>
    <path d="m235.523438 408.605469c-2.980469-1.253907-6.421876-.589844-8.722657 1.679687-1.460937 1.53125-2.289062 3.5625-2.316406 5.679688-.023437 2.128906.8125 4.175781 2.316406 5.679687.78125.707031 1.671875 1.273438 2.640625 1.679688 2.460938 1.054687 5.289063.796875 7.515625-.6875 2.226563-1.484375 3.554688-3.996094 3.527344-6.671875-.03125-2.117188-.859375-4.148438-2.320313-5.679688-.78125-.707031-1.671874-1.273437-2.640624-1.679687zm0 0"/>
    <path d="m229.441406 440.605469c-.96875.40625-1.859375.972656-2.640625 1.679687-1.460937 1.53125-2.289062 3.5625-2.316406 5.679688-.03125 1.050781.191406 2.089844.636719 3.039062.410156.96875.976562 1.863282 1.679687 2.640625.78125.707031 1.671875 1.273438 2.640625 1.679688 1.9375.855469 4.144532.855469 6.082032 0 .96875-.40625 1.859374-.972657 2.640624-1.679688.703126-.777343 1.269532-1.671875 1.679688-2.640625.410156-.960937.625-1.992187.640625-3.039062-.03125-2.117188-.859375-4.148438-2.320313-5.679688-2.339843-2.199218-5.734374-2.855468-8.722656-1.679687zm0 0"/>
    <path d="m208.484375 263.964844c17.808594.742187 35.101563-6.070313 47.621094-18.757813l-12.085938-10.480469c-9.523437 9.109376-22.375 13.898438-35.535156 13.238282-13.164063.660156-26.015625-4.128906-35.539063-13.238282l-12.085937 10.480469c12.519531 12.6875 29.8125 19.5 47.625 18.757813zm0 0"/>
</svg>