<svg height="480pt" viewBox="-31 0 479 480" width="480pt" xmlns="http://www.w3.org/2000/svg">
    <path d="m112.5 160v16h-16c-13.253906 0-24-10.746094-24-24s10.746094-24 24-24h16zm0 0" fill="#f1cfa2"/>
    <path d="m408.5 402v70h-96c.582031-58.984375-6.625-117.785156-21.441406-174.878906l45.839844 12.078125c42.203124 11.042969 71.628906 49.179687 71.601562 92.800781zm0 0"
          fill="#898890"/>
    <path d="m320.5 128c13.253906 0 24 10.746094 24 24s-10.746094 24-24 24h-16v-48zm0 0" fill="#f1cfa2"/>
    <path d="m312.5 128v32c0 57.4375-46.5625 104-104 104s-104-46.5625-104-104v-32c31.421875-21.054688 51.695312-55.136719 55.199219-92.800781 14.839843 8.527343 31.6875 12.945312 48.800781 12.800781 17.113281.144531 33.960938-4.273438 48.800781-12.800781 3.503907 37.664062 23.777344 71.746093 55.199219 92.800781zm0 0"
          fill="#ffdaaa"/>
    <path d="m312.5 112v16c-31.421875-21.054688-51.695312-55.136719-55.199219-92.800781-14.839843 8.527343-31.6875 12.945312-48.800781 12.800781-17.113281.144531-33.960938-4.273438-48.800781-12.800781-3.503907 37.664062-23.777344 71.746093-55.199219 92.800781v-16c0-57.4375 46.5625-104 104-104s104 46.5625 104 104zm0 0"
          fill="#787680"/>
    <path d="m312.5 472h-208c-.582031-58.984375 6.625-117.785156 21.441406-174.878906l34.558594-9.121094 48 48 48-48 34.558594 9.121094c14.816406 57.09375 22.023437 115.894531 21.441406 174.878906zm0 0"
          fill="#e6e7e8"/>
    <path d="m256.5 252.238281v35.761719l-48 48-48-48v-35.761719c30.078125 15.679688 65.921875 15.679688 96 0zm0 0"
          fill="#ffdaaa"/>
    <path d="m80.101562 309.199219 45.839844-12.078125c-14.816406 57.09375-22.023437 115.894531-21.441406 174.878906h-96v-70c-.027344-43.621094 29.398438-81.757812 71.601562-92.800781zm0 0"
          fill="#898890"/>
    <path d="m256.5 252.238281v16c-30.078125 15.679688-65.921875 15.679688-96 0v-16c30.078125 15.679688 65.921875 15.679688 96 0zm0 0"
          fill="#f1cfa2"/>
    <path d="m338.941406 301.464844-74.441406-19.632813v-24.984375c27.195312-15.742187 46.546875-42.167968 53.34375-72.847656h2.65625c17.671875 0 32-14.328125 32-32s-14.328125-32-32-32v-8c0-61.855469-50.144531-112-112-112s-112 50.144531-112 112v8c-17.671875 0-32 14.328125-32 32s14.328125 32 32 32h2.65625c6.796875 30.679688 26.148438 57.105469 53.34375 72.847656v24.984375l-74.398438 19.632813c-45.722656 11.964844-77.609374 53.273437-77.601562 100.535156v70c0 4.417969 3.582031 8 8 8h400c4.417969 0 8-3.582031 8-8v-70c.011719-47.25-31.855469-88.554688-77.558594-100.535156zm-2.441406-149.464844c0 8.835938-7.164062 16-16 16v-32c8.835938 0 16 7.164062 16 16zm-32-40c-22.277344-19.90625-36.265625-47.453125-39.199219-77.183594 24.605469 18.023438 39.160157 46.683594 39.199219 77.183594zm-50.007812-84.230469c-.414063.132813-.8125.304688-1.199219.503907-13.621094 7.824218-29.085938 11.875-44.792969 11.726562-15.710938.148438-31.175781-3.898438-44.800781-11.726562-.386719-.199219-.785157-.371094-1.199219-.503907 28.660156-15.699219 63.339844-15.699219 92 0zm-102.792969 7.023438c-2.925781 29.738281-16.917969 57.292969-39.199219 77.207031.03125-30.507812 14.589844-59.179688 39.199219-77.207031zm-55.199219 133.207031c-8.835938 0-16-7.164062-16-16s7.164062-16 16-16zm16-8v-27.679688c28.222656-20.277343 47.417969-50.765624 53.511719-84.976562 13.410156 5.804688 27.878906 8.753906 42.488281 8.65625 14.609375.097656 29.078125-2.851562 42.488281-8.65625 6.09375 34.210938 25.289063 64.699219 53.511719 84.976562v27.679688c0 53.019531-42.980469 96-96 96s-96-42.980469-96-96zm96 112c13.683594-.019531 27.242188-2.566406 40-7.511719v20.199219l-40 40-40-40v-20.199219c12.757812 4.945313 26.316406 7.492188 40 7.511719zm-50.398438 24.902344 44.75 44.753906c3.125 3.121094 8.1875 3.121094 11.3125 0l44.734376-44.753906 25.601562 6.746094c13.1875 52.429687 19.867188 106.289062 19.878906 160.351562h-191.757812c.011718-54.0625 6.691406-107.921875 19.878906-160.351562zm-141.601562 105.097656c-.011719-39.96875 26.941406-74.917969 65.601562-85.0625l32.6875-8.625c-11.980468 51.03125-18.074218 103.269531-18.167968 155.6875h-80.121094zm384 62h-80.121094c-.105468-52.421875-6.214844-104.65625-18.207031-155.6875l32.726563 8.625c38.660156 10.144531 65.613281 45.09375 65.601562 85.0625zm0 0"/>
    <path d="m208.5 184c13.253906 0 24-10.746094 24-24v-32h-16v32c0 4.417969-3.582031 8-8 8s-8-3.582031-8-8v-32h-16v32c0 13.253906 10.746094 24 24 24zm0 0"/>
    <path d="m249.140625 131.039062c.175781.511719.417969.996094.71875 1.441407.296875.417969.617187.820312.960937 1.199219.765626.722656 1.660157 1.292968 2.640626 1.679687.960937.410156 1.992187.628906 3.039062.640625 2.117188-.03125 4.144531-.859375 5.679688-2.320312l.960937-1.199219c.300781-.449219.539063-.933594.71875-1.441407.246094-.472656.40625-.988281.472656-1.519531.097657-.5.15625-1.007812.167969-1.519531-.03125-2.117188-.859375-4.144531-2.320312-5.679688-2.300782-2.269531-5.742188-2.933593-8.71875-1.679687-.980469.386719-1.875.957031-2.640626 1.679687-1.464843 1.53125-2.292968 3.5625-2.320312 5.679688.015625.511719.066406 1.019531.160156 1.519531.074219.53125.234375 1.042969.480469 1.519531zm0 0"/>
    <path d="m163.539062 135.359375c.511719-.175781.996094-.417969 1.441407-.71875l1.199219-.960937c.707031-.777344 1.273437-1.671876 1.679687-2.640626.410156-.960937.628906-1.992187.640625-3.039062-.011719-.511719-.070312-1.019531-.167969-1.519531-.214843-1.027344-.621093-2.003907-1.191406-2.878907-.320313-.480468-.640625-.882812-.960937-1.28125l-1.199219-.960937c-.445313-.300781-.929688-.542969-1.441407-.71875-.476562-.242187-.996093-.40625-1.527343-.480469-2.609375-.488281-5.289063.316406-7.199219 2.160156-1.460938 1.53125-2.289062 3.5625-2.3125 5.679688.011719 1.046875.230469 2.078125.640625 3.039062.386719.980469.957031 1.875 1.679687 2.640626 1.53125 1.460937 3.5625 2.289062 5.679688 2.320312.507812-.011719 1.011719-.066406 1.511719-.160156.53125-.074219 1.050781-.238282 1.527343-.480469zm0 0"/>
    <path d="m256.125 205.238281-12.097656-10.476562c-9.515625 9.113281-22.367188 13.90625-35.527344 13.238281-13.160156.667969-26.011719-4.125-35.527344-13.238281l-12.097656 10.476562c12.515625 12.699219 29.8125 19.515625 47.625 18.761719 17.8125.753906 35.109375-6.0625 47.625-18.761719zm0 0"/>
</svg>