<svg height="480pt" viewBox="-31 0 479 480" width="480pt" xmlns="http://www.w3.org/2000/svg">
    <path d="m112.5 160v16h-16c-13.253906 0-24-10.746094-24-24s10.746094-24 24-24h16zm0 0" fill="#f1cfa2"/>
    <path d="m320.5 472h-112v-112l48-48v24c0-8.835938 7.164062-16 16-16s16 7.164062 16 16v-32c.023438-2.648438-.324219-5.289062-1.039062-7.839844l49.4375 13.039063c42.203124 11.042969 71.628906 49.179687 71.601562 92.800781v70zm0 0"
          fill="#3d9ae2"/>
    <path d="m320.5 128c13.253906 0 24 10.746094 24 24s-10.746094 24-24 24h-16v-48zm0 0" fill="#f1cfa2"/>
    <path d="m224.5 160c-.027344 8.824219-7.175781 15.972656-16 16-8.808594-.066406-15.933594-7.191406-16-16h-17.359375c-4.265625 0-8.351563 1.699219-11.359375 4.71875l-6.5625 6.5625c-3.007812 3.019531-7.09375 4.71875-11.359375 4.71875h-40.160156c-.804688-5.296875-1.207031-10.644531-1.199219-16v-48c0-57.4375 46.5625-104 104-104s104 46.5625 104 104v48c.007812 5.355469-.394531 10.703125-1.199219 16h-40.160156c-4.265625 0-8.351563-1.699219-11.359375-4.71875l-6.5625-6.5625c-3.007812-3.019531-7.09375-4.71875-11.359375-4.71875zm0 0"
          fill="#ffdaaa"/>
    <path d="m271.140625 176h40.160156c-7.917969 50.644531-51.539062 87.980469-102.800781 87.980469s-94.882812-37.335938-102.800781-87.980469h40.160156c4.265625 0 8.351563-1.699219 11.359375-4.71875l6.5625-6.5625c3.007812-3.019531 7.09375-4.71875 11.359375-4.71875h17.359375c.066406 8.808594 7.191406 15.933594 16 16 8.824219-.027344 15.972656-7.175781 16-16h17.359375c4.265625 0 8.351563 1.699219 11.359375 4.71875l6.5625 6.5625c3.007812 3.019531 7.09375 4.71875 11.359375 4.71875zm0 0"
          fill="#898890"/>
    <path d="m288.5 304v32c0-8.835938-7.164062-16-16-16s-16 7.164062-16 16v-64c8.484375.015625 16.621094 3.378906 22.640625 9.359375 4.066406 4.085937 6.941406 9.203125 8.320313 14.800781.714843 2.550782 1.0625 5.191406 1.039062 7.839844zm0 0"
          fill="#1e81ce"/>
    <path d="m256.5 252.238281v59.761719l-48 48-48-48v-59.761719c30.078125 15.679688 65.921875 15.679688 96 0zm0 0"
          fill="#ffdaaa"/>
    <path d="m96.5 472h-88v-70c-.027344-43.621094 29.398438-81.757812 71.601562-92.800781l49.4375-13.039063c-.714843 2.550782-1.0625 5.191406-1.039062 7.839844v32c0-8.835938 7.164062-16 16-16s16 7.164062 16 16v-24l48 48v112zm0 0"
          fill="#1e81ce"/>
    <path d="m160.5 312v24c0-8.835938-7.164062-16-16-16s-16 7.164062-16 16v-32c-.023438-2.648438.324219-5.289062 1.039062-7.839844 1.378907-5.597656 4.253907-10.714844 8.320313-14.800781 6.019531-5.980469 14.15625-9.34375 22.640625-9.359375zm0 0"
          fill="#1a6fb0"/>
    <path d="m256.5 252.238281v16c-30.078125 15.679688-65.921875 15.679688-96 0v-16c30.078125 15.679688 65.921875 15.679688 96 0zm0 0"
          fill="#f1cfa2"/>
    <path d="m338.941406 301.464844-45.25-11.9375c-4.914062-12.652344-15.902344-21.960938-29.191406-24.726563v-7.960937c27.195312-15.742188 46.542969-42.164063 53.34375-72.839844h2.65625c17.671875 0 32-14.328125 32-32s-14.328125-32-32-32v-8c0-61.855469-50.144531-112-112-112s-112 50.144531-112 112v8c-17.671875 0-32 14.328125-32 32s14.328125 32 32 32h2.65625c6.796875 30.679688 26.148438 57.105469 53.34375 72.847656v7.953125c-13.289062 2.765625-24.273438 12.066407-29.191406 24.71875l-45.207032 11.945313c-45.722656 11.964844-77.609374 53.273437-77.601562 100.535156v70c0 4.417969 3.582031 8 8 8h400c4.417969 0 8-3.582031 8-8v-70c.011719-47.25-31.855469-88.554688-77.558594-100.535156zm-58.441406 2.535156v9.367188c-5.175781-1.824219-10.824219-1.824219-16 0v-32c9.582031 3.402343 15.988281 12.464843 16 22.632812zm56-152c0 8.835938-7.164062 16-16 16v-32c8.835938 0 16 7.164062 16 16zm-224-40c0-53.019531 42.980469-96 96-96s96 42.980469 96 96v48c0 2.703125-.183594 5.351562-.40625 8h-32.96875c-2.121094-.007812-4.152344-.851562-5.65625-2.34375l-6.625-6.625c-4.488281-4.515625-10.597656-7.050781-16.96875-7.03125h-9.375v-24h-16v32c0 4.417969-3.582031 8-8 8s-8-3.582031-8-8v-32h-16v24h-9.375c-6.371094-.019531-12.480469 2.515625-16.96875 7.03125l-6.625 6.625c-1.503906 1.492188-3.535156 2.335938-5.65625 2.34375h-32.96875c-.222656-2.648438-.40625-5.296875-.40625-8zm-16 56c-8.835938 0-16-7.164062-16-16s7.164062-16 16-16zm19.199219 16h30.214843c6.371094.019531 12.480469-2.515625 16.96875-7.03125l6.625-6.625c1.496094-1.484375 3.511719-2.324219 5.617188-2.34375h10.847656c3.339844 9.585938 12.378906 16.007812 22.527344 16.007812s19.1875-6.421874 22.527344-16.007812h10.847656c2.121094.007812 4.152344.851562 5.65625 2.34375l6.625 6.625c4.488281 4.515625 10.597656 7.050781 16.96875 7.03125h30.214844c-10.917969 42.335938-49.097656 71.921875-92.820313 71.921875-43.722656 0-81.902343-29.585937-92.820312-71.921875zm92.800781 88c13.683594-.019531 27.242188-2.566406 40-7.511719v44.199219l-40 40-40-40v-44.199219c12.757812 4.945313 26.316406 7.492188 40 7.511719zm-72 32c.011719-10.167969 6.417969-19.230469 16-22.632812v32c-5.175781-1.824219-10.824219-1.824219-16 0zm-120 98c-.011719-39.96875 26.941406-74.917969 65.601562-85.0625l38.398438-10.121094v29.183594c0 4.417969 3.582031 8 8 8s8-3.582031 8-8 3.582031-8 8-8 8 3.582031 8 8 3.582031 8 8 8 8-3.582031 8-8v-4.6875l32 32v100.6875h-96v-56h-16v56h-72zm384 62h-72v-56h-16v56h-96v-100.6875l32-32v4.6875c0 4.417969 3.582031 8 8 8s8-3.582031 8-8 3.582031-8 8-8 8 3.582031 8 8 3.582031 8 8 8 8-3.582031 8-8v-29.183594l38.398438 10.121094c38.660156 10.144531 65.613281 45.09375 65.601562 85.0625zm0 0"/>
    <path d="m262.179688 122.320312c-2.316407-2.238281-5.738282-2.894531-8.71875-1.679687-.980469.386719-1.875.957031-2.640626 1.679687-.707031.777344-1.273437 1.671876-1.679687 2.640626-.449219.949218-.667969 1.988281-.640625 3.039062 0 4.417969 3.582031 8 8 8s8-3.582031 8-8c-.011719-1.046875-.230469-2.078125-.640625-3.039062-.40625-.96875-.972656-1.863282-1.679687-2.640626zm0 0"/>
    <path d="m164.980469 121.359375c-.445313-.300781-.929688-.542969-1.441407-.71875-.476562-.242187-.996093-.40625-1.527343-.480469-2.609375-.523437-5.308594.285156-7.199219 2.160156-1.460938 1.53125-2.289062 3.5625-2.3125 5.679688.011719 2.121094.84375 4.15625 2.320312 5.679688 1.53125 1.460937 3.5625 2.289062 5.679688 2.320312.507812-.011719 1.011719-.066406 1.511719-.160156.53125-.074219 1.050781-.238282 1.527343-.480469.511719-.175781.996094-.417969 1.441407-.71875.417969-.296875.816406-.617187 1.199219-.960937l.960937-1.199219c.300781-.449219.539063-.933594.71875-1.441407.234375-.449218.390625-.9375.472656-1.4375.097657-.53125.15625-1.066406.167969-1.601562-.03125-2.117188-.859375-4.144531-2.320312-5.679688-.382813-.34375-.78125-.664062-1.199219-.960937zm0 0"/>
    <path d="m144.5 88h128v16h-128zm0 0"/>
    <path d="m176.5 64h64v16h-64zm0 0"/>
    <path d="m256.125 205.238281-12.097656-10.476562c-9.515625 9.113281-22.367188 13.90625-35.527344 13.238281-13.160156.667969-26.011719-4.125-35.527344-13.238281l-12.097656 10.476562c12.515625 12.699219 29.8125 19.515625 47.625 18.761719 17.8125.753906 35.109375-6.0625 47.625-18.761719zm0 0"/>
</svg>