<svg height="480pt" viewBox="-31 0 479 480" width="480pt" xmlns="http://www.w3.org/2000/svg">
    <path d="m336.898438 349.199219-53.199219-14-75.199219 88.800781v48h200v-30c.027344-43.621094-29.398438-81.757812-71.601562-92.800781zm0 0"
          fill="#00ccb3"/>
    <path d="m133.300781 335.199219-53.199219 14c-42.203124 11.042969-71.628906 49.179687-71.601562 92.800781v30h200v-48zm0 0"
          fill="#00b39d"/>
    <path d="m283.699219 335.199219-75.199219 88.800781-75.199219-88.800781 27.199219-7.199219 48 56 48-56zm0 0"
          fill="#ff6243"/>
    <path d="m256.5 292.238281v35.761719l-48 56-48-56v-35.761719c30.078125 15.679688 65.921875 15.679688 96 0zm0 0"
          fill="#ffdaaa"/>
    <path d="m337.460938 208.960938c-4.492188 4.507812-10.597657 7.039062-16.960938 7.039062h-16v-48h16c9.699219.007812 18.441406 5.855469 22.152344 14.820312 3.710937 8.960938 1.664062 19.277344-5.191406 26.140626zm0 0"
          fill="#f1cfa2"/>
    <path d="m112.5 200v16h-16c-13.253906 0-24-10.746094-24-24s10.746094-24 24-24h16zm0 0" fill="#f1cfa2"/>
    <path d="m104.5 168v-13.441406c2.613281.261718 5.25-.125 7.679688-1.117188 23.519531-9.363281 67.921874-33.441406 96.320312-33.441406s72.800781 24.078125 96.320312 33.441406c2.429688.992188 5.066407 1.378906 7.679688 1.117188v45.441406c0 57.4375-46.5625 104-104 104s-104-46.5625-104-104zm0 0"
          fill="#ffdaaa"/>
    <path d="m256.5 292.238281v16c-30.078125 15.679688-65.921875 15.679688-96 0v-16c30.078125 15.679688 65.921875 15.679688 96 0zm0 0"
          fill="#f1cfa2"/>
    <path d="m320.5 110.078125c7.921875 6.265625 11.058594 16.828125 7.839844 26.402344l-2.398438 7.199219c-1.359375 4.203124-4.414062 7.648437-8.425781 9.503906-4.011719 1.851562-8.613281 1.945312-12.695313.257812-23.519531-9.363281-67.921874-33.441406-96.320312-33.441406s-72.800781 24.078125-96.320312 33.441406c-4.082032 1.6875-8.683594 1.59375-12.695313-.257812-4.011719-1.855469-7.066406-5.300782-8.425781-9.503906l-2.398438-7.199219c-3.21875-9.574219-.082031-20.136719 7.839844-26.402344 2.6875-2.1875 5.832031-3.746094 9.199219-4.558594 10.402343-2.558593 23.199219-5.519531 36.5625-8.238281 21.757812-5.066406 43.925781-8.171875 66.238281-9.28125 19.976562.894531 39.835938 3.515625 59.359375 7.839844 15.761719 3.121094 31.199219 6.640625 43.441406 9.679687 3.367188.8125 6.511719 2.371094 9.199219 4.558594zm0 0"
          fill="#ff9811"/>
    <path d="m297.21875 25.441406-29.359375 70.398438c-19.523437-4.324219-39.382813-6.945313-59.359375-7.839844-22.3125 1.109375-44.480469 4.214844-66.238281 9.28125l-24-71.921875c.398437-.160156.878906-.238281 1.277343-.398437 24.5625-7.121094 63.359376-16.960938 88.960938-16.960938 20.878906 0 62.160156 10.238281 88.398438 17.359375.082031 0 .242187.082031.320312.082031zm0 0"
          fill="#3d9ae2"/>
    <path d="m320.5 56.238281v53.839844c-2.6875-2.1875-5.832031-3.746094-9.199219-4.558594-12.242187-3.039062-27.679687-6.558593-43.441406-9.679687l29.359375-70.398438c13.800781 3.871094 23.320312 16.46875 23.28125 30.796875zm0 0"
          fill="#ffb655"/>
    <path d="m118.261719 25.359375 24 71.921875c-13.363281 2.71875-26.160157 5.679688-36.5625 8.238281-3.367188.8125-6.511719 2.371094-9.199219 4.558594v-54.398437c0-13.726563 8.753906-25.925782 21.761719-30.320313zm0 0"
          fill="#ffb655"/>
    <path d="m338.941406 341.464844-74.441406-19.632813v-24.921875c27.304688-15.660156 46.707031-42.152344 53.398438-72.910156h2.601562c17.03125-.636719 30.574219-14.507812 30.804688-31.550781.226562-17.039063-12.941407-31.269531-29.949219-32.359375 5.75-2.820313 10.132812-7.820313 12.175781-13.890625l2.402344-7.199219c3.941406-11.289062 1.050781-23.84375-7.433594-32.273438v-50.488281c0-18.046875-12.085938-33.863281-29.503906-38.597656-29.695313-8.039063-69.417969-17.640625-90.496094-17.640625-27.488281 0-68.9375 10.824219-91.199219 17.273438-17.058593 4.996093-28.78125 20.632812-28.800781 38.40625v51.046874c-8.484375 8.429688-11.375 20.976563-7.441406 32.265626l2.402344 7.199218c2.042968 6.070313 6.425781 11.070313 12.175781 13.886719-17.042969 1.054687-30.257813 15.300781-30.027344 32.375.230469 17.070313 13.828125 30.957031 30.890625 31.546875h2.648438c6.683593 30.742188 26.066406 57.222656 53.351562 72.886719v24.945312l-74.398438 19.632813c-45.71875 11.964844-77.605468 53.277344-77.601562 100.535156v30c0 4.417969 3.582031 8 8 8h400c4.417969 0 8-3.582031 8-8v-30c.007812-47.246094-31.855469-88.554688-77.558594-100.535156zm-170.441406-36.90625c25.746094 9.914062 54.253906 9.914062 80 0v20.480468l-40 46.664063-40-46.664063zm168-112.558594c0 8.835938-7.164062 16-16 16v-32c8.835938 0 16 7.164062 16 16zm-24-135.761719v41.363281c-10.351562-2.523437-21.839844-5.160156-33.527344-7.632812l22.480469-53.914062c6.875 4.410156 11.039063 12.015624 11.046875 20.183593zm-26.199219-25.40625-23.320312 55.9375c-17.933594-3.808593-36.160157-6.074219-54.480469-6.769531-20.496094.871094-40.871094 3.546875-60.894531 8l-19.105469-57.257812c26.007812-7.980469 52.855469-12.925782 80-14.742188 26.375 2.238281 52.449219 7.210938 77.800781 14.832031zm-172.625 6.054688 18.152344 54.402343c-9.535156 2.078126-18.808594 4.246094-27.328125 6.320313v-41.929687c.023438-7.335938 3.40625-14.257813 9.175781-18.792969zm-16.265625 84.242187c2.148438-3.933594 5.867188-6.773437 10.226563-7.808594 26.464843-6.472656 74.832031-17.320312 100.863281-17.320312s74.398438 10.847656 100.863281 17.320312c4.347657 1.058594 8.054688 3.890626 10.21875 7.804688 2.164063 3.914062 2.589844 8.558594 1.175781 12.804688l-2.402343 7.199218c-.683594 2.085938-2.203125 3.792969-4.199219 4.710938-2.019531.9375-4.335938.996094-6.398438.167968-5.480468-2.183593-12.121093-5.191406-19.441406-8.496093-25.152344-11.359375-56.464844-25.511719-79.816406-25.511719s-54.664062 14.152344-79.816406 25.527344c-7.320313 3.304687-13.960938 6.3125-19.429688 8.496094-2.066406.828124-4.382812.765624-6.402344-.167969-1.996093-.917969-3.515624-2.625-4.199218-4.710938l-2.398438-7.199219c-1.445312-4.246093-1.023437-8.902343 1.15625-12.816406zm-.910156 86.871094c-8.835938 0-16-7.164062-16-16s7.164062-16 16-16zm16-8v-38.351562c.90625-.203126 1.796875-.453126 2.671875-.761719 5.664063-2.253907 12.535156-5.359375 20.105469-8.796875 22.496094-10.152344 53.320312-24.089844 73.222656-24.089844s50.726562 13.9375 73.222656 24.105469c7.570313 3.421875 14.402344 6.527343 20.105469 8.796875.875.320312 1.765625.585937 2.671875.800781v38.296875c0 53.019531-42.980469 96-96 96s-96-42.980469-96-96zm45.191406 137.015625 44.738282 52.191406c1.519531 1.773438 3.734374 2.792969 6.070312 2.792969s4.550781-1.019531 6.070312-2.792969l44.738282-52.191406 10.113281 2.664063-60.921875 71.945312-60.921875-71.945312zm242.808594 126.984375h-72v-56h-16v56h-208v-56h-16v56h-72v-22c-.011719-39.96875 26.941406-74.917969 65.601562-85.0625l48.292969-12.738281 71.960938 84.96875c1.519531 1.792969 3.753906 2.828125 6.105469 2.828125 2.351562 0 4.582031-1.035156 6.101562-2.828125l72-84.96875 48.335938 12.738281c38.660156 10.144531 65.613281 45.09375 65.601562 85.0625zm0 0"/>
    <path d="m208.5 224c13.253906 0 24-10.746094 24-24v-32h-16v32c0 4.417969-3.582031 8-8 8s-8-3.582031-8-8v-32h-16v32c0 13.253906 10.746094 24 24 24zm0 0"/>
    <path d="m250.820312 173.679688c.777344.707031 1.671876 1.273437 2.640626 1.679687.949218.449219 1.988281.667969 3.039062.640625 2.117188-.03125 4.144531-.859375 5.679688-2.320312.707031-.777344 1.273437-1.671876 1.679687-2.640626.410156-.960937.628906-1.992187.640625-3.039062-.03125-2.117188-.859375-4.144531-2.320312-5.679688-.765626-.722656-1.660157-1.292968-2.640626-1.679687-1.929687-.882813-4.148437-.882813-6.078124 0-.980469.386719-1.875.957031-2.640626 1.679687-1.460937 1.535157-2.289062 3.5625-2.320312 5.679688.011719 1.046875.230469 2.078125.640625 3.039062.40625.96875.972656 1.863282 1.679687 2.640626zm0 0"/>
    <path d="m168.5 168c.027344-1.050781-.191406-2.089844-.640625-3.039062-.40625-.96875-.972656-1.863282-1.679687-2.640626-3.207032-2.960937-8.152344-2.960937-11.359376 0-.707031.777344-1.273437 1.671876-1.679687 2.640626-.410156.960937-.628906 1.992187-.640625 3.039062 0 4.417969 3.582031 8 8 8s8-3.582031 8-8zm0 0"/>
    <path d="m208.5 264c17.8125.75 35.109375-6.0625 47.625-18.761719l-12.089844-10.476562c-9.519531 9.113281-22.371094 13.902343-35.535156 13.238281-13.164062.664062-26.015625-4.125-35.535156-13.238281l-12.089844 10.476562c12.515625 12.699219 29.8125 19.511719 47.625 18.761719zm0 0"/>
</svg>