<svg height="480pt" viewBox="-31 0 479 480" width="480pt" xmlns="http://www.w3.org/2000/svg">
    <path d="m112.5 192v16h-16c-13.253906 0-24-10.746094-24-24s10.746094-24 24-24h16zm0 0" fill="#f1cfa2"/>
    <path d="m320.5 472h-312v-38c-.027344-43.621094 29.398438-81.757812 71.601562-92.800781l53.199219-14c-3.144531 5.039062-4.808593 10.863281-4.800781 16.800781v32c0-8.835938 7.164062-16 16-16s16 7.164062 16 16v-24l48 48 48-48v24c0-8.835938 7.164062-16 16-16s16 7.164062 16 16v-32c.007812-5.9375-1.65625-11.761719-4.800781-16.800781l53.199219 14c42.203124 11.042969 71.628906 49.179687 71.601562 92.800781v38zm0 0"
          fill="#3d9ae2"/>
    <path d="m320.5 160c13.253906 0 24 10.746094 24 24s-10.746094 24-24 24h-16v-48zm0 0" fill="#f1cfa2"/>
    <path d="m312.5 160v32c0 57.4375-46.5625 104-104 104s-104-46.5625-104-104v-80c-.011719 8.488281 3.355469 16.636719 9.359375 22.640625s14.152344 9.371094 22.640625 9.359375h144c17.671875 0 32-14.328125 32-32zm0 0"
          fill="#ffdaaa"/>
    <path d="m312.5 104v8h-208v-80s64-24 104-24c32 0 104 24 104 24zm0 0" fill="#3d9ae2"/>
    <path d="m104.5 112h208c0 17.671875-14.328125 32-32 32h-144c-8.488281.011719-16.636719-3.355469-22.640625-9.359375s-9.371094-14.152344-9.359375-22.640625zm0 0"
          fill="#1e81ce"/>
    <path d="m288.5 344v32c0-8.835938-7.164062-16-16-16s-16 7.164062-16 16v-64c11.109375-.070312 21.4375 5.703125 27.199219 15.199219 3.144531 5.039062 4.808593 10.863281 4.800781 16.800781zm0 0"
          fill="#1e81ce"/>
    <path d="m256.5 284.238281v67.761719l-48 48-48-48v-67.761719c30.078125 15.679688 65.921875 15.679688 96 0zm0 0"
          fill="#ffdaaa"/>
    <path d="m160.5 352v24c0-8.835938-7.164062-16-16-16s-16 7.164062-16 16v-32c.0625-8.476562 3.417969-16.59375 9.359375-22.640625 6.019531-5.980469 14.15625-9.34375 22.640625-9.359375zm0 0"
          fill="#1e81ce"/>
    <path d="m256.5 284.238281v16c-30.078125 15.679688-65.921875 15.679688-96 0v-16c30.078125 15.679688 65.921875 15.679688 96 0zm0 0"
          fill="#f1cfa2"/>
    <path d="m338.941406 333.472656-50.496094-13.296875c-5.828124-7.886719-14.347656-13.359375-23.945312-15.375v-15.953125c27.195312-15.742187 46.546875-42.167968 53.34375-72.847656h2.65625c17.671875 0 32-14.328125 32-32s-14.328125-32-32-32v-120c-.003906-3.441406-2.207031-6.496094-5.472656-7.585938-2.992188-1-73.605469-24.414062-106.527344-24.414062-40.976562 0-104.144531 23.503906-106.816406 24.503906-3.121094 1.175782-5.1875 4.160156-5.183594 7.496094v120c-17.671875 0-32 14.328125-32 32s14.328125 32 32 32h2.65625c6.796875 30.679688 26.148438 57.105469 53.34375 72.847656v15.953125c-9.59375 2.015625-18.117188 7.484375-23.945312 15.367188l-50.453126 13.296875c-45.71875 11.964844-77.605468 53.277344-77.601562 100.535156v38c0 4.417969 3.582031 8 8 8h400c4.417969 0 8-3.582031 8-8v-38c.007812-47.246094-31.859375-88.550781-77.558594-100.527344zm-58.441406 10.527344v9.367188c-5.175781-1.824219-10.824219-1.824219-16 0v-32c9.582031 3.402343 15.988281 12.464843 16 22.632812zm56-160c0 8.835938-7.164062 16-16 16v-32c8.835938 0 16 7.164062 16 16zm-224-146.398438c15.832031-5.601562 64.328125-21.601562 96-21.601562 25.367188 0 78.785156 16.335938 96 21.824219v66.175781h-192zm190.632812 82.398438c-3.402343 9.582031-12.464843 15.988281-22.632812 16h-144c-10.167969-.011719-19.230469-6.417969-22.632812-16zm-206.632812 80c-8.835938 0-16-7.164062-16-16s7.164062-16 16-16zm16-8v-48.207031c6.882812 5.292969 15.316406 8.175781 24 8.207031h144c8.683594-.03125 17.117188-2.914062 24-8.207031v48.207031c0 53.019531-42.980469 96-96 96s-96-42.980469-96-96zm96 112c13.683594-.019531 27.242188-2.566406 40-7.511719v52.199219l-40 40-40-40v-52.199219c12.757812 4.945313 26.316406 7.492188 40 7.511719zm-72 40c.011719-10.167969 6.417969-19.230469 16-22.632812v32c-5.175781-1.824219-10.824219-1.824219-16 0zm264 120h-72v-56h-16v56h-208v-56h-16v56h-72v-30c-.011719-39.96875 26.941406-74.917969 65.601562-85.0625l38.894532-10.234375c-.28125 1.753906-.449219 3.523437-.496094 5.296875v32c0 4.417969 3.582031 8 8 8s8-3.582031 8-8 3.582031-8 8-8 8 3.582031 8 8 3.582031 8 8 8 8-3.582031 8-8v-4.6875l34.34375 34.34375c3.125 3.121094 8.1875 3.121094 11.3125 0l34.34375-34.34375v4.6875c0 4.417969 3.582031 8 8 8s8-3.582031 8-8 3.582031-8 8-8 8 3.582031 8 8 3.582031 8 8 8 8-3.582031 8-8v-32c-.058594-1.773438-.238281-3.542969-.535156-5.296875l38.910156 10.242187c38.667969 10.132813 65.632812 45.082032 65.625 85.054688zm0 0"/>
    <path d="m208.5 224c13.253906 0 24-10.746094 24-24v-32h-16v32c0 4.417969-3.582031 8-8 8s-8-3.582031-8-8v-32h-16v32c0 13.253906 10.746094 24 24 24zm0 0"/>
    <path d="m256.5 176c2.675781.027344 5.1875-1.300781 6.671875-3.527344 1.484375-2.226562 1.742187-5.050781.6875-7.511718-.386719-.980469-.957031-1.875-1.679687-2.640626-1.921876-1.875-4.644532-2.683593-7.28125-2.160156-.5.085938-.984376.25-1.4375.480469-.511719.175781-1 .417969-1.449219.71875-.414063.296875-.8125.617187-1.191407.960937-.707031.777344-1.273437 1.671876-1.679687 2.640626-1.054687 2.460937-.796875 5.285156.6875 7.511718 1.484375 2.226563 3.996094 3.554688 6.671875 3.527344zm0 0"/>
    <path d="m166.179688 173.679688c2.289062-2.289063 2.957031-5.742188 1.679687-8.71875-.40625-.96875-.972656-1.863282-1.679687-2.640626-2.300782-2.269531-5.742188-2.933593-8.71875-1.679687-2.011719.726563-3.59375 2.308594-4.320313 4.320313-.449219.949218-.667969 1.988281-.640625 3.039062-.027344 2.675781 1.300781 5.1875 3.527344 6.671875 2.226562 1.484375 5.050781 1.742187 7.511718.6875.96875-.40625 1.863282-.976563 2.640626-1.679687zm0 0"/>
    <path d="m256.117188 245.238281-12.082032-10.476562c-9.519531 9.109375-22.375 13.898437-35.535156 13.238281-13.160156.660156-26.015625-4.128906-35.535156-13.238281l-12.082032 10.476562c12.515626 12.695313 29.808594 19.507813 47.617188 18.761719 17.808594.746094 35.101562-6.066406 47.617188-18.761719zm0 0"/>
</svg>