<svg height="480pt" viewBox="-32 0 480 480.00965" width="480pt" xmlns="http://www.w3.org/2000/svg">
    <path d="m349.042969 252.167969c19.5 28.863281 12.316406 68.019531-16.15625 88.082031l-50.242188-13.199219-5.28125-1.441406-21.359375-5.601563h-96l-21.359375 5.601563-5.28125 1.441406-50.238281 13.199219c-28.472656-20.0625-35.65625-59.21875-16.160156-88.082031-19.070313-13.535157-29.242188-36.394531-26.523438-59.621094 2.714844-23.230469 17.882813-43.125 39.5625-51.898437v-28.640626c0-31.804687 14.550782-61.863281 39.5-81.585937 24.949219-19.726563 57.554688-26.953125 88.5-19.613281 30.945313-7.316406 63.535156-.082032 88.480469 19.640625 24.945313 19.71875 39.5 49.761719 39.519531 81.558593v28.640626c21.679688 8.773437 36.851563 28.667968 39.566406 51.898437 2.714844 23.226563-7.453124 46.085937-26.527343 59.621094zm0 0"
          fill="#898890"/>
    <path d="m112.003906 192.007812v16h-16c-13.253906 0-24-10.742187-24-24 0-13.253906 10.746094-24 24-24h16zm0 0"
          fill="#f1cfa2"/>
    <path d="m320.003906 472.007812h-80l48-56-16-24 32-8-21.359375-56.957031 50.242188 13.199219 3.519531.960938c42.199219 11.039062 71.625 49.179687 71.597656 92.796874v38zm0 0"
          fill="#e6e7e8"/>
    <path d="m320.003906 160.007812c13.253906 0 24 10.746094 24 24 0 13.257813-10.746094 24-24 24h-16v-48zm0 0"
          fill="#f1cfa2"/>
    <path d="m312.003906 144.007812v48c0 57.4375-46.5625 104-104 104s-104-46.5625-104-104v-48c0-57.4375 46.5625-104 104-104s104 46.5625 104 104zm0 0"
          fill="#ffdaaa"/>
    <path d="m282.644531 327.050781 21.359375 56.957031-32 8 16 24-48 56h-32l69.359375-146.398437zm0 0" fill="#d1d3d4"/>
    <path d="m256.003906 136.007812c26.480469 0 48 10.722657 48 24 0 13.28125-21.519531 24-48 24-10.976562.1875-21.875-1.910156-32-6.15625-9.839844-4.320312-16-10.722656-16-17.84375 0-13.277343 21.519532-24 48-24zm0 0"
          fill="#f1cfa2"/>
    <path d="m277.363281 325.609375-69.359375 146.398437-69.359375-146.398437 21.359375-5.601563c0 26.511719 21.492188 48 48 48 26.511719 0 48-21.488281 48-48zm0 0"
          fill="#96c8ef"/>
    <path d="m256.003906 284.25v35.757812c0 26.511719-21.488281 48-48 48-26.507812 0-48-21.488281-48-48v-35.757812c30.082032 15.679688 65.921875 15.679688 96 0zm0 0"
          fill="#ffdaaa"/>
    <path d="m138.644531 325.609375 69.359375 146.398437h-32l-48-56 16-24-32-8 21.359375-56.957031zm0 0"
          fill="#d1d3d4"/>
    <path d="m160.003906 136.007812c26.480469 0 48 10.722657 48 24 0 7.121094-6.160156 13.523438-16 17.84375-10.125 4.246094-21.019531 6.34375-32 6.15625-26.480468 0-48-10.71875-48-24 0-13.277343 21.519532-24 48-24zm0 0"
          fill="#f1cfa2"/>
    <path d="m96.003906 472.007812h-88v-38c-.023437-43.617187 29.402344-81.757812 71.601563-92.796874l3.519531-.960938 50.238281-13.199219-21.359375 56.957031 32 8-16 24 48 56zm0 0"
          fill="#e6e7e8"/>
    <path d="m256.003906 284.25v16c-30.078125 15.679688-65.917968 15.679688-96 0v-16c30.082032 15.679688 65.921875 15.679688 96 0zm0 0"
          fill="#f1cfa2"/>
    <path d="m348.757812 336.808594c20.914063-22.445313 25.234376-55.707032 10.75-82.75 18.03125-15.84375 26.980469-39.625 23.871094-63.421875-3.113281-23.800781-17.878906-44.480469-39.375-55.15625v-23.472657c.003906-33.917968-15.367187-66.011718-41.796875-87.273437-26.429687-21.261719-61.070312-29.402344-94.203125-22.132813-33.132812-7.269531-67.773437.871094-94.203125 22.132813-26.429687 21.261719-41.800781 53.355469-41.796875 87.273437v23.472657c-21.5 10.671875-36.273437 31.359375-39.382812 55.160156-3.113282 23.804687 5.84375 47.59375 23.878906 63.433594-14.476562 27.039062-10.152344 60.292969 10.753906 82.734375-40.460937 15.25-67.2421872 53.964844-67.24999975 97.199218v38c0 4.421876 3.58203175 8 7.99999975 8h400c4.417969 0 8-3.578124 8-8v-38c-.003906-43.234374-26.789062-81.949218-67.246094-97.199218zm-277.160156-91.199219c-16.699218-11.84375-25.605468-31.851563-23.226562-52.183594s15.660156-37.746093 34.640625-45.417969c3-1.214843 4.972656-4.121093 4.992187-7.359374v-28.640626c.058594-52.992187 43.003906-95.941406 96-96 7.457032-.011718 14.886719.855469 22.136719 2.585938 1.226563.289062 2.503906.289062 3.726563 0 28.5625-6.75 58.644531-.070312 81.664062 18.132812 23.019531 18.203126 36.457031 45.933594 36.472656 75.28125v28.640626c.003906 3.257812 1.976563 6.183593 4.992188 7.410156 18.980468 7.667968 32.261718 25.082031 34.640625 45.414062 2.378906 20.332032-6.527344 40.34375-23.222657 52.183594-3.539062 2.511719-4.429687 7.386719-2.007812 10.984375 16.332031 24.109375 11.375 56.722656-11.386719 74.890625l-67.015625-17.691406v-24.980469c27.195313-15.746094 46.546875-42.167969 53.34375-72.851563h2.65625c17.675782 0 32-14.324218 32-32 0-17.671874-14.324218-32-32-32v-8c0-61.855468-50.144531-112-112-112-61.855468 0-112 50.144532-112 112v8c-17.671875 0-32 14.328126-32 32 0 17.675782 14.328125 32 32 32h2.65625c6.800782 30.683594 26.148438 57.105469 53.34375 72.851563v24.980469l-67.015625 17.683594c-22.757812-18.167969-27.714843-50.78125-11.382812-74.890626 2.417969-3.597656 1.527343-8.472656-2.007813-10.984374zm193.75 150.800781 12.640625 18.953125-41.664062 48.644531h-15.679688l58.503907-123.484374 14.214843 37.886718-23.292969 5.824219c-2.527343.628906-4.585937 2.449219-5.527343 4.875-.9375 2.425781-.636719 5.160156.804687 7.324219zm-113.878906-7.328125c-.941406-2.425781-3.003906-4.246093-5.527344-4.871093l-23.296875-5.800782 14.214844-37.90625 58.503906 123.503906h-15.679687l-41.664063-48.605468 12.640625-18.953125c1.445313-2.164063 1.746094-4.898438.808594-7.328125zm168.535156-189.074219v-32c8.835938 0 16 7.164063 16 16 0 8.839844-7.164062 16-16 16zm-160-24c-24.414062 0-40-9.476562-40-16 0-6.519531 15.585938-16 40-16 24.417969 0 40 9.480469 40 16 0 6.523438-15.582031 16-40 16zm40 6.824219c2.898438-1.644531 5.585938-3.636719 8-5.933593 2.417969 2.296874 5.101563 4.289062 8 5.933593v17.175781c0 4.421876-3.582031 8-8 8-2.15625.007813-4.21875-.878906-5.703125-2.445312-1.484375-1.464844-2.3125-3.46875-2.296875-5.554688zm16-22.824219c0-6.519531 15.585938-16 40-16 24.417969 0 40 9.480469 40 16 0 6.523438-15.582031 16-40 16-24.414062 0-40-9.476562-40-16zm40-32c-17.308594-1.007812-34.390625 4.367188-48 15.113282-13.609375-10.746094-30.6875-16.121094-48-15.113282-17.285156-1.003906-34.34375 4.355469-47.949218 15.066407.675781-52.511719 43.4375-94.722657 95.949218-94.722657 52.515625 0 95.273438 42.210938 95.953125 94.722657-13.605469-10.710938-30.664062-16.070313-47.953125-15.066407zm-144 48.890626c13.609375 10.746093 30.691406 16.121093 48 15.109374 8.089844.039063 16.15625-.9375 24-2.910156v10.910156c.066406 13.230469 10.773438 23.9375 24 24 13.253906 0 24-10.742187 24-24v-10.910156c7.847656 1.972656 15.910156 2.949219 24 2.910156 17.3125 1.011719 34.390625-4.363281 48-15.109374v15.109374c0 53.019532-42.980468 96-96 96-53.019531 0-96-42.980468-96-96zm56 119.597656c25.726563 10.015625 54.273438 10.015625 80 0v23.511718c0 22.09375-17.90625 40-40 40-22.089844 0-40-17.90625-40-40zm-15.03125 33.601562c4.859375 26.578125 28.015625 45.882813 55.03125 45.882813 27.019532 0 50.175782-19.304688 55.03125-45.882813l2.960938.800782-57.992188 122.429687-57.992187-122.398437zm-56.96875-138.089844v8c-8.835937 0-16-7.160156-16-16 0-8.835937 7.164063-16 16-16zm-80 242c-.011718-39.96875 26.941406-74.914062 65.601563-85.0625l38.800781-10.230468-15.9375 42.488281c-.796875 2.140625-.644531 4.519531.425781 6.539063 1.070313 2.019531 2.953125 3.484374 5.175781 4.027343l20.984376 5.25-9.707032 14.550781c-1.988281 2.984376-1.75 6.925782.585938 9.648438l36.679687 42.789062h-54.609375v-56h-16v56h-72zm384 30h-72v-56h-16v56h-54.605468l36.679687-42.789062c2.332031-2.722656 2.574219-6.664062.582031-9.648438l-9.703125-14.550781 20.984375-5.25c2.21875-.542969 4.101563-2.007812 5.171875-4.027343 1.070313-2.019532 1.226563-4.398438.425781-6.539063l-15.933593-42.488281 38.800781 10.230468c38.660156 10.148438 65.609375 45.09375 65.597656 85.0625zm0 0"/>
    <path d="m261.683594 165.691406c1.460937-1.535156 2.289062-3.5625 2.320312-5.683594-.011718-1.042968-.230468-2.078124-.640625-3.039062-.402343-.96875-.972656-1.859375-1.679687-2.640625-2.316406-2.234375-5.734375-2.894531-8.71875-1.679687-.980469.386718-1.875.957031-2.640625 1.679687-.707031.78125-1.273438 1.671875-1.679688 2.640625-.449219.949219-.667969 1.992188-.640625 3.039062-.003906 2.128907.828125 4.167969 2.320313 5.683594.765625.722656 1.660156 1.292969 2.640625 1.679688.960937.410156 1.996094.625 3.039062.636718 2.117188-.027343 4.148438-.859374 5.679688-2.316406zm0 0"/>
    <path d="m156.964844 152.648438c-.980469.386718-1.875.957031-2.640625 1.679687-3.09375 3.15625-3.09375 8.207031 0 11.363281.765625.722656 1.660156 1.292969 2.640625 1.679688.960937.410156 1.996094.625 3.039062.636718 2.121094-.015624 4.15625-.84375 5.679688-2.316406 3.09375-3.15625 3.09375-8.207031 0-11.363281-2.300782-2.269531-5.738282-2.929687-8.71875-1.679687zm0 0"/>
    <path d="m208.003906 264.007812c17.8125.753907 35.113282-6.058593 47.625-18.757812l-12.097656-10.480469c-9.511719 9.117188-22.367188 13.90625-35.527344 13.238281-13.160156.667969-26.011718-4.121093-35.527344-13.238281l-12.097656 10.480469c12.515625 12.699219 29.8125 19.511719 47.625 18.757812zm0 0"/>
</svg>