<svg height="487pt" viewBox="-35 0 487 487.99989" width="487pt" xmlns="http://www.w3.org/2000/svg">
    <path d="m112.5 184v16h-16c-13.253906 0-24-10.746094-24-24s10.746094-24 24-24h16zm0 0" fill="#f1cfa2"/>
    <path d="m408.5 426v54h-80v-149.039062l8.398438 2.238281c42.203124 11.042969 71.628906 49.179687 71.601562 92.800781zm0 0"
          fill="#ffdaaa"/>
    <path d="m320.5 152c13.253906 0 24 10.746094 24 24s-10.746094 24-24 24h-16v-48zm0 0" fill="#f1cfa2"/>
    <path d="m328.5 330.960938v149.039062h-240v-149.039062l48.078125-12.640626c-.066406.558594-.089844 1.117188-.078125 1.679688 0 35.359375 32.238281 64 72 64s72-28.640625 72-64c.011719-.5625-.011719-1.121094-.078125-1.679688zm0 0"
          fill="#ffa733"/>
    <path d="m304.5 48c13.253906 0 24 10.746094 24 24s-10.746094 24-24 24h-192c-13.253906 0-24-10.746094-24-24s10.746094-24 24-24c.347656-.011719.699219.011719 1.039062.078125-.675781-2.640625-1.023437-5.351563-1.039062-8.078125.019531-13.992188 9.125-26.351562 22.484375-30.511719 13.363281-4.160156 27.875.84375 35.835937 12.351563 4.078126-8.769532 13.03125-14.222656 22.695313-13.820313 9.660156.402344 18.132813 6.582031 21.464844 15.660157 5.878906-6.367188 14.75-9.046876 23.171875-7.003907 8.425781 2.042969 15.078125 8.488281 17.386718 16.84375 7.191407-8.207031 18.507813-11.46875 28.964844-8.355469 10.457032 3.113282 18.144532 12.03125 19.675782 22.835938zm0 0"
          fill="#ffa733"/>
    <path d="m320.5 104v16c0 4.417969-3.582031 8-8 8h-208c-4.417969 0-8-3.582031-8-8v-16c0-4.417969 3.582031-8 8-8h208c4.417969 0 8 3.582031 8 8zm0 0"
          fill="#ff6243"/>
    <g fill="#ffdaaa">
        <path d="m312.5 152v32c0 57.4375-46.5625 104-104 104s-104-46.5625-104-104v-56h208zm0 0"/>
        <path d="m280.5 320c0 35.359375-32.238281 64-72 64s-72-28.640625-72-64c-.011719-.5625.011719-1.121094.078125-1.679688l23.921875-6.320312v-35.761719c30.078125 15.679688 65.921875 15.679688 96 0v35.761719l23.921875 6.320312c.066406.558594.089844 1.117188.078125 1.679688zm0 0"/>
        <path d="m88.5 330.960938v149.039062h-80v-54c-.027344-43.621094 29.398438-81.757812 71.601562-92.800781zm0 0"/>
    </g>
    <path d="m256.5 276.238281v16c-30.078125 15.679688-65.921875 15.679688-96 0v-16c30.078125 15.679688 65.921875 15.679688 96 0zm0 0"
          fill="#f1cfa2"/>
    <path d="m338.941406 325.472656-74.441406-19.640625v-24.984375c27.195312-15.742187 46.546875-42.167968 53.34375-72.847656h2.65625c17.671875 0 32-14.328125 32-32s-14.328125-32-32-32v-10.222656c4.933594-2.835938 7.984375-8.085938 8-13.777344v-16c-.011719-3-.871094-5.9375-2.480469-8.472656 8.957031-8.105469 12.558594-20.582032 9.296875-32.210938-3.261718-11.632812-12.824218-20.417968-24.6875-22.683594-3.414062-10.316406-11.316406-18.535156-21.492187-22.347656-10.175781-3.816406-21.53125-2.816406-30.886719 2.714844-9.460938-12.828125-26.921875-16.734375-40.949219-9.160156-5.675781-7.011719-14.054687-11.292969-23.0625-11.792969-9.007812-.496094-17.804687 2.839844-24.21875 9.183594-11.929687-9.882813-28.496093-11.988281-42.523437-5.402344-14.023438 6.585937-22.984375 20.675781-22.996094 36.171875v1.007812c-11.382812 2.894532-20.25 11.8125-23.082031 23.210938-2.828125 11.398438.839843 23.429688 9.546875 31.308594-1.605469 2.535156-2.460938 5.472656-2.464844 8.472656v16c.015625 5.691406 3.066406 10.941406 8 13.777344v10.222656c-17.671875 0-32 14.328125-32 32s14.328125 32 32 32h2.65625c6.796875 30.679688 26.148438 57.105469 53.34375 72.847656v24.984375l-74.398438 19.632813c-45.71875 11.964844-77.605468 53.277344-77.601562 100.535156v54c0 4.417969 3.582031 8 8 8h400c4.417969 0 8-3.582031 8-8v-54c.007812-47.246094-31.859375-88.550781-77.558594-100.527344zm-242.441406 11.679688 32.617188-8.601563c4.71875 35.679688 38.496093 63.449219 79.382812 63.449219s74.664062-27.769531 79.382812-63.449219l32.617188 8.601563v134.847656h-224zm240-161.152344c0 8.835938-7.164062 16-16 16v-32c8.835938 0 16 7.164062 16 16zm-224.0625-120c2.492188.363281 5.007812-.484375 6.773438-2.28125 1.976562-1.988281 2.769531-4.863281 2.089843-7.582031-.519531-2.003907-.789062-4.066407-.800781-6.136719.035156-10.480469 6.863281-19.726562 16.871094-22.835938 10.007812-3.113281 20.875.625 26.847656 9.234376 1.632812 2.382812 4.421875 3.695312 7.296875 3.445312 2.875-.253906 5.390625-2.03125 6.585937-4.660156 2.71875-5.816406 8.667969-9.425782 15.082032-9.160156 6.414062.265624 12.042968 4.355468 14.277344 10.375.960937 2.625 3.21875 4.554687 5.960937 5.097656 2.742187.574218 5.582031-.355469 7.453125-2.441406 2.984375-3.253907 7.207031-5.09375 11.625-5.054688 7.136719-.039062 13.410156 4.714844 15.3125 11.59375.765625 2.847656 3.035156 5.046875 5.914062 5.71875 2.875.667969 5.882813-.300781 7.828126-2.519531 5.128906-5.863281 13.207031-8.195313 20.671874-5.972657 7.464844 2.222657 12.949219 8.59375 14.035157 16.308594.707031 3.988282 4.183593 6.890625 8.238281 6.871094 8.835938 0 16 7.164062 16 16s-7.164062 16-16 16h-192c-8.835938.015625-16.015625-7.132812-16.03125-15.96875-.019531-8.835938 7.128906-16.015625 15.96875-16.03125zm.0625 48h200v16h-208v-16zm-16 88c-8.835938 0-16-7.164062-16-16s7.164062-16 16-16zm16-8v-48h192v48c0 53.019531-42.980469 96-96 96s-96-42.980469-96-96zm50.039062 135.734375c3.511719-.925781 5.960938-4.101563 5.960938-7.734375v-23.511719c25.726562 10.015625 54.273438 10.015625 80 0v23.511719c0 3.632812 2.445312 6.808594 5.960938 7.734375l17.78125 4.691406c-2.589844 28.804688-30.140626 51.574219-63.742188 51.574219-33.390625 0-60.863281-22.511719-63.710938-51.585938zm-146.039062 106.265625c.011719-39.332031 26.148438-73.867188 64-84.558594v130.558594h-64zm384 46h-64v-130.558594c37.855469 10.683594 63.996094 45.226563 64 84.558594zm0 0"/>
    <path d="m208.5 208c13.253906 0 24-10.746094 24-24v-32h-16v32c0 4.417969-3.582031 8-8 8s-8-3.582031-8-8v-32h-16v32c0 13.253906 10.746094 24 24 24zm0 0"/>
    <path d="m250.820312 157.679688c1.503907 1.503906 3.550782 2.339843 5.679688 2.320312 1.039062.011719 2.074219-.175781 3.039062-.558594.957032-.46875 1.84375-1.058594 2.640626-1.761718 1.503906-1.507813 2.339843-3.550782 2.320312-5.679688-.03125-2.117188-.859375-4.148438-2.320312-5.679688-.394532-.363281-.820313-.683593-1.28125-.960937-.40625-.316406-.867188-.558594-1.359376-.71875-.476562-.242187-.996093-.40625-1.527343-.480469-1.53125-.328125-3.125-.160156-4.550781.480469-.980469.386719-1.875.957031-2.640626 1.679687-2.234374 2.316407-2.921874 5.714844-1.769531 8.71875.472657.953126 1.066407 1.839844 1.769531 2.640626zm0 0"/>
    <path d="m166.179688 157.679688c.703124-.777344 1.273437-1.671876 1.679687-2.640626.855469-1.9375.855469-4.140624 0-6.078124-.40625-.96875-.972656-1.863282-1.679687-2.640626-2.316407-2.238281-5.738282-2.894531-8.71875-1.679687-.980469.386719-1.875.957031-2.640626 1.679687-.707031.777344-1.273437 1.671876-1.679687 2.640626-.855469 1.9375-.855469 4.140624 0 6.078124.40625.96875.976563 1.863282 1.679687 2.640626 2.289063 2.289062 5.742188 2.957031 8.71875 1.679687.96875-.40625 1.863282-.976563 2.640626-1.679687zm0 0"/>
    <path d="m256.117188 229.238281-12.082032-10.476562c-9.519531 9.109375-22.375 13.898437-35.535156 13.238281-13.160156.660156-26.015625-4.128906-35.535156-13.238281l-12.082032 10.476562c12.515626 12.695313 29.808594 19.507813 47.617188 18.761719 17.808594.746094 35.101562-6.066406 47.617188-18.761719zm0 0"/>
</svg>