<svg height="479pt" viewBox="-31 0 479 479.99519" width="479pt" xmlns="http://www.w3.org/2000/svg">
    <path d="m397.699219 389.753906c-11.675781-22.546875-31.859375-39.507812-56.082031-47.117187-1.546876-.566407-3.121094-1.046875-4.71875-1.441407l-38.5625-10.160156-41.839844-11.039062h-96l-41.839844 11.039062-38.558594 10.160156c-1.597656.394532-3.171875.875-4.71875 1.441407-24.777344 7.78125-45.300781 25.351562-56.800781 48.636719-7.964844-14.234376-10.167969-30.984376-6.160156-46.796876l42.480469-169.921874 15.199218-60.800782c15.441406-61.667968 70.589844-105.121094 134.160156-105.703125 63.570313-.582031 119.507813 41.851563 136.078126 103.222657l16.640624 61.921874 45.839844 170.160157c4.199219 15.558593 2.367188 32.128906-5.117187 46.398437zm0 0"
          fill="#57565c"/>
    <path d="m343.378906 176.875c.738282 2.300781 1.117188 4.703125 1.117188 7.121094 0 13.253906-10.742188 24-24 24h-16v-48h16c10.519531-.050782 19.824218 6.8125 22.882812 16.878906zm0 0"
          fill="#f1cfa2"/>
    <path d="m112.496094 192.476562v15.519532h-16c-13.253906 0-24-10.746094-24-24 0-1.640625.160156-3.273438.480468-4.882813 2.316407-11.140625 12.140626-19.128906 23.519532-19.117187h16zm0 0"
          fill="#f1cfa2"/>
    <path d="m408.496094 433.996094v38h-66.796875c1.863281-5.128906 2.8125-10.542969 2.796875-16 .007812-17.140625-9.144532-32.972656-24-41.519532v-22.480468l21.121094-49.359375c39.839843 12.597656 66.910156 49.574219 66.878906 91.359375zm0 0"
          fill="#ffdaaa"/>
    <path d="m344.496094 455.996094c.015625 5.457031-.933594 10.871094-2.796875 16h-266.402344c-1.867187-5.128906-2.8125-10.542969-2.800781-16-.003906-17.140625 9.148437-32.972656 24-41.519532v-22.480468l-21.117188-49.359375c1.546875-.566407 3.121094-1.046875 4.71875-1.441407l38.558594-10.160156 33.839844 60.960938h112l33.839844-60.960938 38.5625 10.160156c1.597656.394532 3.171874.875 4.71875 1.441407l-21.121094 49.359375v22.480468c14.855468 8.546876 24.007812 24.378907 24 41.519532zm0 0"
          fill="#ff6243"/>
    <path d="m312.496094 159.996094v16c-.023438 8.824218-7.171875 15.972656-16 16h-64l-24-16-24 16h-64c-8.824219-.027344-15.972656-7.175782-16-16v-24c0-4.417969 3.582031-8 8-8h192c4.417968 0 8 3.582031 8 8zm0 0"
          fill="#f1cfa2"/>
    <g fill="#ffdaaa">
        <path d="m298.335938 331.035156-33.839844 60.960938h-112l-33.839844-60.960938 41.839844-11.039062v-35.761719c30.082031 15.679687 65.921875 15.679687 96 0v35.761719zm0 0"/>
        <path d="m96.496094 391.996094v22.480468c-14.851563 8.546876-24.003906 24.378907-24 41.519532-.011719 5.457031.933594 10.871094 2.800781 16h-66.800781v-38c.050781-41.757813 27.089844-78.695313 66.882812-91.359375zm0 0"/>
        <path d="m304.496094 119.996094h-192c-4.417969 0-8 3.582031-8 8v64.480468c.132812 57.4375 46.804687 103.890626 104.242187 103.757813s103.890625-46.800781 103.757813-104.238281v-64c0-4.417969-3.582032-8-8-8zm0 0"/>
    </g>
    <path d="m256.496094 284.234375v16c-30.078125 15.679687-65.917969 15.679687-96 0v-16c30.082031 15.679687 65.921875 15.679687 96 0zm0 0"
          fill="#f1cfa2"/>
    <path d="m253.457031 175.433594c.96875.382812 2 .574218 3.039063.5625 2.128906.019531 4.175781-.816406 5.683594-2.320313 1.503906-1.503906 2.339843-3.550781 2.316406-5.679687-.027344-2.117188-.855469-4.148438-2.320313-5.679688-.378906-.34375-.78125-.664062-1.199219-.960937-.445312-.300781-.929687-.542969-1.4375-.71875-.480468-.246094-.996093-.40625-1.53125-.480469-2.34375-.480469-4.78125.121094-6.628906 1.644531-1.847656 1.523438-2.90625 3.800781-2.882812 6.195313-.019532 2.128906.816406 4.175781 2.320312 5.679687.796875.703125 1.683594 1.296875 2.640625 1.757813zm0 0"/>
    <path d="m154.816406 162.316406c-1.464844 1.53125-2.292968 3.558594-2.320312 5.679688-.019532 2.128906.816406 4.175781 2.320312 5.679687.796875.703125 1.683594 1.296875 2.640625 1.757813.96875.382812 2 .574218 3.039063.5625 2.128906.019531 4.175781-.816406 5.683594-2.320313 1.503906-1.503906 2.339843-3.550781 2.316406-5.679687-.011719-2.121094-.84375-4.15625-2.320313-5.679688-3.207031-2.960937-8.148437-2.960937-11.359375 0zm0 0"/>
    <path d="m406.523438 389.722656c6.894531-15.199218 8.308593-32.320312 4-48.449218l-62.480469-232.070313c-17.496094-64.917969-76.644531-109.8125-143.878907-109.1953125-67.230468.6132815-125.550781 46.5859375-141.851562 111.8124995l-57.65625 230.71875c-4.097656 16.351563-2.320312 33.625 5.023438 48.800782-6.050782 13.40625-9.179688 27.945312-9.183594 42.65625v38c0 4.417968 3.582031 8 8 8h400c4.417968 0 8-3.582032 8-8v-38c-.011719-15.3125-3.417969-30.433594-9.972656-44.273438zm-10.777344-17.96875c-14.042969-18.835937-34.074219-32.335937-56.800782-38.285156l-.910156-.242188-.882812-.382812-.054688.136719-72.601562-19.152344v-24.984375c27.195312-15.746094 46.546875-42.167969 53.34375-72.847656h2.65625c16.722656-.046875 30.574218-12.984375 31.761718-29.664063l42.832032 159.09375c2.304687 8.601563 2.53125 17.625.65625 26.328125zm-79.25 49.65625c12.359375 7.136719 19.980468 20.316406 20 34.585938-.023438 2.691406-.328125 5.371094-.910156 8h-254.175782c-.582031-2.628906-.886718-5.308594-.914062-8 .023437-14.269532 7.644531-27.449219 20-34.585938 2.480468-1.429687 4.003906-4.074218 4-6.933594v-22.480468c.003906-1.085938-.214844-2.15625-.648438-3.152344l-17.597656-41 28.40625-7.496094 30.824219 55.527344c1.414062 2.550781 4.101562 4.128906 7.015625 4.121094h112c2.90625-.003906 5.585937-1.578125 6.992187-4.121094l30.824219-55.519531 28.410156 7.488281-17.601562 41c-.421875.996094-.632813 2.070312-.625 3.152344v22.480468c0 2.859376 1.523437 5.503907 4 6.933594zm-220-229.414062v8c-8.835938 0-16-7.164063-16-16 0-8.835938 7.164062-16 16-16zm224 8v-32c8.839844 0 16 7.164062 16 16 0 8.835937-7.160156 16-16 16zm-121.597656-8 9.597656-6.402344 9.601562 6.402344h-1.601562v16c0 4.417968-3.582032 8-8 8-4.417969 0-8-3.582032-8-8v-16zm14.015624-22.65625c-2.6875-1.792969-6.191406-1.792969-8.878906 0l-21.9375 14.65625h-61.601562c-4.417969 0-8-3.582032-8-8v-24h192v24c0 4.417968-3.582032 8-8 8h-61.597656zm91.582032-33.34375h-192v-8h192zm-184 64h64v8c0 13.253906 10.746094 24 24 24 13.257812 0 24-10.746094 24-24v-8h64c2.613281-.03125 5.203125-.492188 7.664062-1.367188-3.441406 50.296875-45.246094 89.335938-95.664062 89.335938-50.414063 0-92.21875-39.039063-95.664063-89.335938 2.464844.875 5.054688 1.335938 7.664063 1.367188zm48 120v-23.511719c25.726562 10.015625 54.273437 10.015625 80 0v23.511719c0 3.632812 2.449218 6.808594 5.960937 7.734375l31.898438 8.410156-26.570313 47.855469h-102.574218l-26.570313-47.855469 31.898437-8.410156c3.511719-.925781 5.957032-4.101563 5.957032-7.734375zm-148.320313 26.398437 57.691407-230.71875c10.753906-43.003906 42.4375-77.699219 84.289062-92.300781 41.847656-14.605469 88.242188-7.15625 123.414062 19.820312 23.078126 17.492188 39.640626 42.203126 47.046876 70.199219l14.105468 52.382813c-5.960937-8.605469-15.753906-13.753906-26.226562-13.78125v-24c0-8.835938-7.160156-16-16-16h-192c-8.835938 0-16 7.164062-16 16v24c-17.671875 0-32 14.324218-32 32 0 17.671875 14.328125 32 32 32h2.65625c6.800781 30.679687 26.148437 57.101562 53.34375 72.847656v24.984375l-72.589844 19.144531-.058594-.128906-.863281.375-.910156.242188c-23.398438 6.128906-43.910157 20.253906-57.976563 39.925781-2.164062-8.871094-2.136718-18.132813.078125-26.992188zm-3.679687 87.601563c.019531-35.621094 21.535156-67.710938 54.480468-81.257813l17.519532 40.898438v16.445312c-15.011719 10.46875-23.972656 27.609375-24 45.914063.039062 2.679687.265625 5.351562.691406 8h-48.691406zm384 30h-48.6875c.421875-2.648438.652344-5.320313.6875-8-.023438-18.304688-8.984375-35.445313-24-45.914063v-16.445312l17.523437-40.890625c32.949219 13.539062 54.464844 45.628906 54.476563 81.25zm0 0"/>
    <path d="m208.496094 271.996094c17.808594.746094 35.105468-6.066406 47.617187-18.761719l-12.078125-10.480469c-9.523437 9.113282-22.375 13.898438-35.539062 13.242188-13.160156.65625-26.011719-4.128906-35.535156-13.242188l-12.078126 10.480469c12.511719 12.695313 29.804688 19.507813 47.613282 18.761719zm0 0"/>
</svg>