<svg height="480pt" viewBox="-31 0 479 480" width="480pt" xmlns="http://www.w3.org/2000/svg">
    <path d="m112.5 176v16h-16c-13.253906 0-24-10.746094-24-24s10.746094-24 24-24h16zm0 0" fill="#f1cfa2"/>
    <path d="m320.5 472h-88l56-72-16-24 32-8-21.359375-56.960938 53.757813 14.160157c42.203124 11.042969 71.628906 49.179687 71.601562 92.800781v54zm0 0"
          fill="#787680"/>
    <path d="m320.5 144c13.253906 0 24 10.746094 24 24s-10.746094 24-24 24h-16v-48zm0 0" fill="#f1cfa2"/>
    <path d="m312.5 128v48c0 57.4375-46.5625 104-104 104s-104-46.5625-104-104v-48c-.007812-8.082031.929688-16.136719 2.800781-24h202.398438c1.871093 7.863281 2.808593 15.917969 2.800781 24zm0 0"
          fill="#ffdaaa"/>
    <path d="m296.5 8 16 96h-208l16-96zm0 0" fill="#8b5e3c"/>
    <path d="m283.140625 311.039062 21.359375 56.960938-32 8 16 24-56 72h-24l69.601562-162.320312zm0 0" fill="#57565c"/>
    <path d="m278.101562 309.679688-69.601562 162.320312-69.601562-162.320312 21.601562-5.679688c0 26.507812 21.492188 48 48 48s48-21.492188 48-48zm0 0"
          fill="#5aaae7"/>
    <path d="m280.5 144c0 13.253906-10.746094 24-24 24s-24-10.746094-24-24 10.746094-24 24-24 24 10.746094 24 24zm0 0"
          fill="#f1cfa2"/>
    <path d="m256.5 268.238281v35.761719c0 26.507812-21.492188 48-48 48s-48-21.492188-48-48v-35.761719c30.078125 15.679688 65.921875 15.679688 96 0zm0 0"
          fill="#ffdaaa"/>
    <path d="m138.898438 309.679688 69.601562 162.320312h-24l-56-72 16-24-32-8 21.359375-56.960938zm0 0"
          fill="#57565c"/>
    <path d="m96.5 472h-88v-54c-.027344-43.621094 29.398438-81.757812 71.601562-92.800781l53.757813-14.160157-21.359375 56.960938 32 8-16 24 56 72zm0 0"
          fill="#787680"/>
    <path d="m184.5 144c0 13.253906-10.746094 24-24 24s-24-10.746094-24-24 10.746094-24 24-24 24 10.746094 24 24zm0 0"
          fill="#f1cfa2"/>
    <path d="m256.5 268.238281v16c-30.078125 15.679688-65.921875 15.679688-96 0v-16c30.078125 15.679688 65.921875 15.679688 96 0zm0 0"
          fill="#f1cfa2"/>
    <path d="m338.941406 317.472656-74.441406-19.640625v-24.984375c27.195312-15.742187 46.546875-42.167968 53.34375-72.847656h2.65625c17.671875 0 32-14.328125 32-32s-14.328125-32-32-32v-8c-.039062-5.355469-.464844-10.703125-1.273438-16h49.273438v-16h-49.222656l-14.890625-89.3125c-.640625-3.855469-3.976563-6.6875-7.886719-6.6875h-176c-3.910156 0-7.246094 2.832031-7.886719 6.6875l-14.890625 89.3125h-49.222656v16h49.273438c-.808594 5.296875-1.234376 10.644531-1.273438 16v8c-17.671875 0-32 14.328125-32 32s14.328125 32 32 32h2.65625c6.796875 30.679688 26.148438 57.105469 53.34375 72.847656v24.984375l-74.398438 19.632813c-45.71875 11.972656-77.601562 53.277344-77.601562 100.535156v54c0 4.417969 3.582031 8 8 8h400c4.417969 0 8-3.582031 8-8v-54c.007812-47.246094-31.859375-88.546875-77.558594-100.527344zm-73.097656 62.96875 12.800781 19.199219-50.066406 64.359375h-7.941406l59.382812-138.496094 13.839844 36.894532-23.304687 5.824218c-2.523438.632813-4.582032 2.453125-5.519532 4.878906-.9375 2.425782-.636718 5.160157.808594 7.324219zm-113.878906-7.320312c-.9375-2.429688-2.996094-4.25-5.519532-4.882813l-23.304687-5.839843 13.839844-36.910157 59.382812 138.511719h-7.941406l-50.066406-64.359375 12.800781-19.199219c1.441406-2.164062 1.746094-4.894531.808594-7.320312zm115.121094-58.058594-58.585938 136.640625-58.59375-136.640625 3.5625-.933594c4.859375 26.574219 28.015625 45.882813 55.03125 45.882813s50.171875-19.308594 55.03125-45.882813zm20.277343-179.0625c-4.011719-15.585938-18.992187-25.753906-34.957031-23.71875-15.96875 2.03125-27.925781 15.625-27.90625 31.71875h-8v32c0 4.417969-3.582031 8-8 8s-8-3.582031-8-8v-32h-8c.019531-16.09375-11.9375-29.6875-27.90625-31.71875-15.964844-2.035156-30.945312 8.132812-34.957031 23.71875h-17.136719v-8c-.003906-5.363281.441406-10.714844 1.335938-16h189.328124c.894532 5.285156 1.339844 10.636719 1.335938 16v8zm-14.863281 8c0 8.835938-7.164062 16-16 16s-16-7.164062-16-16 7.164062-16 16-16 16 7.164062 16 16zm-96 0c0 8.835938-7.164062 16-16 16s-16-7.164062-16-16 7.164062-16 16-16 16 7.164062 16 16zm160 24c0 8.835938-7.164062 16-16 16v-32c8.835938 0 16 7.164062 16 16zm-209.222656-152h162.445312l13.335938 80h-189.117188zm-30.777344 168c-8.835938 0-16-7.164062-16-16s7.164062-16 16-16zm16-8v-24h17.136719c2.890625 11.5 11.953125 20.429688 23.496093 23.152344 11.542969 2.726562 23.640626-1.214844 31.367188-10.207032v11.054688c0 13.253906 10.746094 24 24 24s24-10.746094 24-24v-11.054688c7.726562 8.992188 19.824219 12.933594 31.367188 10.207032 11.542968-2.722656 20.605468-11.652344 23.496093-23.152344h17.136719v24c0 53.019531-42.980469 96-96 96s-96-42.980469-96-96zm96 112c13.683594-.019531 27.242188-2.566406 40-7.511719v23.511719c0 22.089844-17.910156 40-40 40s-40-17.910156-40-40v-23.511719c12.757812 4.945313 26.316406 7.492188 40 7.511719zm-192 130c-.011719-39.96875 26.941406-74.917969 65.601562-85.0625l38.796876-10.234375-15.933594 42.480469c-.804688 2.136718-.65625 4.511718.40625 6.53125 1.058594 2.023437 2.929687 3.492187 5.144531 4.046875l20.992187 5.246093-9.703124 14.550782c-1.914063 2.867187-1.777344 6.632812.335937 9.351562l46 59.089844h-63.640625v-56h-16v56h-72zm384 46h-72v-56h-16v56h-63.640625l45.960937-59.089844c2.113282-2.71875 2.25-6.484375.335938-9.351562l-9.703125-14.550782 20.992187-5.246093c2.210938-.554688 4.085938-2.023438 5.144532-4.046875 1.0625-2.019532 1.207031-4.394532.40625-6.53125l-15.9375-42.480469 38.816406 10.242187c38.667969 10.132813 65.632812 45.082032 65.625 85.054688zm0 0"/>
    <path d="m253.460938 136.640625c-2.011719.726563-3.59375 2.308594-4.320313 4.320313-.851563 1.9375-.851563 4.140624 0 6.078124.40625.96875.976563 1.863282 1.679687 2.640626.777344.707031 1.671876 1.273437 2.640626 1.679687 2.976562 1.277344 6.429687.613281 8.71875-1.679687 2.292968-2.289063 2.957031-5.742188 1.679687-8.71875-.386719-.980469-.957031-1.875-1.679687-2.640626-.777344-.707031-1.671876-1.273437-2.640626-1.679687-1.929687-.882813-4.148437-.882813-6.078124 0zm0 0"/>
    <path d="m154.820312 138.320312c-.722656.765626-1.292968 1.660157-1.679687 2.640626-1.277344 2.976562-.609375 6.429687 1.679687 8.71875.777344.707031 1.671876 1.273437 2.640626 1.679687 1.9375.851563 4.140624.851563 6.078124 0 .96875-.40625 1.863282-.972656 2.640626-1.679687 2.289062-2.289063 2.957031-5.742188 1.679687-8.71875-.386719-.980469-.957031-1.875-1.679687-2.640626-3.207032-2.960937-8.152344-2.960937-11.359376 0zm0 0"/>
    <path d="m256.125 221.238281-12.089844-10.476562c-9.519531 9.109375-22.375 13.898437-35.535156 13.238281-13.160156.660156-26.015625-4.128906-35.535156-13.238281l-12.089844 10.476562c12.519531 12.691407 29.816406 19.503907 47.625 18.761719 17.808594.742188 35.105469-6.070312 47.625-18.761719zm0 0"/>
</svg>