<svg height="480pt" viewBox="-31 0 479 480" width="480pt" xmlns="http://www.w3.org/2000/svg">
    <path d="m88.5 128h240v48h-240zm0 0" fill="#787680"/>
    <path d="m112.5 176v16h-16c-13.253906 0-24-10.746094-24-24s10.746094-24 24-24h16zm0 0" fill="#f1cfa2"/>
    <path d="m328.5 472h-320v-54c-.027344-43.621094 29.398438-81.757812 71.601562-92.800781l56.878907-14.960938c3.757812 28.402344 33.839843 49.761719 71.519531 49.761719s67.761719-21.359375 71.519531-49.761719l56.878907 14.960938c42.203124 11.042969 71.628906 49.179687 71.601562 92.800781v54zm0 0"
          fill="#ffb655"/>
    <path d="m320.5 144c13.253906 0 24 10.746094 24 24s-10.746094 24-24 24h-16v-48zm0 0" fill="#f1cfa2"/>
    <path d="m328.5 128v16c-5.476562.003906-10.90625-1.027344-16-3.039062-38.960938-14.480469-64-76.960938-64-76.960938-30.960938 43.359375-110 67.519531-144 76.238281-9.921875 2.5625-16 3.761719-16 3.761719v-16c0-66.273438 53.726562-120 120-120s120 53.726562 120 120zm0 0"
          fill="#898890"/>
    <path d="m312.5 144v32c0 57.4375-46.5625 104-104 104s-104-46.5625-104-104v-35.761719c34-8.71875 113.039062-32.878906 144-76.238281 0 0 25.039062 62.480469 64 76.960938zm0 0"
          fill="#ffdaaa"/>
    <path d="m256.5 304 23.519531 6.238281c-3.757812 28.402344-33.839843 49.761719-71.519531 49.761719s-67.761719-21.359375-71.519531-49.761719l23.519531-6.238281v-8c0 17.679688 21.519531 32 48 32s48-14.320312 48-32zm0 0"
          fill="#ffd422"/>
    <path d="m256.5 268.238281v27.761719c0 17.679688-21.519531 32-48 32s-48-14.320312-48-32v-27.761719c30.078125 15.679688 65.921875 15.679688 96 0zm0 0"
          fill="#ffdaaa"/>
    <path d="m256.5 268.238281v16c-30.078125 15.679688-65.921875 15.679688-96 0v-16c30.078125 15.679688 65.921875 15.679688 96 0zm0 0"
          fill="#f1cfa2"/>
    <path d="m338.941406 317.464844-74.441406-19.632813v-24.984375c27.195312-15.742187 46.546875-42.167968 53.34375-72.847656h2.65625c14.46875.050781 27.160156-9.644531 30.914062-23.621094 3.753907-13.972656-2.367187-28.722656-14.914062-35.929687v-12.449219c0-70.691406-57.308594-128-128-128s-128 57.308594-128 128v12.449219c-12.546875 7.207031-18.667969 21.957031-14.914062 35.929687 3.753906 13.976563 16.445312 23.671875 30.914062 23.621094h2.65625c6.796875 30.679688 26.148438 57.105469 53.34375 72.847656v24.984375l-74.398438 19.632813c-45.71875 11.964844-77.605468 53.277344-77.601562 100.535156v54c0 4.417969 3.582031 8 8 8h400c4.417969 0 8-3.582031 8-8v-54c.007812-47.246094-31.855469-88.554688-77.558594-100.535156zm-18.441406-133.464844v-32c8.835938 0 16 7.164062 16 16s-7.164062 16-16 16zm-224-56c0-61.855469 50.144531-112 112-112s112 50.144531 112 112v7.113281c-37.800781-8.410156-64.296875-73.386719-64.574219-74.089843-1.089843-2.714844-3.570312-4.617188-6.472656-4.96875-.316406-.039063-.636719-.054688-.953125-.054688-2.585938 0-5.011719 1.25-6.511719 3.351562-31.296875 43.847657-116.746093 67.664063-145.488281 74.625zm0 56c-8.835938 0-16-7.164062-16-16s7.164062-16 16-16zm16-8v-29.535156c34.398438-9.191406 99.601562-30.5625 134.023438-67.480469 9.175781 18.617187 29.480468 53.496094 57.976562 67.207031v29.808594c0 53.019531-42.980469 96-96 96s-96-42.980469-96-96zm56 104.488281c25.726562 10.015625 54.273438 10.015625 80 0v15.511719c0 13.007812-18.320312 24-40 24s-40-10.992188-40-24zm-10.800781 32.519531c8.800781 13.6875 27.976562 22.992188 50.800781 22.992188s42-9.304688 50.800781-22.992188l11.199219 2.945313c-6.953125 20.949219-32.121094 36.046875-62 36.046875s-55.046875-15.097656-61.96875-36.046875zm242.800781 150.992188h-64v-72h-16v72h-224v-72h-16v72h-64v-46c-.011719-39.96875 26.941406-74.917969 65.601562-85.0625l48.894532-12.898438c8.703125 28.242188 39.632812 47.960938 77.503906 47.960938s68.800781-19.71875 77.464844-47.960938l48.933594 12.898438c38.660156 10.144531 65.613281 45.09375 65.601562 85.0625zm0 0"/>
    <path d="m208.5 200c13.253906 0 24-10.746094 24-24v-32h-16v32c0 4.417969-3.582031 8-8 8s-8-3.582031-8-8v-32h-16v32c0 13.253906 10.746094 24 24 24zm0 0"/>
    <path d="m253.460938 151.359375c.960937.410156 1.992187.628906 3.039062.640625 2.128906.023438 4.175781-.8125 5.679688-2.320312 1.507812-1.503907 2.34375-3.550782 2.320312-5.679688-.011719-1.046875-.230469-2.078125-.640625-3.039062-.386719-.980469-.957031-1.875-1.679687-2.640626-2.300782-2.269531-5.742188-2.933593-8.71875-1.679687-.980469.386719-1.875.957031-2.640626 1.679687-.742187.75-1.3125 1.652344-1.679687 2.640626-.410156.960937-.628906 1.992187-.640625 3.039062-.074219 3.257812 1.914062 6.207031 4.960938 7.359375zm0 0"/>
    <path d="m166.179688 149.679688c1.460937-1.535157 2.289062-3.5625 2.320312-5.679688-.011719-1.046875-.230469-2.078125-.640625-3.039062-.386719-.980469-.957031-1.875-1.679687-2.640626-.777344-.707031-1.671876-1.273437-2.640626-1.679687-2.980468-1.214844-6.402343-.558594-8.71875 1.679687-.707031.777344-1.273437 1.671876-1.679687 2.640626-.410156.960937-.628906 1.992187-.640625 3.039062-.023438 2.128906.8125 4.175781 2.320312 5.679688 1.503907 1.507812 3.550782 2.34375 5.679688 2.320312 1.046875-.011719 2.078125-.230469 3.039062-.640625.96875-.40625 1.863282-.972656 2.640626-1.679687zm0 0"/>
    <path d="m256.125 221.238281-12.089844-10.476562c-9.519531 9.113281-22.371094 13.902343-35.535156 13.238281-13.164062.664062-26.015625-4.125-35.535156-13.238281l-12.089844 10.476562c12.515625 12.699219 29.8125 19.511719 47.625 18.761719 17.8125.75 35.109375-6.0625 47.625-18.761719zm0 0"/>
</svg>