<svg height="480pt" viewBox="-31 0 479 480" width="480pt" xmlns="http://www.w3.org/2000/svg">
    <path d="m112.5 160v16h-16c-13.253906 0-24-10.746094-24-24s10.746094-24 24-24h16zm0 0" fill="#f1cfa2"/>
    <path d="m320.5 472h-312v-70c-.027344-43.621094 29.398438-81.757812 71.601562-92.800781l80.398438-21.199219-16 64 64-16 64 16-16-64 80.398438 21.199219c42.203124 11.042969 71.628906 49.179687 71.601562 92.800781v70zm0 0"
          fill="#00ccb3"/>
    <path d="m320.5 128c13.253906 0 24 10.746094 24 24s-10.746094 24-24 24h-16v-48zm0 0" fill="#f1cfa2"/>
    <path d="m312.5 128v32c0 57.4375-46.5625 104-104 104s-104-46.5625-104-104v-32c31.421875-21.054688 51.695312-55.136719 55.199219-92.800781 14.839843 8.527343 31.6875 12.945312 48.800781 12.800781 17.113281.144531 33.960938-4.273438 48.800781-12.800781 3.503907 37.664062 23.777344 71.746093 55.199219 92.800781zm0 0"
          fill="#ffdaaa"/>
    <path d="m312.5 112v16c-31.421875-21.054688-51.695312-55.136719-55.199219-92.800781-14.839843 8.527343-31.6875 12.945312-48.800781 12.800781-17.113281.144531-33.960938-4.273438-48.800781-12.800781-3.503907 37.664062-23.777344 71.746093-55.199219 92.800781v-16c0-57.4375 46.5625-104 104-104s104 46.5625 104 104zm0 0"
          fill="#898890"/>
    <path d="m280.5 128c0 13.253906-10.746094 24-24 24s-24-10.746094-24-24 10.746094-24 24-24 24 10.746094 24 24zm0 0"
          fill="#f1cfa2"/>
    <path d="m256.5 288 16 64-64-16zm0 0" fill="#0b7"/>
    <path d="m256.5 252.238281v35.761719l-48 48-48-48v-35.761719c30.078125 15.679688 65.921875 15.679688 96 0zm0 0"
          fill="#ffdaaa"/>
    <path d="m208.5 336-64 16 16-64zm0 0" fill="#0b7"/>
    <path d="m184.5 128c0 13.253906-10.746094 24-24 24s-24-10.746094-24-24 10.746094-24 24-24 24 10.746094 24 24zm0 0"
          fill="#f1cfa2"/>
    <path d="m256.5 252.238281v16c-30.078125 15.679688-65.921875 15.679688-96 0v-16c30.078125 15.679688 65.921875 15.679688 96 0zm0 0"
          fill="#f1cfa2"/>
    <path d="m338.941406 301.464844-74.441406-19.632813v-24.984375c27.195312-15.742187 46.546875-42.167968 53.34375-72.847656h2.65625c17.671875 0 32-14.328125 32-32s-14.328125-32-32-32v-8c0-61.855469-50.144531-112-112-112s-112 50.144531-112 112v8c-17.671875 0-32 14.328125-32 32s14.328125 32 32 32h2.65625c6.796875 30.679688 26.148438 57.105469 53.34375 72.847656v24.984375l-74.398438 19.632813c-45.722656 11.964844-77.609374 53.273437-77.601562 100.535156v70c0 4.417969 3.582031 8 8 8h400c4.417969 0 8-3.582031 8-8v-70c.011719-47.25-31.855469-88.554688-77.558594-100.535156zm-86.777344 2.183594 9.34375 37.351562-37.359374-9.335938zm35.199219-183.648438c-.296875-1.183594-.660156-2.347656-1.085937-3.488281 1.132812 1.183593 2.285156 2.398437 3.390625 3.488281zm-30.863281-24c-17.671875 0-32 14.328125-32 32h-8v32c0 4.417969-3.582031 8-8 8s-8-3.582031-8-8v-32h-8c.046875-11.652344-6.265625-22.398438-16.464844-28.03125-10.199218-5.628906-22.660156-5.246094-32.496094 1 11.300782-16.019531 18.96875-34.3125 22.472657-53.601562 13.410156 5.796874 27.878906 8.738281 42.488281 8.632812 14.609375.097656 29.078125-2.851562 42.488281-8.65625 3.503907 19.289062 11.171875 37.582031 22.472657 53.601562-5.070313-3.222656-10.953126-4.9375-16.960938-4.945312zm16 32c0 8.835938-7.164062 16-16 16s-16-7.164062-16-16 7.164062-16 16-16 16 7.164062 16 16zm-96 0c0 8.835938-7.164062 16-16 16s-16-7.164062-16-16 7.164062-16 16-16 16 7.164062 16 16zm-46.863281-8h-2.304688c1.105469-1.0625 2.257813-2.304688 3.390625-3.488281-.425781 1.140625-.789062 2.304687-1.085937 3.488281zm206.863281 32c0 8.835938-7.164062 16-16 16v-32c8.835938 0 16 7.164062 16 16zm-32-40c-22.277344-19.90625-36.265625-47.453125-39.199219-77.183594 24.605469 18.023438 39.160157 46.683594 39.199219 77.183594zm-50.007812-84.230469c-.414063.132813-.816407.300781-1.199219.503907-13.621094 7.824218-29.085938 11.875-44.792969 11.726562-15.710938.148438-31.175781-3.898438-44.800781-11.726562-.386719-.199219-.785157-.371094-1.199219-.503907 28.660156-15.699219 63.339844-15.699219 92 0zm-102.792969 7.023438c-2.925781 29.738281-16.917969 57.292969-39.199219 77.207031.035156-30.507812 14.589844-59.175781 39.199219-77.207031zm-55.199219 133.207031c-8.835938 0-16-7.164062-16-16s7.164062-16 16-16zm16-8v-24h17.136719c2.890625 11.5 11.953125 20.429688 23.496093 23.152344 11.542969 2.726562 23.640626-1.214844 31.367188-10.207032v11.054688c0 13.253906 10.746094 24 24 24s24-10.746094 24-24v-11.054688c7.726562 8.992188 19.824219 12.933594 31.367188 10.207032 11.542968-2.722656 20.605468-11.652344 23.496093-23.152344h17.136719v24c0 53.019531-42.980469 96-96 96s-96-42.980469-96-96zm96 112c13.683594-.019531 27.242188-2.566406 40-7.511719v20.199219l-40 40-40-40v-20.199219c12.757812 4.945313 26.316406 7.492188 40 7.511719zm-43.664062 31.648438 28 28-37.359376 9.335937zm235.664062 160.351562h-72v-56h-16v56h-208v-56h-16v56h-72v-62c-.011719-39.96875 26.941406-74.917969 65.601562-85.0625l67.359376-17.738281-12.722657 50.871093c-.679687 2.726563.117188 5.609376 2.101563 7.597657 1.988281 1.988281 4.871094 2.789062 7.597656 2.109375l62.0625-15.53125 62.0625 15.515625c2.726562.679687 5.609375-.121094 7.597656-2.109375 1.984375-1.988282 2.78125-4.871094 2.101563-7.597656l-12.722657-50.855469 67.359376 17.738281c38.660156 10.144531 65.613281 45.09375 65.601562 85.0625zm0 0"/>
    <path d="m253.460938 120.640625c-.511719.175781-1 .417969-1.449219.71875l-1.191407.960937c-.707031.777344-1.273437 1.671876-1.679687 2.640626-.851563 1.9375-.851563 4.140624 0 6.078124.367187.988282.9375 1.890626 1.679687 2.640626.378907.34375.777344.664062 1.191407.960937.449219.300781.9375.542969 1.449219.71875.453124.230469.9375.394531 1.4375.480469.53125.089844 1.066406.144531 1.601562.160156 2.128906.023438 4.175781-.8125 5.679688-2.320312 1.507812-1.503907 2.34375-3.550782 2.320312-5.679688-.011719-1.046875-.230469-2.078125-.640625-3.039062-.40625-.96875-.972656-1.863282-1.679687-2.640626-1.9375-1.851562-4.648438-2.65625-7.28125-2.160156-.5.085938-.984376.25-1.4375.480469zm0 0"/>
    <path d="m152.5 128c-.089844 4.105469 2.90625 7.628906 6.972656 8.199219 4.066406.570312 7.914063-1.996094 8.953125-5.96875 1.039063-3.972657-1.0625-8.097657-4.886719-9.589844-2.980468-1.214844-6.402343-.558594-8.71875 1.679687-1.464843 1.53125-2.292968 3.5625-2.320312 5.679688zm0 0"/>
    <path d="m256.125 205.238281-12.097656-10.476562c-9.515625 9.113281-22.367188 13.90625-35.527344 13.238281-13.160156.667969-26.011719-4.125-35.527344-13.238281l-12.097656 10.476562c12.515625 12.699219 29.8125 19.515625 47.625 18.761719 17.8125.753906 35.109375-6.0625 47.625-18.761719zm0 0"/>
</svg>