<svg height="480pt" viewBox="-31 0 479 480" width="480pt" xmlns="http://www.w3.org/2000/svg">
    <path d="m328.5 128v17.441406c-2.554688-.96875-5.265625-1.457031-8-1.441406h-8v-8c-64 0-104-64-104-64-64 64-104 64-104 64v8h-8c-2.734375-.015625-5.445312.472656-8 1.441406v-17.441406c.078125-66.242188 53.757812-119.921875 120-120h112v16c0 12.886719-5.191406 25.226562-14.398438 34.238281 14.585938 20.335938 22.421876 44.738281 22.398438 69.761719zm0 0"
          fill="#787680"/>
    <path d="m112.5 176v16h-16c-11.617188-.089844-21.5-8.488281-23.46875-19.933594-1.964844-11.449218 4.550781-22.664062 15.46875-26.625 2.554688-.96875 5.265625-1.457031 8-1.441406h16zm0 0"
          fill="#f1cfa2"/>
    <path d="m320.5 472h-312v-54c-.027344-43.621094 29.398438-81.757812 71.601562-92.800781l80.398438-21.199219-16 64 64-16 64 16-16-64 80.398438 21.199219c42.203124 11.042969 71.628906 49.179687 71.601562 92.800781v54zm0 0"
          fill="#3d9ae2"/>
    <path d="m328.5 145.441406c10.917969 3.960938 17.433594 15.175782 15.46875 26.625-1.96875 11.445313-11.851562 19.84375-23.46875 19.933594h-16v-48h16c2.734375-.015625 5.445312.472656 8 1.441406zm0 0"
          fill="#f1cfa2"/>
    <path d="m312.5 144v32c0 57.4375-46.5625 104-104 104s-104-46.5625-104-104v-40s40 0 104-64c0 0 40 64 104 64zm0 0"
          fill="#ffdaaa"/>
    <path d="m256.5 304 16 64-64-16zm0 0" fill="#1e81ce"/>
    <path d="m256.5 268.238281v35.761719l-48 48-48-48v-35.761719c30.078125 15.679688 65.921875 15.679688 96 0zm0 0"
          fill="#ffdaaa"/>
    <path d="m208.5 352-64 16 16-64zm0 0" fill="#1e81ce"/>
    <path d="m256.5 268.238281v16c-30.078125 15.679688-65.921875 15.679688-96 0v-16c30.078125 15.679688 65.921875 15.679688 96 0zm0 0"
          fill="#f1cfa2"/>
    <path d="m338.941406 317.472656-74.441406-19.640625v-24.984375c27.195312-15.742187 46.546875-42.167968 53.34375-72.847656h2.65625c14.46875.050781 27.160156-9.644531 30.914062-23.621094 3.753907-13.972656-2.367187-28.722656-14.914062-35.929687v-12.449219c.042969-24.488281-6.992188-48.46875-20.257812-69.054688 7.964843-9.902343 12.292968-22.238281 12.257812-34.945312v-16c0-4.417969-3.582031-8-8-8h-112c-70.65625.0820312-127.917969 57.34375-128 128v12.449219c-12.546875 7.207031-18.667969 21.957031-14.914062 35.929687 3.753906 13.976563 16.445312 23.671875 30.914062 23.621094h2.65625c6.796875 30.679688 26.148438 57.105469 53.34375 72.847656v24.984375l-74.398438 19.632813c-45.71875 11.972656-77.601562 53.277344-77.601562 100.535156v54c0 4.417969 3.582031 8 8 8h400c4.417969 0 8-3.582031 8-8v-54c.007812-47.246094-31.859375-88.546875-77.558594-100.527344zm-86.777344 2.175782 9.335938 37.359374-37.351562-9.34375zm68.335938-135.648438v-32c8.835938 0 16 7.164062 16 16s-7.164062 16-16 16zm-224-56c.066406-61.828125 50.171875-111.933594 112-112h104v8c.023438 10.742188-4.304688 21.03125-12 28.527344-2.832031 2.765625-3.21875 7.1875-.902344 10.402344 13.617188 18.960937 20.933594 41.722656 20.902344 65.070312v8c0-4.417969-3.582031-8-8-8-58.6875 0-96.800781-59.648438-97.222656-60.246094-1.296875-2.066406-3.457032-3.425781-5.878906-3.699218-2.417969-.273438-4.832032.566406-6.554688 2.289062-60.144531 60.144531-98.054688 61.65625-98.34375 61.65625-4.417969 0-8 3.582031-8 8zm0 56c-8.835938 0-16-7.164062-16-16s7.164062-16 16-16zm16-8v-33.007812c14.648438-2.929688 48.464844-14.328126 94.863281-58.695313 12.9375 17.128906 47.289063 55.589844 97.136719 59.398437v32.304688c0 53.019531-42.980469 96-96 96s-96-42.980469-96-96zm96 112c13.683594-.019531 27.242188-2.566406 40-7.511719v20.199219l-40 40-40-40v-20.199219c12.757812 4.945313 26.316406 7.492188 40 7.511719zm-43.664062 31.648438 28 28-37.351563 9.34375zm235.664062 144.351562h-72v-56h-16v56h-208v-56h-16v56h-72v-46c-.011719-39.96875 26.941406-74.917969 65.601562-85.0625l67.359376-17.738281-12.722657 50.878906c-.679687 2.726563.121094 5.609375 2.109375 7.597656 1.988282 1.984375 4.871094 2.78125 7.597656 2.101563l62.054688-15.53125 62.054688 15.515625c2.726562.679687 5.613281-.117188 7.601562-2.105469 1.984375-1.984375 2.785156-4.867188 2.105469-7.59375l-12.722657-50.863281 67.335938 17.761719c38.664062 10.132812 65.625 45.070312 65.625 85.039062zm0 0"/>
    <path d="m208.5 200c13.253906 0 24-10.746094 24-24v-32h-16v32c0 4.417969-3.582031 8-8 8s-8-3.582031-8-8v-32h-16v32c0 13.253906 10.746094 24 24 24zm0 0"/>
    <path d="m250.820312 149.679688c2.289063 2.289062 5.742188 2.957031 8.71875 1.679687.96875-.40625 1.863282-.972656 2.640626-1.679687.703124-.777344 1.273437-1.671876 1.679687-2.640626.855469-1.9375.855469-4.140624 0-6.078124-.40625-.96875-.972656-1.863282-1.679687-2.640626-.390626-.363281-.820313-.6875-1.28125-.960937-.40625-.316406-.867188-.558594-1.359376-.71875-.453124-.230469-.9375-.394531-1.4375-.480469-2.636718-.539062-5.367187.273438-7.28125 2.160156-.722656.765626-1.292968 1.660157-1.679687 2.640626-.851563 1.9375-.851563 4.140624 0 6.078124.40625.96875.976563 1.863282 1.679687 2.640626zm0 0"/>
    <path d="m166.179688 149.679688c.703124-.777344 1.273437-1.671876 1.679687-2.640626.855469-1.9375.855469-4.140624 0-6.078124-.40625-.96875-.972656-1.863282-1.679687-2.640626-3.207032-2.960937-8.152344-2.960937-11.359376 0-.722656.765626-1.292968 1.660157-1.679687 2.640626-.851563 1.9375-.851563 4.140624 0 6.078124.40625.96875.976563 1.863282 1.679687 2.640626.777344.707031 1.671876 1.273437 2.640626 1.679687 1.9375.851563 4.140624.851563 6.078124 0 .96875-.40625 1.863282-.972656 2.640626-1.679687zm0 0"/>
    <path d="m211.539062 376.640625c-2.984374-1.175781-6.382812-.519531-8.71875 1.679687-.34375.378907-.664062.777344-.960937 1.191407-.300781.449219-.542969.9375-.71875 1.449219-.230469.453124-.394531.9375-.480469 1.4375-.09375.53125-.148437 1.066406-.160156 1.601562-.007812 2.125.828125 4.167969 2.320312 5.679688.777344.707031 1.671876 1.273437 2.640626 1.679687 2.460937 1.054687 5.285156.796875 7.511718-.6875 2.226563-1.484375 3.554688-3.996094 3.527344-6.671875.074219-3.257812-1.914062-6.207031-4.960938-7.359375zm0 0"/>
    <path d="m214.179688 410.320312c-2.300782-2.269531-5.742188-2.933593-8.71875-1.679687-.96875.40625-1.863282.972656-2.640626 1.679687-.722656.765626-1.292968 1.660157-1.679687 2.640626-1.425781 3.347656-.414063 7.238281 2.46875 9.464843 2.878906 2.226563 6.902344 2.226563 9.78125 0 2.882813-2.226562 3.894531-6.117187 2.46875-9.464843-.386719-.980469-.957031-1.875-1.679687-2.640626zm0 0"/>
    <path d="m202.820312 442.320312c-.707031.777344-1.273437 1.671876-1.679687 2.640626-1.277344 2.976562-.613281 6.429687 1.679687 8.71875 2.289063 2.292968 5.742188 2.957031 8.71875 1.679687.96875-.40625 1.863282-.972656 2.640626-1.679687 1.503906-1.503907 2.339843-3.550782 2.320312-5.679688.019531-3.25-1.929688-6.1875-4.933594-7.433594-3-1.246094-6.457031-.554687-8.746094 1.753906zm0 0"/>
    <path d="m256.125 221.238281-12.089844-10.476562c-9.519531 9.109375-22.375 13.898437-35.535156 13.238281-13.160156.660156-26.015625-4.128906-35.535156-13.238281l-12.089844 10.476562c12.519531 12.691407 29.816406 19.503907 47.625 18.761719 17.808594.742188 35.105469-6.070312 47.625-18.761719zm0 0"/>
</svg>