<svg height="480pt" viewBox="-31 0 479 480" width="480pt" xmlns="http://www.w3.org/2000/svg">
    <path d="m112.5 176v16h-16c-13.253906 0-24-10.746094-24-24s10.746094-24 24-24h16zm0 0" fill="#f1cfa2"/>
    <path d="m320.5 472h-312v-54c-.027344-43.621094 29.398438-81.757812 71.601562-92.800781l49.4375-13.039063c-.714843 2.550782-1.0625 5.191406-1.039062 7.839844v32c0-8.835938 7.164062-16 16-16s16 7.164062 16 16v-24l48 48 48-48v24c0-8.835938 7.164062-16 16-16s16 7.164062 16 16v-32c.023438-2.648438-.324219-5.289062-1.039062-7.839844l49.4375 13.039063c42.203124 11.042969 71.628906 49.179687 71.601562 92.800781v54zm0 0"
          fill="#00ccb3"/>
    <path d="m360.5 8v32c.007812 22.851562-12.195312 43.960938-32 55.359375v16.640625c.050781 10.171875-6.386719 19.242188-16 22.558594-2.554688.96875-5.265625 1.457031-8 1.441406-13.253906 0-24-10.746094-24-24v-8h-144v8c0 13.253906-10.746094 24-24 24-2.734375.015625-5.445312-.472656-8-1.441406-9.613281-3.316406-16.050781-12.386719-16-22.558594v-64c0-13.253906 10.746094-24 24-24s24 10.746094 24 24v8c0-26.507812 21.492188-48 48-48zm0 0"
          fill="#898890"/>
    <path d="m320.5 144c13.253906 0 24 10.746094 24 24s-10.746094 24-24 24h-16v-48zm0 0" fill="#f1cfa2"/>
    <path d="m312.5 134.558594v41.441406c-.007812 36.339844-18.980469 70.039062-50.046875 88.890625s-69.71875 20.121094-101.953125 3.347656c-9.429688-4.871093-18.039062-11.1875-25.519531-18.71875-19.535157-19.476562-30.503907-45.933593-30.480469-73.519531v-41.441406c2.554688.96875 5.265625 1.457031 8 1.441406 13.253906 0 24-10.746094 24-24v-8h144v8c0 13.253906 10.746094 24 24 24 2.734375.015625 5.445312-.472656 8-1.441406zm0 0"
          fill="#ffdaaa"/>
    <path d="m288.5 320v32c0-8.835938-7.164062-16-16-16s-16 7.164062-16 16v-64c8.484375.015625 16.621094 3.378906 22.640625 9.359375 4.066406 4.085937 6.941406 9.203125 8.320313 14.800781.714843 2.550782 1.0625 5.191406 1.039062 7.839844zm0 0"
          fill="#00ddc2"/>
    <path d="m280.5 152c0 13.253906-10.746094 24-24 24s-24-10.746094-24-24 10.746094-24 24-24 24 10.746094 24 24zm0 0"
          fill="#f1cfa2"/>
    <path d="m256.5 268.238281v59.761719l-48 48-48-48v-59.761719c30.078125 15.679688 65.921875 15.679688 96 0zm0 0"
          fill="#ffdaaa"/>
    <path d="m184.5 152c0 13.253906-10.746094 24-24 24s-24-10.746094-24-24 10.746094-24 24-24 24 10.746094 24 24zm0 0"
          fill="#f1cfa2"/>
    <path d="m160.5 328v24c0-8.835938-7.164062-16-16-16s-16 7.164062-16 16v-32c-.023438-2.648438.324219-5.289062 1.039062-7.839844 1.378907-5.597656 4.253907-10.714844 8.320313-14.800781 6.019531-5.980469 14.15625-9.34375 22.640625-9.359375zm0 0"
          fill="#00ddc2"/>
    <path d="m256.5 268.238281v16c-30.078125 15.679688-65.921875 15.679688-96 0v-16c30.078125 15.679688 65.921875 15.679688 96 0zm0 0"
          fill="#f1cfa2"/>
    <path d="m338.941406 317.464844-45.25-11.9375c-4.914062-12.652344-15.902344-21.960938-29.191406-24.726563v-7.960937c27.195312-15.742188 46.542969-42.164063 53.34375-72.839844h2.65625c16.820312.066406 30.804688-12.933594 31.96875-29.714844 1.160156-16.78125-10.898438-31.582031-27.570312-33.835937 7.3125-6.019531 11.566406-14.980469 11.601562-24.449219v-12.199219c19.941406-13.378906 31.933594-35.789062 32-59.800781v-32c0-4.417969-3.582031-8-8-8h-176c-19.582031.0078125-37.738281 10.242188-47.878906 26.992188-8.765625-10.054688-22.847656-13.617188-35.339844-8.941407s-20.773438 16.609375-20.78125 29.949219v64c.035156 9.46875 4.289062 18.429688 11.601562 24.449219-16.671874 2.253906-28.730468 17.054687-27.570312 33.835937 1.164062 16.78125 15.148438 29.78125 31.96875 29.714844h2.648438c4.53125 20.917969 15 40.082031 30.152343 55.199219 6.933594 6.878906 14.730469 12.824219 23.199219 17.6875v7.921875c-13.289062 2.765625-24.273438 12.066406-29.191406 24.71875l-45.207032 11.9375c-45.71875 11.964844-77.605468 53.277344-77.601562 100.535156v54c0 4.417969 3.582031 8 8 8h400c4.417969 0 8-3.582031 8-8v-54c.007812-47.246094-31.855469-88.554688-77.558594-100.535156zm-58.441406 2.535156v9.367188c-5.175781-1.824219-10.824219-1.824219-16 0v-32c9.582031 3.402343 15.988281 12.464843 16 22.632812zm56-152c0 8.835938-7.164062 16-16 16v-32c8.835938 0 16 7.164062 16 16zm-240-120c0-8.835938 7.164062-16 16-16s16 7.164062 16 16v8c0 4.417969 3.582031 8 8 8s8-3.582031 8-8c.027344-22.082031 17.917969-39.972656 40-40h168v24c-.0625 19.976562-10.722656 38.421875-28 48.449219-2.472656 1.425781-3.996094 4.0625-4 6.917969v16.632812c0 8.835938-7.164062 16-16 16s-16-7.164062-16-16v-8c0-4.417969-3.582031-8-8-8h-144c-4.417969 0-8 3.582031-8 8v8c0 8.835938-7.164062 16-16 16s-16-7.164062-16-16zm160 72c-14.546875.054688-27.226562 9.914062-30.863281 24h-34.273438c-2.636719-10.554688-10.507812-19.019531-20.84375-22.414062-10.335937-3.398438-21.691406-1.253907-30.074219 5.679687 2.625-4.664063 4.019532-9.914063 4.054688-15.265625h128c.035156 5.351562 1.429688 10.601562 4.054688 15.265625-5.644532-4.667969-12.730469-7.234375-20.054688-7.265625zm16 32c0 8.835938-7.164062 16-16 16s-16-7.164062-16-16 7.164062-16 16-16 16 7.164062 16 16zm-72 8h16v24c0 4.417969-3.582031 8-8 8s-8-3.582031-8-8zm-24-8c0 8.835938-7.164062 16-16 16s-16-7.164062-16-16 7.164062-16 16-16 16 7.164062 16 16zm-80 32c-8.835938 0-16-7.164062-16-16s7.164062-16 16-16zm16-8v-32c7.324219-.03125 14.410156-2.597656 20.054688-7.265625-2.625 4.664063-4.019532 9.914063-4.054688 15.265625-.058594 13.34375 8.203125 25.3125 20.703125 29.984375 12.496094 4.675781 26.585937 1.066406 35.296875-9.039063v11.054688c0 13.253906 10.746094 24 24 24s24-10.746094 24-24v-11.054688c10.632812 12.417969 28.949219 14.757813 42.359375 5.40625 13.414063-9.347656 17.558594-27.34375 9.585937-41.617187 5.644532 4.667969 12.730469 7.234375 20.054688 7.265625v32c0 53.019531-42.980469 96-96 96s-96-42.980469-96-96zm96 112c13.683594-.019531 27.242188-2.566406 40-7.511719v44.199219l-40 40-40-40v-44.136719c12.765625 4.910157 26.324219 7.433594 40 7.449219zm-72 32c.011719-10.167969 6.417969-19.230469 16-22.632812v32c-5.175781-1.824219-10.824219-1.824219-16 0zm264 144h-72v-56h-16v56h-208v-56h-16v56h-72v-46c-.011719-39.96875 26.941406-74.917969 65.601562-85.0625l38.398438-10.121094v29.183594c0 4.417969 3.582031 8 8 8s8-3.582031 8-8 3.582031-8 8-8 8 3.582031 8 8 3.582031 8 8 8 8-3.582031 8-8v-4.6875l34.34375 34.34375c3.125 3.121094 8.1875 3.121094 11.3125 0l34.34375-34.34375v4.6875c0 4.417969 3.582031 8 8 8s8-3.582031 8-8 3.582031-8 8-8 8 3.582031 8 8 3.582031 8 8 8 8-3.582031 8-8v-29.183594l38.398438 10.121094c38.660156 10.144531 65.613281 45.09375 65.601562 85.0625zm0 0"/>
    <path d="m253.460938 144.640625c-2.011719.726563-3.59375 2.308594-4.320313 4.320313-.410156.960937-.628906 1.992187-.640625 3.039062.03125 2.117188.859375 4.144531 2.320312 5.679688.777344.707031 1.671876 1.273437 2.640626 1.679687.949218.449219 1.988281.667969 3.039062.640625 2.128906.023438 4.175781-.8125 5.679688-2.320312 1.507812-1.503907 2.34375-3.550782 2.320312-5.679688.027344-1.050781-.191406-2.089844-.640625-3.039062-.40625-.96875-.972656-1.863282-1.679687-2.640626-2.300782-2.269531-5.742188-2.933593-8.71875-1.679687zm0 0"/>
    <path d="m153.140625 148.960938c-.851563 1.9375-.851563 4.140624 0 6.078124.386719.980469.957031 1.875 1.679687 2.640626 1.535157 1.460937 3.5625 2.289062 5.679688 2.320312 1.050781.027344 2.089844-.191406 3.039062-.640625.96875-.40625 1.863282-.972656 2.640626-1.679687 1.460937-1.535157 2.289062-3.5625 2.320312-5.679688-.011719-1.046875-.230469-2.078125-.640625-3.039062-.726563-2.011719-2.308594-3.59375-4.320313-4.320313-2.976562-1.253906-6.417968-.589844-8.71875 1.679687-.722656.765626-1.292968 1.660157-1.679687 2.640626zm0 0"/>
    <path d="m256.125 229.238281-12.089844-10.476562c-9.519531 9.113281-22.371094 13.902343-35.535156 13.238281-13.164062.664062-26.015625-4.125-35.535156-13.238281l-12.089844 10.476562c12.515625 12.699219 29.8125 19.511719 47.625 18.761719 17.8125.75 35.109375-6.0625 47.625-18.761719zm0 0"/>
</svg>