<svg height="480pt" viewBox="-31 0 479 480" width="480pt" xmlns="http://www.w3.org/2000/svg">
    <path d="m110.980469 81.519531c.960937.960938 2 1.921875 3.039062 2.960938-6.269531 13.652343-9.519531 28.496093-9.519531 43.519531v16h-8c-3.546875-.019531-7.046875.773438-10.238281 2.320312l-10.640625-63.679687c-.777344-4.636719.527344-9.382813 3.5625-12.972656 3.035156-3.589844 7.496094-5.660157 12.195312-5.667969h5.519532c4.042968 6.335938 8.765624 12.210938 14.082031 17.519531zm0 0"
          fill="#787680"/>
    <path d="m112.5 176v16h-16c-11.210938-.027344-20.910156-7.808594-23.363281-18.75s2.996093-22.121094 13.125-26.929688c3.191406-1.546874 6.691406-2.339843 10.238281-2.320312h16zm0 0"
          fill="#f1cfa2"/>
    <path d="m408.5 418v54h-128l24-80-24-16 24-24-20.320312-40.71875 52.71875 13.917969c42.203124 11.042969 71.628906 49.179687 71.601562 92.800781zm0 0"
          fill="#1e81ce"/>
    <path d="m329.621094 145.839844c10.546875 4.386718 16.542968 15.601562 14.328125 26.8125-2.214844 11.207031-12.023438 19.300781-23.449219 19.347656h-16v-48h16c3.132812-.007812 6.234375.617188 9.121094 1.839844zm0 0"
          fill="#f1cfa2"/>
    <path d="m302.898438 8c8.753906.023438 17.117187 3.628906 23.144531 9.976562 6.03125 6.34375 9.199219 14.878907 8.777343 23.625l-5.199218 104.238282c-2.886719-1.222656-5.988282-1.847656-9.121094-1.839844h-8v-16.078125c-1.324219-17.046875-6.820312-33.5-16-47.921875-32 32-112 32-112 32-26.121094.027344-51.289062-9.800781-70.480469-27.519531-1.039062-1.039063-2.078125-2-3.039062-2.960938-5.316407-5.308593-10.039063-11.183593-14.082031-17.519531-10.746094-16.695312-16.441407-36.144531-16.398438-56zm0 0"
          fill="#898890"/>
    <path d="m312.5 144v32c0 57.4375-46.5625 104-104 104s-104-46.5625-104-104v-48c0-15.023438 3.25-29.867188 9.519531-43.519531 19.191407 17.71875 44.359375 27.546875 70.480469 27.519531 0 0 80 0 112-32 9.179688 14.421875 14.675781 30.875 16 47.921875zm0 0"
          fill="#ffdaaa"/>
    <path d="m284.179688 311.28125 20.320312 40.71875-24 24 24 16-24 80h-24v-168zm0 0" fill="#3d9ae2"/>
    <path d="m256.5 304v168h-96v-168c0 26.507812 21.492188 48 48 48s48-21.492188 48-48zm0 0" fill="#e6e7e8"/>
    <path d="m256.5 268.238281v35.761719c0 26.507812-21.492188 48-48 48s-48-21.492188-48-48v-35.761719c30.078125 15.679688 65.921875 15.679688 96 0zm0 0"
          fill="#ffdaaa"/>
    <path d="m160.5 304v168h-24l-24-80 24-16-24-24 20.320312-40.71875zm0 0" fill="#3d9ae2"/>
    <path d="m112.5 392 24 80h-128v-54c-.027344-43.621094 29.398438-81.757812 71.601562-92.800781l52.71875-13.917969-20.320312 40.71875 24 24zm0 0"
          fill="#1e81ce"/>
    <path d="m256.5 268.238281v16c-30.078125 15.679688-65.921875 15.679688-96 0v-16c30.078125 15.679688 65.921875 15.679688 96 0zm0 0"
          fill="#f1cfa2"/>
    <path d="m338.941406 317.472656-74.441406-19.640625v-24.984375c27.195312-15.742187 46.546875-42.167968 53.34375-72.847656h2.65625c14.179688.023438 26.679688-9.304688 30.691406-22.90625 4.015625-13.601562-1.414062-28.21875-13.332031-35.902344l4.953125-99.199218c.527344-10.929688-3.4375-21.601563-10.976562-29.53125-7.539063-7.933594-17.992188-12.4335942-28.9375-12.460938h-222.398438c-4.417969 0-8 3.582031-8 8-.003906 17.101562 3.9375 33.972656 11.511719 49.304688-11.390625 3.511718-18.382813 14.957031-16.3125 26.695312l9.761719 58.441406c-11.089844 8.195313-15.65625 22.585938-11.328126 35.675782 4.332032 13.089843 16.578126 21.914062 30.367188 21.882812h2.65625c6.796875 30.679688 26.148438 57.105469 53.34375 72.847656v24.984375l-74.398438 19.632813c-45.71875 11.972656-77.601562 53.277344-77.601562 100.535156v54c0 4.417969 3.582031 8 8 8h400c4.417969 0 8-3.582031 8-8v-54c.007812-47.246094-31.859375-88.546875-77.558594-100.527344zm-60.289062.640625 16.121094 32.285157-19.929688 19.929687c-1.695312 1.695313-2.539062 4.058594-2.304688 6.445313.234376 2.382812 1.527344 4.535156 3.519532 5.867187l19.082031 12.71875-20.59375 68.640625h-10.046875v-149.601562zm-136.496094 52.230469-19.929688-19.945312 16.121094-32.300782 14.152344-3.699218v149.601562h-10.046875l-20.59375-68.625 19.082031-12.71875c1.992188-1.332031 3.285156-3.484375 3.519532-5.867188.234374-2.386718-.609376-4.75-2.304688-6.445312zm26.34375-27.230469c10.507812 10.796875 24.933594 16.886719 40 16.886719s29.492188-6.089844 40-16.886719v120.886719h-80zm152-159.113281v-32c8.835938 0 16 7.164062 16 16s-7.164062 16-16 16zm-17.601562-168c6.5625.027344 12.828124 2.734375 17.347656 7.492188 4.519531 4.757812 6.898437 11.152343 6.589844 17.707031l-4.734376 94.960937c-.539062 0-1.050781-.160156-1.601562-.160156v-8.046875c-1.328125-18.597656-7.269531-36.566406-17.289062-52.289063-1.3125-2.023437-3.472657-3.347656-5.875-3.597656-2.398438-.253906-4.785157.59375-6.492188 2.300782-29.265625 29.242187-105.542969 29.632812-106.34375 29.632812-25.472656.0625-49.90625-10.070312-67.863281-28.136719-16.101563-16.003906-25.964844-37.234375-27.808594-59.863281zm-219.398438 65.28125c-.390625-2.289062.253906-4.636719 1.761719-6.402344 1.511719-1.816406 3.753906-2.871094 6.117187-2.878906h1.335938c3.527344 5.113281 7.46875 9.929688 11.785156 14.398438-5.296875 13.230468-8.015625 27.351562-8 41.601562v8c-1.269531.050781-2.53125.179688-3.785156.382812zm13 102.71875c-8.835938 0-16-7.164062-16-16s7.164062-16 16-16zm16-8v-48c-.007812-10.308594 1.648438-20.546875 4.902344-30.328125 19.335937 14.554687 42.898437 22.394531 67.097656 22.328125 3.160156 0 72.71875-.335938 109.792969-27.625 6 10.988281 9.484375 23.171875 10.207031 35.671875v47.953125c0 53.019531-42.980469 96-96 96s-96-42.980469-96-96zm96 112c13.683594-.019531 27.242188-2.566406 40-7.511719v23.511719c0 22.089844-17.910156 40-40 40s-40-17.910156-40-40v-23.511719c12.757812 4.945313 26.316406 7.492188 40 7.511719zm-192 130c-.011719-39.96875 26.941406-74.917969 65.601562-85.0625l35.621094-9.394531-12.421875 24.890625c-1.535156 3.078125-.929687 6.789062 1.503907 9.222656l17.09375 17.105469-15.878907 10.582031c-2.914062 1.957031-4.214843 5.589844-3.199219 8.953125l20.925782 69.703125h-109.246094zm384 46h-109.246094l20.910156-69.703125c1.015626-3.363281-.285156-6.996094-3.199218-8.953125l-15.90625-10.582031 17.097656-17.105469c2.429688-2.433594 3.039062-6.144531 1.503906-9.222656l-12.425781-24.890625 35.664063 9.402343c38.660156 10.140626 65.613281 45.085938 65.601562 85.054688zm0 0"/>
    <path d="m208.5 200c13.253906 0 24-10.746094 24-24v-32h-16v32c0 4.417969-3.582031 8-8 8s-8-3.582031-8-8v-32h-16v32c0 13.253906 10.746094 24 24 24zm0 0"/>
    <path d="m264.5 152c4.417969 0 8 3.582031 8 8h16c0-13.253906-10.746094-24-24-24s-24 10.746094-24 24h16c0-4.417969 3.582031-8 8-8zm0 0"/>
    <path d="m152.5 136c-13.253906 0-24 10.746094-24 24h16c0-4.417969 3.582031-8 8-8s8 3.582031 8 8h16c0-13.253906-10.746094-24-24-24zm0 0"/>
    <path d="m256.125 221.238281-12.089844-10.476562c-9.519531 9.109375-22.375 13.898437-35.535156 13.238281-13.160156.660156-26.015625-4.128906-35.535156-13.238281l-12.089844 10.476562c12.519531 12.691407 29.816406 19.503907 47.625 18.761719 17.808594.742188 35.105469-6.070312 47.625-18.761719zm0 0"/>
</svg>