<svg height="480pt" viewBox="-32 0 480 480" width="480pt" xmlns="http://www.w3.org/2000/svg">
    <path d="m312 192h8c5.914062.011719 11.621094-2.183594 16-6.160156v78.160156c.054688 21.558594-10.816406 41.675781-28.878906 53.441406l-24.5625-6.480468-13.917969-3.601563-12.640625-3.359375h-96l-12.640625 3.359375-13.917969 3.601563-24.5625 6.480468c-18.0625-11.765625-28.933594-31.882812-28.878906-53.441406v-78.160156c4.378906 3.976562 10.085938 6.171875 16 6.160156h8v-48h-8c-5.914062-.011719-11.621094 2.183594-16 6.160156v-14.160156c0-70.691406 57.308594-128 128-128s128 57.308594 128 128v14.160156c-4.378906-3.976562-10.085938-6.171875-16-6.160156h-8zm0 0"
          fill="#898890"/>
    <path d="m112 176v16h-16c-5.914062.011719-11.621094-2.183594-16-6.160156-.339844-.269532-.660156-.566406-.960938-.878906-4.507812-4.492188-7.039062-10.597657-7.039062-16.960938.046875-13.234375 10.765625-23.953125 24-24h16zm0 0"
          fill="#f1cfa2"/>
    <path d="m341.199219 472h-333.199219v-54c.023438-43.605469 29.425781-81.71875 71.601562-92.800781l29.277344-7.757813 24.5625-6.480468 13.917969-3.601563 60.640625 60.640625 60.640625-60.640625 13.917969 3.601563 24.5625 6.480468 29.277344 7.757813c42.175781 11.082031 71.578124 49.195312 71.601562 92.800781v54zm0 0"
          fill="#3d9ae2"/>
    <path d="m336 150.160156c5.128906 4.503906 8.046875 11.015625 8 17.839844 0 6.363281-2.53125 12.46875-7.039062 16.960938-.300782.3125-.621094.609374-.960938.878906-4.378906 3.976562-10.085938 6.171875-16 6.160156h-16v-48h16c5.914062-.011719 11.621094 2.183594 16 6.160156zm0 0"
          fill="#f1cfa2"/>
    <path d="m312 144v32c0 57.4375-46.5625 104-104 104s-104-46.5625-104-104v-56c56.449219 4.675781 112.078125-15.820312 152-56 0 0 16 56 56 56zm0 0"
          fill="#ffdaaa"/>
    <path d="m268.640625 307.359375-60.640625 60.640625-60.640625-60.640625 12.640625-3.359375v-35.761719c30.078125 15.679688 65.921875 15.679688 96 0v35.761719zm0 0"
          fill="#ffdaaa"/>
    <path d="m256 268.238281v16c-30.078125 15.679688-65.921875 15.679688-96 0v-16c30.078125 15.679688 65.921875 15.679688 96 0zm0 0"
          fill="#f1cfa2"/>
    <path d="m369.304688 331.257812c-9.457032-6.261718-19.882813-10.921874-30.855469-13.792968l-14.402344-3.800782c12.828125-13.347656 19.980469-31.152343 19.953125-49.664062v-75.054688c10.667969-11.925781 10.667969-29.964843 0-41.890624v-11.054688c0-75.109375-60.890625-136-136-136s-136 60.890625-136 136v11.054688c-10.667969 11.925781-10.667969 29.964843 0 41.890624v75.054688c-.011719 18.519531 7.15625 36.320312 20 49.664062l-14.398438 3.800782c-45.703124 11.992187-77.5742182 53.285156-77.601562 100.535156v54c0 4.417969 3.582031 8 8 8h400c4.417969 0 8-3.582031 8-8v-54c.070312-34.941406-17.488281-67.5625-46.695312-86.742188zm-63.890626-22.503906-9.710937-2.5625c5.582031-10.523437 8.433594-22.28125 8.296875-34.191406h-16c.234375 10.59375-2.707031 21.015625-8.441406 29.929688l-15.558594-4.097657v-24.984375c27.195312-15.742187 46.546875-42.167968 53.34375-72.847656h2.65625c2.703125-.035156 5.394531-.414062 8-1.136719v65.136719c.027344 17.660156-8.359375 34.28125-22.585938 44.753906zm-193.414062-180.058594c51.664062 1.960938 102.078125-16.15625 140.671875-50.558593 7.03125 16.503906 22.992187 44.671875 51.328125 49.230469v48.632812c0 53.019531-42.980469 96-96 96s-96-42.980469-96-96zm224 39.304688c0 8.835938-7.164062 16-16 16v-32c8.835938 0 16 7.164062 16 16zm-168 136v-23.511719c25.726562 10.015625 54.273438 10.015625 80 0v23.511719c.023438 3.335938 2.125 6.300781 5.265625 7.425781l-45.265625 45.261719-45.265625-45.261719c3.140625-1.125 5.246094-4.089843 5.265625-7.425781zm40-288c66.242188.074219 119.925781 53.757812 120 120v1.136719c-2.605469-.722657-5.296875-1.101563-8-1.136719v-16c0-4.417969-3.582031-8-8-8-33.441406 0-48.167969-49.703125-48.3125-50.207031-.78125-2.722657-2.945312-4.828125-5.6875-5.535157-2.742188-.710937-5.652344.085938-7.65625 2.085938-38.269531 38.207031-91.300781 57.828125-145.222656 53.734375-2.308594-.320313-4.640625.367187-6.402344 1.890625-1.734375 1.523438-2.726562 3.722656-2.71875 6.03125v16c-2.703125.035156-5.394531.414062-8 1.136719v-1.136719c.074219-66.242188 53.757812-119.925781 120-120zm-128 152c0-8.835938 7.164062-16 16-16v32c-8.835938 0-16-7.164062-16-16zm8 96v-65.136719c2.605469.722657 5.296875 1.101563 8 1.136719h2.65625c6.796875 30.679688 26.148438 57.105469 53.34375 72.847656v24.984375l-15.558594 4.097657c-5.734375-8.914063-8.675781-19.335938-8.441406-29.929688h-16c-.136719 11.910156 2.714844 23.667969 8.296875 34.191406l-9.710937 2.5625c-14.226563-10.472656-22.613282-27.09375-22.585938-44.753906zm312 200h-48.6875c.421875-2.648438.652344-5.320312.6875-8-.027344-18.304688-8.984375-35.445312-24-45.910156v-18.089844h-16v22.480469c-.003906 2.859375 1.523438 5.503906 4 6.933593 12.359375 7.136719 19.980469 20.316407 20 34.585938-.023438 2.691406-.328125 5.371094-.910156 8h-254.179688c-.582031-2.628906-.886718-5.308594-.910156-8 .019531-14.269531 7.640625-27.449219 20-34.585938 2.476562-1.429687 4.003906-4.074218 4-6.933593v-22.480469h-16v18.089844c-15.015625 10.464844-23.972656 27.605468-24 45.910156.035156 2.679688.265625 5.351562.6875 8h-48.6875v-46c.003906-39.980469 26.972656-74.929688 65.648438-85.0625l63.289062-16.691406 57.40625 57.410156c3.125 3.121094 8.1875 3.121094 11.3125 0l57.40625-57.410156 63.335938 16.691406c38.644531 10.171875 65.585937 45.101562 65.601562 85.0625zm0 0"/>
    <path d="m208 200c13.253906 0 24-10.746094 24-24v-32h-16v32c0 4.417969-3.582031 8-8 8s-8-3.582031-8-8v-32h-16v32c0 13.253906 10.746094 24 24 24zm0 0"/>
    <path d="m250.320312 149.679688 1.191407.960937c.449219.300781.9375.542969 1.449219.71875.453124.230469.9375.394531 1.4375.480469.53125.089844 1.066406.144531 1.601562.160156 3.25.019531 6.1875-1.929688 7.433594-4.933594 1.246094-3 .554687-6.457031-1.753906-8.746094-1.914063-1.886718-4.644532-2.695312-7.28125-2.160156-.5.085938-.984376.25-1.4375.480469-.511719.175781-1 .417969-1.449219.71875-.414063.296875-.8125.617187-1.191407.960937-.742187.75-1.3125 1.652344-1.679687 2.640626-.851563 1.9375-.851563 4.140624 0 6.078124.40625.96875.972656 1.863282 1.679687 2.640626zm0 0"/>
    <path d="m160 152c2.128906.023438 4.175781-.8125 5.679688-2.320312 1.507812-1.503907 2.34375-3.550782 2.320312-5.679688-.011719-1.046875-.230469-2.078125-.640625-3.039062-.386719-.980469-.957031-1.875-1.679687-2.640626-3.207032-2.960937-8.152344-2.960937-11.359376 0-.707031.777344-1.273437 1.671876-1.679687 2.640626-.410156.960937-.628906 1.992187-.640625 3.039062-.023438 2.128906.8125 4.175781 2.320312 5.679688 1.503907 1.507812 3.550782 2.34375 5.679688 2.320312zm0 0"/>
    <path d="m208 240c17.8125.753906 35.109375-6.0625 47.625-18.761719l-12.097656-10.476562c-9.515625 9.113281-22.367188 13.90625-35.527344 13.238281-13.160156.667969-26.011719-4.125-35.527344-13.238281l-12.097656 10.476562c12.515625 12.699219 29.8125 19.515625 47.625 18.761719zm0 0"/>
</svg>