<svg height="480pt" viewBox="-31 0 479 480" width="480pt" xmlns="http://www.w3.org/2000/svg">
    <path d="m336.5 150.160156c5.128906 4.503906 8.046875 11.015625 8 17.839844 0 13.253906-10.746094 24-24 24h-16v-48h16c5.914062-.011719 11.621094 2.183594 16 6.160156zm0 0"
          fill="#f1cfa2"/>
    <path d="m336.5 136v14.160156c-4.378906-3.976562-10.085938-6.171875-16-6.160156h-8v-24c-40 0-56-56-56-56-39.921875 40.179688-95.550781 60.675781-152 56v24h-8c-5.914062-.011719-11.621094 2.183594-16 6.160156v-14.160156c0-70.691406 57.308594-128 128-128s128 57.308594 128 128zm0 0"
          fill="#ffa733"/>
    <path d="m112.5 176v16h-16c-13.253906 0-24-10.746094-24-24 .046875-13.234375 10.765625-23.953125 24-24h16zm0 0"
          fill="#f1cfa2"/>
    <path d="m408.5 418v54h-66.800781c1.867187-5.128906 2.816406-10.542969 2.800781-16 .007812-17.136719-9.144531-32.972656-24-41.519531v-18.640625c4.390625-5.78125 7.152344-12.632813 8-19.839844 0-17.671875-14.328125-32-32-32h8c8.808594-.066406 15.933594-7.191406 16-16-.007812-2.652344-.667969-5.261719-1.921875-7.601562l18.320313 4.800781c42.203124 11.042969 71.628906 49.179687 71.601562 92.800781zm0 0"
          fill="#00ccb3"/>
    <path d="m75.300781 472h-66.800781v-54c-.027344-43.621094 29.398438-81.757812 71.601562-92.800781l26.957032-7.121094c10.402344 28.5625 51.839844 49.921875 101.441406 49.921875 22.347656.292969 44.46875-4.46875 64.71875-13.921875-5.582031 5.9375-8.699219 13.773437-8.71875 21.921875 0 17.679688 32 48 32 48 8.914062-8.570312 16.953125-18.003906 24-28.160156v18.640625c14.855469 8.546875 24.007812 24.382812 24 41.519531.015625 5.457031-.933594 10.871094-2.800781 16zm0 0"
          fill="#00ccb3"/>
    <path d="m312.5 192c13.253906 0 24 10.746094 24 24 .011719 8.488281-3.355469 16.636719-9.359375 22.640625s-14.152344 9.371094-22.640625 9.359375h-21.039062c14.824218-15.355469 24.546874-34.910156 27.839843-56zm0 0"
          fill="#ffa733"/>
    <path d="m296.5 344c17.671875 0 32 14.328125 32 32-.847656 7.207031-3.609375 14.058594-8 19.839844-7.046875 10.15625-15.085938 19.589844-24 28.160156 0 0-32-30.320312-32-48 .019531-8.148438 3.136719-15.984375 8.71875-21.921875 6.019531-6.453125 14.457031-10.105469 23.28125-10.078125zm0 0"
          fill="#ffa733"/>
    <path d="m318.578125 320.398438c1.253906 2.339843 1.914063 4.949218 1.921875 7.601562-.066406 8.808594-7.191406 15.933594-16 16h-16c-8.824219-.027344-15.972656-7.175781-16-16 .054688-8.285156 6.390625-15.175781 14.640625-15.921875.449219-.066406.90625-.09375 1.359375-.078125h16c5.875.019531 11.269531 3.242188 14.078125 8.398438zm0 0"
          fill="#ffb655"/>
    <path d="m304.5 248c8.824219.027344 15.972656 7.175781 16 16-.066406 8.808594-7.191406 15.933594-16 16h-16c-8.824219-.027344-15.972656-7.175781-16-16-.03125-2.632812.632812-5.226562 1.921875-7.519531v-.082031c2.742187-2.222657 5.359375-4.597657 7.839844-7.117188 1.972656-.839844 4.09375-1.273438 6.238281-1.28125zm0 0"
          fill="#ffb655"/>
    <path d="m304.5 280c8.824219.027344 15.972656 7.175781 16 16-.066406 8.808594-7.191406 15.933594-16 16h-16c-.832031.003906-1.664062-.078125-2.480469-.238281l-3.039062-.800781c-6.277344-2.308594-10.457031-8.273438-10.480469-14.960938.066406-8.808594 7.191406-15.933594 16-16zm0 0"
          fill="#ffa733"/>
    <path d="m312.5 144v32c.007812 5.355469-.394531 10.703125-1.199219 16-3.292969 21.089844-13.015625 40.644531-27.839843 56-.402344.480469-.800782.878906-1.199219 1.28125-2.480469 2.519531-5.097657 4.894531-7.839844 7.117188v.082031c-31.109375 25.441406-74.089844 30.695312-110.410156 13.492187-36.320313-17.203125-59.488281-53.785156-59.511719-93.972656v-56c56.449219 4.675781 112.078125-15.820312 152-56 0 0 16 56 56 56zm0 0"
          fill="#ffdaaa"/>
    <path d="m296.5 344c-8.824219-.027344-17.261719 3.625-23.28125 10.078125-20.25 9.453125-42.371094 14.214844-64.71875 13.921875-49.601562 0-91.039062-21.359375-101.441406-49.921875l53.441406-14.078125v-35.761719c30.078125 15.679688 65.921875 15.679688 96 0v35.761719l26.480469 6.960938c.964843.421874 1.992187.695312 3.039062.800781l1.121094.316406c-8.25.746094-14.585937 7.636719-14.640625 15.921875.027344 8.824219 7.175781 15.972656 16 16zm0 0"
          fill="#ffdaaa"/>
    <path d="m256.5 268.238281v16c-30.078125 15.679688-65.921875 15.679688-96 0v-16c30.078125 15.679688 65.921875 15.679688 96 0zm0 0"
          fill="#f1cfa2"/>
    <path d="m338.898438 317.464844-15.527344-4.074219c-.367188-.480469-.742188-.941406-1.144532-1.390625 8.320313-9.042969 8.320313-22.957031 0-32 4.039063-4.347656 6.277344-10.066406 6.273438-16 .003906-4.804688-1.445312-9.5-4.152344-13.472656 3.089844-1.714844 5.941406-3.824219 8.488282-6.269532 7.46875-7.507812 11.660156-17.667968 11.664062-28.257812-.03125-7.570312-2.769531-14.875-7.71875-20.601562 8.203125-4.769532 13.828125-12.96875 15.324219-22.339844 1.496093-9.371094-1.296875-18.914063-7.605469-26.003906v-11.054688c0-75.109375-60.890625-136-136-136s-136 60.890625-136 136v11.054688c-8.320312 9.402343-10.34375 22.816406-5.160156 34.25 5.183594 11.4375 16.605468 18.757812 29.160156 18.695312h2.65625c6.796875 30.679688 26.148438 57.105469 53.34375 72.847656v24.984375l-74.398438 19.632813c-45.71875 11.972656-77.601562 53.277344-77.601562 100.535156v54c0 4.417969 3.582031 8 8 8h400c4.417969 0 8-3.582031 8-8v-54c0-47.257812-31.882812-88.5625-77.601562-100.535156zm-42.398438 95.238281c-11.335938-11.847656-24-28.296875-24-36.703125 0-13.253906 10.746094-24 24-24s24 10.746094 24 24c0 8.390625-12.664062 24.839844-24 36.703125zm-8-76.703125c-4.417969 0-8-3.582031-8-8s3.582031-8 8-8h16c4.417969 0 8 3.582031 8 8s-3.582031 8-8 8zm-24-40v-23.152344c.496094-.289062.976562-.601562 1.464844-.886718 1.046875 2.964843 2.671875 5.699218 4.773437 8.039062-3.992187 4.375-6.21875 10.078125-6.238281 16 0 .648438.144531 1.257812.191406 1.886719l-.191406-.054688zm48 0c0 4.417969-3.582031 8-8 8h-16c-.917969-.023438-1.824219-.207031-2.679688-.542969l-.496093-.128906c-3.464844-1.515625-5.390625-5.25-4.625-8.953125.765625-3.699219 4.019531-6.359375 7.800781-6.375h16c4.417969 0 8 3.582031 8 8zm0-32c.003906 2.15625-.878906 4.222656-2.449219 5.703125-1.464843 1.484375-3.464843 2.3125-5.550781 2.296875h-16c-4.417969 0-8-3.582031-8-8 .019531-1.042969.269531-2.066406.726562-3 1.703126-1.457031 3.363282-2.960938 4.984376-4.519531.734374-.273438 1.507812-.433594 2.289062-.480469h16c4.417969 0 8 3.582031 8 8zm9.023438-31.054688c-4.519532 4.507813-10.640626 7.046876-17.023438 7.054688h-4.214844c8.246094-11.789062 14.128906-25.0625 17.328125-39.089844 6.480469 2.1875 10.855469 8.25 10.886719 15.089844 0 6.347656-2.507812 12.4375-6.976562 16.945312zm14.976562-64.945312c0 8.835938-7.164062 16-16 16v-32c8.835938 0 16 7.164062 16 16zm-128-152c66.242188.074219 119.925781 53.757812 120 120v1.136719c-2.605469-.722657-5.296875-1.101563-8-1.136719v-16c0-4.417969-3.582031-8-8-8-33.441406 0-48.167969-49.703125-48.3125-50.207031-.78125-2.722657-2.945312-4.828125-5.6875-5.535157-2.742188-.710937-5.652344.085938-7.65625 2.085938-38.265625 38.214844-91.296875 57.835938-145.222656 53.734375-2.308594-.347656-4.652344.34375-6.402344 1.890625-1.734375 1.523438-2.726562 3.722656-2.71875 6.03125v16c-2.703125.035156-5.394531.414062-8 1.136719v-1.136719c.074219-66.242188 53.757812-119.925781 120-120zm-112 168c-8.835938 0-16-7.164062-16-16s7.164062-16 16-16zm16-8v-47.304688c51.664062 1.96875 102.082031-16.152343 140.671875-50.558593 7.03125 16.503906 22.992187 44.671875 51.328125 49.230469v48.632812c0 53.019531-42.980469 96-96 96s-96-42.980469-96-96zm50.039062 135.734375c3.511719-.925781 5.960938-4.101563 5.960938-7.734375v-23.511719c25.726562 10.015625 54.273438 10.015625 80 0v23.511719c0 3.632812 2.449219 6.808594 5.960938 7.734375l13.726562 3.617187c-5.957031 9.4375-4.558594 21.746094 3.367188 29.601563-.925782.75-1.902344 1.453125-2.765626 2.285156-18.921874 8.609375-39.503906 12.964844-60.289062 12.761719-40.222656 0-76-15.023438-89.863281-36.6875zm-146.039062 106.265625c-.011719-39.96875 26.941406-74.917969 65.601562-85.0625l20.4375-5.394531c15.257813 28.847656 57.34375 48.457031 105.960938 48.457031 16.503906.070312 32.925781-2.324219 48.71875-7.105469-.449219 2.34375-.691406 4.722657-.71875 7.105469 0 20.097656 28.734375 48.34375 34.496094 53.808594 3.085937 2.925781 7.921875 2.925781 11.007812 0 1.902344-1.808594 6.328125-6.128906 11.375-11.785156.6875 1.410156 1.777344 2.585937 3.128906 3.382812 12.359376 7.140625 19.976563 20.324219 19.992188 34.59375-.023438 2.691406-.328125 5.371094-.910156 8h-254.179688c-.582031-2.628906-.886718-5.308594-.910156-8 .019531-14.269531 7.640625-27.449219 20-34.585938 2.476562-1.429687 4.003906-4.074218 4-6.933593v-22.480469h-16v18.089844c-15.015625 10.46875-23.972656 27.605468-24 45.910156.035156 2.679688.265625 5.351562.6875 8h-48.6875zm384 46h-48.6875c.421875-2.648438.652344-5.320312.6875-8-.027344-18.304688-8.984375-35.441406-24-45.910156v-11.929688c4.570312-6.554687 7.332031-14.199218 8-22.160156-.042969-12.089844-5.582031-23.503906-15.054688-31.015625 3.695313-3.730469 6.0625-8.574219 6.734376-13.785156l6.695312 1.753906c38.667969 10.132813 65.628906 45.074219 65.625 85.046875zm0 0"/>
    <path d="m208.5 200c13.253906 0 24-10.746094 24-24v-32h-16v32c0 4.417969-3.582031 8-8 8s-8-3.582031-8-8v-32h-16v32c0 13.253906 10.746094 24 24 24zm0 0"/>
    <path d="m250.820312 149.679688c3.15625 3.09375 8.203126 3.09375 11.359376 0 .703124-.777344 1.273437-1.671876 1.679687-2.640626.855469-1.9375.855469-4.140624 0-6.078124-.386719-.980469-.957031-1.875-1.679687-2.640626-.777344-.707031-1.671876-1.273437-2.640626-1.679687-2.976562-1.253906-6.417968-.589844-8.71875 1.679687-.707031.777344-1.273437 1.671876-1.679687 2.640626-.851563 1.9375-.851563 4.140624 0 6.078124.40625.96875.976563 1.863282 1.679687 2.640626zm0 0"/>
    <path d="m166.179688 149.679688c.703124-.777344 1.273437-1.671876 1.679687-2.640626.855469-1.9375.855469-4.140624 0-6.078124-.386719-.980469-.957031-1.875-1.679687-2.640626-.777344-.707031-1.671876-1.273437-2.640626-1.679687-1.929687-.882813-4.148437-.882813-6.078124 0-.96875.40625-1.863282.972656-2.640626 1.679687-.722656.765626-1.292968 1.660157-1.679687 2.640626-.851563 1.9375-.851563 4.140624 0 6.078124.40625.96875.976563 1.863282 1.679687 2.640626.777344.707031 1.671876 1.273437 2.640626 1.679687 1.9375.851563 4.140624.851563 6.078124 0 .96875-.40625 1.863282-.972656 2.640626-1.679687zm0 0"/>
    <path d="m256.125 221.238281-12.089844-10.476562c-9.519531 9.109375-22.375 13.898437-35.535156 13.238281-13.160156.660156-26.015625-4.128906-35.535156-13.238281l-12.089844 10.476562c12.519531 12.691407 29.816406 19.503907 47.625 18.761719 17.808594.742188 35.105469-6.070312 47.625-18.761719zm0 0"/>
</svg>