<svg height="480pt" viewBox="-34 0 480 480" width="480pt" xmlns="http://www.w3.org/2000/svg">
    <path d="m110.308594 248v16h-16c-2.730469.015625-5.445313-.472656-8-1.441406-3.386719-1.132813-6.453125-3.054688-8.960938-5.597656-6.855468-6.863282-8.902344-17.179688-5.191406-26.140626 3.710938-8.964843 12.453125-14.8125 22.152344-14.820312h16zm0 0"
          fill="#f1cfa2"/>
    <path d="m404.628906 472h-89.519531c-9.621094-20.261719-30.386719-32.84375-52.800781-32-22.414063-.84375-43.175782 11.738281-52.800782 32h-6.398437c-9.621094-20.261719-30.386719-32.84375-52.800781-32-22.414063-.84375-43.175782 11.738281-52.800782 32h-89.519531c6.964844-36.3125 34.160157-65.402344 69.921875-74.800781l80.398438-21.199219c0 10.480469 13.441406 19.359375 32.082031 22.558594-.066406.476562-.09375.960937-.082031 1.441406 0 8.800781 16 24 16 24s16-15.199219 16-24c.015625-.480469-.011719-.964844-.078125-1.441406 18.636719-3.199219 32.078125-12.078125 32.078125-22.558594l80.402344 21.199219c35.757812 9.398437 62.953124 38.488281 69.917968 74.800781zm0 0"
          fill="#ffdaaa"/>
    <path d="m318.308594 216c9.699218.007812 18.441406 5.855469 22.152344 14.820312 3.710937 8.960938 1.664062 19.277344-5.191407 26.140626-2.503906 2.542968-5.574219 4.464843-8.960937 5.597656-2.554688.96875-5.265625 1.457031-8 1.441406h-16v-48zm0 0"
          fill="#f1cfa2"/>
    <path d="m315.109375 472h-105.601563c9.625-20.261719 30.386719-32.84375 52.800782-32 22.414062-.84375 43.179687 11.738281 52.800781 32zm0 0"
          fill="#ff6243"/>
    <path d="m310.308594 216v32c0 57.4375-46.5625 104-104 104s-104-46.5625-104-104v-56c56.449218 4.675781 112.078125-15.820312 152-56 0 0 16 56 56 56zm0 0"
          fill="#ffdaaa"/>
    <path d="m310.308594 184v8c-40 0-56-56-56-56-39.921875 40.179688-95.550782 60.675781-152 56v-8c-.023438-27.585938 10.945312-54.042969 30.480468-73.519531 6.03125-6.058594 12.804688-11.328125 20.160157-15.679688 32.835937-19.734375 73.882812-19.734375 106.71875 0 31.429687 18.722657 50.671875 52.617188 50.640625 89.199219zm0 0"
          fill="#787680"/>
    <path d="m270.308594 64c.015625 4.324219-.550782 8.628906-1.679688 12.800781-36.917968-27.734375-87.722656-27.734375-124.640625 0-1.128906-4.171875-1.691406-8.476562-1.679687-12.800781 0-30.960938 28.640625-56 64-56s64 25.039062 64 56zm0 0"
          fill="#787680"/>
    <path d="m268.628906 76.800781c-1.753906 6.535157-4.800781 12.65625-8.960937 18-32.835938-19.734375-73.882813-19.734375-106.71875 0-4.15625-5.34375-7.203125-11.464843-8.960938-18 36.917969-27.734375 87.722657-27.734375 124.640625 0zm0 0"
          fill="#e6e7e8"/>
    <path d="m254.308594 340.238281v35.761719c0 10.480469-13.441406 19.359375-32.078125 22.558594-.820313-8.175782-7.703125-14.402344-15.921875-14.402344s-15.097656 6.226562-15.917969 14.402344c-18.640625-3.199219-32.082031-12.078125-32.082031-22.558594v-35.761719c30.078125 15.679688 65.921875 15.679688 96 0zm0 0"
          fill="#ffdaaa"/>
    <path d="m222.230469 398.558594c.066406.476562.09375.960937.078125 1.441406 0 8.800781-16 24-16 24s-16-15.199219-16-24c-.011719-.480469.015625-.964844.082031-1.441406.820313-8.175782 7.699219-14.402344 15.917969-14.402344s15.101562 6.226562 15.921875 14.402344zm0 0"
          fill="#ff6243"/>
    <path d="m203.109375 472h-105.601563c9.625-20.261719 30.386719-32.84375 52.800782-32 22.414062-.84375 43.179687 11.738281 52.800781 32zm0 0"
          fill="#ff6243"/>
    <path d="m254.308594 340.238281v16c-30.078125 15.679688-65.921875 15.679688-96 0v-16c30.078125 15.679688 65.921875 15.679688 96 0zm0 0"
          fill="#f1cfa2"/>
    <path d="m206.308594 272c13.253906 0 24-10.746094 24-24v-32h-16v32c0 4.417969-3.582032 8-8 8-4.417969 0-8-3.582031-8-8v-32h-16v32c0 13.253906 10.746094 24 24 24zm0 0"/>
    <path d="m251.269531 223.359375c1.9375.855469 4.144531.855469 6.078125 0 .96875-.40625 1.863282-.972656 2.640625-1.679687 1.507813-1.503907 2.34375-3.550782 2.320313-5.679688-.027344-2.117188-.859375-4.148438-2.320313-5.679688-2.300781-2.269531-5.738281-2.933593-8.71875-1.679687-.988281.367187-1.890625.9375-2.640625 1.679687-1.460937 1.53125-2.289062 3.5625-2.320312 5.679688-.019532 2.128906.816406 4.175781 2.320312 5.679688.777344.707031 1.671875 1.273437 2.640625 1.679687zm0 0"/>
    <path d="m163.988281 221.679688c1.507813-1.503907 2.34375-3.550782 2.320313-5.679688 0-4.417969-3.582032-8-8-8-4.417969 0-8 3.582031-8 8-.019532 2.128906.816406 4.175781 2.320312 5.679688.777344.707031 1.671875 1.273437 2.640625 1.679687 1.9375.851563 4.144531.851563 6.078125 0 .96875-.40625 1.863282-.972656 2.640625-1.679687zm0 0"/>
    <path d="m367.613281 403.257812c-9.460937-6.261718-19.886719-10.917968-30.863281-13.785156l-74.441406-19.640625v-24.984375c27.195312-15.742187 46.546875-42.167968 53.34375-72.847656h2.65625v26.222656c-6.269532 3.621094-9.328125 11.003906-7.453125 18 1.875 6.992188 8.210937 11.859375 15.453125 11.859375 7.242187 0 13.582031-4.867187 15.457031-11.859375 1.871094-6.996094-1.183594-14.378906-7.457031-18v-30.671875c12.546875-7.207031 18.667968-21.957031 14.914062-35.929687-3.753906-13.976563-16.445312-23.671875-30.914062-23.621094v-24c-.027344-36.429688-17.789063-70.5625-47.609375-91.488281 2.433593-4.277344 4.316406-8.847657 5.601562-13.601563 1.335938-4.855468 2.011719-9.871094 2.007813-14.910156 0-35.289062-32.304688-64-72-64-39.695313 0-72 28.710938-72 64-.015625 5.019531.640625 10.019531 1.953125 14.863281 1.300781 4.769531 3.203125 9.355469 5.65625 13.648438-29.820313 20.925781-47.582031 55.058593-47.609375 91.488281v24c-14.46875-.050781-27.160156 9.644531-30.914063 23.621094-3.753906 13.972656 2.367188 28.722656 14.914063 35.929687v30.671875c-6.269532 3.621094-9.328125 11.003906-7.453125 18 1.875 6.992188 8.210937 11.859375 15.453125 11.859375 7.242187 0 13.582031-4.867187 15.457031-11.859375 1.871094-6.996094-1.183594-14.378906-7.457031-18v-26.222656h2.65625c6.800781 30.679688 26.148437 57.105469 53.34375 72.847656v24.984375l-74.398438 19.640625c-38.757812 10.160156-68.230468 41.679688-75.769531 81.03125-.445313 2.339844.175781 4.757813 1.695313 6.59375 1.519531 1.839844 3.777343 2.902344 6.160156 2.902344h396.625c2.382812 0 4.640625-1.0625 6.160156-2.902344 1.519531-1.835937 2.140625-4.253906 1.695312-6.59375-5.296874-27.539062-21.46875-51.78125-44.863281-67.246094zm-33.304687-163.257812c0 8.835938-7.164063 16-16 16v-32c8.835937 0 16 7.164062 16 16zm-128-224c30.519531 0 55.375 21.046875 55.945312 47.089844-34.582031-20.121094-77.304687-20.121094-111.890625 0 .570313-26.042969 25.425781-47.089844 55.945313-47.089844zm-52.65625 63.839844c31.929687-21.121094 73.386718-21.121094 105.3125 0-.597656 1.496094-1.28125 2.957031-2.046875 4.375-31.773438-16.285156-69.445313-16.285156-101.21875 0-.765625-1.417969-1.449219-2.878906-2.046875-4.375zm52.65625 8.160156c52.546875.070312 95.289062 42.339844 95.945312 94.878906-27.730468-7.0625-40.121094-48.621094-40.257812-49.085937-.78125-2.722657-2.945313-4.828125-5.6875-5.535157-2.742188-.710937-5.652344.085938-7.65625 2.085938-36.617188 36.453125-86.707032 56.101562-138.34375 54.265625v-.609375c.058594-52.996094 43.003906-95.941406 96-96zm-112 168c-8.835938 0-16-7.164062-16-16s7.164062-16 16-16zm16-8v-47.304688c51.664062 1.960938 102.078125-16.15625 140.671875-50.558593 7.03125 16.503906 22.992187 44.671875 51.328125 49.230469v48.632812c0 53.019531-42.980469 96-96 96-53.019532 0-96-42.980469-96-96zm96 112c13.683594-.019531 27.242187-2.566406 40-7.511719v23.511719c0 4.296875-6.902344 9.878906-18.710938 13.152344-4.035156-8.058594-12.277344-13.148438-21.289062-13.148438-9.011719 0-17.253906 5.089844-21.289063 13.148438-11.804687-3.273438-18.710937-8.855469-18.710937-13.152344v-23.511719c12.757812 4.945313 26.320312 7.492188 40 7.511719zm8 40c-1.734375 4.671875-4.464844 8.914062-8 12.433594-3.535156-3.515625-6.265625-7.757813-8-12.433594 0-4.417969 3.582031-8 8-8 4.417968 0 8 3.582031 8 8zm-102.398438 64c10.152344-10.242188 23.976563-16.007812 38.398438-16.007812s28.246094 5.765624 38.402344 16.007812zm112 0c10.152344-10.242188 23.976563-16.007812 38.398438-16.007812s28.246094 5.765624 38.402344 16.007812zm96.039063 0c-12.019531-20.296875-34.054688-32.53125-57.640625-32-22.347656-.457031-43.414063 10.410156-56 28.878906-12.585938-18.46875-33.652344-29.335937-56-28.878906-23.585938-.535156-45.625 11.699219-57.648438 32h-74.429687c8.988281-29.011719 32.304687-51.339844 61.679687-59.0625l72.871094-19.203125c6.980469 10.433594 18 17.476563 30.398438 19.433594 3.988281 9.410156 9.996093 17.828125 17.601562 24.65625 3.085938 2.925781 7.921875 2.925781 11.007812 0 7.605469-6.828125 13.613282-15.246094 17.601563-24.65625 12.398437-1.957031 23.417969-9 30.398437-19.433594l72.871094 19.203125c29.390625 7.714844 52.722656 30.042969 61.730469 59.0625zm0 0"/>
    <path d="m253.933594 293.238281-12.089844-10.476562c-9.519531 9.109375-22.371094 13.898437-35.535156 13.238281-13.160156.660156-26.011719-4.128906-35.535156-13.238281l-12.089844 10.476562c12.519531 12.691407 29.816406 19.503907 47.625 18.761719 17.808594.742188 35.105468-6.070312 47.625-18.761719zm0 0"/>
</svg>