<svg height="480pt" viewBox="-31 0 479 480" width="480pt" xmlns="http://www.w3.org/2000/svg">
    <path d="m336.5 185.839844v139.28125l-80-21.121094v-35.761719c34.4375-17.863281 56.039062-53.441406 56-92.238281v16h8c5.914062.011719 11.621094-2.183594 16-6.160156zm0 0"
          fill="#787680"/>
    <path d="m336.5 150.160156c5.128906 4.503906 8.046875 11.015625 8 17.839844 0 6.363281-2.53125 12.46875-7.039062 16.960938-.300782.3125-.621094.609374-.960938.878906-4.378906 3.976562-10.085938 6.171875-16 6.160156h-16v-48h16c5.914062-.011719 11.621094 2.183594 16 6.160156zm0 0"
          fill="#f1cfa2"/>
    <path d="m160.5 268.238281v35.761719l-80 21.121094v-139.28125c4.378906 3.976562 10.085938 6.171875 16 6.160156h8v-16c-.039062 38.796875 21.5625 74.375 56 92.238281zm0 0"
          fill="#787680"/>
    <path d="m112.5 176v16h-16c-5.914062.011719-11.621094-2.183594-16-6.160156-.339844-.269532-.660156-.566406-.960938-.878906-4.507812-4.492188-7.039062-10.597657-7.039062-16.960938.046875-13.234375 10.765625-23.953125 24-24h16zm0 0"
          fill="#f1cfa2"/>
    <path d="m341.699219 472h-333.199219v-54c-.027344-43.621094 29.398438-81.757812 71.601562-92.800781l.398438-.078125 80-21.121094-8 64 56-24 56 24-8-64 80 21.121094.398438.078125c42.203124 11.042969 71.628906 49.179687 71.601562 92.800781v54zm0 0"
          fill="#ed539d"/>
    <path d="m336.5 136v14.160156c-4.378906-3.976562-10.085938-6.171875-16-6.160156h-8v-16c.003906-13.960938-2.796875-27.78125-8.238281-40.640625-11.292969 20.191406-32.628907 32.679687-55.761719 32.640625h-166.960938c8.582032-66.921875 67.640626-115.691406 134.976563-111.46875 67.339844 4.226562 119.835937 59.996094 119.984375 127.46875zm0 0"
          fill="#898890"/>
    <path d="m312.5 144v32c0 57.4375-46.5625 104-104 104s-104-46.5625-104-104v-48c-.027344-2.671875.105469-5.34375.398438-8h143.601562c23.132812.039062 44.46875-12.449219 55.761719-32.640625 5.441406 12.859375 8.242187 26.679687 8.238281 40.640625zm0 0"
          fill="#ffdaaa"/>
    <path d="m256.5 304 8 64-56-24zm0 0" fill="#ea348b"/>
    <path d="m256.5 268.238281v35.761719l-48 40-48-40v-35.761719c30.078125 15.679688 65.921875 15.679688 96 0zm0 0"
          fill="#ffdaaa"/>
    <path d="m208.5 344-56 24 8-64zm0 0" fill="#ea348b"/>
    <path d="m81.539062 120h23.359376c-.292969 2.65625-.425782 5.328125-.398438 8v16h-8c-5.914062-.011719-11.621094 2.183594-16 6.160156v-14.160156c-.015625-5.351562.328125-10.695312 1.039062-16zm0 0"
          fill="#787680"/>
    <path d="m256.5 268.238281v16c-30.078125 15.679688-65.921875 15.679688-96 0v-16c30.078125 15.679688 65.921875 15.679688 96 0zm0 0"
          fill="#f1cfa2"/>
    <path d="m344.5 319.199219v-130.253907c10.667969-11.925781 10.667969-29.964843 0-41.890624v-11.054688c0-75.109375-60.890625-136-136-136s-136 60.890625-136 136v11.054688c-10.667969 11.925781-10.667969 29.964843 0 41.890624v130.253907c-42.894531 13.828125-71.976562 53.734375-72 98.800781v54c0 4.417969 3.582031 8 8 8h400c4.417969 0 8-3.582031 8-8v-54c-.035156-45.0625-29.113281-84.964844-72-98.800781zm-256-120.335938c2.605469.722657 5.296875 1.101563 8 1.136719h2.65625c6.796875 30.679688 26.148438 57.105469 53.34375 72.847656v24.992188l-64 16.914062zm.40625-70.863281h7.59375v8c-2.703125.035156-5.394531.414062-8 1.136719v-1.136719c0-2.703125.230469-5.34375.40625-8zm247.59375 40c0 8.835938-7.164062 16-16 16v-32c8.835938 0 16 7.164062 16 16zm-32-24v32c0 53.019531-42.980469 96-96 96s-96-42.980469-96-96v-48h136c20.210938-.007812 39.488281-8.511719 53.121094-23.433594 1.917968 7.664063 2.882812 15.535156 2.878906 23.433594zm-208 8v32c-8.835938 0-16-7.164062-16-16s7.164062-16 16-16zm70.128906 167.511719 26.71875 22.28125-31.199218 13.359375zm1.871094-19.265625v-19.757813c25.726562 10.015625 54.273438 10.015625 80 0v19.757813l-40 33.355468zm81.871094 19.265625 4.457031 35.640625-31.199219-13.359375zm14.128906-46.664063c27.195312-15.742187 46.546875-42.167968 53.34375-72.847656h2.65625c2.703125-.035156 5.394531-.414062 8-1.136719v115.871094l-64-16.894531zm-56-256.847656c66.242188.074219 119.925781 53.757812 120 120v1.136719c-2.605469-.722657-5.296875-1.101563-8-1.136719v-8c.015625-15.035156-3-29.917969-8.871094-43.761719-1.191406-2.8125-3.878906-4.703125-6.929687-4.871093-3.039063-.136719-5.902344 1.433593-7.414063 4.074218-9.910156 17.628906-28.558594 28.546875-48.785156 28.558594h-157.601562c11.480468-55.835938 60.597656-95.929688 117.601562-96zm192 448h-48.6875c.421875-2.648438.652344-5.320312.6875-8-.027344-18.304688-8.984375-35.445312-24-45.910156v-18.089844h-16v22.480469c-.003906 2.859375 1.523438 5.503906 4 6.933593 12.359375 7.136719 19.980469 20.316407 20 34.585938-.023438 2.691406-.328125 5.371094-.910156 8h-254.179688c-.582031-2.628906-.886718-5.308594-.910156-8 .019531-14.269531 7.640625-27.449219 20-34.585938 2.476562-1.429687 4.003906-4.074218 4-6.933593v-22.480469h-16v18.089844c-15.015625 10.464844-23.972656 27.605468-24 45.910156.035156 2.679688.265625 5.351562.6875 8h-48.6875v-46c-.054688-39.8125 26.683594-74.675781 65.144531-84.953125l.894531-.191406 68.554688-18.101563-6.53125 52.253906c-.351562 2.84375.839844 5.660157 3.128906 7.382813 2.289063 1.722656 5.328125 2.089844 7.960938.960937l52.847656-22.648437 52.847656 22.648437c.996094.429688 2.066406.652344 3.152344.648438 2.292969 0 4.476562-.984375 5.996094-2.707031 1.519531-1.71875 2.222656-4.007813 1.941406-6.285157l-6.53125-52.253906 68.992188 18.183594c38.660156 10.144531 65.613281 45.09375 65.601562 85.0625zm0 0"/>
    <path d="m208.5 200c13.253906 0 24-10.746094 24-24v-32h-16v32c0 4.417969-3.582031 8-8 8s-8-3.582031-8-8v-32h-16v32c0 13.253906 10.746094 24 24 24zm0 0"/>
    <path d="m260.898438 137.359375c-.40625-.316406-.867188-.558594-1.359376-.71875-.476562-.242187-.996093-.40625-1.527343-.480469-1.53125-.324218-3.121094-.15625-4.550781.480469-.980469.386719-1.875.957031-2.640626 1.679687-.363281.390626-.6875.820313-.960937 1.28125-.316406.40625-.558594.867188-.71875 1.359376-.230469.453124-.394531.9375-.480469 1.4375-.132812.523437-.1875 1.0625-.160156 1.601562-.007812 2.125.828125 4.167969 2.320312 5.679688.765626.722656 1.660157 1.292968 2.640626 1.679687.949218.449219 1.988281.667969 3.039062.640625.507812-.011719 1.011719-.066406 1.511719-.160156.53125-.074219 1.050781-.238282 1.527343-.480469.492188-.160156.953126-.402344 1.359376-.71875.460937-.277344.886718-.597656 1.28125-.960937 3.09375-3.15625 3.09375-8.203126 0-11.359376-.398438-.320312-.808594-.640624-1.28125-.960937zm0 0"/>
    <path d="m168.5 144c-.039062-3.769531-2.730469-6.992188-6.433594-7.699219s-7.390625 1.292969-8.816406 4.785157c-1.425781 3.488281-.195312 7.5 2.945312 9.589843 3.140626 2.085938 7.316407 1.671875 9.984376-.996093 1.460937-1.535157 2.289062-3.5625 2.320312-5.679688zm0 0"/>
    <path d="m208.5 224c-13.160156.667969-26.011719-4.125-35.527344-13.238281l-12.097656 10.476562c12.515625 12.699219 29.8125 19.515625 47.625 18.761719 17.8125.753906 35.109375-6.0625 47.625-18.761719l-12.097656-10.476562c-9.515625 9.113281-22.367188 13.90625-35.527344 13.238281zm0 0"/>
</svg>