<svg height="480pt" viewBox="-31 0 479 480" width="480pt" xmlns="http://www.w3.org/2000/svg">
    <path d="m408.503906 272c-.011718 28.585938-16.933594 54.453125-43.117187 65.921875-8.734375-5.773437-18.355469-10.070313-28.480469-12.722656l-61.28125-16.160157h-.078125c-1.054687-1.128906-2.265625-2.101562-3.601563-2.878906-3.792968-2.234375-8.359374-2.757812-12.558593-1.441406h-.082031l-2.800782-.71875h-96l-2.796875.71875c-5.792969-1.800781-12.109375-.121094-16.242187 4.320312h-.078125l-61.28125 16.160157c-10.125 2.652343-19.746094 6.949219-28.480469 12.722656-31.171875-13.695313-48.492188-47.351563-41.511719-80.679687 6.976563-33.324219 36.34375-57.207032 70.390625-57.242188v-64c0-70.691406 57.308594-128 128-128 70.695313 0 128 57.308594 128 128v64c39.765625 0 72 32.234375 72 72zm0 0"
          fill="#787680"/>
    <path d="m112.503906 176v16h-16c-5.914062.011719-11.621094-2.183594-16-6.160156-.335937-.269532-.660156-.566406-.957031-.878906-4.507813-4.492188-7.042969-10.597657-7.042969-16.960938.050782-13.234375 10.765625-23.953125 24-24h16zm0 0"
          fill="#f1cfa2"/>
    <path d="m341.707031 472h-333.203125v-54c.023438-43.605469 29.429688-81.71875 71.601563-92.800781l61.28125-16.160157c-5.433594 5.785157-5.804688 14.683594-.871094 20.898438 4.933594 6.21875 13.679687 7.878906 20.550781 3.902344.640625-.398438 1.28125-.800782 1.917969-1.28125l.882813 1.042968c-.402344.558594-.800782 1.199219-1.203126 1.839844-3.972656 7.597656-1.25 16.976563 6.171876 21.265625 7.421874 4.292969 16.910156 1.96875 21.511718-5.265625.699219-1.230468 1.238282-2.550781 1.597656-3.921875l1.121094.320313c-.394531 1.351562-.582031 2.753906-.5625 4.160156 0 8.835938 7.164063 16 16 16 8.839844 0 16-7.164062 16-16 .023438-1.40625-.164062-2.808594-.558594-4.160156l1.121094-.320313c.359375 1.371094.898438 2.691407 1.597656 3.921875 2.726563 5.207032 8.085938 8.5 13.960938 8.582032 5.878906.078124 11.324219-3.070313 14.191406-8.203126 2.863282-5.132812 2.683594-11.421874-.46875-16.378906-.71875-1.265625-1.605468-2.421875-2.640625-3.441406l.796875-.800781c1.019532 1.035156 2.179688 1.921875 3.441406 2.640625 6.871094 3.976562 15.617188 2.316406 20.550782-3.902344 4.933594-6.214844 4.5625-15.113281-.871094-20.898438l61.28125 16.160157c42.171875 11.082031 71.578125 49.195312 71.597656 92.800781v54zm0 0"
          fill="#f072ae"/>
    <path d="m336.503906 150.160156c5.132813 4.503906 8.050782 11.015625 8 17.839844.003906 6.363281-2.53125 12.46875-7.039062 16.960938-.296875.3125-.621094.609374-.960938.878906-4.375 3.976562-10.082031 6.171875-16 6.160156h-16v-48h16c5.917969-.011719 11.625 2.183594 16 6.160156zm0 0"
          fill="#f1cfa2"/>
    <path d="m312.503906 144v32c0 57.4375-46.558594 104-104 104-57.4375 0-104-46.5625-104-104v-56c56.449219 4.675781 112.078125-15.820312 152-56 0 0 16 56 56 56zm0 0"
          fill="#ffdaaa"/>
    <path d="m275.625 309.039062c5.433594 5.785157 5.804688 14.683594.871094 20.898438-4.933594 6.21875-13.679688 7.878906-20.550782 3.902344-5.492187-3.199219-8.566406-9.34375-7.839843-15.660156.730469-6.3125 5.125-11.59375 11.199219-13.460938h.082031c4.199219-1.316406 8.765625-.792969 12.558593 1.441406 1.335938.777344 2.546876 1.75 3.601563 2.878906zm0 0"
          fill="#e6e7e8"/>
    <path d="m252.503906 331.199219-.796875.800781c-5.148437-5.015625-13.007812-5.980469-19.21875-2.363281-6.210937 3.617187-9.246093 10.933593-7.421875 17.882812l-1.121094.320313c-1.894531-6.96875-8.21875-11.804688-15.441406-11.804688-7.21875 0-13.542968 4.835938-15.4375 11.804688l-1.121094-.320313c1.929688-7.339843-1.566406-15.027343-8.367187-18.398437-6.800781-3.375-15.035156-1.5-19.710937 4.480468l-.882813-1.042968c6.273437-4.902344 7.949219-13.691406 3.921875-20.558594-2.003906-3.53125-5.304688-6.140625-9.199219-7.28125l2.796875-.71875v-35.761719c30.082032 15.679688 65.921875 15.679688 96 0v35.761719l2.800782.71875c-3.894532 1.140625-7.195313 3.75-9.199219 7.28125-3.675781 6.199219-2.6875 14.097656 2.398437 19.199219zm0 0"
          fill="#ffdaaa"/>
    <g fill="#e6e7e8">
        <path d="m254.347656 335.441406c3.152344 4.957032 3.332032 11.246094.46875 16.378906-2.867187 5.132813-8.3125 8.28125-14.191406 8.203126-5.875-.082032-11.234375-3.375-13.960938-8.582032-.699218-1.230468-1.238281-2.550781-1.597656-3.921875-1.957031-7.710937 2.050782-15.691406 9.40625-18.722656 7.355469-3.035156 15.824219-.207031 19.875 6.644531zm0 0"/>
        <path d="m223.945312 347.839844c.394532 1.351562.582032 2.753906.558594 4.160156 0 8.835938-7.160156 16-16 16-8.835937 0-16-7.164062-16-16-.019531-1.40625.167969-2.808594.5625-4.160156 1.894532-6.96875 8.21875-11.804688 15.4375-11.804688 7.222656 0 13.546875 4.835938 15.441406 11.804688zm0 0"/>
        <path d="m184.503906 329.601562c6.261719 3.589844 9.316406 10.949219 7.441406 17.917969-.359374 1.371094-.898437 2.691407-1.597656 3.921875-4.601562 7.234375-14.089844 9.558594-21.511718 5.265625-7.421876-4.289062-10.144532-13.667969-6.171876-21.265625.402344-.640625.800782-1.28125 1.203126-1.839844 4.898437-6.328124 13.730468-8.039062 20.636718-4zm0 0"/>
        <path d="m166.90625 312c4.027344 6.867188 2.351562 15.65625-3.921875 20.558594-.636719.480468-1.277344.882812-1.917969 1.28125-6.871094 3.976562-15.617187 2.316406-20.550781-3.902344-4.933594-6.214844-4.5625-15.113281.871094-20.898438h.078125c4.132812-4.441406 10.449218-6.121093 16.242187-4.320312 3.894531 1.140625 7.195313 3.75 9.199219 7.28125zm0 0"/>
    </g>
    <path d="m256.503906 268.238281v16c-30.078125 15.679688-65.917968 15.679688-96 0v-16c30.082032 15.679688 65.921875 15.679688 96 0zm0 0"
          fill="#f1cfa2"/>
    <path d="m380.074219 338.960938c28.480469-18.464844 42.1875-52.90625 34.183593-85.894532-8.003906-32.984375-35.976562-57.3125-69.753906-60.667968v-3.453126c10.667969-11.925781 10.667969-29.964843 0-41.890624v-11.054688c0-75.109375-60.886718-136-136-136-75.109375 0-136 60.890625-136 136v11.054688c-10.664062 11.925781-10.664062 29.964843 0 41.890624v3.453126c-33.773437 3.355468-61.746094 27.683593-69.75 60.667968-8.003906 32.988282 5.703125 67.429688 34.183594 85.894532-23.167969 19.714843-36.492188 48.621093-36.433594 79.039062v54c0 4.417969 3.582032 8 8 8h400c4.421875 0 8-3.582031 8-8v-54c.058594-30.417969-13.265625-59.324219-36.429687-79.039062zm20.429687-66.960938c-.054687 23.949219-13.503906 45.859375-34.839844 56.742188-8.332031-4.992188-17.328124-8.789063-26.71875-11.277344l-59.441406-15.671875c-4.144531-3.648438-9.476562-5.664063-15-5.671875v-23.273438c27.199219-15.742187 46.546875-42.167968 53.347656-72.847656h2.652344c2.707032-.035156 5.394532-.414062 8-1.136719v1.136719c0 4.417969 3.582032 8 8 8 35.332032.039062 63.960938 28.671875 64 64zm-172 50.640625c-3.488281 2.050781-6.398437 4.957031-8.453125 8.449219-7.144531-4.121094-15.945312-4.121094-23.089843 0-4.128907-7.140625-11.75-11.542969-20-11.546875.015624-6.90625-3.089844-13.453125-8.457032-17.808594v-21.246094c25.726563 10.015625 54.277344 10.015625 80 0v21.246094c-5.363281 4.355469-8.46875 10.902344-8.453125 17.808594-4.050781.027343-8.027343 1.09375-11.546875 3.097656zm-12 29.359375c0 4.417969-3.578125 8-8 8-4.417968 0-8-3.582031-8-8s3.582032-8 8-8c4.421875 0 8 3.582031 8 8zm-104-208v-15.304688c51.664063 1.960938 102.082032-16.15625 140.675782-50.558593 7.03125 16.503906 22.988281 44.671875 51.324218 49.230469v48.632812c0 53.019531-42.980468 96-96 96-53.015625 0-96-42.980469-96-96zm224 24c0 8.835938-7.160156 16-16 16v-32c8.839844 0 16 7.164062 16 16zm-183.4375 144c4.015625 0 7.40625 2.976562 7.929688 6.957031.527344 3.980469-1.980469 7.730469-5.859375 8.769531-3.878907 1.039063-7.925781-.957031-9.460938-4.664062-1.535156-3.710938-.085937-7.984375 3.390625-9.992188 1.214844-.703124 2.59375-1.074218 4-1.070312zm16.511719 27.425781c2.207031-3.828125 7.101563-5.140625 10.929687-2.929687 3.824219 2.207031 5.136719 7.101562 2.925782 10.929687-2.207032 3.824219-7.101563 5.136719-10.929688 2.925781-3.824218-2.207031-5.136718-7.101562-2.925781-10.925781zm66.925781-2.929687c3.828125-2.210938 8.722656-.898438 10.929688 2.929687 2.210937 3.824219.898437 8.71875-2.925782 10.925781-3.828124 2.210938-8.722656.898438-10.929687-2.925781-2.210937-3.828125-.898437-8.71875 2.925781-10.929687zm23.425782-9.601563c-3.105469-1.824219-4.605469-5.5-3.667969-8.976562.9375-3.476563 4.082031-5.898438 7.683593-5.917969 1.40625-.003906 2.785157.367188 4 1.070312 2.496094 1.421876 4.039063 4.066407 4.046876 6.9375.007812 2.871094-1.527344 5.527344-4.015626 6.957032-2.488281 1.429687-5.554687 1.414062-8.03125-.035156zm-51.425782-310.894531c66.246094.074219 119.925782 53.757812 120 120v1.136719c-2.605468-.722657-5.292968-1.101563-8-1.136719v-16c0-4.417969-3.578125-8-8-8-33.4375 0-48.167968-49.703125-48.308594-50.207031-.785156-2.722657-2.945312-4.828125-5.6875-5.535157-2.742187-.710937-5.65625.085938-7.65625 2.085938-38.277343 38.203125-91.300781 57.824219-145.226562 53.734375-2.292969-.324219-4.617188.363281-6.363281 1.882813-1.75 1.519531-2.753907 3.722656-2.757813 6.039062v16c-2.703125.035156-5.390625.414062-8 1.136719v-1.136719c.078125-66.242188 53.757813-119.925781 120-120zm-128 152c0-8.835938 7.164063-16 16-16v32c-8.835937 0-16-7.164062-16-16zm-64 104c.042969-35.328125 28.671875-63.960938 64-64 4.421875 0 8-3.582031 8-8v-1.136719c2.609375.722657 5.296875 1.101563 8 1.136719h2.65625c6.800782 30.679688 26.148438 57.105469 53.34375 72.847656v23.273438c-5.519531.007812-10.851562 2.023437-15 5.671875l-59.398437 15.671875c-9.390625 2.488281-18.386719 6.285156-26.71875 11.277344-21.351563-10.875-34.816407-32.78125-34.882813-56.742188zm384 192h-48.6875c.421875-2.648438.652344-5.320312.6875-8-.023437-18.304688-8.984375-35.445312-24-45.910156v-18.089844h-16v22.480469c0 2.859375 1.523438 5.503906 4 6.933593 12.359375 7.136719 19.980469 20.316407 20 34.585938-.023437 2.691406-.328125 5.371094-.910156 8h-254.175781c-.582031-2.628906-.886719-5.308594-.914063-8 .023438-14.269531 7.644532-27.449219 20-34.585938 2.480469-1.429687 4.003906-4.074218 4-6.933593v-22.480469h-16v18.089844c-15.011718 10.464844-23.972656 27.605468-24 45.910156.039063 2.679688.265625 5.351562.691406 8h-48.691406v-46c.019532-39.960938 26.957032-74.890625 65.601563-85.0625l47.054687-12.410156c.039063 4.027344 1.105469 7.972656 3.097656 11.472656 4.210938 7.257812 11.914063 11.785156 20.304688 11.929688.207031 13.0625 10.875 23.535156 23.941406 23.496093 4.058594-.015625 8.046875-1.050781 11.601563-3.011719 4.304687 7.1875 12.0625 11.585938 20.441406 11.585938 8.375 0 16.136719-4.398438 20.4375-11.585938 3.554687 1.960938 7.542969 2.996094 11.601563 3.011719 13.035156-.003906 23.660156-10.464843 23.863281-23.496093 8.375-.160157 16.0625-4.683594 20.265625-11.929688 1.988281-3.5 3.054687-7.445312 3.09375-11.472656l47.097656 12.410156c38.644531 10.171875 65.582031 45.101562 65.597656 85.0625zm0 0"/>
    <path d="m208.503906 200c13.257813 0 24-10.746094 24-24v-32h-16v32c0 4.417969-3.578125 8-8 8-4.417968 0-8-3.582031-8-8v-32h-16v32c0 13.253906 10.746094 24 24 24zm0 0"/>
    <path d="m250.824219 149.679688c1.535156 1.460937 3.5625 2.289062 5.679687 2.320312 1.046875-.011719 2.082032-.230469 3.042969-.640625 2.007813-.726563 3.589844-2.308594 4.320313-4.320313.410156-.960937.625-1.992187.636718-3.039062-.027344-2.117188-.859375-4.144531-2.316406-5.679688-.78125-.707031-1.671875-1.273437-2.640625-1.679687-2.984375-1.214844-6.402344-.558594-8.722656 1.679687-1.457031 1.535157-2.289063 3.5625-2.320313 5.679688.015625 1.046875.230469 2.078125.640625 3.039062.40625.96875.976563 1.863282 1.679688 2.640626zm0 0"/>
    <path d="m154.824219 149.679688c1.535156 1.460937 3.5625 2.289062 5.679687 2.320312 2.121094-.015625 4.15625-.847656 5.683594-2.320312.703125-.777344 1.273438-1.671876 1.679688-2.640626.410156-.960937.625-1.992187.636718-3.039062 0-4.417969-3.578125-8-8-8-4.417968 0-8 3.582031-8 8 .015625 1.046875.230469 2.078125.640625 3.039062.40625.96875.976563 1.863282 1.679688 2.640626zm0 0"/>
    <path d="m208.503906 240c17.8125.75 35.113282-6.0625 47.625-18.761719l-12.085937-10.476562c-9.519531 9.113281-22.375 13.902343-35.539063 13.238281-13.160156.664062-26.015625-4.125-35.535156-13.238281l-12.085938 10.476562c12.511719 12.699219 29.8125 19.511719 47.621094 18.761719zm0 0"/>
</svg>