<svg height="480pt" viewBox="-31 0 479 480" width="480pt" xmlns="http://www.w3.org/2000/svg">
    <path d="m336.5 256.640625v-120.640625c0-70.691406-57.308594-128-128-128s-128 57.308594-128 128v120.640625c-19.316406 2.742187-35.800781 15.367187-43.484375 33.304687-7.683594 17.933594-5.453125 38.578126 5.882813 54.453126 10.828124-9.074219 23.53125-15.632813 37.203124-19.199219l48.796876-12.878907 31.601562-8.320312h96l31.601562 8.320312 48.796876 12.878907c13.671874 3.566406 26.375 10.125 37.203124 19.199219 11.335938-15.875 13.566407-36.519532 5.882813-54.453126-7.683594-17.9375-24.167969-30.5625-43.484375-33.304687zm0 0"
          fill="#ffb655"/>
    <path d="m341.699219 472h-333.199219v-54c0-43.609375 29.417969-81.734375 71.601562-92.800781l48.796876-12.878907c4.105468 40.882813 38.511718 72.007813 79.601562 72.007813s75.496094-31.125 79.601562-72.007813l48.796876 12.878907c42.183593 11.066406 71.601562 49.191406 71.601562 92.800781v54zm0 0"
          fill="#ff7956"/>
    <path d="m336.5 150.160156c5.128906 4.503906 8.046875 11.015625 8 17.839844 0 6.363281-2.53125 12.46875-7.039062 16.960938-.300782.3125-.621094.609374-.960938.878906-4.378906 3.976562-10.085938 6.171875-16 6.160156h-16v-48h16c5.914062-.011719 11.621094 2.183594 16 6.160156zm0 0"
          fill="#f1cfa2"/>
    <path d="m256.5 304 31.601562 8.320312c-4.105468 40.882813-38.511718 72.007813-79.601562 72.007813s-75.496094-31.125-79.601562-72.007813l31.601562-8.320312c0 26.507812 21.492188 48 48 48s48-21.492188 48-48zm0 0"
          fill="#ff6243"/>
    <path d="m256.5 268.238281v35.761719c0 26.507812-21.492188 48-48 48s-48-21.492188-48-48v-35.761719c30.078125 15.679688 65.921875 15.679688 96 0zm0 0"
          fill="#ffdaaa"/>
    <path d="m112.5 176v16h-16c-5.914062.011719-11.621094-2.183594-16-6.160156-.339844-.269532-.660156-.566406-.960938-.878906-4.507812-4.492188-7.039062-10.597657-7.039062-16.960938.046875-13.234375 10.765625-23.953125 24-24h16zm0 0"
          fill="#f1cfa2"/>
    <path d="m288.5 120c-5.914062.011719-11.621094-2.183594-16-6.160156-9.109375 8.148437-22.890625 8.148437-32 0-9.085938 8.214844-22.914062 8.214844-32 0-9.085938 8.214844-22.914062 8.214844-32 0-9.085938 8.214844-22.914062 8.214844-32 0-4.378906 3.976562-10.085938 6.171875-16 6.160156-4.785156 0-9.460938-1.421875-13.441406-4.078125l-10.558594 12.078125v48c0 57.4375 46.5625 104 104 104s104-46.5625 104-104v-80c0 13.253906-10.746094 24-24 24zm0 0"
          fill="#ffdaaa"/>
    <path d="m256.5 268.238281v16c-30.078125 15.679688-65.921875 15.679688-96 0v-16c30.078125 15.679688 65.921875 15.679688 96 0zm0 0"
          fill="#f1cfa2"/>
    <path d="m384.355469 342.878906c5.320312-9.421875 8.125-20.058594 8.144531-30.878906-.101562-29.136719-19.808594-54.554688-48-61.910156v-61.144532c10.667969-11.925781 10.667969-29.964843 0-41.890624v-11.054688c0-75.109375-60.890625-136-136-136s-136 60.890625-136 136v11.054688c-10.667969 11.925781-10.667969 29.964843 0 41.890624v61.144532c-28.191406 7.355468-47.898438 32.773437-48 61.910156.019531 10.820312 2.824219 21.457031 8.144531 30.878906-20.523437 19.601563-32.136719 46.742188-32.144531 75.121094v54c0 4.417969 3.582031 8 8 8h400c4.417969 0 8-3.582031 8-8v-54c-.007812-28.378906-11.621094-55.519531-32.144531-75.121094zm-7.855469-30.878906c0 7.140625-1.617188 14.1875-4.726562 20.617188-9.960938-6.933594-21.066407-12.0625-32.800782-15.152344l-74.472656-19.632813v-24.984375c27.195312-15.742187 46.546875-42.167968 53.34375-72.847656h2.65625c2.703125-.035156 5.394531-.414062 8-1.136719v57.777344c0 3.984375 2.933594 7.363281 6.878906 7.917969 23.566406 3.449218 41.054688 23.625 41.121094 47.441406zm-208-31.511719c25.726562 10.015625 54.273438 10.015625 80 0v23.511719c0 22.089844-17.910156 40-40 40s-40-17.910156-40-40zm-15.03125 33.601563c4.859375 26.574218 28.015625 45.882812 55.03125 45.882812s50.171875-19.308594 55.03125-45.882812l15.585938 4.101562c-6.800782 33.601563-36.335938 57.753906-70.617188 57.753906s-63.816406-24.152343-70.617188-57.753906zm183.03125-146.089844c0 8.835938-7.164062 16-16 16v-32c8.835938 0 16 7.164062 16 16zm-128-152c66.242188.074219 119.925781 53.757812 120 120v1.136719c-2.605469-.722657-5.296875-1.101563-8-1.136719v-8h-16v48c0 53.019531-42.980469 96-96 96s-96-42.980469-96-96v-48h-16v8c-2.703125.035156-5.394531.414062-8 1.136719v-1.136719c.074219-66.242188 53.757812-119.925781 120-120zm-128 152c0-8.835938 7.164062-16 16-16v32c-8.835938 0-16-7.164062-16-16zm1.121094 96.558594c3.945312-.554688 6.878906-3.933594 6.878906-7.917969v-57.777344c2.605469.722657 5.296875 1.101563 8 1.136719h2.65625c6.796875 30.679688 26.148438 57.105469 53.34375 72.847656v24.984375l-74.398438 19.632813c-11.761718 3.09375-22.878906 8.238281-32.847656 15.199218-3.125-6.441406-4.75-13.503906-4.753906-20.664062.066406-23.816406 17.554688-43.992188 41.121094-47.441406zm318.878906 199.441406h-48.6875c.421875-2.648438.652344-5.320312.6875-8-.027344-18.304688-8.984375-35.445312-24-45.910156v-18.089844h-16v22.480469c-.003906 2.859375 1.523438 5.503906 4 6.933593 12.359375 7.136719 19.980469 20.316407 20 34.585938-.023438 2.691406-.328125 5.371094-.910156 8h-254.179688c-.582031-2.628906-.886718-5.308594-.910156-8 .019531-14.269531 7.640625-27.449219 20-34.585938 2.476562-1.429687 4.003906-4.074218 4-6.933593v-22.480469h-16v18.089844c-15.015625 10.464844-23.972656 27.605468-24 45.910156.035156 2.679688.265625 5.351562.6875 8h-48.6875v-46c-.011719-39.96875 26.941406-74.917969 65.601562-85.0625l40.285157-10.625c8.648437 40.628906 44.53125 69.679688 86.074219 69.679688 41.539062 0 77.421874-29.050782 86.070312-69.679688l40.367188 10.625c38.660156 10.144531 65.613281 45.09375 65.601562 85.0625zm0 0"/>
    <path d="m184.5 144v32c0 13.253906 10.746094 24 24 24s24-10.746094 24-24v-32h-16v32c0 4.417969-3.582031 8-8 8s-8-3.582031-8-8v-32zm0 0"/>
    <path d="m250.820312 138.320312c-3.105468 3.128907-3.09375 8.183594.03125 11.296876 3.121094 3.113281 8.175782 3.113281 11.296876 0 3.125-3.113282 3.136718-8.167969.03125-11.296876-3.214844-2.941406-8.144532-2.941406-11.359376 0zm0 0"/>
    <path d="m168.5 144c-.039062-3.769531-2.730469-6.992188-6.433594-7.699219s-7.390625 1.292969-8.816406 4.785157c-1.425781 3.488281-.195312 7.5 2.945312 9.589843 3.140626 2.085938 7.316407 1.671875 9.984376-.996093 1.460937-1.535157 2.289062-3.5625 2.320312-5.679688zm0 0"/>
    <path d="m128.5 128c5.621094.003906 11.140625-1.484375 16-4.304688 9.929688 5.609376 22.070312 5.609376 32 0 9.929688 5.609376 22.070312 5.609376 32 0 9.929688 5.609376 22.070312 5.609376 32 0 9.929688 5.609376 22.070312 5.609376 32 0 9.898438 5.714844 22.09375 5.71875 31.992188.003907 9.898437-5.710938 16-16.269531 16.007812-27.699219h-16c0 8.835938-7.164062 16-16 16-3.929688.003906-7.71875-1.453125-10.632812-4.089844-3.046876-2.757812-7.6875-2.757812-10.734376 0-6.109374 5.273438-15.15625 5.273438-21.265624 0-3.046876-2.757812-7.6875-2.757812-10.734376 0-6.109374 5.273438-15.15625 5.273438-21.265624 0-3.046876-2.757812-7.6875-2.757812-10.734376 0-6.109374 5.273438-15.15625 5.273438-21.265624 0-3.046876-2.757812-7.6875-2.757812-10.734376 0-6.109374 5.273438-15.15625 5.273438-21.265624 0-3.046876-2.757812-7.6875-2.757812-10.734376 0-2.914062 2.636719-6.703124 4.09375-10.632812 4.089844-8.835938 0-16-7.164062-16-16h-16c0 17.671875 14.328125 32 32 32zm0 0"/>
    <path d="m208.5 224c-13.164062.664062-26.015625-4.125-35.535156-13.238281l-12.089844 10.476562c12.515625 12.699219 29.8125 19.511719 47.625 18.761719 17.8125.75 35.109375-6.0625 47.625-18.761719l-12.089844-10.476562c-9.519531 9.113281-22.371094 13.902343-35.535156 13.238281zm0 0"/>
</svg>