<svg height="480pt" viewBox="-32 0 480 480.00113" width="480pt" xmlns="http://www.w3.org/2000/svg">
    <path d="m112 176v16h-16c-13.253906 0-24-10.742188-24-24 0-13.253906 10.746094-24 24-24h16zm0 0" fill="#f1cfa2"/>
    <path d="m320 472h-312v-54c-.027344-43.621094 29.398438-81.757812 71.601562-92.800781l56.878907-14.957031c3.921875 28 34.480469 49.757812 71.519531 49.757812s67.601562-21.757812 71.519531-49.757812l56.882813 14.957031c42.199218 11.042969 71.625 49.179687 71.597656 92.800781v54zm0 0"
          fill="#ffb655"/>
    <path d="m320 144c13.253906 0 24 10.746094 24 24 0 13.257812-10.746094 24-24 24h-16v-48zm0 0" fill="#f1cfa2"/>
    <path d="m176 120h-80c-8.824219-.023438-15.972656-7.171875-16-16v-16c.027344-8.824219 7.175781-15.972656 16-16h224c8.828125.027344 15.972656 7.175781 16 16v16c-.027344 8.828125-7.171875 15.976562-16 16zm0 0"
          fill="#ff6243"/>
    <path d="m314.082031 72h-212.160156c20.746094-39.363281 61.582031-64 106.078125-64s85.332031 24.636719 106.082031 64zm0 0"
          fill="#ff5023"/>
    <path d="m312 144v32c0 57.4375-46.5625 104-104 104s-104-46.5625-104-104v-56h208zm0 0" fill="#ffdaaa"/>
    <path d="m256 304 23.519531 6.242188c-3.917969 28-34.480469 49.757812-71.519531 49.757812s-67.597656-21.757812-71.519531-49.757812l23.519531-6.242188c0 17.679688 21.519531 32 48 32s48-14.320312 48-32zm0 0"
          fill="#ffa733"/>
    <path d="m256 268.242188v35.757812c0 17.679688-21.519531 32-48 32s-48-14.320312-48-32v-35.757812c30.078125 15.679687 65.921875 15.679687 96 0zm0 0"
          fill="#ffdaaa"/>
    <path d="m256 268.242188v16c-30.078125 15.679687-65.921875 15.679687-96 0v-16c30.078125 15.679687 65.921875 15.679687 96 0zm0 0"
          fill="#f1cfa2"/>
    <path d="m338.441406 317.472656-74.441406-19.640625v-24.984375c27.195312-15.742187 46.546875-42.167968 53.34375-72.847656h2.65625c17.671875 0 32-14.324219 32-32 0-17.671875-14.328125-32-32-32v-8c13.253906 0 24-10.742188 24-24v-16c0-13.253906-10.746094-24-24-24h-1.296875c-22.796875-39.597656-65.011719-64-110.703125-64s-87.902344 24.402344-110.703125 64h-1.296875c-13.253906 0-24 10.746094-24 24v16c0 13.257812 10.746094 24 24 24v8c-17.671875 0-32 14.328125-32 32 0 17.675781 14.328125 32 32 32h2.65625c6.800781 30.679688 26.148438 57.105469 53.34375 72.847656v24.984375l-74.398438 19.632813c-45.71875 11.96875-77.60546825 53.277344-77.601562 100.535156v54c0 4.417969 3.582031 8 8 8h400c4.417969 0 8-3.582031 8-8v-54c.007812-47.246094-31.859375-88.546875-77.558594-100.527344zm-68.554687-1.535156c-7.167969 20.6875-32.71875 36.0625-61.886719 36.0625s-54.71875-15.375-61.886719-36.0625l7.625-2.015625c6.039063 17.472656 27.6875 30.078125 54.261719 30.078125 26.578125 0 48.222656-12.605469 54.265625-30.078125zm66.113281-147.9375c0 8.835938-7.164062 16-16 16v-32c8.835938 0 16 7.164062 16 16zm-128-152c36.617188-.011719 70.914062 17.925781 91.800781 48h-183.601562c20.886719-30.074219 55.183593-48.011719 91.800781-48zm-120 88v-16c0-4.417969 3.582031-8 8-8h224c4.417969 0 8 3.582031 8 8v16c0 4.417969-3.582031 8-8 8h-8v-16h-16v16h-16v-16h-16v16h-16v-16h-16v16h-16v-16h-16v16h-16v-16h-16v16h-16v-16h-16v16h-16v-16h-16v16h-8c-4.417969 0-8-3.582031-8-8zm8 80c-8.835938 0-16-7.164062-16-16s7.164062-16 16-16zm16-8v-48h192v48c0 53.019531-42.980469 96-96 96s-96-42.980469-96-96zm96 112c13.683594-.019531 27.242188-2.566406 40-7.511719v23.511719c0 13.007812-18.320312 24-40 24s-40-10.992188-40-24v-23.511719c12.757812 4.945313 26.320312 7.492188 40 7.511719zm192 176h-72v-56h-16v56h-208v-56h-16v56h-72v-46c-.011719-39.96875 26.941406-74.914062 65.601562-85.0625l49.015626-12.9375c8.878906 27.875 40.367187 48 77.382812 48s68.503906-20.101562 77.382812-48l49.019532 12.945312c38.65625 10.144532 65.609375 45.089844 65.597656 85.054688zm0 0"/>
    <path d="m208 200c13.253906 0 24-10.742188 24-24v-32h-16v32c0 4.417969-3.582031 8-8 8s-8-3.582031-8-8v-32h-16v32c0 13.257812 10.746094 24 24 24zm0 0"/>
    <path d="m252.960938 151.359375c.960937.410156 1.996093.628906 3.039062.640625 2.121094-.015625 4.15625-.84375 5.679688-2.320312 2.292968-2.289063 2.957031-5.742188 1.679687-8.71875-.386719-.980469-.957031-1.875-1.679687-2.640626-1.914063-1.886718-4.644532-2.695312-7.277344-2.160156-.503906.089844-.988282.25-1.441406.480469-.511719.175781-1 .417969-1.449219.71875-.414063.300781-.8125.621094-1.191407.960937-.722656.765626-1.292968 1.660157-1.679687 2.640626-1.277344 2.976562-.609375 6.429687 1.679687 8.71875.777344.707031 1.671876 1.277343 2.640626 1.679687zm0 0"/>
    <path d="m168 144c-.011719-1.042969-.230469-2.078125-.640625-3.039062-.386719-.980469-.957031-1.875-1.679687-2.640626-3.207032-2.960937-8.152344-2.960937-11.359376 0-.707031.777344-1.273437 1.671876-1.679687 2.640626-1.277344 2.996093-.609375 6.46875 1.6875 8.777343 2.296875 2.308594 5.765625 2.992188 8.769531 1.734375 3-1.261718 4.941406-4.214844 4.902344-7.472656zm0 0"/>
    <path d="m255.617188 221.242188-12.082032-10.480469c-9.519531 9.109375-22.371094 13.898437-35.535156 13.238281-13.160156.660156-26.011719-4.128906-35.535156-13.238281l-12.082032 10.480469c12.515626 12.691406 29.808594 19.507812 47.617188 18.757812 17.808594.75 35.105469-6.066406 47.617188-18.757812zm0 0"/>
</svg>