<svg height="512pt" viewBox="0 -29 512 511" width="512pt" xmlns="http://www.w3.org/2000/svg">
    <path d="m26.359375 106.683594v342.21875c0 2.273437 1.84375 4.121094 4.121094 4.121094h451.039062c2.277344 0 4.121094-1.847657 4.121094-4.121094v-342.21875zm0 0"
          fill="#ed5176"/>
    <g fill="#ba365f">
        <path d="m26.359375 224.046875h459.28125v23.25h-459.28125zm0 0"/>
        <path d="m26.359375 106.683594h459.28125v23.25h-459.28125zm0 0"/>
        <path d="m174.425781 106.683594v23.414062c0 16.496094 13.371094 29.867188 29.867188 29.867188h126.148437c21.292969 0 38.554688-17.261719 38.554688-38.554688v-14.726562zm0 0"/>
        <path d="m461.347656 106.683594v342.21875c0 2.273437-1.84375 4.121094-4.121094 4.121094h24.292969c2.277344 0 4.121094-1.847657 4.121094-4.121094v-342.21875zm0 0"/>
    </g>
    <path d="m201.070312 299.070312v153.953126h109.859376v-153.953126c0-5.691406-4.613282-10.304687-10.304688-10.304687h-89.253906c-5.6875 0-10.300782 4.613281-10.300782 10.304687zm0 0"
          fill="#6a7193"/>
    <path d="m216.78125 314.792969c0-5.691407 4.613281-10.304688 10.304688-10.304688h83.84375v-5.417969c0-5.691406-4.613282-10.304687-10.300782-10.304687h-89.253906c-5.691406 0-10.304688 4.613281-10.304688 10.304687v153.953126h15.710938zm0 0"
          fill="#575b7a"/>
    <path d="m.640625 177.871094v42.054687c0 2.277344 1.84375 4.121094 4.121094 4.121094h502.476562c2.277344 0 4.121094-1.84375 4.121094-4.121094v-42.054687c0-2.277344-1.84375-4.121094-4.121094-4.121094h-502.476562c-2.277344 0-4.121094 1.84375-4.121094 4.121094zm0 0"
          fill="#c8e7f7"/>
    <path d="m507.238281 173.75h-24.199219c2.277344 0 4.121094 1.84375 4.121094 4.121094v42.058594c0 2.273437-1.84375 4.121093-4.121094 4.121093h24.199219c2.277344 0 4.121094-1.847656 4.121094-4.121093v-42.058594c0-2.277344-1.84375-4.121094-4.121094-4.121094zm0 0"
          fill="#8cbcd6"/>
    <path d="m344.597656 314.007812v84.3125c0 4.816407 3.90625 8.722657 8.722656 8.722657h95.617188c4.820312 0 8.722656-3.90625 8.722656-8.722657v-84.3125c0-4.820312-3.902344-8.722656-8.722656-8.722656h-95.617188c-4.820312-.003906-8.722656 3.902344-8.722656 8.722656zm0 0"
          fill="#c8e7f7"/>
    <path d="m54.339844 314.007812v84.3125c0 4.816407 3.902344 8.722657 8.722656 8.722657h95.617188c4.820312 0 8.722656-3.90625 8.722656-8.722657v-84.3125c0-4.820312-3.90625-8.722656-8.722656-8.722656h-95.617188c-4.820312-.003906-8.722656 3.902344-8.722656 8.722656zm0 0"
          fill="#c8e7f7"/>
    <path d="m512 83.984375v-18.894531h-512v18.894531c12.535156 0 22.699219 10.164063 22.699219 22.699219h466.601562c0-12.535156 10.164063-22.699219 22.699219-22.699219zm0 0"
          fill="#c8e7f7"/>
    <path d="m174.425781 65.089844h194.570313v41.59375h-194.570313zm0 0" fill="#8cbcd6"/>
    <path d="m487.800781 65.089844v18.894531c-12.539062 0-22.703125 10.164063-22.703125 22.699219h24.203125c0-12.535156 10.164063-22.699219 22.699219-22.699219v-18.894531zm0 0"
          fill="#8cbcd6"/>
    <path d="m158.714844 30.367188v84.304687c0 16.492187 13.371094 29.867187 29.867187 29.867187h134.835938c16.492187 0 29.867187-13.375 29.867187-29.867187v-84.304687c0-16.496094-13.375-29.867188-29.867187-29.867188h-134.835938c-16.496093 0-29.867187 13.371094-29.867187 29.867188zm0 0"
          fill="#ffeb96"/>
    <path d="m226.125 378.394531h-6.183594c-4.140625 0-7.5-3.359375-7.5-7.5s3.359375-7.5 7.5-7.5h6.183594c4.144531 0 7.5 3.359375 7.5 7.5s-3.355469 7.5-7.5 7.5zm0 0"
          fill="#252d4c"/>
    <path d="m284.839844 100.808594h-45.882813c-9.089843 0-17.035156-6.457032-18.894531-15.355469l-9.753906-46.617187h-9.648438c-4.144531 0-7.5-3.359376-7.5-7.5 0-4.140626 3.355469-7.5 7.5-7.5h9.648438c7.0625 0 13.238281 5.019531 14.683594 11.929687l9.75 46.617187c.414062 1.984376 2.1875 3.425782 4.214843 3.425782h45.882813c1.777344 0 3.398437-1.121094 4.027344-2.785156l13.71875-36.316407h-60.828126c-4.144531 0-7.5-3.359375-7.5-7.5s3.355469-7.5 7.5-7.5h64.886719c4.003907 0 7.753907 1.96875 10.03125 5.261719 2.277344 3.292969 2.792969 7.496094 1.375 11.242188l-15.152343 40.113281c-2.820313 7.464843-10.078126 12.484375-18.058594 12.484375zm0 0"
          fill="#5692d8"/>
    <path d="m240.289062 122.742188h-2.058593c-4.144531 0-7.5-3.355469-7.5-7.5 0-4.140626 3.355469-7.5 7.5-7.5h2.058593c4.144532 0 7.5 3.359374 7.5 7.5 0 4.144531-3.355468 7.5-7.5 7.5zm0 0"
          fill="#5692d8"/>
    <path d="m273.769531 122.742188h-2.058593c-4.144532 0-7.5-3.355469-7.5-7.5 0-4.140626 3.355468-7.5 7.5-7.5h2.058593c4.144531 0 7.5 3.359374 7.5 7.5 0 4.144531-3.355469 7.5-7.5 7.5zm0 0"
          fill="#5692d8"/>
</svg>